<svg width="96" height="96" viewBox="0 0 96 96" fill="none" xmlns="http://www.w3.org/2000/svg">
<circle cx="48" cy="48" r="48" fill="#F5F5F5" fill-opacity="0.53"/>
<path d="M48.3507 70.8607C59.855 70.8607 69.2288 61.5256 69.2288 50.0601C69.1901 38.5558 59.855 29.2207 48.3507 29.2207C36.8078 29.2207 27.4727 38.5558 27.4727 50.0213C27.4727 61.5256 36.8078 70.8607 48.3507 70.8607Z" fill="#F5F5F5" stroke="#E0E0E0" stroke-width="0.774697" stroke-miterlimit="10"/>
<path d="M70.4681 52.693C70.4681 57.1475 66.8657 60.7499 62.3725 60.7499C62.295 60.7499 61.6365 60.7499 56.7947 60.7499C53.4248 60.7499 48.0406 60.7499 39.4415 60.7499H35.3356C29.9514 60.8661 25.6519 56.5665 25.6519 51.376C25.6519 46.1468 29.9902 41.8085 35.4518 42.0797C40.1387 27.4379 61.5978 29.4908 63.4183 44.6362C67.4468 45.1397 70.4681 48.5484 70.4681 52.693Z" fill="white" stroke="#E0E0E0" stroke-width="0.774697" stroke-miterlimit="10"/>
<path d="M63.3033 44.6755C62.9934 44.6367 62.6835 44.6367 62.3736 44.6367C60.7855 44.6367 59.2748 45.1015 57.9966 45.915" fill="white"/>
<path d="M63.3033 44.6755C62.9934 44.6367 62.6835 44.6367 62.3736 44.6367C60.7855 44.6367 59.2748 45.1015 57.9966 45.915" stroke="#E0E0E0" stroke-width="0.774697" stroke-miterlimit="10" stroke-linecap="round"/>
<path d="M35.4521 42.0801C34.9873 43.4745 34.7549 44.9465 34.7549 46.4959C34.7549 47.1156 34.7936 47.6966 34.8711 48.2777" fill="white"/>
<path d="M35.4521 42.0801C34.9873 43.4745 34.7549 44.9465 34.7549 46.4959C34.7549 47.1156 34.7936 47.6966 34.8711 48.2777" stroke="#E0E0E0" stroke-width="0.774697" stroke-miterlimit="10" stroke-linecap="round" stroke-linejoin="round"/>
<path d="M44.1334 51.1779C44.7433 51.1779 45.2594 50.6618 45.2594 50.0518C45.2594 49.4419 44.7433 48.9258 44.1334 48.9258C43.5234 48.9258 43.0073 49.4419 43.0073 50.0518C43.0073 50.6618 43.5234 51.1779 44.1334 51.1779Z" fill="#E0E0E0"/>
<path d="M52.7662 51.1779C53.3761 51.1779 53.8922 50.6618 53.8922 50.0518C53.8922 49.4419 53.3761 48.9258 52.7662 48.9258C52.1562 48.9258 51.6401 49.4419 51.6401 50.0518C51.6401 50.7087 52.1562 51.1779 52.7662 51.1779Z" fill="#E0E0E0"/>
<path d="M44.0893 46.3266L41.6123 47.6641L41.9467 48.2833L44.4237 46.9459L44.0893 46.3266Z" fill="#E0E0E0"/>
<path d="M52.6136 46.3084L52.2793 46.9277L54.7566 48.2649L55.0909 47.6456L52.6136 46.3084Z" fill="#E0E0E0"/>
<path d="M48.4499 53.8065C49.1755 53.8065 49.7637 53.3654 49.7637 52.8212C49.7637 52.2771 49.1755 51.8359 48.4499 51.8359C47.7244 51.8359 47.1362 52.2771 47.1362 52.8212C47.1362 53.3654 47.7244 53.8065 48.4499 53.8065Z" fill="#E0E0E0"/>
<path d="M20.8408 34.7832C20.8408 34.7832 15.4262 36.1579 17.067 37.2577C18.7077 38.3025 22.5909 40.1172 26.2553 38.9074C29.9197 37.6977 26.2553 35.993 26.31 35.993C26.3647 35.993 20.8408 34.7832 20.8408 34.7832Z" fill="#F5F5F5" stroke="#E0E0E0" stroke-width="0.774697" stroke-miterlimit="10"/>
<path d="M14.2222 34.3441C16.1911 34.949 22.262 33.9592 26.1452 31.4297C29.2079 35.224 30.3565 36.2138 31.4503 36.3238C29.7549 38.0284 24.1215 40.7779 20.9494 37.2036C17.2303 39.5682 14.2222 34.3441 14.2222 34.3441Z" fill="white" stroke="#E0E0E0" stroke-width="0.774697" stroke-miterlimit="10" stroke-linejoin="round"/>
<path d="M64.604 48.0926C66.6823 48.2025 72.3157 45.673 75.3785 42.2637C79.3163 45.1781 80.6289 45.838 81.7775 45.673C80.5196 47.7626 76.6911 52.3268 71.2765 52.6567C67.3386 50.3471 64.604 48.0926 64.604 48.0926Z" fill="white" stroke="#E0E0E0" stroke-width="0.774697" stroke-miterlimit="10" stroke-linejoin="round"/>
<path d="M48.0133 73.8879C47.6021 71.8477 43.7491 67.022 39.6843 64.905C41.526 60.3653 41.8381 58.9297 41.3922 57.8584C43.7293 58.5562 49.1032 61.1271 50.7715 66.2888C49.5157 70.6779 48.0133 73.8879 48.0133 73.8879Z" fill="white" stroke="#E0E0E0" stroke-width="0.774697" stroke-miterlimit="10" stroke-linejoin="round"/>
</svg>
