<svg width="32" height="32" viewBox="0 0 32 32" fill="none" xmlns="http://www.w3.org/2000/svg">
  <path
    d="M23.2736 3.80611C23.2991 3.71099 23.3431 3.62182 23.4031 3.5437C23.4631 3.46559 23.5379 3.40005 23.6232 3.35083C23.7085 3.30162 23.8027 3.26969 23.9003 3.25687C23.998 3.24405 24.0972 3.25059 24.1924 3.27611C26.1161 3.79111 27.6924 4.98111 28.6486 6.62486C28.7481 6.79725 28.775 7.00209 28.7234 7.19432C28.6718 7.38654 28.546 7.55041 28.3736 7.64986C28.2012 7.74932 27.9964 7.77622 27.8041 7.72465C27.6119 7.67308 27.4481 7.54726 27.3486 7.37486C26.5986 6.07736 25.3411 5.13611 23.8048 4.72486C23.7096 4.69947 23.6203 4.65556 23.5421 4.59563C23.4638 4.5357 23.3981 4.46093 23.3488 4.37561C23.2994 4.29028 23.2674 4.19606 23.2545 4.09834C23.2416 4.00063 23.2481 3.90132 23.2736 3.80611ZM9.7911 28.4111C8.59235 27.4661 7.5936 26.2636 6.6486 24.6249C6.54914 24.4525 6.38528 24.3267 6.19305 24.2751C6.00083 24.2235 5.79599 24.2504 5.6236 24.3499C5.45121 24.4493 5.32539 24.6132 5.27382 24.8054C5.22224 24.9976 5.24914 25.2025 5.3486 25.3749C6.3936 27.1836 7.50985 28.5224 8.86235 29.5886C8.93942 29.652 9.02835 29.6993 9.12394 29.7279C9.21954 29.7564 9.31986 29.7656 9.41905 29.7549C9.51824 29.7442 9.6143 29.7138 9.70161 29.6655C9.78891 29.6173 9.8657 29.552 9.92748 29.4737C9.98927 29.3954 10.0348 29.3055 10.0614 29.2094C10.088 29.1132 10.0952 29.0127 10.0825 28.9138C10.0698 28.8148 10.0375 28.7194 9.98746 28.6331C9.93742 28.5468 9.87066 28.4713 9.7911 28.4111ZM28.3811 20.7861C27.7664 23.067 26.4185 25.0824 24.5452 26.5216C22.6718 27.9607 20.3771 28.7437 18.0149 28.7499C17.0692 28.7476 16.1278 28.6215 15.2149 28.3749C13.8505 28.014 12.5711 27.3863 11.4507 26.5281C10.3303 25.6699 9.3911 24.5982 8.68735 23.3749L3.93735 15.1474C3.64509 14.6425 3.49408 14.0684 3.50018 13.4851C3.50627 12.9018 3.66924 12.3309 3.97199 11.8323C4.27473 11.3337 4.70609 10.9257 5.22081 10.6513C5.73553 10.3768 6.31463 10.2459 6.89735 10.2724L6.27235 9.18111C5.87904 8.48728 5.75459 7.67305 5.92269 6.8934C6.09079 6.11376 6.5397 5.42315 7.18397 4.95303C7.82825 4.48291 8.62289 4.26611 9.41665 4.34389C10.2104 4.42168 10.9478 4.78862 11.4886 5.37486C11.7461 4.8439 12.1434 4.39309 12.6377 4.07078C13.1321 3.74848 13.7048 3.56686 14.2946 3.5454C14.8843 3.52395 15.4688 3.66346 15.9852 3.94899C16.5017 4.23452 16.9306 4.65527 17.2261 5.16611L19.3573 8.85611C19.6262 8.33904 20.029 7.90376 20.5238 7.59585C21.0186 7.28794 21.5871 7.11874 22.1697 7.10596C22.7523 7.09318 23.3277 7.2373 23.8355 7.52321C24.3433 7.80913 24.7649 8.22633 25.0561 8.73111L27.3061 12.6286C28.015 13.8491 28.4751 15.198 28.6596 16.5973C28.8441 17.9966 28.7494 19.4186 28.3811 20.7811V20.7861ZM26.0061 13.3786L23.7561 9.48111C23.6412 9.28208 23.4882 9.10763 23.3059 8.96771C23.1236 8.8278 22.9155 8.72517 22.6935 8.66569C22.2451 8.54555 21.7674 8.60842 21.3655 8.84049C21.1664 8.9554 20.992 9.10838 20.8521 9.29071C20.7122 9.47303 20.6095 9.68113 20.55 9.90312C20.4299 10.3515 20.4928 10.8291 20.7248 11.2311L21.9748 13.3961C22.0242 13.4814 22.0563 13.5755 22.0692 13.6732C22.0822 13.7709 22.0758 13.8701 22.0503 13.9653C22.0249 14.0605 21.981 14.1498 21.9211 14.228C21.8611 14.3062 21.7864 14.3718 21.7011 14.4211C20.725 14.9846 20.0127 15.9127 19.7208 17.0013C19.429 18.09 19.5815 19.2499 20.1448 20.2261C20.1962 20.3115 20.2301 20.4062 20.2445 20.5048C20.2588 20.6034 20.2534 20.7039 20.2285 20.8004C20.2036 20.8969 20.1597 20.9874 20.0994 21.0668C20.0392 21.1461 19.9637 21.2126 19.8774 21.2624C19.7911 21.3123 19.6957 21.3444 19.5969 21.357C19.498 21.3695 19.3977 21.3623 19.3017 21.3356C19.2057 21.309 19.1159 21.2634 19.0377 21.2017C18.9595 21.14 18.8943 21.0633 18.8461 20.9761C18.1506 19.7673 17.9173 18.3472 18.1895 16.9794C18.4617 15.6117 19.2208 14.3891 20.3261 13.5386L15.9261 5.91361C15.8112 5.71458 15.6582 5.54013 15.4759 5.40022C15.2936 5.2603 15.0855 5.15767 14.8635 5.09819C14.6415 5.0387 14.4099 5.02352 14.1821 5.05351C13.9542 5.0835 13.7345 5.15808 13.5355 5.27299C13.1335 5.50505 12.8402 5.88729 12.72 6.33562C12.5999 6.78395 12.6628 7.26165 12.8948 7.66361L16.1448 13.2886C16.1962 13.374 16.2301 13.4687 16.2445 13.5673C16.2588 13.6659 16.2534 13.7664 16.2285 13.8629C16.2036 13.9594 16.1597 14.0499 16.0994 14.1293C16.0392 14.2086 15.9637 14.2751 15.8774 14.3249C15.7911 14.3748 15.6957 14.4069 15.5969 14.4195C15.498 14.432 15.3977 14.4248 15.3017 14.3981C15.2057 14.3715 15.1159 14.3259 15.0377 14.2642C14.9595 14.2025 14.8943 14.1258 14.8461 14.0386L10.5961 6.67736C10.4812 6.47833 10.3282 6.30388 10.1459 6.16396C9.96355 6.02405 9.75546 5.92142 9.53346 5.86194C9.31147 5.80245 9.07994 5.78727 8.85208 5.81726C8.62423 5.84725 8.40451 5.92183 8.20547 6.03674C8.00644 6.15165 7.83199 6.30463 7.69208 6.48696C7.55216 6.66928 7.44954 6.87738 7.39005 7.09937C7.33056 7.32136 7.31538 7.5529 7.34537 7.78075C7.37536 8.00861 7.44994 8.22833 7.56485 8.42736L12.3148 16.6536C12.3662 16.739 12.4001 16.8337 12.4145 16.9323C12.4288 17.0309 12.4234 17.1314 12.3985 17.2279C12.3736 17.3244 12.3297 17.4149 12.2695 17.4943C12.2092 17.5736 12.1337 17.6401 12.0474 17.6899C11.9611 17.7398 11.8657 17.7719 11.7669 17.7845C11.668 17.797 11.5677 17.7898 11.4717 17.7631C11.3757 17.7365 11.2859 17.6909 11.2077 17.6292C11.1295 17.5675 11.0643 17.4908 11.0161 17.4036L8.2661 12.6411C8.15119 12.4421 7.99821 12.2676 7.81588 12.1277C7.63355 11.9878 7.42546 11.8852 7.20346 11.8257C6.98147 11.7662 6.74994 11.751 6.52208 11.781C6.29423 11.811 6.07451 11.8856 5.87547 12.0005C5.47351 12.2326 5.18019 12.6148 5.06005 13.0631C4.93991 13.5115 5.00278 13.9891 5.23485 14.3911L9.9861 22.6249C11.2187 24.7376 13.2379 26.2761 15.602 26.9037C17.9661 27.5314 20.4825 27.1972 22.6008 25.9742C24.7191 24.7512 26.2667 22.739 26.9051 20.3778C27.5435 18.0166 27.2207 15.4987 26.0074 13.3749L26.0061 13.3786Z"
    fill="currentColor" />
</svg>