<svg width="32" height="32" viewBox="0 0 32 32" fill="none" xmlns="http://www.w3.org/2000/svg">
  <path
    d="M14.7257 27.1814C14.6853 27.3438 14.5917 27.488 14.4599 27.591C14.3281 27.6941 14.1656 27.7501 13.9982 27.7502C13.9367 27.75 13.8754 27.7425 13.8157 27.7277L9.81572 26.7277C9.73256 26.7064 9.65355 26.6713 9.58197 26.6239L6.58197 24.6239C6.4999 24.5693 6.42939 24.499 6.37448 24.417C6.31957 24.3351 6.28133 24.2432 6.26195 24.1465C6.2228 23.9513 6.26283 23.7484 6.37322 23.5827C6.48362 23.4169 6.65534 23.3018 6.85062 23.2626C6.9473 23.2433 7.04686 23.2431 7.14361 23.2622C7.24036 23.2813 7.3324 23.3193 7.41447 23.3739L10.3057 25.3014L14.1807 26.2702C14.2764 26.2941 14.3664 26.3367 14.4456 26.3955C14.5248 26.4543 14.5916 26.5281 14.6422 26.6127C14.6929 26.6974 14.7263 26.7912 14.7406 26.8888C14.7549 26.9863 14.7499 27.0858 14.7257 27.1814ZM31.317 15.1064C31.2452 15.3244 31.1309 15.5261 30.9807 15.6997C30.8305 15.8732 30.6474 16.0153 30.442 16.1177L27.442 17.6177L20.5282 24.5314C20.3875 24.6716 20.1969 24.7503 19.9982 24.7502C19.9367 24.7501 19.8754 24.7425 19.8157 24.7277L11.8157 22.7277C11.7258 22.7043 11.6411 22.6645 11.5657 22.6102L4.61072 17.6452L1.55697 16.1177C1.14196 15.9101 0.82639 15.5462 0.67965 15.1059C0.532909 14.6657 0.567018 14.1852 0.774474 13.7702L3.88072 7.55892C4.08831 7.14391 4.45223 6.82833 4.89245 6.68159C5.33267 6.53485 5.81315 6.56896 6.22822 6.77642L9.07322 8.19892L15.792 6.27892C15.9268 6.24036 16.0697 6.24036 16.2045 6.27892L22.9232 8.19892L25.7682 6.77642C26.1833 6.56896 26.6638 6.53485 27.104 6.68159C27.5442 6.82833 27.9081 7.14391 28.1157 7.55892L31.222 13.7702C31.3252 13.9756 31.3868 14.1994 31.4031 14.4288C31.4194 14.6581 31.3901 14.8884 31.317 15.1064ZM2.22822 14.7764L4.66322 16.0002L7.99822 9.33517L5.55697 8.11767C5.49763 8.08819 5.42901 8.08349 5.36619 8.10458C5.30337 8.12568 5.2515 8.17085 5.22197 8.23017L2.11572 14.4414C2.08666 14.5006 2.08216 14.5689 2.10322 14.6314C2.113 14.6629 2.12914 14.692 2.15064 14.7169C2.17215 14.7419 2.19855 14.7621 2.22822 14.7764ZM23.8732 19.0614L20.032 15.9852C17.657 18.0327 14.5845 18.3352 12.057 16.7202C11.8358 16.5795 11.6491 16.3911 11.5106 16.1686C11.372 15.9462 11.2852 15.6954 11.2566 15.435C11.2279 15.1745 11.2581 14.9109 11.3449 14.6636C11.4317 14.4164 11.573 14.1918 11.7582 14.0064L17.4732 8.46142C17.5564 8.38124 17.6569 8.32135 17.767 8.28642L15.9982 7.78017L9.52197 9.62517L5.95572 16.7627L12.3182 21.3064L19.7682 23.1689L23.8732 19.0614ZM26.0832 16.8514L22.5345 9.75017H18.302L12.8132 15.0752C12.7889 15.1007 12.7705 15.1313 12.7595 15.1649C12.7485 15.1984 12.745 15.2339 12.7495 15.2689C12.7534 15.3071 12.766 15.3439 12.7864 15.3764C12.8067 15.4089 12.8343 15.4363 12.867 15.4564C14.5282 16.5177 17.1345 16.8152 19.4657 14.4664C19.5962 14.3355 19.7704 14.2573 19.955 14.2469C20.1395 14.2365 20.3214 14.2947 20.4657 14.4102L24.9432 18.0002L26.0832 16.8514ZM29.8782 14.4414L26.7745 8.23017C26.7449 8.17085 26.6931 8.12568 26.6303 8.10458C26.5674 8.08349 26.4988 8.08819 26.4395 8.11767L24.0045 9.33517L27.3332 16.0002L29.7682 14.7827C29.7979 14.7684 29.8243 14.7481 29.8458 14.7232C29.8673 14.6982 29.8835 14.6691 29.8932 14.6377C29.9045 14.6058 29.9092 14.572 29.9071 14.5383C29.9049 14.5045 29.896 14.4716 29.8807 14.4414H29.8782Z"
    fill="currentColor" />
</svg>