<svg width="32" height="32" viewBox="0 0 32 32" fill="none" xmlns="http://www.w3.org/2000/svg">
  <path
    d="M26.0307 15.4699C26.1004 15.5396 26.1557 15.6223 26.1935 15.7134C26.2312 15.8044 26.2506 15.902 26.2506 16.0006C26.2506 16.0991 26.2312 16.1967 26.1935 16.2878C26.1557 16.3788 26.1004 16.4615 26.0307 16.5312L15.7732 26.7812C14.5069 28.0469 12.7897 28.7578 10.9993 28.7575C9.20895 28.7571 7.49203 28.0456 6.22629 26.7793C4.96054 25.5131 4.24965 23.7959 4.25 22.0055C4.25035 20.2151 4.96192 18.4982 6.22816 17.2324L18.6369 4.64244C19.0778 4.20112 19.6013 3.85096 20.1776 3.61196C20.7538 3.37296 21.3715 3.2498 21.9953 3.24951C22.6192 3.24922 23.2369 3.37181 23.8134 3.61027C24.3899 3.84874 24.9137 4.19841 25.355 4.63932C25.7964 5.08023 26.1465 5.60375 26.3855 6.17999C26.6245 6.75623 26.7477 7.3739 26.748 7.99773C26.7483 8.62157 26.6257 9.23935 26.3872 9.81581C26.1487 10.3923 25.7991 10.9161 25.3582 11.3574L12.9482 23.9424C12.693 24.1981 12.39 24.401 12.0564 24.5396C11.7228 24.6781 11.3652 24.7496 11.0039 24.75C10.6427 24.7503 10.285 24.6795 9.95111 24.5416C9.61725 24.4037 9.31383 24.2014 9.05816 23.9462C8.80249 23.691 8.59959 23.388 8.46104 23.0544C8.32248 22.7208 8.25099 22.3632 8.25064 22.002C8.25029 21.6408 8.32109 21.283 8.45901 20.9491C8.59692 20.6153 8.79924 20.3119 9.05441 20.0562L19.4644 9.47244C19.5335 9.40219 19.6158 9.34623 19.7065 9.30777C19.7973 9.2693 19.8947 9.24909 19.9932 9.24828C20.0918 9.24746 20.1895 9.26607 20.2809 9.30303C20.3722 9.33999 20.4554 9.39459 20.5257 9.46369C20.5959 9.5328 20.6519 9.61507 20.6903 9.70581C20.7288 9.79654 20.749 9.89396 20.7498 9.99251C20.7506 10.0911 20.732 10.1888 20.6951 10.2801C20.6581 10.3715 20.6035 10.4547 20.5344 10.5249L10.1244 21.1137C10.008 21.2295 9.91559 21.3671 9.85239 21.5186C9.78918 21.6702 9.75644 21.8327 9.75603 21.9969C9.75563 22.161 9.78756 22.3237 9.85002 22.4755C9.91247 22.6274 10.0042 22.7654 10.12 22.8818C10.2358 22.9982 10.3734 23.0906 10.525 23.1538C10.6765 23.2171 10.839 23.2498 11.0032 23.2502C11.1674 23.2506 11.33 23.2187 11.4819 23.1562C11.6337 23.0938 11.7718 23.002 11.8882 22.8862L24.2932 10.2999C24.9032 9.69094 25.2462 8.86456 25.247 8.0026C25.2477 7.14063 24.9059 6.31369 24.2969 5.70369C23.6879 5.0937 22.8615 4.75061 21.9996 4.7499C21.1376 4.7492 20.3107 5.09094 19.7007 5.69994L7.29066 18.2849C6.30538 19.2691 5.7514 20.6043 5.75058 21.9969C5.74976 23.3894 6.30217 24.7253 7.28629 25.7106C8.2704 26.6958 9.60562 27.2498 10.9982 27.2507C12.3908 27.2515 13.7266 26.6991 14.7119 25.7149L24.9694 15.4649C25.0394 15.3955 25.1224 15.3406 25.2136 15.3033C25.3048 15.266 25.4025 15.247 25.5011 15.2475C25.5996 15.2479 25.6971 15.2678 25.788 15.306C25.8789 15.3442 25.9613 15.3999 26.0307 15.4699Z"
    fill="currentColor" />
</svg>