<svg width="32" height="32" viewBox="0 0 32 32" fill="none" xmlns="http://www.w3.org/2000/svg">
  <path
    d="M28.5284 27.4698L22.1059 21.0473C23.9373 18.9411 24.8795 16.2061 24.7337 13.4188C24.588 10.6315 23.3657 8.00965 21.3246 6.10596C19.2834 4.20226 16.5829 3.16543 13.7922 3.21404C11.0015 3.26264 8.33865 4.39288 6.36503 6.3665C4.39141 8.34012 3.26118 11.0029 3.21257 13.7936C3.16397 16.5843 4.20079 19.2849 6.10449 21.326C8.00819 23.3672 10.63 24.5895 13.4173 24.7352C16.2047 24.881 18.9397 23.9388 21.0459 22.1073L27.4684 28.5298C27.6106 28.6623 27.7986 28.7344 27.9929 28.731C28.1872 28.7276 28.3726 28.6489 28.51 28.5115C28.6474 28.3741 28.7261 28.1887 28.7296 27.9944C28.733 27.8001 28.6609 27.612 28.5284 27.4698ZM4.74838 13.9998C4.74838 12.1704 5.29088 10.382 6.30728 8.86082C7.32369 7.33966 8.76834 6.15407 10.4586 5.45396C12.1488 4.75385 14.0086 4.57067 15.803 4.92758C17.5973 5.28449 19.2455 6.16547 20.5391 7.45911C21.8328 8.75274 22.7137 10.4009 23.0706 12.1953C23.4276 13.9896 23.2444 15.8494 22.5443 17.5397C21.8442 19.2299 20.6586 20.6745 19.1374 21.6909C17.6162 22.7073 15.8279 23.2498 13.9984 23.2498C11.546 23.2469 9.195 22.2714 7.46093 20.5373C5.72686 18.8032 4.75136 16.4522 4.74838 13.9998Z"
    fill="currentColor" />
</svg>