<svg width="32" height="32" viewBox="0 0 32 32" fill="none" xmlns="http://www.w3.org/2000/svg">
  <path
    d="M27.6994 7.29747C26.3874 5.98812 24.6101 5.25192 22.7565 5.25005C20.9029 5.24817 19.1241 5.98077 17.8094 7.28747L15.9994 8.97247L14.1894 7.28747C12.8758 5.97548 11.0947 5.23906 9.23813 5.24024C7.38152 5.24141 5.60141 5.98007 4.28942 7.29372C2.97743 8.60737 2.24102 10.3884 2.24219 12.245C2.24336 14.1016 2.98202 15.8817 4.29567 17.1937L15.4657 28.5262C15.5354 28.5969 15.6185 28.653 15.7102 28.6913C15.8018 28.7296 15.9001 28.7493 15.9994 28.7493C16.0987 28.7493 16.197 28.7296 16.2887 28.6913C16.3803 28.653 16.4634 28.5969 16.5332 28.5262L27.6994 17.1987C28.3497 16.5487 28.8655 15.7769 29.2175 14.9275C29.5694 14.078 29.7506 13.1676 29.7506 12.2481C29.7506 11.3286 29.5694 10.4182 29.2175 9.56874C28.8655 8.71929 28.3497 7.94751 27.6994 7.29747ZM26.6344 16.1412L15.9994 26.9312L5.36067 16.1375C4.33522 15.1048 3.76083 13.7079 3.76331 12.2526C3.7658 10.7973 4.34494 9.40233 5.37391 8.3732C6.40287 7.34407 7.79776 6.7647 9.25305 6.76199C10.7083 6.75927 12.1054 7.33344 13.1382 8.35872C13.1442 8.3652 13.1509 8.37106 13.1582 8.37622L15.4882 10.5462C15.627 10.6756 15.8097 10.7475 15.9994 10.7475C16.1892 10.7475 16.3718 10.6756 16.5107 10.5462L18.8407 8.37497C18.8479 8.36981 18.8546 8.36395 18.8607 8.35747C19.371 7.84408 19.9777 7.43649 20.6459 7.15807C21.3142 6.87965 22.0308 6.73588 22.7547 6.73502C23.4786 6.73415 24.1955 6.87619 24.8644 7.153C25.5333 7.42981 26.141 7.83595 26.6525 8.34811C27.1641 8.86028 27.5696 9.46839 27.8456 10.1376C28.1217 10.8068 28.2629 11.5239 28.2613 12.2478C28.2596 12.9717 28.115 13.6881 27.8358 14.3561C27.5567 15.024 27.1484 15.6302 26.6344 16.14V16.1412Z"
    fill="currentColor" />
</svg>