<svg width="32" height="32" viewBox="0 0 32 32" fill="none" xmlns="http://www.w3.org/2000/svg">
  <path
    d="M10.6789 6.68143C10.6183 6.55258 10.5223 6.44364 10.4021 6.36732C10.2819 6.29101 10.1425 6.25049 10.0001 6.25049C9.85776 6.25049 9.71833 6.29101 9.59814 6.36732C9.47794 6.44364 9.38195 6.55258 9.32139 6.68143L1.32138 23.6814C1.23668 23.8614 1.22696 24.0677 1.29435 24.2549C1.36175 24.4421 1.50074 24.5949 1.68076 24.6796C1.86078 24.7643 2.06707 24.774 2.25425 24.7066C2.44144 24.6392 2.59418 24.5002 2.67888 24.3202L4.82889 19.7502H15.1714L17.3214 24.3189C17.3633 24.4081 17.4224 24.4881 17.4953 24.5544C17.5681 24.6207 17.6533 24.672 17.746 24.7053C17.8387 24.7387 17.9371 24.7535 18.0355 24.7489C18.1339 24.7442 18.2304 24.7202 18.3195 24.6783C18.4086 24.6364 18.4886 24.5773 18.5549 24.5044C18.6212 24.4316 18.6725 24.3464 18.7059 24.2537C18.7393 24.161 18.7541 24.0626 18.7494 23.9642C18.7448 23.8658 18.7208 23.7693 18.6789 23.6802L10.6789 6.68143ZM5.53513 18.2502L10.0001 8.76143L14.4651 18.2502H5.53513ZM25.0001 12.2502C23.4739 12.2502 22.2864 12.6602 21.4714 13.4677C21.4015 13.5371 21.3459 13.6196 21.3079 13.7106C21.2698 13.8015 21.2501 13.899 21.2497 13.9975C21.2494 14.0961 21.2684 14.1937 21.3058 14.2849C21.3432 14.3761 21.3982 14.459 21.4676 14.5289C21.6079 14.6702 21.7985 14.7499 21.9975 14.7506C22.096 14.7509 22.1937 14.7319 22.2849 14.6945C22.376 14.6571 22.459 14.6021 22.5289 14.5327C23.0514 14.0139 23.8839 13.7502 25.0001 13.7502C26.7926 13.7502 28.2501 14.9839 28.2501 16.5002V17.4052C27.3361 16.6503 26.1855 16.2414 25.0001 16.2502C22.3814 16.2502 20.2501 18.1564 20.2501 20.5002C20.2501 22.8439 22.3814 24.7502 25.0001 24.7502C26.1855 24.759 27.3361 24.35 28.2501 23.5952V24.0002C28.2501 24.1991 28.3292 24.3899 28.4698 24.5305C28.6105 24.6712 28.8012 24.7502 29.0001 24.7502C29.199 24.7502 29.3898 24.6712 29.5305 24.5305C29.6711 24.3899 29.7501 24.1991 29.7501 24.0002V16.5002C29.7501 14.1564 27.6251 12.2502 25.0001 12.2502ZM25.0001 23.2502C23.2076 23.2502 21.7501 22.0164 21.7501 20.5002C21.7501 18.9839 23.2076 17.7502 25.0001 17.7502C26.7926 17.7502 28.2501 18.9839 28.2501 20.5002C28.2501 22.0164 26.7926 23.2502 25.0001 23.2502Z"
    fill="currentColor" />
</svg>