<svg width="32" height="32" viewBox="0 0 32 32" fill="none" xmlns="http://www.w3.org/2000/svg">
  <path
    d="M28.6528 20.6248C28.7522 20.7975 28.779 21.0027 28.7272 21.1951C28.6754 21.3876 28.5492 21.5516 28.3765 21.6511C28.2038 21.7505 27.9986 21.7773 27.8062 21.7255C27.6137 21.6737 27.4497 21.5475 27.3503 21.3748L24.8503 16.9898C23.3719 18.0262 21.7213 18.7918 19.9753 19.251L20.7465 23.876C20.7628 23.9732 20.7598 24.0727 20.7376 24.1687C20.7155 24.2647 20.6746 24.3554 20.6174 24.4356C20.5601 24.5158 20.4877 24.584 20.4041 24.6362C20.3205 24.6884 20.2274 24.7236 20.1303 24.7398C20.0889 24.7462 20.0471 24.7495 20.0053 24.7498C19.8281 24.7496 19.6568 24.6868 19.5216 24.5724C19.3864 24.458 19.296 24.2994 19.2665 24.1248L18.5015 19.5548C16.845 19.8151 15.158 19.8151 13.5015 19.5548L12.7415 24.1248C12.7119 24.2996 12.6214 24.4584 12.4859 24.5728C12.3505 24.6872 12.1788 24.7499 12.0015 24.7498C11.9596 24.7495 11.9179 24.7462 11.8765 24.7398C11.7793 24.7234 11.6863 24.6881 11.6027 24.6357C11.5192 24.5834 11.4468 24.5151 11.3897 24.4348C11.3326 24.3544 11.2919 24.2636 11.2699 24.1676C11.2479 24.0715 11.245 23.972 11.2615 23.8748L12.0328 19.2498C10.2867 18.7906 8.63609 18.0249 7.15775 16.9886L4.65275 21.3748C4.5533 21.5475 4.3893 21.6737 4.19684 21.7255C4.00438 21.7773 3.79922 21.7505 3.6265 21.6511C3.45378 21.5516 3.32764 21.3876 3.27583 21.1951C3.22403 21.0027 3.2508 20.7975 3.35025 20.6248L5.9565 16.0648C5.0293 15.2824 4.17917 14.413 3.41775 13.4686C3.29277 13.3137 3.23441 13.1156 3.2555 12.9178C3.2766 12.7199 3.37543 12.5385 3.53025 12.4135C3.68507 12.2886 3.8832 12.2302 4.08105 12.2513C4.2789 12.2724 4.46027 12.3712 4.58525 12.5261C6.694 15.1386 10.3853 18.2498 16.0015 18.2498C21.6178 18.2498 25.309 15.1386 27.4178 12.5286C27.5427 12.3737 27.7241 12.2749 27.922 12.2538C28.1198 12.2327 28.3179 12.2911 28.4728 12.4161C28.6276 12.541 28.7264 12.7224 28.7475 12.9203C28.7686 13.1181 28.7102 13.3162 28.5853 13.471C27.8238 14.4155 26.9737 15.2849 26.0465 16.0673L28.6528 20.6248Z"
    fill="currentColor" />
</svg>