<svg width="32" height="32" viewBox="0 0 32 32" fill="none" xmlns="http://www.w3.org/2000/svg">
  <path
    d="M20.5006 9.75C21.1434 9.75 21.7718 9.55939 22.3062 9.20228C22.8407 8.84516 23.2573 8.33758 23.5033 7.74372C23.7492 7.14986 23.8136 6.4964 23.6882 5.86596C23.5628 5.23552 23.2533 4.65642 22.7987 4.2019C22.3442 3.74738 21.7651 3.43785 21.1347 3.31245C20.5042 3.18705 19.8508 3.25141 19.2569 3.49739C18.6631 3.74338 18.1555 4.15994 17.7984 4.6944C17.4412 5.22886 17.2506 5.85721 17.2506 6.5C17.2506 7.36196 17.5931 8.1886 18.2025 8.7981C18.812 9.40759 19.6387 9.75 20.5006 9.75ZM20.5006 4.75C20.8468 4.75 21.1851 4.85264 21.4729 5.04493C21.7607 5.23722 21.985 5.51053 22.1174 5.83031C22.2499 6.15008 22.2845 6.50194 22.217 6.84141C22.1495 7.18088 21.9828 7.4927 21.7381 7.73744C21.4933 7.98218 21.1815 8.14885 20.842 8.21638C20.5026 8.2839 20.1507 8.24924 19.8309 8.11679C19.5112 7.98434 19.2379 7.76004 19.0456 7.47225C18.8533 7.18446 18.7506 6.84612 18.7506 6.5C18.7506 6.03587 18.935 5.59075 19.2632 5.26256C19.5914 4.93438 20.0365 4.75 20.5006 4.75ZM31.6456 24.6175L24.8256 13.1075C24.6721 12.8462 24.4529 12.6295 24.1898 12.4791C23.9266 12.3287 23.6287 12.2497 23.3256 12.25C23.0225 12.2494 22.7245 12.3283 22.4613 12.4788C22.1981 12.6292 21.979 12.846 21.8256 13.1075L18.3406 18.9888L12.5206 9.11375C12.3661 8.85117 12.1456 8.6335 11.8811 8.48226C11.6166 8.33103 11.3172 8.25148 11.0125 8.25148C10.7078 8.25148 10.4084 8.33103 10.1439 8.48226C9.87939 8.6335 9.65895 8.85117 9.50439 9.11375L0.354391 24.625C0.288702 24.7388 0.254051 24.8678 0.253907 24.9992C0.253763 25.1306 0.288131 25.2597 0.35357 25.3736C0.41901 25.4875 0.513226 25.5822 0.626786 25.6483C0.740346 25.7144 0.869266 25.7494 1.00064 25.75H31.0006C31.133 25.75 31.263 25.7149 31.3775 25.6484C31.4919 25.5818 31.5867 25.4862 31.6522 25.3712C31.7177 25.2561 31.7516 25.1258 31.7505 24.9935C31.7493 24.8611 31.7132 24.7314 31.6456 24.6175ZM10.7844 9.875C10.8064 9.83712 10.8379 9.80567 10.8759 9.78381C10.9138 9.76195 10.9568 9.75044 11.0006 9.75044C11.0444 9.75044 11.0875 9.76195 11.1254 9.78381C11.1634 9.80567 11.1949 9.83712 11.2169 9.875L14.3844 15.25H7.61689L10.7844 9.875ZM2.31314 24.25L6.73314 16.75H15.2694L17.6819 20.8463L19.6819 24.2463L2.31314 24.25ZM21.4294 24.25L19.1981 20.4638L23.1044 13.875C23.1262 13.8372 23.1575 13.8058 23.1952 13.7839C23.233 13.7619 23.2758 13.7503 23.3194 13.75C23.3632 13.7493 23.4064 13.7606 23.4442 13.7827C23.4821 13.8047 23.5133 13.8366 23.5344 13.875L29.6844 24.25H21.4294Z"
    fill="currentColor" />
</svg>