<svg width="32" height="32" viewBox="0 0 32 32" fill="none" xmlns="http://www.w3.org/2000/svg">
  <path
    d="M22.5308 16.5298L12.5308 26.5298C12.3886 26.6623 12.2006 26.7344 12.0063 26.731C11.812 26.7276 11.6266 26.6489 11.4892 26.5115C11.3518 26.3741 11.2731 26.1887 11.2696 25.9944C11.2662 25.8001 11.3383 25.612 11.4708 25.4698L20.9396 15.9998L11.4708 6.52985C11.3383 6.38767 11.2662 6.19963 11.2696 6.00532C11.2731 5.81102 11.3518 5.62564 11.4892 5.48822C11.6266 5.35081 11.812 5.2721 12.0063 5.26867C12.2006 5.26524 12.3886 5.33737 12.5308 5.46985L22.5308 15.4698C22.6713 15.6105 22.7502 15.8011 22.7502 15.9998C22.7502 16.1986 22.6713 16.3892 22.5308 16.5298Z"
    fill="currentColor" />
</svg>