<svg width="40" height="51" viewBox="0 0 40 51" fill="none" xmlns="http://www.w3.org/2000/svg">
    <g clip-path="url(#clip0_592_822)">
    <path d="M35.0001 8.36597H5.00008C3.16675 8.36597 1.66675 10.2483 1.66675 12.549V39.7385C1.66675 42.0392 3.16675 43.9215 5.00008 43.9215H35.0001C36.8334 43.9215 38.3334 42.0392 38.3334 39.7385V12.549C38.3334 10.2483 36.8334 8.36597 35.0001 8.36597ZM5.00008 39.7385V12.549H18.3334V39.7385H5.00008ZM35.0001 39.7385H21.6667V12.549H35.0001V39.7385ZM23.3334 19.8692H33.3334V23.0065H23.3334V19.8692ZM23.3334 25.098H33.3334V28.2352H23.3334V25.098ZM23.3334 30.3268H33.3334V33.464H23.3334V30.3268Z" fill="#474747"/>
    </g>
    <defs>
    <clipPath id="clip0_592_822">
    <rect width="40" height="50.1961" fill="white"/>
    </clipPath>
    </defs>
    </svg>
    