<svg width="193" height="200" viewBox="0 0 193 200" fill="none" xmlns="http://www.w3.org/2000/svg">
  <path
    d="M65.7529 152.749C67.5081 152.127 69.3064 151.634 71.1333 151.275L71.3544 152.085C71.3792 152.181 71.4375 152.264 71.5187 152.32C71.5999 152.376 71.6986 152.401 71.7967 152.391L79.0303 151.548C81.0203 147.01 84.6739 140.135 84.7266 140.029C84.6739 138.313 84.7266 136.871 84.7266 135.228C80.5886 136.765 72.9338 139.682 68.9327 141.546C68.8423 141.604 68.7723 141.689 68.7327 141.789C68.693 141.889 68.6857 141.999 68.7116 142.104C68.7116 142.104 68.7853 142.367 68.8801 142.746C66.9216 142.746 61.0569 142.462 59.646 143.799C59.4266 144.104 59.3188 144.476 59.3406 144.852C59.2564 146.305 59.9829 157.592 61.1411 160.909C61.7413 162.646 63.0048 162.457 63.8682 160.793C64.8675 158.288 65.509 155.654 65.774 152.97C65.774 152.833 65.7424 152.843 65.7529 152.749ZM64.542 143.325C65.8266 143.22 66.2267 143.241 68.9854 143.157C69.4802 145.031 70.5016 148.884 71.028 150.853C69.1703 151.141 67.3367 151.567 65.5423 152.127C64.9832 149.223 64.6488 146.28 64.542 143.325Z"
    fill="#2A5D4F" />
  <path
    d="M162.666 51.1732C162.929 50.8047 162.592 50.3309 162.308 49.9623C163.113 49.134 164.006 48.3961 164.972 47.7617C166.601 46.9499 168.09 45.8836 169.383 44.603C169.92 44.0449 170.931 42.8972 170.552 42.2234C170.173 41.5495 169.499 41.5074 168.583 41.897C168.98 41.4803 169.304 40.9997 169.541 40.4755C169.836 39.6542 169.141 38.9909 167.635 39.6016C168.183 38.7277 168.309 37.8116 167.383 37.3694C166.635 37.0114 165.54 37.8643 164.908 38.4223C163.668 39.5062 162.503 40.6742 161.423 41.918C160.76 40.5282 159.707 38.9277 158.391 39.4331C157.075 39.9385 158.096 42.2023 158.77 43.4342L156.38 45.0873C156.019 44.8923 155.61 44.8012 155.2 44.8241C152.484 45.2874 140.007 54.7847 138.743 54.7847C137.775 54.7847 123.939 48.1513 111.978 46.235C111.955 46.1632 111.912 46.0995 111.854 46.0511C111.797 46.0026 111.726 45.9715 111.652 45.9612C109.565 45.6052 107.45 45.4466 105.334 45.4874C105.27 45.4917 105.207 45.51 105.151 45.5409C105.095 45.5718 105.046 45.6146 105.008 45.6664H104.123C103.913 44.8135 103.133 42.8446 102.86 42.0865C103.576 41.4653 104.565 41.1494 105.081 40.1491C106.029 38.296 105.987 35.074 105.724 33.0103C106.913 32.1048 106.945 30.6517 106.671 29.1671C106.566 28.5669 106.24 27.2087 105.734 26.8717C105.45 26.6822 104.85 26.8717 104.334 27.0613C103.818 25.8609 103.818 26.4085 104.028 25.9241C104.126 25.7009 104.183 25.462 104.197 25.2187C104.755 25.3871 105.913 24.271 105.513 22.7969C105.303 22.2692 105.046 21.7617 104.744 21.2807C104.892 20.9227 105.208 20.491 104.218 19.1749C103.792 18.7151 103.238 18.3925 102.628 18.2483H102.144C101.794 17.7411 101.281 17.3693 100.691 17.1954C99.7989 16.968 98.8534 17.1004 98.0583 17.5639C97.8478 17.7218 97.6793 17.9324 97.4687 18.0798C96.9926 17.7907 96.4463 17.6379 95.8893 17.6379C95.3323 17.6379 94.786 17.7907 94.3099 18.0798C94.0312 18.1892 93.7775 18.3538 93.564 18.5637C93.3505 18.7736 93.1816 19.0244 93.0675 19.3012C92.5516 19.1232 92.0042 19.0547 91.4604 19.1C90.9165 19.1453 90.3881 19.3035 89.9087 19.5645C88.0898 20.5508 86.7292 22.2099 86.1182 24.1868C86.1012 24.4849 86.1012 24.7837 86.1182 25.0818H86.0024C84.423 24.8501 82.4119 28.5985 84.0229 31.5151C84.2124 31.8626 84.4546 32.189 84.6862 32.5681C85.3601 33.621 85.0969 33.9369 86.6025 35.2214C87.0448 35.6005 87.1185 35.5689 87.3922 35.8005C87.666 36.0322 87.5607 35.9164 87.7186 36.506C87.8047 36.8533 87.9589 37.1801 88.1722 37.4675C88.3854 37.7549 88.6536 37.9971 88.9611 38.1801C89.073 39.21 89.5121 40.1769 90.2141 40.9388C90.4364 41.1875 90.6956 41.4006 90.9827 41.5705C91.0602 41.6142 91.1466 41.6394 91.2354 41.6443C91.5513 43.6027 91.9409 46.1508 92.1093 47.2353L91.1722 47.7407C89.9461 48.234 88.7538 48.8073 87.6028 49.4569C87.5125 49.5194 87.4487 49.6132 87.4238 49.7202C86.3077 50.3098 85.2548 50.8679 84.6546 51.2258C76.2944 56.1851 52.551 88.8784 52.3088 90.3735C52.2821 90.4592 52.2821 90.551 52.3088 90.6367C52.6492 91.1797 53.0638 91.6723 53.5408 92.1003C53.3938 92.3684 53.2172 92.6192 53.0143 92.8479C50.9085 94.2272 47.7497 96.2804 46.0545 98.1125C45.9356 98.2185 45.8464 98.3537 45.7957 98.5047C45.745 98.6557 45.7345 98.8173 45.7654 98.9735C45.7962 99.1298 45.8672 99.2754 45.9715 99.3958C46.0757 99.5162 46.2096 99.6074 46.3598 99.6603C46.6757 99.7656 46.7284 99.734 48.7816 98.6074C48.2173 99.1023 47.7558 99.7033 47.4233 100.376C47.2864 100.955 47.8129 101.292 48.4762 101.187C48.8494 101.089 49.2048 100.933 49.5291 100.724C49.3392 101.017 49.2382 101.359 49.2382 101.708C49.2382 102.058 49.3392 102.399 49.5291 102.693C50.5821 104.019 53.3407 99.8393 54.7937 98.8074C55.3834 99.555 56.1836 101.303 57.4576 100.84C58.5632 100.429 57.3523 97.9967 57.4576 97.2912C57.8861 96.8799 58.3435 96.4998 58.8264 96.1541C59.6387 96.7564 60.5674 97.1831 61.5535 97.407C63.2908 97.407 81.4222 79.1072 82.8015 77.6437C82.3066 82.2976 79.8112 102.272 80.3377 106.157C80.5798 107.915 84.8021 108.168 86.5815 108.263C86.0445 120.898 85.6865 140.04 85.5917 140.24C82.8015 146.252 82.0434 147.895 81.1063 149.716C79.4006 152.98 72.2196 165.026 71.4089 167.763C71.293 168.195 71.2825 168.364 71.7353 169.164C70.3784 170.59 69.1191 172.106 67.9658 173.702C67.3867 174.755 69.8716 184.568 71.63 188.043C72.0301 188.822 72.6829 190.022 73.5568 189.991C76.1891 189.896 76.1786 180.441 76.1049 177.798C76.1045 177.716 76.0746 177.638 76.0207 177.577C76.4978 176.864 77.0182 176.182 77.579 175.534C77.9137 175.764 78.2657 175.968 78.6319 176.145C78.9899 176.303 79.39 176.029 79.6848 175.787C83.1911 173.028 102.102 149.464 106.155 138.345C107.998 133.27 110.451 126.257 111.146 121.287C111.571 118.145 111.61 114.963 111.262 111.811C111.262 111.766 111.28 111.723 111.311 111.692C111.343 111.66 111.386 111.643 111.43 111.643C111.475 111.643 111.518 111.66 111.55 111.692C111.581 111.723 111.599 111.766 111.599 111.811C112.126 114.981 112.229 118.206 111.904 121.403C111.125 128.3 105.682 142.672 102.775 147.958C105.281 147.495 110.378 146.484 112.841 145.747C121.054 143.251 128.635 135.807 129.299 127.447C129.513 123.508 129.513 119.561 129.299 115.623C129.228 110.185 128.521 104.775 127.193 99.5023C129.425 98.2915 131.468 96.87 132.131 95.5644C133.552 92.7742 129.793 76.7171 128.972 72.2106C133.468 72.7055 141.123 73.6005 144.692 70.8102C148.778 67.5251 157.601 58.2804 162.666 51.1732ZM75.5363 177.219C73.6411 176.071 70.9877 173.344 70.5876 171.206C71.0193 170.659 71.472 170.153 71.8932 169.585C73.3202 171.762 75.0993 173.687 77.1578 175.281C76.5795 175.894 76.0381 176.541 75.5363 177.219ZM159.244 43.729C159.298 43.6943 159.337 43.64 159.353 43.5773C159.369 43.5147 159.36 43.4484 159.328 43.3921C158.959 42.7077 157.854 40.2965 158.622 40.0227C159.065 39.8543 159.454 40.128 159.781 40.4966C160.279 41.1289 160.667 41.8408 160.928 42.6024C160.948 42.6643 160.984 42.7198 161.032 42.7628C161.081 42.8059 161.14 42.8349 161.204 42.8468C161.268 42.8587 161.334 42.853 161.395 42.8304C161.456 42.8077 161.509 42.769 161.55 42.7182C162.603 41.5495 165.066 38.8856 166.456 38.1696C167.509 37.6221 167.762 38.6329 165.182 40.9914C164.59 41.4432 164.02 41.9247 163.476 42.4339C163.446 42.4753 163.43 42.525 163.43 42.5761C163.43 42.6271 163.446 42.6769 163.476 42.7182C163.476 42.992 163.698 43.2973 164.077 43.0131C164.992 42.2096 165.959 41.4675 166.972 40.7914C167.489 40.4241 168.09 40.1924 168.72 40.1175C168.404 41.0862 165.466 43.7185 165.214 44.0133C165.134 44.0852 165.085 44.1856 165.078 44.293C165.071 44.4004 165.107 44.5062 165.177 44.5876C165.248 44.669 165.347 44.7196 165.454 44.7283C165.562 44.7371 165.668 44.7034 165.751 44.6345C166.919 43.8764 168.962 42.1075 169.668 42.3708C170.373 42.634 168.278 44.5924 167.751 45.0557C164.729 47.6775 165.509 45.9928 162.013 49.5517C160.491 47.8848 158.744 46.4389 156.822 45.2558L159.244 43.729ZM113.494 94.0903C113.315 92.6373 113.094 91.0684 112.82 89.4364L113.273 88.8362C115.379 86.1302 116.011 81.8238 115.811 78.4439C116.937 83.3821 117.832 88.2361 118.517 93.0585L113.494 94.0903ZM97.8372 58.0383C95.068 55.9324 90.6142 52.2998 88.024 49.8149L92.2357 47.7091C96.1031 51.3215 99.4136 55.4872 102.059 60.0704C106.105 67.5022 109.106 75.4566 110.978 83.7085L95.963 62.4711L97.9215 58.4068C97.9474 58.3442 97.9532 58.2751 97.9381 58.2091C97.923 58.1431 97.8878 58.0834 97.8372 58.0383ZM104.955 46.0981C105.018 46.2139 105.745 47.7617 106.85 50.4677C106.85 50.5836 106.65 53.2159 106.555 54.1424C105.212 53.6098 103.944 52.9017 102.786 52.0366C103.018 51.1206 104.06 46.9615 104.134 46.0244L104.955 46.0981ZM101.217 57.4065C101.291 57.217 101.365 56.9643 101.449 56.6695L102.154 57.038C102.554 57.3012 102.396 56.501 102.754 58.8174C102.754 59.207 102.86 59.6387 102.881 60.1125C102.396 59.2386 101.796 58.3015 101.228 57.4065H101.217ZM100.627 56.522C98.6382 53.7006 96.3739 51.0835 93.8677 48.7094L101.796 52.1524C101.491 52.8789 101.049 55.1006 100.638 56.522H100.627ZM108.724 62.6922C107.672 59.8177 106.861 56.6063 106.461 55.7639C106.484 55.5013 106.484 55.2369 106.461 54.9743C106.613 55.031 106.772 55.0664 106.934 55.0795C107.036 55.0807 107.135 55.0451 107.212 54.9793C107.289 54.9135 107.34 54.822 107.356 54.7215C107.44 54.3741 107.577 52.6157 107.598 52.2261C110.661 59.9593 113.218 67.8835 115.253 75.9485C109.304 63.2923 110.22 66.9565 108.735 62.6922H108.724ZM117.432 82.7925C115.031 71.284 110.809 56.9327 106.008 46.2982C107.771 46.2991 109.532 46.44 111.273 46.7193C112.168 54.7215 111.42 54.4478 112.02 54.7637C112.62 55.0795 116.232 56.5326 116.769 56.7537C116.716 57.5644 117.474 80.7498 117.443 82.7925H117.432ZM105.313 27.5456C105.862 28.7435 106.056 30.0736 105.871 31.3783C105.785 31.7103 105.609 32.012 105.362 32.2499C105.115 32.4878 104.807 32.6524 104.472 32.7255C104.137 32.7987 103.788 32.7774 103.464 32.6641C103.141 32.5508 102.855 32.3498 102.639 32.0837C102.136 31.0254 101.758 29.9124 101.512 28.767C101.796 28.3985 104.829 27.6614 105.313 27.5456ZM90.8248 38.0748C90.4401 37.8997 90.0465 37.7451 89.6455 37.6116C89.3764 37.5009 89.1361 37.3302 88.9432 37.1123C88.7503 36.8945 88.6098 36.6353 88.5326 36.3548C88.4553 36.0743 88.4434 35.7798 88.4976 35.4939C88.5518 35.208 88.6707 34.9383 88.8453 34.7055C89.5086 34.1474 90.1088 34.179 90.6563 35.0108C91.0038 35.6531 90.9932 35.7058 91.1512 35.7689C91.1965 35.7889 91.2455 35.799 91.295 35.7984C91.3445 35.7979 91.3934 35.7868 91.4382 35.7658C91.4831 35.7449 91.523 35.7146 91.5552 35.677C91.5874 35.6394 91.6112 35.5954 91.625 35.5478C91.781 34.8888 91.8061 34.2055 91.6987 33.5367C91.5723 32.8102 91.5513 29.5883 91.5723 29.483C91.8799 29.6451 92.2254 29.7215 92.5726 29.7041C94.4784 29.6304 94.8575 28.6512 95.6156 27.851C96.4895 27.9352 96.6685 28.3564 97.6582 27.851C98.1217 27.5873 98.5468 27.2614 98.9217 26.8823C99.2244 27.0062 99.5166 27.154 99.7957 27.3245C100.427 27.628 101.138 27.7212 101.826 27.5904C102.514 27.4596 103.142 27.1118 103.618 26.598C103.734 26.8191 103.839 27.0402 103.934 27.2719C102.966 27.5721 102.055 28.0311 101.238 28.6301C101.059 28.8512 101.322 30.0516 101.386 30.3359C100.504 30.4468 99.65 30.7218 98.8691 31.1466C98.7112 30.5991 98.3637 29.5778 97.8162 29.2935C97.6515 29.2431 97.4755 29.2431 97.3108 29.2935C96.3631 29.4409 92.9622 30.4622 92.5516 31.0203C92.1936 31.4098 93.2149 34.4212 93.5308 34.9161C94.7416 36.7903 98.29 36.2428 98.9533 34.0527C99.1176 33.3177 99.1176 32.5555 98.9533 31.8205C99.2587 31.8205 100.175 31.4941 100.28 31.4625C101.007 33.0945 101.217 33.1893 102.059 34.9477C101.944 35.0424 101.754 35.2004 101.596 35.3057C100.849 35.8005 100.691 35.7163 100.733 35.9269C100.745 35.9687 100.772 36.0046 100.809 36.0278C100.846 36.0511 100.89 36.0601 100.933 36.0532C101.375 35.9901 101.807 35.8697 102.217 35.6952C102.463 35.6035 102.666 35.4233 102.786 35.1898C103.081 34.5265 101.449 32.0311 100.806 31.2835C100.933 31.2835 101.228 31.0729 101.449 30.9571C101.744 32.1364 101.944 33.0629 103.081 33.5262C103.409 33.6503 103.76 33.7068 104.111 33.6923C104.462 33.6778 104.806 33.5927 105.123 33.442C105.292 35.2951 105.26 38.3065 104.376 39.949C103.923 40.8019 102.807 41.1283 102.091 41.8338C101.88 42.0338 102.017 42.3181 102.091 42.6235C103.26 45.877 103.281 45.8665 103.218 46.2876C102.908 48.0357 102.475 49.7598 101.923 51.447C101.659 51.3311 98.7006 49.7623 92.9095 47.509C92.7306 46.3192 91.7724 39.9701 91.467 38.8014C91.4881 38.3907 91.4355 38.296 90.8248 38.0222V38.0748ZM98.1952 33.7789C97.8583 34.9266 96.2684 35.4215 95.1312 35.1056C93.9941 34.7897 93.9204 34.2106 93.3834 32.8418C93.1317 32.3189 92.9579 31.762 92.8674 31.1887C93.2149 30.8097 97.016 30.0305 97.4898 29.9568C98.1543 31.0937 98.4037 32.426 98.1952 33.7263V33.7789ZM56.9944 96.9964C56.5942 97.386 57.1312 98.66 57.2155 99.7656C57.2155 99.8603 57.2155 100.271 57.1523 100.303C56.5732 100.492 56.0362 99.6182 55.7098 99.0917C55.3834 98.5652 55.057 97.8493 54.541 98.0388C53.4881 98.5337 51.0453 101.777 50.0872 102.114C49.6028 101.187 52.372 98.5442 52.4668 98.3968C52.5074 98.3291 52.5287 98.2516 52.5283 98.1726C52.528 98.0937 52.506 98.0163 52.4647 97.949C52.4235 97.8817 52.3645 97.827 52.2944 97.7909C52.2242 97.7547 52.1454 97.7385 52.0667 97.744C51.8772 97.744 51.7508 97.9124 51.456 98.1757C50.5593 99.0509 49.5329 99.7825 48.413 100.345C49.4283 99.1799 50.5149 98.0792 51.6666 97.049C51.7234 96.9906 51.7635 96.9178 51.7824 96.8385C51.7824 96.8385 51.5613 96.2804 51.1296 96.5015C50.5189 96.8385 47.5496 98.5547 46.6125 98.9969C46.4862 98.9127 46.5599 98.7864 46.6125 98.66C48.0972 96.8385 51.3612 94.6273 53.3618 93.2269C53.5966 92.9851 53.792 92.708 53.9409 92.4057C55.3264 93.6948 56.8044 94.8807 58.3632 95.954C57.883 96.2689 57.4256 96.6172 56.9944 96.9964ZM81.4959 106.567C81.2642 106.42 81.0958 106.283 81.0642 106.094C80.4851 101.798 83.707 77.4542 83.6544 76.496C83.6544 76.4398 83.6431 76.3841 83.6213 76.3323C83.5995 76.2805 83.5675 76.2336 83.5273 76.1944C83.4871 76.1551 83.4394 76.1243 83.3871 76.1038C83.3348 76.0833 83.2789 76.0734 83.2227 76.0748C82.6857 76.0748 83.6333 76.0748 70.2191 88.9205C69.3346 89.7523 62.5748 96.2172 61.4482 96.6489C59.9004 96.5331 54.0778 91.8897 53.1301 90.4262C54.9622 86.7199 77.1789 56.2272 84.8652 51.5628C85.4549 51.2048 86.4657 50.6467 87.5712 50.0571C87.9535 50.4177 88.3656 50.7452 88.8032 51.0363C91.2459 53.3527 94.6469 56.2378 97.2265 58.4068L95.2155 62.3974C95.185 62.4502 95.1689 62.5101 95.1689 62.5711C95.1689 62.6321 95.185 62.692 95.2155 62.7448C111.546 86.1724 111.304 85.9091 111.409 85.9091C112.456 91.3227 113.107 96.8054 113.357 102.314C113.357 103.798 113.357 103.672 113.42 103.567C113.484 103.461 113.42 103.64 113.42 103.64C110.872 106.42 85.6549 109.01 81.4959 106.567ZM139.701 71.6841C134.932 72.3475 129.541 71.3577 128.498 71.3156C127.919 68.5087 126.765 65.8522 125.108 63.5135C125.083 63.4794 125.045 63.4561 125.004 63.4483C124.962 63.4405 124.919 63.4487 124.883 63.4713C124.847 63.4939 124.821 63.5293 124.81 63.5703C124.799 63.6113 124.804 63.6549 124.824 63.6924C125.434 64.9349 127.477 70.2943 127.982 71.5999C127.824 72.1053 132.742 92.4372 131.352 95.1748C130.109 97.6492 122.876 100.766 120.264 101.661C119.748 95.7991 118.905 89.9709 117.737 84.2034C118.095 81.171 117.632 63.1449 117.495 56.4799C117.491 56.4025 117.465 56.3278 117.421 56.2644C117.376 56.2011 117.314 56.1517 117.243 56.1219L112.515 54.1319C112.493 51.6297 112.335 49.1306 112.041 46.6456C123.844 48.6883 137.596 55.4375 138.743 55.4481C140.407 55.4481 152.768 45.9718 155.327 45.5927C156.464 45.4137 161.35 49.6781 161.918 50.8573C156.927 57.8277 148.156 66.9881 144.092 70.1574C142.783 71.0328 141.271 71.5584 139.701 71.6841Z"
    fill="#2A5D4F" />
  <path
    d="M97.1105 31.673C97.0973 31.6039 97.0707 31.538 97.0321 31.4792C96.9935 31.4203 96.9437 31.3696 96.8855 31.33C96.8274 31.2905 96.762 31.2627 96.6931 31.2484C96.6242 31.2341 96.5531 31.2334 96.484 31.2466C96.4148 31.2597 96.349 31.2863 96.2901 31.3249C96.2313 31.3635 96.1806 31.4133 96.141 31.4715C96.1014 31.5297 96.0737 31.5951 96.0593 31.664C96.045 31.7329 96.0444 31.8039 96.0575 31.8731C96.2681 32.926 96.3102 33.1682 96.7735 33.1682C96.8611 33.1685 96.9474 33.1469 97.0245 33.1055C97.1016 33.064 97.1672 33.004 97.2153 32.9308C97.2634 32.8576 97.2925 32.7736 97.2999 32.6864C97.3074 32.5991 97.2929 32.5114 97.2579 32.4311C97.2263 32.2627 97.1315 31.7678 97.1105 31.673ZM100.332 38.6434C101.017 38.8434 101.67 38.517 101.649 38.3485C101.628 38.1801 101.649 38.2643 100.722 37.9169C100.101 37.6852 99.4164 36.8639 99.1742 36.9903C98.932 37.1166 99.3005 37.7905 99.3848 37.9169C99.61 38.2586 99.9439 38.5145 100.332 38.6434ZM119.59 28.6406C118.211 34.4211 117.2 39.3278 117.032 40.307C116.92 40.733 116.898 41.1778 116.969 41.6126C117.527 42.8024 124.739 45.1504 125.655 44.6871C126.571 44.2239 128.951 38.8645 131.72 33.3366C133.416 33.3908 135.114 33.2673 136.785 32.9681C138.544 32.6454 140.256 32.1042 141.881 31.3571C145.44 29.7146 149.335 22.6811 149.862 19.1432C150.257 15.3022 149.443 11.4337 147.535 8.07702C138.701 -7.24301 112.788 1.00138 114.894 18.0166C115.496 21.91 117.116 25.5752 119.59 28.6406ZM126.013 41.1809C126.013 41.3494 125.824 41.3283 124.96 41.1809C123.194 40.959 121.484 40.4128 119.917 39.5699C119.18 39.1698 118.98 39.0856 119.053 38.9066C119.127 38.7276 119.285 38.7908 120.422 39.1067C120.527 39.1067 123.792 40.1596 124.729 40.486C125.939 41.0335 126.013 41.0335 126.013 41.1809ZM125.824 24.0499C126.948 24.1082 128.068 23.8761 129.077 23.376C130.015 23.8302 131.029 24.1052 132.068 24.1867C130.299 27.4824 126.708 34.2 125.55 37.78L121.086 36.548C122.138 33.9579 124.465 27.893 125.803 24.0499H125.824ZM125.455 23.1759C124.669 23.0572 123.944 22.6839 123.39 22.1133C122.837 21.5428 122.486 20.8064 122.391 20.0172C122.096 17.9113 123.444 15.5528 125.476 16.1108C126.75 16.4583 126.908 17.4691 126.687 18.7431C126.498 19.6697 125.813 21.9967 125.434 23.1338L125.455 23.1759ZM128.319 20.6489C128.432 19.9599 128.69 19.303 129.077 18.7221C129.261 18.4054 129.531 18.1468 129.855 17.9755C130.178 17.8043 130.544 17.7273 130.909 17.7534C131.688 17.985 132.025 19.4591 131.383 20.3857C130.766 21.2048 129.997 21.8982 129.119 22.4284C128.817 22.251 128.577 21.9855 128.43 21.6674C128.283 21.3493 128.237 20.9939 128.298 20.6489H128.319ZM118.643 7.26627C123.36 1.59101 132.236 -0.662241 138.648 1.67525C142.132 2.87099 145.062 5.2921 146.893 8.48766C148.708 11.6818 149.484 15.3616 149.114 19.0169C148.63 22.2915 144.903 29.0934 141.628 30.599C138.634 31.9647 135.367 32.6274 132.078 32.5364C131.72 32.5364 131.341 32.5364 131.204 32.7891C130.583 34.0526 129.446 36.4954 128.33 38.7908C127.559 38.4186 126.76 38.1088 125.939 37.8642C127.161 34.3685 131.015 27.5034 132.847 24.1762C134.434 24.3122 136.03 24.0366 137.48 23.376C137.871 23.1698 138.196 22.8562 138.416 22.4719C138.635 22.0876 138.741 21.6486 138.72 21.2065C138.699 20.7643 138.552 20.3373 138.297 19.9756C138.042 19.6139 137.689 19.3324 137.279 19.1643C135.647 18.3641 134.184 20.2804 133.331 21.8914C133.099 22.3125 132.836 22.8074 132.541 23.3655C131.69 23.3095 130.85 23.1359 130.046 22.8495C130.847 22.2868 131.557 21.6051 132.152 20.8279C132.485 20.3245 132.654 19.73 132.635 19.1265C132.616 18.523 132.411 17.9402 132.046 17.4586C131.76 17.1264 131.363 16.9099 130.929 16.8498C130.495 16.7897 130.053 16.8901 129.688 17.1322C128.951 17.5853 128.36 18.2416 127.986 19.0223C127.612 19.803 127.472 20.6749 127.582 21.5334C127.697 22.018 127.958 22.4555 128.33 22.7863C127.639 23.0724 126.898 23.2157 126.15 23.2075C126.571 21.9651 127.256 19.7223 127.435 18.8063C127.547 18.284 127.572 17.7468 127.508 17.2164C127.427 16.7611 127.216 16.339 126.9 16.0009C126.584 15.6628 126.178 15.4231 125.729 15.3106C123.17 14.5841 121.286 17.4164 121.654 20.0593C121.758 21.0064 122.165 21.8947 122.813 22.5926C123.462 23.2906 124.318 23.7609 125.255 23.934C123.907 27.7246 121.801 33.842 120.749 36.4533L118.432 35.8531C119.917 28.3984 120.096 28.5774 119.885 28.4827C117.493 25.4324 115.962 21.7964 115.452 17.9534C115.204 16.0479 115.36 14.1115 115.91 12.2702C116.459 10.4289 117.391 8.7239 118.643 7.26627ZM133.257 23.4286C133.994 22.0914 135.468 19.1643 136.9 19.8803C137.187 19.9957 137.436 20.1871 137.622 20.4339C137.807 20.6807 137.922 20.9735 137.953 21.2807C137.932 23.1338 135.047 23.4602 133.215 23.4286H133.257ZM173.563 28.072C174.832 27.3258 176.331 27.071 177.775 27.356C179.361 27.3844 180.877 28.0187 182.01 29.1288C183.144 30.2389 183.81 31.7407 183.871 33.3261C182.917 32.7726 181.802 32.5644 180.713 32.7365C178.07 32.9681 174.616 34.4001 175.079 36.9482C175.458 39.054 178.238 38.7697 180.344 38.2011C182.45 37.6326 184.124 36.6007 184.556 34.5686C187.114 36.4322 187.714 39.6963 187.82 42.8866C187.82 42.9313 187.837 42.9742 187.869 43.0058C187.901 43.0374 187.944 43.0551 187.988 43.0551C188.033 43.0551 188.076 43.0374 188.107 43.0058C188.139 42.9742 188.157 42.9313 188.157 42.8866C188.23 39.3172 187.588 35.8215 184.672 33.7894C184.702 32.8752 184.546 31.9645 184.213 31.1123C183.881 30.2601 183.38 29.4842 182.739 28.8315C182.098 28.1789 181.331 27.6631 180.485 27.3154C179.639 26.9676 178.732 26.7952 177.817 26.8085C176.355 26.5951 174.865 26.9006 173.605 27.6719C173.216 27.8614 173.395 28.1457 173.563 28.072ZM183.166 35.6215C181.976 37.1798 178.607 37.9906 177.048 37.7273C176.469 37.6326 175.995 37.3904 175.869 36.7902C175.49 34.6844 179.123 33.5367 181.292 33.463C182.175 33.3953 183.056 33.6211 183.798 34.1053C183.718 34.6558 183.501 35.1773 183.166 35.6215ZM168.741 15.7634C169.867 14.3735 169.109 11.9518 165.961 11.9412C164.74 11.9412 164.15 13.1837 164.234 14.3735C164.424 17.2059 167.614 17.1216 168.741 15.7634ZM164.971 14.3208C164.971 13.6259 165.298 12.7204 166.024 12.7309C167.719 12.7309 168.499 13.5206 168.499 14.3946C168.457 16.3846 164.834 17.4164 164.971 14.3208ZM164.54 133.691C155.284 129.995 150.989 147.884 143.429 163.257C143.381 163.903 143.402 164.552 143.492 165.194C143.492 166.805 143.671 177.471 144.608 178.682C144.861 179.166 145.924 178.682 146.419 178.377C150.622 175.775 154.583 172.801 158.254 169.49C158.285 169.454 158.309 169.412 158.323 169.367C158.338 169.322 158.343 169.274 158.338 169.227C160.296 166.437 167.635 151.906 169.415 144.62C170.657 139.461 169.425 135.618 164.54 133.691ZM167.846 147.063C162.891 146.428 158.1 144.863 153.726 142.451C156.19 137.787 159.233 132.469 164.255 134.47C169.846 136.692 169.731 141.293 167.846 147.031V147.063ZM150.325 174.439C150.002 174.168 149.649 173.935 149.272 173.744C147.849 173.02 146.206 172.862 144.671 173.302C144.566 172.049 143.966 163.899 143.966 163.825C151.852 166.71 149.42 165.457 157.232 169.343C156.411 170.122 153.326 172.28 150.325 174.418V174.439ZM155.758 143.967C156.785 144.528 157.839 145.038 158.917 145.494C156.504 149.285 154.371 153.247 152.536 157.35C150.767 161.046 150.831 161.025 149.03 165.057C147.977 164.72 146.924 164.404 145.871 164.089C147.008 161.825 155.095 145.273 155.758 143.946V143.967ZM149.441 165.163C152.863 159.024 156.348 151.39 159.338 145.631C160.391 146.073 161.444 146.431 162.497 146.747C161.939 147.8 160.307 150.601 159.875 151.411C159.443 152.222 155.116 160.751 154.811 161.404C154.326 162.457 153 165.394 152.589 166.331C151.515 165.857 150.483 165.499 149.399 165.141L149.441 165.163ZM152.968 166.468C153.61 165.299 156.253 160.393 156.58 159.761C157.074 158.782 162.592 147.505 162.897 146.852C163.866 147.126 164.887 147.358 165.54 147.484C163.613 152.749 158.064 162.888 156.064 167.89C154.242 167.037 153.831 166.826 152.926 166.447L152.968 166.468ZM153.61 142.756L155.495 143.809C151.697 150.277 148.388 157.021 145.598 163.983L144.018 163.499C150.136 150.464 150.42 148.758 153.568 142.735L153.61 142.756ZM157.948 168.806L156.358 168.048C158.075 164.678 163.445 156.034 165.898 147.558C166.488 147.663 167.067 147.758 167.625 147.831C164.919 155.051 161.67 162.056 157.906 168.785L157.948 168.806ZM124.96 175.639C125.38 175.292 125.68 174.821 125.818 174.294C125.956 173.767 125.925 173.21 125.729 172.701C125.64 171.968 125.303 171.286 124.775 170.77C124.247 170.253 123.558 169.931 122.823 169.857C122.088 169.784 121.349 169.963 120.729 170.365C120.109 170.767 119.644 171.368 119.411 172.07C118.064 171.196 116.6 170.269 115.2 169.385C116.253 167.984 119.348 168.606 119.664 169.753C119.671 169.798 119.695 169.838 119.732 169.865C119.769 169.891 119.814 169.902 119.859 169.895C119.904 169.888 119.944 169.864 119.97 169.827C119.997 169.791 120.008 169.745 120.001 169.701C119.843 167.869 116.031 166.795 114.494 168.953C113.136 168.121 111.451 167.11 110.04 166.342C111.251 165.289 113.957 165.879 114.252 166.974C114.266 167.011 114.293 167.042 114.327 167.062C114.362 167.082 114.403 167.088 114.442 167.081C114.481 167.073 114.517 167.052 114.541 167.021C114.566 166.989 114.58 166.95 114.578 166.91C114.442 165.205 110.914 164.057 109.314 165.931C108.643 165.555 107.938 165.245 107.208 165.005C107.075 164.949 106.928 164.934 106.786 164.96C106.644 164.986 106.513 165.053 106.408 165.152C103.744 168.469 94.7624 177.082 90.6139 178.082C90.5096 178.098 90.4113 178.141 90.3289 178.206C90.2465 178.272 90.1828 178.358 90.1444 178.457C90.106 178.555 90.0941 178.662 90.11 178.766C90.1259 178.87 90.1689 178.968 90.2349 179.051C91.1458 179.975 92.1891 180.759 93.3305 181.378C92.2775 182.43 91.4563 183.378 90.8456 184.063C90.5297 184.399 90.3612 190.843 90.635 192.265C90.6758 192.404 90.7655 192.524 90.8877 192.602C92.2144 193.507 109.303 200.899 111.051 199.909C112.22 199.246 126.171 184.726 126.392 184.284C126.729 183.589 126.613 178.956 126.592 177.103C126.508 176.545 125.466 175.944 124.96 175.639ZM91.2667 189.548V187.2C95.6364 189.306 105.639 193.602 109.43 194.802C110.398 195.118 110.483 195.076 110.988 194.802C113.884 192.949 124.107 181.43 125.982 179.672V181.893C120.296 187.59 110.641 197.572 110.462 197.003C109.419 196.94 92.1723 189.969 91.2667 189.548ZM124.697 172.091C125.076 172.729 125.279 173.455 125.287 174.197C125.283 174.433 125.225 174.665 125.117 174.875C125.01 175.085 124.855 175.267 124.665 175.407C123.781 174.818 122.107 173.723 120.127 172.438C121.212 170.301 123.623 170.269 124.655 172.091H124.697ZM91.0035 178.829C95.489 177.503 104.007 169.29 106.871 165.731C107.56 165.923 108.225 166.195 108.851 166.542C107.798 168.5 108.924 170.648 109.324 170.343C109.545 170.174 109.145 170.111 109.082 169.079C109.055 168.326 109.226 167.578 109.577 166.91C111.03 167.669 112.736 168.658 114.178 169.49C113.294 171.459 114.357 173.407 114.726 173.123C115.094 172.838 114.557 172.902 114.494 171.87C114.469 171.193 114.598 170.519 114.873 169.901C116.358 170.775 117.874 171.68 119.264 172.533C119.05 173.058 118.965 173.626 119.016 174.19C119.067 174.755 119.253 175.299 119.559 175.776C119.573 175.794 119.59 175.809 119.609 175.82C119.629 175.832 119.651 175.839 119.673 175.842C119.696 175.845 119.719 175.843 119.741 175.837C119.762 175.832 119.783 175.821 119.801 175.808C119.819 175.794 119.834 175.777 119.845 175.757C119.857 175.737 119.864 175.716 119.867 175.693C119.87 175.671 119.868 175.648 119.862 175.626C119.857 175.604 119.846 175.583 119.833 175.565C119.643 175.147 119.55 174.692 119.559 174.233C119.568 173.774 119.68 173.323 119.885 172.912C122.338 174.407 124.318 175.66 124.929 176.071C124.813 176.176 113.831 185.947 110.093 188.853C107.64 188.211 94.7624 181.82 91.0035 178.829ZM91.4036 184.694C96.1734 186.8 107.008 191.686 109.503 192.159C109.935 192.244 110.104 192.275 110.925 191.622C114.431 188.811 125.834 176.882 125.939 177.008C125.945 177.039 125.945 177.071 125.939 177.103V179.209C123.591 181.093 110.535 194.802 110.325 194.15C109.272 194.15 92.1617 187.169 91.2878 186.779C91.2667 186.337 91.3615 185.158 91.4036 184.694ZM110.577 199.204C109.524 199.804 93.4884 193.286 91.3404 191.959C91.2598 191.289 91.2211 190.613 91.2246 189.938C95.8364 192.212 109.251 197.877 110.483 197.824C112.283 197.729 125.013 183.399 125.918 182.399C125.929 182.937 125.876 183.474 125.76 183.999C125.581 184.347 111.272 198.814 110.577 199.204ZM23.3427 139.85C23.4164 140.977 23.469 141.956 23.469 142.872C23.469 143.012 23.5245 143.146 23.6232 143.244C23.722 143.343 23.8559 143.399 23.9955 143.399C24.1351 143.399 24.269 143.343 24.3678 143.244C24.4665 143.146 24.522 143.012 24.522 142.872C24.522 141.893 24.4693 140.924 24.3956 139.777C24.3858 139.637 24.321 139.507 24.2154 139.415C24.1097 139.323 23.9719 139.277 23.8323 139.287C23.6927 139.297 23.5627 139.362 23.4708 139.467C23.379 139.573 23.3329 139.711 23.3427 139.85ZM183.777 118.739C183.708 118.743 183.641 118.761 183.579 118.791C183.517 118.822 183.462 118.864 183.417 118.916C183.372 118.968 183.337 119.029 183.316 119.094C183.295 119.16 183.286 119.229 183.292 119.297C183.355 120.266 183.419 121.308 183.419 122.319C183.419 122.459 183.474 122.593 183.573 122.691C183.671 122.79 183.805 122.846 183.945 122.846C184.085 122.846 184.219 122.79 184.317 122.691C184.416 122.593 184.471 122.459 184.471 122.319C184.471 121.266 184.408 120.213 184.335 119.224C184.331 119.155 184.313 119.088 184.283 119.026C184.252 118.964 184.21 118.909 184.158 118.864C184.106 118.819 184.045 118.784 183.98 118.763C183.914 118.742 183.845 118.733 183.777 118.739ZM20.6156 137.229C20.7553 137.229 20.8892 137.173 20.9879 137.074C21.0866 136.976 21.1421 136.842 21.1421 136.702C21.1421 136.562 21.0866 136.429 20.9879 136.33C20.8892 136.231 20.7553 136.176 20.6156 136.176C19.3416 136.176 18.2781 136.27 17.2252 136.249C17.0846 136.249 16.9496 136.304 16.8492 136.403C16.7488 136.501 16.691 136.635 16.6882 136.776C16.6882 136.915 16.7437 137.049 16.8424 137.148C16.9412 137.247 17.0751 137.302 17.2147 137.302C18.2992 137.323 19.489 137.281 20.6156 137.229ZM180.512 115.623C179.249 115.623 178.186 115.696 177.122 115.707C176.982 115.707 176.849 115.762 176.75 115.861C176.651 115.96 176.596 116.094 176.596 116.233C176.596 116.373 176.651 116.507 176.75 116.606C176.849 116.704 176.982 116.76 177.122 116.76C178.259 116.76 179.438 116.76 180.576 116.675C180.715 116.667 180.846 116.604 180.939 116.499C181.031 116.394 181.079 116.257 181.071 116.117C181.062 115.978 180.999 115.847 180.894 115.754C180.789 115.662 180.652 115.614 180.512 115.623ZM23.0584 130.721C23.1216 131.69 23.1848 132.733 23.1848 133.743C23.1875 133.882 23.2438 134.014 23.3419 134.113C23.4401 134.211 23.5724 134.267 23.7112 134.27C23.8508 134.27 23.9848 134.214 24.0835 134.116C24.1822 134.017 24.2377 133.883 24.2377 133.743C24.2377 132.69 24.1745 131.637 24.1113 130.648C24.1016 130.508 24.0367 130.378 23.9311 130.286C23.8254 130.194 23.6876 130.148 23.548 130.158C23.4084 130.168 23.2784 130.233 23.1865 130.338C23.0947 130.444 23.0486 130.582 23.0584 130.721ZM184.187 113.19C184.187 112.137 184.124 111.084 184.05 110.095C184.041 109.955 183.976 109.825 183.87 109.733C183.764 109.641 183.627 109.595 183.487 109.605C183.347 109.615 183.217 109.68 183.126 109.785C183.034 109.891 182.988 110.029 182.997 110.168C183.061 111.137 183.124 112.179 183.124 113.19C183.124 113.33 183.179 113.464 183.278 113.563C183.377 113.661 183.511 113.717 183.65 113.717C183.791 113.717 183.926 113.662 184.026 113.563C184.127 113.465 184.184 113.331 184.187 113.19ZM30.829 137.092C30.8981 137.089 30.9661 137.073 31.0289 137.044C31.0918 137.015 31.1483 136.974 31.1952 136.923C31.2421 136.872 31.2786 136.812 31.3025 136.747C31.3264 136.682 31.3372 136.613 31.3344 136.544C31.3237 136.406 31.2614 136.278 31.1599 136.184C31.0583 136.09 30.9251 136.038 30.7869 136.039C29.5128 136.091 28.4494 136.133 27.3859 136.112C27.2463 136.112 27.1124 136.168 27.0137 136.267C26.9149 136.365 26.8595 136.499 26.8595 136.639C26.8595 136.779 26.9149 136.912 27.0137 137.011C27.1124 137.11 27.2463 137.165 27.3859 137.165C28.5125 137.186 29.6918 137.144 30.829 137.092ZM190.726 115.486C189.673 115.538 188.504 115.57 187.335 115.57C187.266 115.567 187.197 115.578 187.132 115.603C187.066 115.628 187.007 115.665 186.957 115.713C186.907 115.762 186.867 115.819 186.84 115.883C186.812 115.947 186.798 116.016 186.798 116.086C186.798 116.226 186.854 116.361 186.952 116.462C187.05 116.562 187.184 116.62 187.325 116.623C188.525 116.623 189.494 116.623 190.768 116.539C190.837 116.536 190.905 116.52 190.968 116.491C191.031 116.462 191.087 116.42 191.134 116.37C191.181 116.319 191.218 116.259 191.241 116.194C191.265 116.129 191.276 116.06 191.273 115.991C191.26 115.854 191.197 115.727 191.096 115.634C190.995 115.54 190.863 115.488 190.726 115.486ZM6.63281 105.894C6.76969 105.999 36.4621 101.598 37.7361 100.818C37.8067 100.767 37.863 100.698 37.8999 100.619C37.9367 100.54 37.9528 100.453 37.9467 100.366C37.9467 99.0074 36.1673 86.2565 35.3144 83.0767C35.2091 82.6871 35.1038 82.2975 34.8617 82.1607C33.2507 81.192 4.8639 86.5408 3.16869 87.6359C3.12275 87.663 3.08306 87.6995 3.05221 87.7431C3.02137 87.7866 3.00006 87.8362 2.9897 87.8886C2.6317 89.1626 5.71677 105.262 6.63281 105.894ZM3.63198 88.1413C5.65359 87.2252 31.4186 82.5081 34.3668 82.8766C35.0828 84.7193 36.9991 98.2177 37.1255 100.197C35.6619 100.629 7.03292 105.546 6.92763 105.567C6.82234 105.588 6.81181 105.715 6.59069 105.051C5.66412 102.271 3.57934 90.5209 3.63198 88.1413Z"
    fill="#2A5D4F" />
  <path
    d="M40.0523 101.756C40.1096 101.649 40.1352 101.529 40.126 101.408C40.126 99.7339 37.7254 81.1499 36.8725 79.6652C36.8057 79.5558 36.711 79.466 36.5982 79.4049C36.4854 79.3439 36.3584 79.3138 36.2302 79.3178C32.7029 78.8861 2.94735 84.6982 0.988917 86.0565C0.715157 86.246 0.757273 86.7198 0.788861 87.2252C0.957328 89.9944 3.94763 108.21 5.00055 108.105C5.11637 108.105 5.07426 108.02 4.8005 108.578C3.15794 111.958 0.0412862 122.782 0.104462 124.962C0.104462 125.878 0.315045 127.068 1.22056 127.005C7.71709 126.204 39.568 121.15 48.7284 119.266C49.0864 119.192 49.3181 118.866 49.3075 118.329C49.1994 117.434 48.9282 116.567 48.5073 115.77C47.2227 113.359 41.895 103.809 40.0523 101.756ZM5.06373 107.778C4.24245 106.725 1.22056 88.5835 1.4522 86.5724C3.76863 85.3721 33.1241 79.6968 36.1987 80.1601C37.041 82.4765 39.2205 99.2075 39.3574 101.219C35.6301 102.503 9.82294 106.673 5.06373 107.778ZM5.52701 108.094C6.41147 107.873 36.5356 102.83 39.2942 102.103C40.7999 103.503 47.6018 115.601 48.044 116.633C42.0003 117.686 6.14824 123.677 0.873095 124.478C0.946799 121.287 4.22139 110.137 5.52701 108.094Z"
    fill="#2A5D4F" />
  <path
    d="M9.48571 119.013C10.4018 118.876 29.8387 116.539 36.8617 114.633C36.905 114.622 36.9421 114.594 36.9648 114.555C36.9875 114.517 36.994 114.471 36.9828 114.427C36.9716 114.384 36.9437 114.347 36.9052 114.324C36.8667 114.302 36.8207 114.295 36.7775 114.306C35.3981 114.591 18.5724 116.833 9.46465 118.687C9.43949 118.682 9.41363 118.683 9.38903 118.69C9.36442 118.697 9.34172 118.71 9.32265 118.727C9.30358 118.744 9.28863 118.765 9.27893 118.788C9.26924 118.812 9.26506 118.838 9.26671 118.863C9.26835 118.889 9.27578 118.914 9.28844 118.936C9.30109 118.958 9.31863 118.977 9.33973 118.991C9.36084 119.006 9.38495 119.015 9.41024 119.019C9.43553 119.023 9.46134 119.021 9.48571 119.013ZM23.6896 45.7506C23.2963 46.6389 22.9656 47.5537 22.6999 48.4882C22.6842 48.6381 22.7256 48.7885 22.8157 48.9094C23.8792 50.5098 34.7769 62.7974 37.6198 64.5242C38.0094 64.7664 38.4727 64.9348 38.757 64.5874C40.8221 62.0177 43.5173 60.0262 46.5802 58.8068C49.0731 57.9248 51.6868 57.4312 54.3297 57.3433C56.4355 57.1537 56.8041 56.9432 57.6148 55.5638C58.5712 53.7486 59.8401 52.1161 61.3632 50.7414C63.3053 49.0433 65.461 47.6062 67.7755 46.4666C67.8797 46.4075 67.9612 46.3154 68.0069 46.2047C68.0527 46.0941 68.0602 45.9713 68.0282 45.8559C67.6723 44.9502 67.2016 44.0938 66.6278 43.3078C67.0069 43.1815 67.428 43.0656 67.428 42.6866C67.428 41.6337 58.2466 28.3458 55.6985 25.8398C55.4353 25.5766 55.0562 25.2291 54.7087 25.2502C49.4441 25.545 44.3164 30.5148 41.3471 34.8528C37.9462 34.7265 35.7456 34.4211 31.8708 36.0532C29.1354 37.2143 26.6692 38.9277 24.6267 41.0861C24.3109 41.4125 22.1629 43.6869 22.1313 43.8659C22.0997 44.0449 22.1629 44.0449 23.6896 45.7506ZM65.8065 45.4558C61.4159 46.2034 58.6151 49.857 56.5514 53.8265C55.6353 55.5954 55.7195 55.6797 54.7509 55.6586C53.057 55.5627 51.3578 55.6261 49.6758 55.8481C48.4421 56.0325 47.2291 56.3358 46.0537 56.7536C43.3793 57.7013 40.3153 60.7337 38.6833 62.9869C38.6486 63.0333 38.6045 63.0718 38.5539 63.0999C38.5033 63.128 38.4474 63.1451 38.3897 63.1501C38.332 63.1551 38.274 63.1478 38.2193 63.1287C38.1647 63.1097 38.1146 63.0793 38.0726 63.0396C34.6506 59.5123 28.5963 53.3211 25.5533 49.7622C25.4059 49.6043 25.6586 49.3726 25.806 49.5411C27.775 51.647 32.8606 56.6905 38.3147 62.1762C40.1573 59.8282 43.0002 56.9853 45.8115 55.9955C47.3446 55.4487 48.9397 55.095 50.5602 54.9426C52.0778 54.8274 53.6018 54.8274 55.1194 54.9426C55.7406 54.2266 58.8151 46.0981 65.7855 45.1925C65.8059 45.2075 65.8227 45.2269 65.8345 45.2492C65.8464 45.2716 65.8531 45.2963 65.8541 45.3216C65.8552 45.3469 65.8504 45.3721 65.8404 45.3953C65.8303 45.4186 65.8152 45.4392 65.796 45.4558H65.8065ZM54.6982 26.1031C56.8041 27.5771 65.3748 40.2649 66.4909 42.4865C64.5543 43.1002 62.6846 43.908 60.9104 44.8977C59.2304 45.7399 57.7593 46.9464 56.6045 48.429C55.4497 49.9117 54.6402 51.6334 54.2349 53.4685C50.4549 47.3194 45.1798 40.5492 41.6736 35.5688C41.8841 35.4319 47.8016 26.5137 54.6982 26.1031ZM32.1025 36.6323C35.9457 35.0845 38.0726 35.4425 41.2524 35.5794C44.4112 40.9703 50.0864 48.5724 53.8243 53.5527C50.3743 52.7364 46.744 53.2357 43.6425 54.9531C41.7788 56.0061 39.5045 58.5331 38.1041 60.1019C36.0825 58.4804 24.4162 46.0559 22.5419 43.9501C25.427 40.686 28.0909 38.2327 32.1025 36.5902V36.6323ZM12.834 63.4081C12.5738 63.2255 12.2661 63.1223 11.9484 63.1111C11.6307 63.0999 11.3165 63.1811 11.044 63.3449C10.8456 63.4334 10.6666 63.5601 10.5171 63.7178C10.3677 63.8755 10.2507 64.0611 10.173 64.264C10.0953 64.4669 10.0583 64.6831 10.0641 64.9002C10.0699 65.1174 10.1185 65.3313 10.207 65.5297C10.2955 65.7282 10.4222 65.9072 10.5799 66.0567C10.7375 66.2061 10.9231 66.323 11.126 66.4008C11.3289 66.4785 11.5451 66.5155 11.7623 66.5097C11.9794 66.5039 12.1934 66.4553 12.3918 66.3668C12.7088 66.2975 12.9972 66.1335 13.2188 65.8965C13.4404 65.6595 13.5848 65.3608 13.6328 65.0399C13.6807 64.719 13.63 64.3911 13.4874 64.0997C13.3447 63.8083 13.1169 63.5671 12.834 63.4081ZM12.1391 65.514C11.402 65.7456 10.9598 65.514 10.7808 65.156C10.4439 64.4084 10.865 63.2607 11.9601 63.5976C12.7287 63.8819 13.3499 65.177 12.1391 65.5666V65.514ZM66.3751 15.2264C66.6805 15.8476 68.1019 15.6159 68.7231 15.4159C69.0495 15.3106 69.2601 15.1948 69.2917 14.8789C69.3865 14.0892 69.4918 7.24521 69.1338 6.58187C69.0968 6.51231 69.0401 6.45522 68.9708 6.41776C68.9015 6.3803 68.8227 6.36413 68.7442 6.37128C67.6208 6.36816 66.5031 6.53138 65.4275 6.85563C64.9958 7.11886 65.9961 14.5314 66.3751 15.2264ZM65.6486 7.10833C66.6212 6.96918 67.6049 6.92335 68.5863 6.97145C68.6494 7.75061 68.481 14.4998 68.4704 14.6051C68.0256 14.7645 67.5506 14.8221 67.0806 14.7736C67.0069 14.5314 66.8805 13.8786 66.7226 13.0573C66.2586 11.0949 65.9001 9.10909 65.6486 7.10833ZM11.8127 54.5214C11.9137 54.5732 12.0256 54.6002 12.1391 54.6002C12.2526 54.6002 12.3645 54.5732 12.4655 54.5214C12.8723 54.2705 13.1949 53.9039 13.3921 53.4685C13.4188 53.3988 13.4271 53.3234 13.416 53.2496C13.4049 53.1758 13.3749 53.1061 13.3289 53.0473C12.8235 52.4472 7.30616 46.0559 6.63229 46.4561C5.80492 46.9917 5.01993 47.5901 4.28427 48.246C4.25462 48.2725 4.23087 48.305 4.21454 48.3413C4.19822 48.3775 4.18969 48.4168 4.18951 48.4566C4.16845 49.0041 10.2965 53.9107 11.8127 54.5214ZM6.75864 46.7298C7.52727 47.2879 10.1175 50.4887 12.5181 53.3211C12.4148 53.4837 12.287 53.6294 12.1391 53.7528C9.61508 52.1374 7.20521 50.3502 4.92655 48.404C5.49778 47.8042 6.10995 47.2448 6.75864 46.7298ZM23.3001 23.5023C23.5317 19.417 25.9113 17.5217 28.3962 17.0374C27.6907 19.6276 27.8066 22.9969 30.3652 23.4286C31.5866 23.6287 32.1867 22.9969 33.0712 22.2599C36.8512 19.1011 33.7977 15.9423 29.5334 16.1635C31.1233 11.8044 34.798 8.25601 39.673 8.14019C39.7177 8.14019 39.7605 8.12244 39.7921 8.09085C39.8237 8.05925 39.8415 8.0164 39.8415 7.97172C39.8415 7.92704 39.8237 7.88419 39.7921 7.8526C39.7605 7.82101 39.7177 7.80326 39.673 7.80326C34.4084 7.69796 30.2704 11.4885 28.6384 16.2266C25.8271 16.711 23.0368 18.8168 22.9631 23.4392C22.959 23.4613 22.9592 23.484 22.9639 23.506C22.9685 23.5281 22.9774 23.549 22.9901 23.5675C23.0028 23.5861 23.0191 23.602 23.0379 23.6143C23.0568 23.6266 23.0779 23.6351 23.1 23.6392C23.1221 23.6434 23.1448 23.6431 23.1669 23.6385C23.1889 23.6338 23.2098 23.6249 23.2284 23.6122C23.247 23.5995 23.2628 23.5833 23.2751 23.5644C23.2874 23.5455 23.2959 23.5245 23.3001 23.5023ZM29.2912 16.911C30.86 16.8057 33.1975 17.2901 33.8398 18.7115C34.2083 19.5223 33.8398 20.5226 32.5342 21.6176C32.1797 21.9727 31.7754 22.2742 31.3339 22.5126C29.7545 23.1865 28.0066 21.2386 29.2912 16.911ZM32.3025 165.826C31.2853 165.553 30.2238 165.487 29.1805 165.631C28.1373 165.775 27.1333 166.126 26.2278 166.664C25.3222 167.201 24.5334 167.915 23.9076 168.762C23.2819 169.609 22.8318 170.572 22.5841 171.596C22.1163 173.722 22.5125 175.948 23.6854 177.782C24.8583 179.616 26.7119 180.91 28.8384 181.378C30.9649 181.845 33.1902 181.449 35.0246 180.276C36.859 179.103 38.1523 177.25 38.6201 175.123C38.8199 174.098 38.8147 173.043 38.6048 172.019C38.395 170.995 37.9846 170.023 37.3973 169.159C36.81 168.295 36.0575 167.555 35.1831 166.983C34.3087 166.411 33.3297 166.018 32.3025 165.826ZM35.5561 174.407C35.1336 176.092 34.1222 177.57 32.7048 178.575C31.2873 179.579 29.5573 180.043 27.8276 179.882C26.2398 179.262 24.9216 178.102 24.1051 176.605C23.2885 175.109 23.0258 173.372 23.3632 171.701C23.7572 169.975 24.7592 168.449 26.186 167.401C27.6128 166.353 29.3691 165.854 31.1338 165.994C32.7373 166.657 34.0557 167.864 34.8569 169.403C35.6581 170.941 35.8908 172.714 35.514 174.407H35.5561Z"
    fill="#2A5D4F" />
  <path
    d="M46.3279 168.827C45.4112 168.51 44.4288 168.434 43.4744 168.606C43.0789 167.699 42.592 166.834 42.0214 166.026C42.7058 165.405 44.58 163.678 44.1272 162.867C42.5159 160.94 40.6029 159.286 38.4625 157.971C37.5688 157.47 36.5846 157.152 35.567 157.034C34.8931 157.129 33.2927 159.751 32.9347 160.34C32.703 160.34 31.8818 160.077 31.8186 160.045C31.8186 159.287 31.5975 156.55 30.9131 156.234C30.1477 155.952 29.353 155.758 28.544 155.655C27.7964 155.539 21.0682 156.771 20.5734 157.676C20.247 158.287 21.0051 160.593 21.2262 161.235C20.6583 161.548 20.113 161.9 19.5941 162.288C18.5412 163.036 18.8255 163.004 18.636 162.92C18.4069 162.81 18.1615 162.739 17.9095 162.709C17.0684 162.216 16.0822 162.03 15.1192 162.183C14.1505 162.499 11.8657 167.7 11.4972 169.037C11.3766 169.375 11.3439 169.737 11.4024 170.09C11.6551 170.785 13.3398 171.343 14.0452 171.564C13.8504 172.919 13.8504 174.295 14.0452 175.65C13.1187 175.902 11.1918 176.471 11.2971 177.419C11.4024 178.366 13.8662 184.621 14.8876 185.115C15.4471 185.428 16.0658 185.621 16.704 185.681C17.3423 185.741 17.986 185.666 18.5939 185.463C18.9362 185.292 19.2669 185.099 19.5836 184.884C20.0048 185.2 20.447 185.484 20.8998 185.758C20.5734 186.568 19.8468 188.379 20.0785 189.201C20.1943 189.632 20.5418 189.769 21.0261 189.948C22.3633 190.433 29.5653 192.159 30.6604 191.97C31.071 191.907 31.2921 191.475 31.4185 191.064C31.6524 190.13 31.79 189.174 31.8291 188.211C32.3699 188.158 32.9075 188.077 33.4401 187.969C33.7653 188.541 34.1814 189.057 34.672 189.496C35.209 189.875 35.6617 189.685 36.2724 189.296C36.5673 189.675 37.0095 190.201 37.4833 190.254C38.6731 190.391 43.5903 185.758 44.0957 184.81C44.5168 184.02 42.9796 182.609 42.2952 181.988C43.0355 180.874 43.6167 179.662 44.0219 178.387C44.7814 178.502 45.5499 178.544 46.3173 178.514C46.6648 178.514 47.0649 178.387 47.2123 178.061C47.8546 176.597 47.6651 171.048 47.2123 169.637C47.1491 169.227 46.6753 168.953 46.3279 168.827ZM46.5806 169.795C46.9385 171.164 47.0544 176.334 46.5279 177.671C45.6175 177.761 44.699 177.718 43.8008 177.545C43.7049 177.529 43.6064 177.549 43.5245 177.601C43.4427 177.654 43.3835 177.735 43.3586 177.829C42.9393 179.253 42.2883 180.597 41.4318 181.809C41.3707 181.89 41.3432 181.99 41.355 182.09C41.3668 182.191 41.417 182.282 41.4949 182.346C42.2337 182.932 42.8614 183.645 43.3481 184.452C42.8216 185.315 38.7047 189.085 37.5675 189.401C37.3991 189.401 36.9358 188.769 36.82 188.601C36.431 188.016 36.0793 187.408 35.767 186.779C35.7214 186.687 35.6433 186.616 35.5478 186.579C35.4524 186.542 35.3466 186.542 35.2511 186.579C32.1976 187.727 31.0394 187.053 31.0394 187.811C31.0408 188.946 30.8558 190.074 30.4919 191.149C28.0175 190.88 25.5807 190.336 23.2267 189.527C23.3404 188.403 23.6542 187.308 24.1533 186.295C24.4692 185.589 23.2057 185.789 20.8471 183.389C20.7712 183.318 20.6716 183.279 20.5681 183.279C20.4646 183.279 20.365 183.318 20.2891 183.389C19.2362 184.252 17.8674 185.094 17.5936 184.957C17.0566 184.694 14.5822 179.082 14.4348 177.945C15.1837 177.423 16.0339 177.064 16.9303 176.892C17.0258 176.865 17.1084 176.804 17.1626 176.721C17.2168 176.638 17.239 176.538 17.2251 176.439C16.967 174.948 16.967 173.424 17.2251 171.933C17.2412 171.841 17.2219 171.747 17.1711 171.668C17.1203 171.59 17.0417 171.534 16.9513 171.512C16.1575 171.304 15.3933 170.996 14.677 170.596C14.4454 170.427 14.4664 170.438 14.4875 170.259C15.169 167.801 16.2619 165.476 17.7199 163.383C18.2885 163.225 19.8258 164.352 20.3523 164.752C20.4073 164.805 20.4809 164.835 20.5576 164.835C20.6342 164.835 20.7079 164.805 20.7629 164.752C21.2467 164.25 21.7676 163.786 22.3212 163.362C23.9217 162.151 24.3534 162.309 24.2165 161.888C23.7324 160.832 23.4606 159.69 23.4163 158.529C23.5794 158.393 23.7646 158.287 23.9638 158.213C24.9468 157.825 25.9567 157.508 26.9857 157.266C28.2329 156.918 29.5147 156.71 30.8078 156.644C31.0289 156.739 31.2289 157.697 31.2816 157.992C31.6712 160.098 31.4079 160.53 31.7133 160.561C34.7141 160.856 35.3248 161.688 35.5354 161.319C36.1193 160.298 36.7998 159.336 37.5675 158.445C37.7886 158.224 37.7781 158.118 38.4415 158.498C40.4232 159.793 42.198 161.379 43.7061 163.204C43.864 163.478 42.4952 164.931 41.4949 165.784C41.1475 166.089 41.6423 166.226 42.5479 167.953C43.4534 169.68 43.2428 170.164 43.7271 170.059C44.6608 169.835 45.6217 169.746 46.5806 169.795ZM192.716 81.8132C190.508 80.9116 188.194 80.2994 185.83 79.9916C184.103 79.7179 182.071 79.4441 180.354 79.223C182.007 76.8855 186.904 70.9681 187.725 69.5256C187.956 69.136 187.514 68.5885 187.188 68.2621C185.356 66.3036 181.818 65.5666 179.101 65.1454C177.543 64.8927 171.036 64.0925 169.93 64.6189C168.604 65.2507 158.791 79.9916 158.496 82.2343C158.496 82.6134 158.622 82.7608 158.991 82.8977C160.538 83.4663 167.519 84.3507 169.078 84.7192C166.972 88.4045 157.611 100.861 156.695 102.619C156.474 103.061 156.611 103.324 156.874 103.409C157.822 103.785 158.797 104.087 159.791 104.314C160.17 104.43 161.002 103.914 162.213 103.177C167.646 99.9129 190.957 84.5192 192.747 82.5292C192.797 82.4825 192.835 82.4257 192.861 82.3626C192.886 82.2996 192.898 82.2319 192.895 82.1639C192.892 82.096 192.875 82.0295 192.844 81.969C192.813 81.9085 192.769 81.8553 192.716 81.8132ZM170.088 94.4482C161.139 100.355 158.117 102.082 158.011 102.156C159.454 99.955 168.414 87.678 169.951 84.7403C169.978 84.6836 169.992 84.6215 169.992 84.5588C169.991 84.4961 169.977 84.4342 169.95 84.3777C169.923 84.3212 169.883 84.2715 169.834 84.2322C169.785 84.1929 169.728 84.165 169.667 84.1507C168.614 83.7716 160.949 82.9503 159.138 82.308C159.37 80.3496 168.93 65.5455 170.088 64.9559C171.247 64.3662 182.481 65.7035 184.587 67.2091C183.482 69.3676 177.375 76.9276 176.385 78.686C176.185 79.044 176.122 79.3914 176.511 79.4862C176.901 79.581 186.798 80.7392 188.957 81.4446C186.324 83.6453 173.037 92.4688 170.088 94.4061V94.4482ZM102.543 30.0725C102.543 30.1673 102.607 30.2831 102.765 30.8938C102.806 31.0263 102.897 31.1376 103.019 31.2043C103.141 31.2711 103.283 31.2881 103.417 31.2518C103.551 31.2127 103.664 31.122 103.732 30.9996C103.799 30.8771 103.814 30.733 103.775 30.599C103.67 30.1884 103.575 29.8409 103.512 29.6724C103.451 29.5568 103.349 29.4682 103.225 29.4238C103.102 29.3795 102.967 29.3826 102.846 29.4326C102.725 29.4825 102.627 29.5758 102.571 29.6941C102.515 29.8124 102.505 29.9473 102.543 30.0725Z"
    fill="#2A5D4F" />
</svg>