<svg width="32" height="32" viewBox="0 0 32 32" fill="none" xmlns="http://www.w3.org/2000/svg">
  <path
    d="M24.6575 8.05108C24.602 8.02603 24.5576 7.98158 24.5325 7.92608C23.8284 6.24398 22.6427 4.80755 21.1246 3.79729C19.6064 2.78704 17.8236 2.24805 16 2.24805C14.1765 2.24805 12.3936 2.78704 10.8755 3.79729C9.35736 4.80755 8.17171 6.24398 7.46753 7.92608C7.44248 7.98158 7.39803 8.02603 7.34253 8.05108C5.82875 8.75177 4.54586 9.86913 3.644 11.2724C2.74214 12.6757 2.25862 14.3068 2.25003 15.9748C2.23753 20.6923 6.06128 24.6248 10.775 24.7498C12.3386 24.7933 13.8848 24.4132 15.25 23.6498V28.9998C15.25 29.1987 15.329 29.3895 15.4697 29.5302C15.6104 29.6708 15.8011 29.7498 16 29.7498C16.1989 29.7498 16.3897 29.6708 16.5304 29.5302C16.671 29.3895 16.75 29.1987 16.75 28.9998V23.6473C18.049 24.3725 19.5124 24.7521 21 24.7498H21.2263C25.9388 24.6248 29.7625 20.6948 29.75 15.9773C29.7416 14.3089 29.2582 12.6774 28.3563 11.2737C27.4545 9.87001 26.1715 8.7522 24.6575 8.05108ZM21.1875 23.2498C19.6913 23.2918 18.2193 22.8662 16.9763 22.0323C16.9039 21.9854 16.8283 21.9437 16.75 21.9073V16.4698L22.335 13.6773C22.5131 13.5885 22.6485 13.4326 22.7116 13.2438C22.7746 13.0551 22.7601 12.8491 22.6713 12.6711C22.5824 12.4931 22.4265 12.3576 22.2378 12.2946C22.0491 12.2315 21.8431 12.246 21.665 12.3348L16.75 14.7861V10.9998C16.75 10.8009 16.671 10.6102 16.5304 10.4695C16.3897 10.3288 16.1989 10.2498 16 10.2498C15.8011 10.2498 15.6104 10.3288 15.4697 10.4695C15.329 10.6102 15.25 10.8009 15.25 10.9998V17.7861L10.335 15.3286C10.157 15.2397 9.95097 15.2252 9.76227 15.2883C9.57356 15.3514 9.41763 15.4868 9.32878 15.6648C9.23993 15.8429 9.22545 16.0489 9.2885 16.2376C9.35156 16.4263 9.487 16.5822 9.66503 16.6711L15.25 19.4636V21.9011C15.1718 21.9374 15.0962 21.9792 15.0238 22.0261C13.7818 22.8627 12.3095 23.2905 10.8125 23.2498C9.17492 23.2085 7.59957 22.6138 6.34319 21.5626C5.08681 20.5114 4.22345 19.0657 3.8938 17.4611C3.56415 15.8565 3.78764 14.1875 4.52785 12.7262C5.26805 11.2648 6.48135 10.0972 7.97003 9.41358C8.36779 9.23003 8.68225 8.90398 8.85128 8.49983C9.4413 7.09057 10.4347 5.88713 11.7066 5.04075C12.9785 4.19436 14.4722 3.7428 16 3.7428C17.5278 3.7428 19.0215 4.19436 20.2935 5.04075C21.5654 5.88713 22.5588 7.09057 23.1488 8.49983C23.3183 8.90304 23.6327 9.22814 24.03 9.41108C25.5201 10.0939 26.7348 11.2615 27.476 12.7234C28.2173 14.1853 28.4413 15.8552 28.1115 17.4607C27.7817 19.0663 26.9176 20.5127 25.6602 21.564C24.4027 22.6154 22.8261 23.2096 21.1875 23.2498Z"
    fill="currentColor" />
</svg>