<svg width="32" height="32" viewBox="0 0 32 32" fill="none" xmlns="http://www.w3.org/2000/svg">
  <path
    d="M25.5308 18.53L16.5308 27.53C16.3902 27.6705 16.1996 27.7493 16.0008 27.7493C15.8021 27.7493 15.6114 27.6705 15.4708 27.53L6.47082 18.53C6.33834 18.3878 6.26622 18.1998 6.26965 18.0055C6.27308 17.8112 6.35179 17.6258 6.4892 17.4884C6.62661 17.351 6.812 17.2723 7.0063 17.2688C7.2006 17.2654 7.38865 17.3375 7.53082 17.47L15.2508 25.1887V5C15.2508 4.80109 15.3298 4.61032 15.4705 4.46967C15.6111 4.32902 15.8019 4.25 16.0008 4.25C16.1997 4.25 16.3905 4.32902 16.5312 4.46967C16.6718 4.61032 16.7508 4.80109 16.7508 5V25.1887L24.4708 17.47C24.613 17.3375 24.801 17.2654 24.9953 17.2688C25.1896 17.2723 25.375 17.351 25.5124 17.4884C25.6499 17.6258 25.7286 17.8112 25.732 18.0055C25.7354 18.1998 25.6633 18.3878 25.5308 18.53Z"
    fill="currentColor" />
</svg>