<svg width="32" height="32" viewBox="0 0 32 32" fill="none" xmlns="http://www.w3.org/2000/svg">
  <path
    d="M20.5293 25.4698C20.603 25.5385 20.6621 25.6213 20.7031 25.7133C20.7441 25.8053 20.7662 25.9046 20.7679 26.0053C20.7697 26.106 20.7512 26.2061 20.7135 26.2994C20.6757 26.3928 20.6196 26.4777 20.5484 26.5489C20.4772 26.6201 20.3923 26.6762 20.2989 26.714C20.2055 26.7517 20.1055 26.7702 20.0048 26.7684C19.9041 26.7667 19.8048 26.7446 19.7128 26.7036C19.6208 26.6626 19.538 26.6035 19.4693 26.5298L9.46934 16.5298C9.32889 16.3892 9.25 16.1986 9.25 15.9998C9.25 15.8011 9.32889 15.6105 9.46934 15.4698L19.4693 5.46985C19.6115 5.33737 19.7996 5.26524 19.9939 5.26867C20.1882 5.2721 20.3735 5.35081 20.511 5.48822C20.6484 5.62564 20.7271 5.81102 20.7305 6.00532C20.7339 6.19963 20.6618 6.38767 20.5293 6.52985L11.0606 15.9998L20.5293 25.4698Z"
    fill="currentColor" />
</svg>