<svg width="32" height="32" viewBox="0 0 32 32" fill="none" xmlns="http://www.w3.org/2000/svg">
  <path
    d="M25.5308 24.4698C25.6045 24.5385 25.6636 24.6213 25.7046 24.7133C25.7456 24.8053 25.7676 24.9046 25.7694 25.0053C25.7712 25.106 25.7527 25.2061 25.7149 25.2994C25.6772 25.3928 25.6211 25.4777 25.5499 25.5489C25.4786 25.6201 25.3938 25.6762 25.3004 25.714C25.207 25.7517 25.107 25.7702 25.0063 25.7684C24.9056 25.7667 24.8063 25.7446 24.7143 25.7036C24.6223 25.6626 24.5395 25.6035 24.4708 25.5298L16.0008 17.0611L7.53082 25.5298C7.38865 25.6623 7.2006 25.7344 7.0063 25.731C6.812 25.7276 6.62661 25.6489 6.4892 25.5115C6.35179 25.3741 6.27308 25.1887 6.26965 24.9944C6.26622 24.8001 6.33834 24.612 6.47082 24.4698L14.9396 15.9998L6.47082 7.52985C6.33834 7.38767 6.26622 7.19963 6.26965 7.00532C6.27308 6.81102 6.35179 6.62564 6.4892 6.48822C6.62661 6.35081 6.812 6.2721 7.0063 6.26867C7.2006 6.26524 7.38865 6.33737 7.53082 6.46985L16.0008 14.9386L24.4708 6.46985C24.613 6.33737 24.801 6.26524 24.9953 6.26867C25.1896 6.2721 25.375 6.35081 25.5124 6.48822C25.6499 6.62564 25.7286 6.81102 25.732 7.00532C25.7354 7.19963 25.6633 7.38767 25.5308 7.52985L17.0621 15.9998L25.5308 24.4698Z"
    fill="currentColor" />
</svg>