<svg width="32" height="32" viewBox="0 0 32 32" fill="none" xmlns="http://www.w3.org/2000/svg">
  <path
    d="M29.7492 9.99985C29.7491 8.46737 29.2948 6.9693 28.4435 5.695C27.5922 4.4207 26.3823 3.42738 24.9666 2.84061C23.5509 2.25383 21.993 2.09994 20.4899 2.39839C18.9867 2.69684 17.6058 3.43423 16.5217 4.51735L7.76168 13.1761C7.59885 13.3384 7.46973 13.5313 7.38177 13.7436C7.29381 13.956 7.24875 14.1837 7.24918 14.4136V23.6898L3.46918 27.4698C3.39549 27.5385 3.33639 27.6213 3.2954 27.7133C3.2544 27.8053 3.23236 27.9046 3.23059 28.0053C3.22881 28.106 3.24733 28.2061 3.28505 28.2994C3.32278 28.3928 3.37892 28.4777 3.45014 28.5489C3.52136 28.6201 3.60619 28.6763 3.69958 28.714C3.79297 28.7517 3.893 28.7702 3.9937 28.7684C4.0944 28.7667 4.19372 28.7446 4.28572 28.7036C4.37771 28.6626 4.46052 28.6035 4.52918 28.5299L8.30918 24.7498H17.5854C17.8153 24.7503 18.043 24.7052 18.2554 24.6173C18.4678 24.5293 18.6607 24.4002 18.8229 24.2373L27.4267 15.5336L27.4754 15.4836C28.1984 14.7655 28.7717 13.911 29.162 12.9697C29.5523 12.0283 29.7519 11.0189 29.7492 9.99985ZM17.5792 5.57985C18.7386 4.42994 20.302 3.77945 21.9349 3.76756C23.5678 3.75567 25.1405 4.38332 26.3165 5.51623C27.4925 6.64913 28.1785 8.19731 28.2276 9.82951C28.2767 11.4617 27.685 13.0483 26.5792 14.2498H18.8092L23.5292 9.52985C23.6617 9.38767 23.7338 9.19963 23.7304 9.00533C23.7269 8.81103 23.6482 8.62564 23.5108 8.48823C23.3734 8.35082 23.188 8.2721 22.9937 8.26867C22.7994 8.26525 22.6114 8.33737 22.4692 8.46985L16.4692 14.4698L14.7492 16.1898V8.37485L17.5792 5.57985ZM8.74918 14.4136C8.74911 14.3488 8.77421 14.2865 8.81918 14.2398L13.2492 9.86485V17.6936L8.74918 22.1936V14.4136ZM17.7604 23.1773C17.7139 23.2235 17.651 23.2496 17.5854 23.2498H9.80918L14.5292 18.5311L17.3092 15.7498H25.1029L17.7604 23.1773Z"
    fill="currentColor" />
</svg>