<svg width="62" height="63" viewBox="0 0 62 63" fill="none" xmlns="http://www.w3.org/2000/svg">
  <path
    d="M58.9969 37.0179C58.8442 37.1324 58.6705 37.2157 58.4856 37.2631C58.3008 37.3105 58.1084 37.3209 57.9195 37.294C57.7306 37.267 57.5488 37.203 57.3846 37.1058C57.2204 37.0086 57.077 36.88 56.9625 36.7273C55.7499 35.0972 54.1714 33.7745 52.3541 32.8659C50.5369 31.9573 48.5317 31.4881 46.5 31.4961C46.1146 31.4961 45.745 31.343 45.4725 31.0705C45.2 30.7979 45.0469 30.4283 45.0469 30.0429C45.0469 29.6575 45.2 29.2879 45.4725 29.0154C45.745 28.7429 46.1146 28.5898 46.5 28.5898C47.6777 28.5896 48.8317 28.2591 49.8309 27.6358C50.8302 27.0126 51.6346 26.1217 52.1529 25.0642C52.6712 24.0067 52.8826 22.8251 52.763 21.6535C52.6434 20.4819 52.1976 19.3673 51.4763 18.4364C50.7551 17.5054 49.7872 16.7954 48.6826 16.3869C47.578 15.9785 46.3811 15.888 45.2276 16.1257C44.0742 16.3634 43.0106 16.9198 42.1575 17.7317C41.3044 18.5436 40.6961 19.5785 40.4017 20.7187C40.3054 21.0919 40.0647 21.4115 39.7327 21.6073C39.4007 21.8031 39.0045 21.8589 38.6313 21.7626C38.2581 21.6662 37.9385 21.4256 37.7428 21.0935C37.547 20.7615 37.4911 20.3654 37.5875 19.9922C37.9528 18.5716 38.6523 17.2589 39.6278 16.1634C40.6033 15.068 41.8265 14.2216 43.1954 13.6948C44.5643 13.168 46.0394 12.9761 47.4975 13.1349C48.9557 13.2938 50.3548 13.7989 51.5782 14.6082C52.8015 15.4174 53.8137 16.5074 54.5304 17.7872C55.2471 19.0669 55.6476 20.4995 55.6983 21.9654C55.7491 23.4313 55.4487 24.8882 54.8223 26.2145C54.1958 27.5408 53.2614 28.6981 52.097 29.59C54.9624 30.6593 57.4589 32.5319 59.2875 34.9836C59.402 35.1362 59.4853 35.3099 59.5327 35.4948C59.58 35.6797 59.5905 35.872 59.5635 36.0609C59.5365 36.2499 59.4726 36.4316 59.3754 36.5958C59.2782 36.76 59.1495 36.9034 58.9969 37.0179ZM45.8195 52.5664C45.9151 52.7316 45.9772 52.914 46.0023 53.1033C46.0274 53.2925 46.015 53.4848 45.9657 53.6692C45.9165 53.8537 45.8313 54.0266 45.7152 54.1781C45.5991 54.3296 45.4543 54.4568 45.2891 54.5523C45.0688 54.6815 44.8179 54.7492 44.5625 54.7485C44.3073 54.7486 44.0565 54.6816 43.8354 54.554C43.6143 54.4265 43.4307 54.243 43.3031 54.0219C42.04 51.8819 40.2407 50.1082 38.0826 48.8761C35.9246 47.6439 33.4826 46.9958 30.9976 46.9958C28.5126 46.9958 26.0705 47.6439 23.9125 48.8761C21.7545 50.1082 19.9551 51.8819 18.692 54.0219C18.6012 54.1956 18.4762 54.3491 18.3245 54.4731C18.1728 54.5972 17.9975 54.6893 17.8093 54.7439C17.6211 54.7986 17.4238 54.8145 17.2292 54.7909C17.0347 54.7673 16.8469 54.7045 16.6772 54.6064C16.5076 54.5084 16.3595 54.377 16.2419 54.2202C16.1243 54.0634 16.0397 53.8844 15.993 53.6941C15.9464 53.5037 15.9388 53.3059 15.9706 53.1125C16.0024 52.9191 16.073 52.7342 16.1781 52.5688C18.1574 49.1681 21.2564 46.5605 24.9453 45.1918C22.9302 43.8834 21.3921 41.9586 20.5603 39.7046C19.7286 37.4505 19.6478 34.988 20.3301 32.6843C21.0124 30.3806 22.4211 28.3592 24.3462 26.9216C26.2713 25.484 28.6095 24.7073 31.0121 24.7073C33.4147 24.7073 35.7529 25.484 37.678 26.9216C39.6031 28.3592 41.0118 30.3806 41.6941 32.6843C42.3764 34.988 42.2956 37.4505 41.4639 39.7046C40.6322 41.9586 39.094 43.8834 37.0789 45.1918C40.7576 46.5652 43.8465 49.1713 45.8195 52.5664ZM31 44.0898C32.6286 44.0898 34.2206 43.6069 35.5748 42.7021C36.9289 41.7973 37.9843 40.5112 38.6076 39.0066C39.2308 37.502 39.3939 35.8463 39.0762 34.249C38.7584 32.6517 37.9742 31.1845 36.8226 30.0329C35.671 28.8813 34.2038 28.097 32.6064 27.7793C31.0091 27.4616 29.3535 27.6246 27.8488 28.2479C26.3442 28.8711 25.0582 29.9265 24.1534 31.2807C23.2486 32.6348 22.7656 34.2268 22.7656 35.8554C22.7656 38.0393 23.6332 40.1338 25.1774 41.678C26.7217 43.2223 28.8161 44.0898 31 44.0898ZM16.9531 30.0429C16.9531 29.6575 16.8 29.2879 16.5275 29.0154C16.255 28.7429 15.8854 28.5898 15.5 28.5898C14.3225 28.5894 13.1686 28.2589 12.1695 27.6357C11.1704 27.0125 10.366 26.1217 9.84777 25.0643C9.32952 24.007 9.11813 22.8255 9.23761 21.654C9.35709 20.4826 9.80266 19.3681 10.5237 18.4371C11.2448 17.5062 12.2124 16.796 13.3168 16.3874C14.4211 15.9788 15.6179 15.888 16.7713 16.1253C17.9247 16.3627 18.9884 16.9187 19.8416 17.7302C20.6948 18.5418 21.3034 19.5763 21.5983 20.7163C21.646 20.9011 21.7296 21.0747 21.8444 21.2271C21.9592 21.3796 22.1029 21.5079 22.2673 21.6049C22.4317 21.7018 22.6136 21.7654 22.8025 21.792C22.9915 21.8187 23.1839 21.8078 23.3687 21.7601C23.5535 21.7124 23.727 21.6288 23.8795 21.514C24.032 21.3992 24.1603 21.2555 24.2572 21.0911C24.3542 20.9267 24.4178 20.7448 24.4444 20.5559C24.4711 20.3669 24.4602 20.1745 24.4125 19.9897C24.0472 18.5691 23.3477 17.2564 22.3722 16.161C21.3967 15.0656 20.1735 14.2192 18.8046 13.6924C17.4357 13.1656 15.9606 12.9736 14.5025 13.1325C13.0443 13.2914 11.6452 13.7965 10.4218 14.6058C9.19847 15.415 8.18625 16.5049 7.46955 17.7847C6.75286 19.0645 6.35244 20.4971 6.30168 21.963C6.25091 23.4289 6.55128 24.8858 7.17773 26.212C7.80419 27.5383 8.73859 28.6957 9.90305 29.5876C7.03729 30.6576 4.54075 32.531 2.7125 34.9836C2.598 35.1362 2.5147 35.3099 2.46734 35.4948C2.41998 35.6797 2.40949 35.872 2.43648 36.0609C2.46347 36.2499 2.5274 36.4316 2.62462 36.5958C2.72185 36.76 2.85046 36.9034 3.00313 37.0179C3.15579 37.1324 3.32951 37.2157 3.51436 37.2631C3.69922 37.3105 3.89159 37.3209 4.0805 37.294C4.26941 37.267 4.45116 37.203 4.61536 37.1058C4.77956 37.0086 4.923 36.88 5.0375 36.7273C6.25015 35.0972 7.82864 33.7745 9.64587 32.8659C11.4631 31.9573 13.4683 31.4881 15.5 31.4961C15.8854 31.4961 16.255 31.343 16.5275 31.0705C16.8 30.7979 16.9531 30.4283 16.9531 30.0429Z"
    fill="#56F09F" />
</svg>