<svg width="32" height="32" viewBox="0 0 32 32" fill="none" xmlns="http://www.w3.org/2000/svg">
  <path
    d="M6.55482 4.5001C6.41752 4.37266 6.23749 4.30122 6.05016 4.29983C5.86284 4.29843 5.68177 4.3672 5.54259 4.49258C5.40341 4.61797 5.31619 4.79091 5.2981 4.97736C5.28 5.16382 5.33234 5.35029 5.44482 5.5001L8.05482 8.3751C3.39482 11.1126 1.40107 15.5001 1.31482 15.6964C1.27208 15.7924 1.25 15.8963 1.25 16.0014C1.25 16.1064 1.27208 16.2104 1.31482 16.3064C1.35732 16.4026 2.39732 18.7089 4.71982 21.0314C6.87482 23.1839 10.5773 25.7501 15.9998 25.7501C18.2663 25.7639 20.5087 25.284 22.5711 24.3439L25.4461 27.5051C25.58 27.6523 25.7669 27.7403 25.9657 27.7496C26.1645 27.759 26.3589 27.689 26.5061 27.5551C26.6533 27.4212 26.7412 27.2342 26.7506 27.0355C26.76 26.8367 26.69 26.6423 26.5561 26.4951L6.55482 4.5001ZM12.6323 13.4151L18.2573 19.6051C17.4128 20.1328 16.4098 20.3472 15.4233 20.2109C14.4369 20.0745 13.5296 19.5961 12.8599 18.8591C12.1901 18.1221 11.8005 17.1733 11.7589 16.1784C11.7173 15.1834 12.0264 14.2054 12.6323 13.4151ZM15.9998 24.2501C12.0773 24.2501 8.65232 22.8226 5.81857 20.0089C4.63038 18.8285 3.62513 17.4774 2.83607 16.0001C3.37232 14.9751 5.34857 11.6026 9.08607 9.51135L11.6111 12.2876C10.7121 13.3529 10.2307 14.7084 10.2564 16.1021C10.2821 17.4958 10.8132 18.8327 11.7509 19.864C12.6886 20.8954 13.969 21.551 15.3539 21.709C16.7389 21.8669 18.134 21.5164 19.2798 20.7226L21.5061 23.1726C19.7607 23.8948 17.8887 24.2612 15.9998 24.2501ZM16.7998 11.8251C16.6044 11.7878 16.4318 11.6744 16.32 11.5098C16.2081 11.3453 16.1663 11.143 16.2036 10.9476C16.2409 10.7522 16.3543 10.5796 16.5188 10.4677C16.6834 10.3559 16.8856 10.3141 17.0811 10.3514C18.3023 10.5886 19.4143 11.2142 20.2511 12.1348C21.0879 13.0554 21.6048 14.2218 21.7248 15.4601C21.7339 15.5582 21.7236 15.6571 21.6945 15.7512C21.6654 15.8453 21.6181 15.9328 21.5551 16.0086C21.4922 16.0844 21.415 16.147 21.3279 16.193C21.2407 16.2389 21.1454 16.2673 21.0473 16.2764H20.9773C20.7898 16.2771 20.6087 16.2076 20.4699 16.0815C20.3311 15.9554 20.2445 15.7819 20.2273 15.5951C20.1382 14.6814 19.7564 13.8209 19.1389 13.1416C18.5213 12.4623 17.7009 12.0006 16.7998 11.8251ZM30.6848 16.3064C30.6336 16.4214 29.3886 19.1814 26.5773 21.6964C26.5044 21.7647 26.4185 21.8178 26.3248 21.8525C26.2311 21.8872 26.1314 21.9028 26.0315 21.8984C25.9317 21.894 25.8337 21.8697 25.7434 21.8269C25.6531 21.7841 25.5722 21.7237 25.5055 21.6493C25.4389 21.5748 25.3878 21.4877 25.3553 21.3932C25.3227 21.2987 25.3094 21.1987 25.3161 21.0989C25.3228 20.9992 25.3494 20.9018 25.3942 20.8125C25.4391 20.7232 25.5013 20.6438 25.5773 20.5789C27.0305 19.2733 28.2441 17.7237 29.1636 16.0001C28.3743 14.5229 27.3691 13.1718 26.1811 11.9914C23.3473 9.1776 19.9223 7.7501 15.9998 7.7501C15.1753 7.74912 14.3521 7.81601 13.5386 7.9501C13.4406 7.96857 13.34 7.96732 13.2425 7.94644C13.145 7.92555 13.0527 7.88544 12.9709 7.82846C12.8891 7.77148 12.8195 7.69877 12.7662 7.61457C12.7128 7.53038 12.6767 7.43639 12.6601 7.33811C12.6435 7.23982 12.6467 7.13921 12.6694 7.04215C12.6921 6.94509 12.7339 6.85354 12.7924 6.77284C12.851 6.69214 12.925 6.62391 13.0102 6.57215C13.0953 6.52038 13.19 6.48612 13.2886 6.47135C14.1846 6.3226 15.0915 6.2486 15.9998 6.2501C21.4223 6.2501 25.1248 8.8176 27.2798 10.9701C29.6023 13.2926 30.6423 15.5951 30.6848 15.6964C30.7276 15.7924 30.7496 15.8963 30.7496 16.0014C30.7496 16.1064 30.7276 16.2104 30.6848 16.3064Z"
    fill="currentColor" />
</svg>