<svg width="297" height="287" viewBox="0 0 297 287" fill="none" xmlns="http://www.w3.org/2000/svg">
  <path
    d="M141.344 41.4097C141.703 41.1133 141.734 40.2865 141.797 39.4753C142.296 30.1747 142.327 20.8549 141.89 11.5511C141.687 9.47633 141.609 9.39833 139.394 9.22673C133.404 8.71193 107.726 9.22673 106.541 10.3187C105.729 11.0987 106.135 38.6017 106.868 41.0821C106.923 41.1969 107.006 41.2958 107.11 41.3695C107.214 41.4432 107.334 41.4892 107.461 41.5033C109.442 41.8309 139.644 42.8137 141.344 41.4097ZM106.884 10.6619C108.21 9.80393 137.491 9.64793 140.595 10.5059C141.391 14.3124 140.923 38.1961 140.471 40.5517C134.964 41.3005 110.924 40.8013 107.82 40.4737C106.973 30.5604 106.661 20.6088 106.884 10.6619ZM142.779 50.2861C142.756 50.1178 142.686 49.9592 142.579 49.8273C142.472 49.6954 142.331 49.5951 142.171 49.5373C139.488 48.5701 108.865 49.2097 107.648 50.3797C106.884 51.0973 107.165 78.4599 107.96 81.1431C108.015 81.2579 108.098 81.3568 108.202 81.4305C108.306 81.5042 108.426 81.5502 108.553 81.5643C111.111 81.9855 138.318 82.6407 141.906 81.7047C142.436 81.5643 142.608 81.3615 142.701 81.0183C143.325 78.6627 143.591 53.4685 142.779 50.2861ZM141.563 80.5971C136.04 81.3459 112.125 80.8779 108.912 80.5971C108.179 76.9311 107.586 53.0629 107.976 50.7853C109.364 49.8493 138.833 49.8337 141.687 50.6137C142.421 54.077 142.031 77.9607 141.563 80.5971ZM183.215 41.0665C183.558 40.7857 183.589 39.9433 183.667 39.1321C184.135 29.8299 184.135 20.5101 183.667 11.2079C183.464 9.13313 183.371 9.07073 181.187 8.88353C175.181 8.38433 149.519 8.88353 148.333 9.97554C147.522 10.7399 147.912 38.2585 148.661 40.7389C148.706 40.8574 148.784 40.9603 148.887 41.0351C148.989 41.1099 149.111 41.1533 149.238 41.1601C151.391 41.5033 181.499 42.4705 183.215 41.0665ZM148.754 10.3187C151.874 9.36713 179.674 9.38273 182.45 10.1627C183.184 13.6572 182.856 37.4785 182.326 40.2085C176.803 40.9573 152.873 40.4737 149.675 40.2085C148.825 30.2693 148.518 20.2913 148.754 10.3187ZM48.7422 102.047C48.9606 102.656 49.7718 102.921 50.4426 103.077C56.1523 104.465 77.1188 103.716 83.5928 102.484C84.2792 102.359 85.652 102.11 86.0264 101.532C87.4616 99.2236 86.8844 62.111 85.1684 60.0518C83.4524 57.9926 53.2975 58.3514 50.6454 60.3794C48.6486 61.9238 48.1806 100.425 48.7422 102.047ZM51.3162 61.175C53.8435 59.4122 83.5928 58.8974 84.794 60.3482C86.354 62.2202 86.1668 98.7088 85.0904 100.908C82.1732 102.468 53.5783 103.451 49.881 101.657C49.3818 101.361 49.8498 64.373 51.3162 61.175ZM10.6156 113.108C10.7397 113.294 10.9063 113.447 11.1017 113.556C11.297 113.664 11.5155 113.725 11.7389 113.732C17.3453 114.189 22.9832 114.095 28.5713 113.451C29.0818 113.431 29.573 113.251 29.9753 112.936C30.8177 111.828 30.3809 96.3064 29.4293 95.3704C28.4777 94.4343 13.2521 94.3876 11.7233 95.3704C11.4897 95.5703 11.3348 95.8467 11.2864 96.1504C10.5814 101.773 10.357 107.446 10.6156 113.108ZM29.0705 112.281C26.2999 112.667 23.5063 112.865 20.7089 112.874C20.9177 112.449 21.1522 112.037 21.4109 111.641C22.3371 110.429 23.5433 109.46 24.9262 108.816C26.3092 108.172 27.8275 107.873 29.3513 107.944C29.3448 109.394 29.251 110.842 29.0705 112.281ZM12.3941 96.1972C14.2661 95.464 28.6337 95.2611 29.1017 95.7135C29.2429 96.1854 29.3267 96.6725 29.3513 97.1644C26.9645 97.4764 26.5901 101.985 26.5277 104.387C25.5603 102.818 24.4866 101.317 23.3141 99.8944C22.9035 99.5657 22.4165 99.3461 21.8982 99.2561C21.38 99.1661 20.8475 99.2086 20.3501 99.3796C19.2113 99.8788 19.4297 101.283 19.5857 102.39C19.9863 103.809 20.5517 105.175 21.2705 106.462C20.3345 105.713 16.5905 102.687 15.5297 102.5C14.4689 102.312 13.4393 102.375 12.9089 103.311C11.3488 106.056 15.1085 110.612 17.3393 112.842C15.4623 112.867 13.5859 112.763 11.7233 112.53C11.5369 107.077 11.7612 101.617 12.3941 96.1972Z"
    fill="#004737" />
  <path
    d="M5.06252 118.848C5.28093 119.363 5.99853 119.55 6.62253 119.66C11.3026 120.627 28.1506 120.081 33.3767 119.238C33.9695 119.129 35.0927 118.958 35.4203 118.521C36.6371 116.867 36.1223 91.0335 34.7027 89.5359C33.5015 88.2879 9.00934 88.1787 6.71613 89.6763C6.41418 89.9669 6.22138 90.3524 6.17013 90.7683C4.96892 95.4795 4.59452 117.694 5.06252 118.848ZM7.30894 90.5343C9.46175 89.3643 33.3455 88.9743 34.2971 89.8791C35.2487 90.7839 35.3891 115.198 34.4843 117.819C31.4735 118.786 12.9406 119.566 6.17013 118.38C5.85813 117.32 6.13893 93.8727 7.30894 90.5343ZM242.698 87.0087C243.304 87.7014 243.95 88.3577 244.633 88.9743C244.649 89.0008 244.67 89.0236 244.695 89.0413C244.721 89.059 244.749 89.0711 244.78 89.0768C244.81 89.0825 244.841 89.0818 244.871 89.0746C244.901 89.0674 244.929 89.0539 244.954 89.035C244.978 89.0161 244.998 88.9923 245.013 88.9651C245.027 88.9379 245.036 88.9079 245.038 88.8771C245.04 88.8463 245.036 88.8154 245.025 88.7864C245.014 88.7575 244.998 88.7311 244.976 88.7091C243.773 86.3518 242.076 84.2819 240 82.6407C239.96 82.5972 239.905 82.5712 239.847 82.5683C239.788 82.5653 239.731 82.5858 239.688 82.6251C239.644 82.6644 239.618 82.7193 239.615 82.7779C239.612 82.8364 239.633 82.8936 239.672 82.9371C240.547 84.3886 241.561 85.7521 242.698 87.0087ZM226.864 92.8587C227.484 90.4902 227.585 88.0159 227.161 85.6047C227.161 85.5468 227.138 85.4912 227.097 85.4503C227.056 85.4093 227 85.3863 226.942 85.3863C226.884 85.3863 226.829 85.4093 226.788 85.4503C226.747 85.4912 226.724 85.5468 226.724 85.6047C226.526 86.509 226.396 87.4267 226.334 88.3503C226.171 89.8405 226.203 91.3455 226.428 92.8275C226.396 93.1239 226.833 93.1551 226.864 92.8587ZM206.538 91.0959C207.24 90.0809 207.831 88.993 208.3 87.8511C208.835 86.7288 209.228 85.5445 209.47 84.3255C209.463 84.2875 209.446 84.2521 209.421 84.2228C209.396 84.1934 209.364 84.1713 209.327 84.1586C209.291 84.1459 209.252 84.1432 209.214 84.1505C209.176 84.1579 209.141 84.1752 209.112 84.2007C208.956 84.4503 208.472 85.1679 208.176 85.7607C207.258 87.4066 206.585 89.1777 206.179 91.0179C206.151 91.0456 206.131 91.0803 206.121 91.1183C206.112 91.1564 206.112 91.1963 206.123 91.234C206.134 91.2716 206.155 91.3056 206.184 91.3323C206.213 91.3591 206.248 91.3776 206.287 91.3859C206.325 91.3943 206.365 91.3921 206.402 91.3797C206.439 91.3673 206.472 91.3451 206.498 91.3154C206.524 91.2857 206.541 91.2497 206.548 91.2111C206.555 91.1725 206.551 91.1327 206.538 91.0959ZM109.926 198.705C118.179 199.236 118.288 190.312 109.926 191.732C104.591 192.013 106.229 198.424 109.926 198.705ZM109.926 192.2C116.899 191.841 116.338 197.91 109.926 197.52C107.711 197.41 105.761 192.902 109.989 192.2H109.926ZM140.097 193.869C148.38 194.4 148.458 185.476 140.097 186.896C134.824 187.161 136.415 193.588 140.097 193.869ZM140.097 187.364C147.07 187.005 146.524 193.074 140.097 192.684C137.913 192.574 135.947 188.066 140.159 187.364H140.097ZM157.818 197.676C166.087 198.206 166.18 189.283 157.818 190.687C152.53 190.983 154.121 197.395 157.818 197.676ZM157.818 191.17C164.792 190.812 164.246 196.88 157.818 196.49C155.634 196.381 153.653 191.841 157.881 191.17H157.818ZM162.639 184.915C170.891 185.445 171.016 176.522 162.639 177.942C157.35 178.222 158.957 184.65 162.639 184.915ZM162.639 178.425C169.612 178.066 169.051 184.119 162.639 183.745C160.455 183.62 158.474 179.112 162.701 178.425H162.639ZM100.426 165.571C102.566 166.087 104.819 165.833 106.791 164.853C109.911 163.168 110.051 159.331 108.21 156.335C105.355 151.655 99.4118 152.139 97.2902 155.493C96.3813 157.108 96.0772 158.994 96.4322 160.813C96.6429 161.878 97.1195 162.873 97.8177 163.705C98.5159 164.537 99.4131 165.178 100.426 165.571ZM97.6022 160.641C97.2844 159.098 97.4989 157.492 98.2106 156.086C98.9593 155.012 100.056 154.229 101.316 153.871C102.575 153.513 103.919 153.601 105.121 154.12C108.335 155.93 110.035 162.014 106.245 163.87C104.555 164.678 102.644 164.898 100.816 164.494C100.004 164.167 99.2853 163.644 98.7245 162.972C98.1638 162.299 97.7782 161.499 97.6022 160.641Z"
    fill="#004737" />
  <path
    d="M100.878 156.725C100.69 156.413 99.692 156.133 99.77 157.084C99.848 158.036 101.47 157.677 100.878 156.725ZM104.356 156.757C104.7 156.211 103.342 155.197 103.202 156.491C103.155 156.913 103.748 157.677 104.356 156.757ZM100.472 160.641C99.8948 161.031 101.689 162.825 103.904 161.827C104.245 161.687 104.54 161.455 104.758 161.158C104.975 160.861 105.106 160.509 105.136 160.142C105.146 160.112 105.149 160.081 105.146 160.05C105.143 160.019 105.134 159.989 105.12 159.961C105.105 159.934 105.086 159.909 105.062 159.89C105.038 159.87 105.01 159.855 104.98 159.845C104.951 159.836 104.919 159.833 104.889 159.836C104.858 159.839 104.827 159.848 104.8 159.862C104.772 159.877 104.748 159.896 104.728 159.92C104.708 159.944 104.693 159.972 104.684 160.001C104.151 160.436 103.517 160.729 102.841 160.854C102.165 160.98 101.469 160.933 100.815 160.719C100.777 160.666 100.722 160.629 100.658 160.615C100.595 160.601 100.529 160.61 100.472 160.641ZM119.301 168.659C120.721 169.252 127.445 169.081 128.552 167.677C128.833 167.333 128.646 166.99 128.443 166.6C127.757 165.29 123.935 158.894 122.562 159.128C121.189 159.362 119.816 163.028 119.442 164.229C119.067 165.43 118.162 168.176 119.301 168.659ZM120.861 162.7C121.064 162.092 121.938 159.721 122.562 159.58C123.186 159.44 127.242 166.912 127.335 167.068C124.869 167.719 122.302 167.899 119.769 167.599C119.919 165.919 120.307 164.27 120.924 162.7H120.861ZM159.799 87.4767C159.776 87.334 159.703 87.2042 159.593 87.1105C159.483 87.0168 159.343 86.9654 159.198 86.9654C159.054 86.9654 158.914 87.0168 158.804 87.1105C158.694 87.2042 158.621 87.334 158.598 87.4767C158.613 87.8421 158.676 88.2039 158.785 88.5531C158.798 88.6394 158.829 88.722 158.876 88.7952C158.924 88.8685 158.986 88.9307 159.06 88.9776C159.133 89.0245 159.216 89.0551 159.302 89.0672C159.389 89.0794 159.477 89.0728 159.56 89.0479C159.644 89.0231 159.721 88.9805 159.787 88.9232C159.853 88.8658 159.905 88.795 159.941 88.7155C159.977 88.636 159.996 88.5497 159.995 88.4625C159.995 88.3752 159.976 88.2891 159.939 88.2099C159.869 87.9706 159.822 87.725 159.799 87.4767ZM163.138 92.7651C163.537 92.5872 163.902 92.3389 164.214 92.0319C164.464 91.7979 164.354 91.5327 163.996 91.5951L162.95 91.8135C162.743 91.0538 162.612 90.275 162.56 89.4891C162.56 88.8963 162.295 86.9931 161.983 86.8683C161.671 86.7435 161.593 87.3519 161.5 87.8823C161.219 89.6607 161.453 93.4203 163.138 92.7651ZM165.712 87.0555C165.735 87.1982 165.808 87.3279 165.918 87.4216C166.028 87.5153 166.168 87.5668 166.312 87.5668C166.457 87.5668 166.596 87.5153 166.707 87.4216C166.817 87.3279 166.89 87.1982 166.913 87.0555V86.1975C166.893 86.039 166.815 85.8935 166.694 85.7895C166.573 85.6856 166.417 85.6308 166.258 85.6359C166.098 85.6517 165.95 85.7287 165.845 85.8507C165.741 85.9728 165.687 86.1306 165.696 86.2911C165.634 86.4003 165.712 87.0555 165.712 87.0555ZM166.32 93.7479C166.102 93.7479 166.32 93.7479 165.15 94.6683C165.037 94.7603 164.917 94.8438 164.791 94.9179C163.637 95.5887 163.106 95.2143 162.997 95.5575C162.888 95.9007 163.808 96.4467 164.822 96.1971C166.476 95.7915 166.741 93.8727 166.32 93.7479ZM53.3754 96.8991C53.547 97.4295 54.2022 97.6635 54.7482 97.7883C59.1942 98.9115 75.1375 98.2719 79.8799 97.3359C80.4727 97.2111 81.4399 97.0083 81.7987 96.5247C82.9219 94.6683 82.3759 65.855 81.0811 64.2326C79.7863 62.6102 56.9478 62.813 54.8574 64.4354C53.2974 65.6834 52.9386 95.6199 53.3754 96.8991ZM78.4915 82.8591C78.9566 82.6922 79.4534 82.6321 79.9449 82.6835C80.4364 82.7348 80.9101 82.8961 81.3307 83.1555C81.3973 87.4147 81.2358 91.6744 80.8471 95.9163L80.5351 96.0255C79.4715 92.0542 77.3086 88.4637 74.2951 85.6671C75.5825 84.5613 76.9902 83.6037 78.4915 82.8123V82.8591ZM72.7663 70.379C75.3403 72.0326 75.2623 76.2758 70.7695 76.3226C68.0394 76.3226 66.8694 75.0122 66.8694 73.4522C66.8531 72.7597 67.0301 72.0763 67.3805 71.4787C67.7309 70.8811 68.2408 70.3929 68.8531 70.0689C69.4655 69.7449 70.1559 69.5979 70.8471 69.6445C71.5383 69.691 72.2029 69.9291 72.7663 70.3322V70.379ZM57.3846 83.4831C61.9554 80.7531 65.3406 80.5971 69.8647 83.4831C73.9051 86.0883 78.3355 91.2831 79.3963 96.2907C74.7163 97.1331 56.745 97.8507 54.4362 96.5871C54.2334 95.7447 54.1554 86.9151 54.1554 85.9479C55.1478 85.008 56.2293 84.1668 57.3846 83.4363V83.4831ZM206.677 257.705C205.954 257.759 205.239 257.885 204.54 258.079C203.807 258.36 203.167 258.812 203.526 259.514C203.978 260.518 204.669 261.397 205.539 262.073C205.757 262.307 206.1 261.964 205.882 261.73C205.663 261.496 205.632 261.012 204.759 259.28C205.5 258.959 206.215 258.578 206.896 258.142C206.94 258.106 206.972 258.056 206.984 258C206.996 257.944 206.989 257.886 206.963 257.835C206.938 257.783 206.896 257.743 206.843 257.719C206.791 257.695 206.733 257.69 206.677 257.705ZM203.511 253.227C203.213 253.201 202.914 253.261 202.649 253.399C202.385 253.538 202.165 253.75 202.017 254.009C201.87 254.269 201.799 254.566 201.815 254.864C201.831 255.162 201.932 255.45 202.106 255.692C202.12 255.746 202.151 255.794 202.195 255.828C202.239 255.862 202.293 255.88 202.348 255.88C202.404 255.88 202.458 255.862 202.501 255.828C202.545 255.794 202.576 255.746 202.59 255.692C202.591 255.295 202.695 254.906 202.892 254.561C203.089 254.217 203.372 253.929 203.713 253.727C203.947 253.555 203.901 253.149 203.511 253.227ZM163.372 98.1159C163.209 98.1108 163.049 98.159 162.916 98.2531C162.783 98.3472 162.684 98.4821 162.635 98.6373C162.585 98.7926 162.588 98.9597 162.642 99.1134C162.696 99.267 162.799 99.3988 162.935 99.4887C163.097 99.5918 163.294 99.6283 163.482 99.5905C163.671 99.5527 163.838 99.4436 163.949 99.2859C164.019 99.1753 164.059 99.0484 164.066 98.9177C164.073 98.7869 164.046 98.6565 163.988 98.539C163.93 98.4216 163.843 98.321 163.735 98.2469C163.627 98.1728 163.502 98.1277 163.372 98.1159ZM166.117 99.1455C165.921 99.1644 165.739 99.2539 165.604 99.3974C165.469 99.541 165.391 99.7287 165.384 99.9255C165.382 100.071 165.424 100.213 165.503 100.335C165.583 100.457 165.697 100.552 165.83 100.609C165.964 100.666 166.112 100.681 166.254 100.654C166.397 100.627 166.528 100.558 166.632 100.456C166.747 100.354 166.829 100.22 166.865 100.07C166.901 99.9205 166.89 99.7634 166.834 99.6203C166.778 99.4771 166.679 99.3547 166.55 99.2698C166.422 99.1849 166.271 99.1415 166.117 99.1455ZM166.07 96.7899C166.039 96.901 166.034 97.0178 166.055 97.1312C166.077 97.2445 166.124 97.3515 166.193 97.4436C166.263 97.5357 166.353 97.6105 166.456 97.6622C166.559 97.7139 166.673 97.741 166.788 97.7415C166.898 97.738 167.006 97.7116 167.106 97.664C167.205 97.6164 167.294 97.5486 167.366 97.465C167.438 97.3814 167.491 97.2837 167.523 97.1783C167.555 97.0728 167.565 96.9618 167.552 96.8523C167.518 96.6853 167.429 96.5345 167.299 96.424C167.169 96.3134 167.006 96.2495 166.836 96.2423C166.665 96.2351 166.497 96.2851 166.359 96.3844C166.22 96.4836 166.119 96.6264 166.07 96.7899ZM170.314 100.004C170.475 100.008 170.633 99.9595 170.764 99.8649C170.895 99.7704 170.991 99.6353 171.037 99.4806C171.083 99.3259 171.077 99.1603 171.02 99.0095C170.962 98.8586 170.857 98.731 170.719 98.6463C170.607 98.5777 170.478 98.54 170.347 98.5369C170.215 98.5338 170.085 98.5655 169.969 98.6288C169.854 98.6921 169.757 98.7847 169.689 98.8974C169.62 99.01 169.583 99.1387 169.58 99.2703C169.584 99.4636 169.663 99.6477 169.799 99.7844C169.936 99.921 170.12 99.9996 170.314 100.004ZM171.671 96.5247C171.775 96.5034 171.874 96.46 171.96 96.3975C172.046 96.335 172.118 96.2549 172.171 96.1623C172.224 96.0698 172.256 95.9671 172.266 95.861C172.276 95.7549 172.263 95.648 172.229 95.5472C172.194 95.4465 172.138 95.3543 172.065 95.2769C171.992 95.1995 171.903 95.1385 171.805 95.0981C171.706 95.0578 171.6 95.0389 171.493 95.0428C171.387 95.0467 171.283 95.0733 171.187 95.1207C171.024 95.2017 170.897 95.3391 170.828 95.5073C170.759 95.6756 170.754 95.8631 170.813 96.035C170.872 96.2068 170.992 96.3513 171.15 96.4414C171.307 96.5315 171.493 96.5611 171.671 96.5247Z"
    fill="#004737" />
  <path
    d="M288.468 172.606C285.495 171.709 282.302 171.892 279.451 173.121C285.894 164.853 289.357 156.585 289.357 145.447C289.357 139.129 288.733 133.185 282.758 131.204C279.076 129.971 272.634 131.89 269.139 133.669C269.139 127.054 269.685 39.8653 267.314 33.5629C267.127 33.0169 266.066 32.7829 265.442 32.6269C258.718 30.9889 226.442 28.056 224.882 29.4132C223.868 30.2869 224.211 36.8857 224.273 38.1961C222.167 38.1961 212.136 38.0557 210.795 39.6625C208.72 42.1117 197.675 70.5975 198.315 73.7643C198.345 73.9431 198.433 74.1072 198.564 74.2323C205.179 80.6751 248.921 79.5051 250.918 75.4959C252.213 73.1559 243.43 42.2833 241.87 40.5205C240.31 38.7577 227.315 38.2897 224.835 38.2585C224.671 35.6556 224.765 33.0429 225.116 30.4585C225.272 29.8033 225.381 29.8657 225.63 29.8189C229.811 29.0544 263.929 32.4241 266.487 34.0309C267.642 37.5877 267.657 60.2858 268.172 134.293C263.725 136.837 260.205 140.733 258.125 145.415C256.066 145.103 253.258 147.443 251.792 148.91C249.793 150.95 248.053 153.23 246.613 155.696C246.345 151.183 245.597 146.712 244.382 142.358C240.841 132.826 230.17 115.838 222.729 123.014C219.907 126.194 217.99 130.073 217.175 134.246C214.461 131.668 211.474 129.392 208.268 127.46C206.38 120.827 202.208 115.075 196.49 111.22C194.165 109.587 191.701 108.162 189.126 106.961C189.106 106.912 189.08 106.864 189.048 106.821C187.488 105.058 183.479 104.528 181.092 104.434C181.311 102.64 179.766 94.84 179.392 92.9368C179.857 92.9458 180.316 92.8271 180.718 92.5936C182.278 92.5 188.393 92.2036 189.501 91.2207C189.705 90.9883 189.835 90.7006 189.875 90.394C190.135 88.7877 190.301 87.1678 190.374 85.5423C191.139 74.0139 190.624 74.6223 190.983 74.6223C195.912 76.4475 197.535 71.6895 190.983 69.3806V68.9126C192.902 68.4914 195.132 67.6022 194.243 65.7926C193.882 65.2833 193.398 64.8734 192.836 64.6007C192.275 64.3281 191.653 64.2014 191.03 64.2326C191.03 60.2702 192.075 4.81193 189.579 1.83232C186.786 -1.4905 101.469 0.147508 98.5523 3.23632C96.7895 5.01473 97.8815 83.3583 99.9095 90.8151C100.019 91.2051 100.44 91.2831 100.845 91.3456C107.6 92.4376 147.646 92.9056 157.006 92.9992C157.204 94.0061 157.459 95.0009 157.77 95.9788C158.486 97.7642 159.546 99.3914 160.89 100.768C162.066 101.59 163.451 102.061 164.884 102.125C164.416 103.186 163.511 105.152 163.043 106.134C158.642 107.431 154.442 109.332 150.563 111.782C140.08 119.004 132.326 132.452 126.43 143.481C125.326 145.665 124.372 147.922 123.575 150.236C117.085 150.064 90.409 151 89.707 151.796C89.3482 152.139 89.707 152.857 89.8006 153.496C91.0174 158.005 95.5571 172.7 97.4291 177.973C94.6055 178.425 91.7818 179.002 88.9582 179.533C88.883 179.324 88.7945 179.121 88.693 178.924C88.6543 178.834 88.5977 178.752 88.5266 178.684C88.4556 178.616 88.3715 178.563 88.2795 178.528C88.1874 178.493 88.0893 178.477 87.9909 178.48C87.8925 178.484 87.7959 178.508 87.7068 178.55C87.6177 178.591 87.538 178.651 87.4724 178.724C87.4067 178.798 87.3566 178.884 87.3249 178.977C87.2932 179.07 87.2805 179.169 87.2878 179.267C87.295 179.365 87.322 179.461 87.367 179.548C87.3972 179.614 87.4232 179.682 87.445 179.751C84.1066 180.204 82.1254 180.157 74.7622 181.202C74.7116 181.034 74.6027 180.89 74.4551 180.796C74.3075 180.701 74.131 180.663 73.9575 180.687C73.784 180.712 73.6251 180.798 73.5094 180.929C73.3937 181.061 73.329 181.23 73.327 181.405C69.0525 182.044 65.2305 182.715 60.6909 183.558C60.6292 183.361 60.5563 183.168 60.4725 182.98C60.3936 182.802 60.2485 182.662 60.0679 182.589C59.8874 182.517 59.6856 182.517 59.5053 182.59C59.4158 182.628 59.3346 182.683 59.2665 182.752C59.1984 182.821 59.1446 182.903 59.1083 182.993C59.0721 183.083 59.054 183.179 59.0552 183.276C59.0564 183.373 59.0768 183.469 59.1153 183.558C59.1153 183.651 59.1153 183.729 59.2245 183.823C55.3557 184.54 51.4244 185.289 47.6336 185.991V185.336C47.6031 185.146 47.5034 184.974 47.3536 184.853C47.2038 184.732 47.0147 184.671 46.8224 184.681C46.7259 184.691 46.6323 184.719 46.547 184.765C46.4617 184.812 46.3864 184.874 46.3255 184.95C46.2645 185.025 46.2192 185.112 46.192 185.205C46.1648 185.298 46.1564 185.396 46.1672 185.492C46.1828 185.747 46.1828 186.002 46.1672 186.256C44.2484 186.6 42.314 186.912 40.3796 187.224C40.3208 187.065 40.2093 186.932 40.0637 186.847C39.9182 186.761 39.7476 186.729 39.5808 186.754C39.4139 186.78 39.2611 186.862 39.148 186.988C39.0349 187.113 38.9685 187.273 38.96 187.442C26.1367 189.423 28.8199 188.784 25.2319 181.639C24.6243 180.003 23.5902 178.559 22.2367 177.458C22.0223 177.334 21.7854 177.254 21.5397 177.223C21.2941 177.192 21.0447 177.211 20.8063 177.278C20.5679 177.345 20.3453 177.458 20.1516 177.613C19.9579 177.767 19.7969 177.958 19.6783 178.176C18.6799 179.58 19.3819 184.306 19.6783 186.116C19.9747 187.926 21.5659 196.318 22.6579 197.41C23.0635 197.816 24.3895 197.847 25.5751 197.91V198.268C14.7487 199.282 1.0206 203.104 0.0533972 213.993C-0.664206 222.152 5.95023 225.381 13.9219 227.113C13.4227 229.843 6.74583 265.489 7.10463 267.564C7.54143 269.92 13.1887 271.292 14.1403 268.75C15.6067 264.772 20.9575 232.448 21.6595 228.189C29.6397 228.914 37.6754 228.757 45.6212 227.721C46.3388 231.965 51.6584 264.101 53.1249 268.079C54.0609 270.606 59.7237 269.233 60.1449 266.893C60.5193 264.818 53.9049 229.547 53.2653 226.052C62.1417 223.4 71.1897 217.971 69.9573 208.752C81.3142 208.237 94.3091 206.833 105.541 205.366C105.53 207.378 106.001 209.362 106.914 211.154C108.022 213.229 112 214.649 114.23 215.366C113.825 217.535 106.228 257.923 106.618 260.123C107.008 262.322 112.702 263.836 113.638 261.308C115.198 257.174 120.876 222.495 121.765 217.316C139.05 220.889 147.068 219.843 153.262 219.141C153.418 220.998 156.382 259.374 157.365 261.262C158.394 263.414 164.213 263.258 164.463 260.575C164.853 256.254 161.343 222.355 161.015 218.127C170.524 216.919 179.866 214.638 188.861 211.326C190.733 218.455 195.491 236.286 195.897 237.737C191.368 239.515 187.537 242.711 184.977 246.847C182.228 248.072 179.551 249.452 176.958 250.981C175.526 251.61 174.149 252.356 172.84 253.212C171.603 253.995 170.54 255.026 169.72 256.238C169.629 256.439 169.583 256.657 169.583 256.878C169.583 257.098 169.629 257.316 169.72 257.518C170.1 258.291 170.63 258.98 171.28 259.546C174.135 262.026 175.585 260.856 181.014 268.609C183.791 272.556 184.805 277.595 188.284 281.854C190.733 284.849 191.95 288.094 197.644 286.643C200.764 285.863 202.48 284.506 206.739 283.351C208.907 282.774 211.138 282.353 213.306 281.698C226.754 277.673 223.587 278.765 232.791 277.454C234.351 277.22 236.02 276.862 237.627 276.612C240.444 276.382 243.272 276.298 246.098 276.362C246.453 276.269 246.772 276.07 247.012 275.792C247.252 275.513 247.401 275.168 247.439 274.802C247.576 273.983 247.613 273.15 247.549 272.322C247.708 270.424 247.237 268.527 246.207 266.924C253.414 268.172 272.4 266.675 273.991 265.739C274.138 265.663 274.258 265.543 274.334 265.396C275.27 263.383 276.596 245.381 276.612 238.485C277.134 238.402 277.655 238.303 278.172 238.189C279.264 237.924 279.42 232.823 278.733 231.434C278.677 231.299 278.592 231.177 278.485 231.077C278.377 230.977 278.249 230.902 278.109 230.857C273.648 229.843 261.433 230.093 256.628 230.28C256.452 224.467 255.821 218.678 254.74 212.964C260.524 211.635 266.147 209.684 271.51 207.145C281.51 202.2 287.313 200.25 294.006 190.593C298.795 183.729 296.377 175.227 288.468 172.606ZM241.496 40.7701C243.056 42.3301 250.341 70.4102 250.216 74.7471C250.123 78.3351 205.896 79.4271 199.516 73.5147C199.594 68.6318 209.999 42.1117 211.544 40.2397C213.088 38.3677 239.468 38.5861 241.496 40.7701ZM272.914 133.325C275.52 132.467 279.778 131.453 282.384 132.327C287.781 134.121 288.156 139.784 288.156 145.447C288.156 157.209 284.193 165.602 277.064 174.198C273.788 176.004 270.801 178.292 268.203 180.984C269.605 175.143 269.948 169.099 269.217 163.137C269.097 162.078 268.872 161.032 268.546 160.017C269.633 156.728 270.979 153.53 272.571 150.454C275.083 145.774 276.097 145.852 275.691 145.462C275.671 145.439 275.645 145.42 275.617 145.408C275.589 145.395 275.558 145.388 275.527 145.388C275.496 145.388 275.466 145.395 275.437 145.408C275.409 145.42 275.384 145.439 275.364 145.462C272.063 149.188 269.544 153.538 267.954 158.254C266.503 154.385 262.759 147.443 259.093 145.774C260.404 142.852 262.311 140.235 264.69 138.092C267.07 135.948 269.871 134.325 272.914 133.325ZM252.541 149.721C253.865 148.224 255.593 147.141 257.517 146.601C260.481 146.133 267.439 156.959 268.016 163.355C268.842 169.904 268.311 176.553 266.456 182.887C264.895 184.589 263.441 186.386 262.103 188.269C259.155 192.45 257.579 193.292 255.115 199.984C255.536 183.417 256.846 162.139 256.846 161.437C256.862 161.401 256.868 161.361 256.865 161.322C256.861 161.283 256.848 161.246 256.827 161.213C256.805 161.181 256.775 161.154 256.74 161.136C256.706 161.118 256.667 161.108 256.628 161.109C256.363 161.109 256.363 161.437 256.331 161.686C255.91 165.664 254.35 191.841 254.038 201.997C251.277 188.69 244.678 183.667 242.447 180.438C241.589 169.689 244.834 157.318 252.541 149.721ZM221.34 161.686C222.9 165.976 225.693 172.076 229.141 175.024C225.582 174.276 221.891 174.459 218.423 175.555C219.219 172.762 220.919 165.04 221.372 161.639L221.34 161.686ZM216.27 179.361C216.243 178.94 216.346 178.52 216.567 178.16C219.687 174.042 236.519 173.932 246.207 186.927C250.893 193.547 253.48 201.423 253.633 209.532C249.311 202.231 234.335 187.91 224.679 184.572C224.649 184.561 224.618 184.557 224.586 184.559C224.555 184.561 224.524 184.569 224.496 184.583C224.468 184.596 224.443 184.616 224.422 184.639C224.401 184.663 224.385 184.69 224.375 184.72C224.364 184.75 224.36 184.781 224.362 184.812C224.364 184.844 224.372 184.874 224.386 184.903C224.4 184.931 224.419 184.956 224.442 184.977C224.466 184.998 224.493 185.014 224.523 185.024C235.895 189.189 253.773 208.565 253.539 212.511C252.573 212.492 251.608 212.555 250.653 212.699C249.3 212.698 247.949 212.593 246.613 212.387C242.338 211.653 239.593 209.688 233.087 203.572C228.509 199.385 224.259 194.853 220.373 190.016C218.891 187.442 216.224 182.372 216.27 179.361ZM218.142 134.854C218.862 130.74 220.709 126.905 223.478 123.778C229.936 117.538 240.092 134.339 243.196 142.701C244.513 147.584 245.298 152.594 245.536 157.646C242.51 164.2 241.103 171.385 241.433 178.597C236.972 171.858 230.763 157.209 228.501 145.837C228.08 143.824 226.379 133.201 226.379 131.968C226.567 131.656 225.911 131.297 225.88 131.968C226.259 138.858 227.266 145.698 228.891 152.404C231.276 160.762 234.616 168.818 238.844 176.413C242.213 182.653 242.884 180.25 235.443 176.834C233.933 176.174 232.367 175.652 230.763 175.274C229.93 174.662 229.157 173.973 228.454 173.215C222.292 166.086 216.645 146.227 218.142 134.87V134.854ZM100.845 183.214C103.139 183.339 105.697 182.7 106.649 180.64L117.803 180.921C117.7 181.927 117.99 182.933 118.612 183.73C119.234 184.527 120.141 185.052 121.141 185.196C122.055 185.316 122.984 185.246 123.87 184.991C124.755 184.736 125.579 184.301 126.289 183.714C126.659 183.388 126.947 182.979 127.129 182.521C127.31 182.063 127.381 181.568 127.334 181.077L134.682 181.186C135.072 181.748 156.897 179.205 158.847 178.285C159.814 177.832 159.533 176.241 158.971 175.336C159.159 175.336 159.065 175.336 159.283 175.695C159.416 176.021 159.637 176.302 159.923 176.506C162.595 176.832 165.306 176.517 167.832 175.586C168.331 175.243 168.269 174.837 168.16 174.198C182.013 172.232 180.858 172.638 188.721 170.828C189.158 170.734 183.261 172.778 179.751 174.666C178.056 175.558 176.483 176.664 175.071 177.957C171.514 181.374 163.683 205.912 157.427 207.098C149.787 208.378 142.008 208.599 134.308 207.753C134.529 207.208 134.586 206.609 134.469 206.032C134.353 205.455 134.068 204.925 133.652 204.508C133.002 203.911 132.24 203.448 131.41 203.146C130.58 202.844 129.699 202.708 128.816 202.746C126.102 202.746 124.745 204.415 125.228 206.583C118.088 205.431 111.04 203.768 104.137 201.607C103.451 199.641 101.204 185.601 100.845 183.214ZM100.596 180.406L105.276 180.609C104.712 181.163 104.031 181.582 103.283 181.836C102.535 182.09 101.739 182.172 100.955 182.076C100.892 181.904 100.767 181.218 100.596 180.406ZM126.18 181.062C126.188 181.165 126.188 181.27 126.18 181.374C126.135 181.756 126 182.122 125.785 182.442C125.571 182.762 125.284 183.027 124.948 183.214C123.8 183.875 122.473 184.154 121.157 184.01C120.521 183.879 119.942 183.553 119.5 183.078C119.059 182.603 118.776 182.001 118.692 181.358C118.684 181.218 118.684 181.077 118.692 180.937L126.18 181.062ZM140.672 169.549L136.913 170.017C148.379 154.666 141.874 161.593 140.672 169.549ZM136.164 171.109L140.844 170.578C141.234 171.265 144.978 172.482 145.696 172.716C145.559 172.976 145.444 173.247 145.352 173.527C141.998 173.277 138.473 173.043 134.822 172.918L136.164 171.109ZM167.068 174.681C164.944 175.285 162.738 175.549 160.531 175.461C158.85 171.592 157.412 167.622 156.226 163.574C158.012 162.01 160.155 160.906 162.466 160.36C163.152 161.998 166.99 173.028 167.068 174.681ZM158.628 174.26C149.861 174.806 147.708 175.118 146.32 174.775C146.226 170.984 152.731 169.018 156.507 168.41C157.255 170.703 158.035 172.794 158.628 174.244V174.26ZM140.61 177.676C142.388 177.427 156.21 175.586 157.989 176.007C158.205 176.38 158.308 176.809 158.285 177.24C156.132 177.895 135.306 180.672 135.119 180.687C134.92 180.083 134.815 179.451 134.807 178.815V178.69C135.587 178.675 132.67 178.768 140.61 177.661V177.676ZM133.918 173.964C137.038 174.088 140.298 174.26 145.15 174.65C145.15 175.071 145.15 175.461 145.587 175.773C146.023 176.085 147.147 175.633 140.251 176.928C138.305 177.191 136.391 177.656 134.542 178.316C133.606 173.589 133.559 174.385 133.918 173.948V173.964ZM133.231 207.27C125.197 206.427 125.743 206.708 125.728 206.365C125.681 205.953 125.749 205.536 125.922 205.16C126.095 204.783 126.368 204.461 126.71 204.228C128.458 203.089 134.23 204.462 133.231 207.254V207.27ZM187.988 107.024C187.566 107.351 173.058 118.38 170.921 119.722C169.84 118.037 168.646 116.426 167.349 114.902C169.096 112.967 180.858 104.871 180.858 104.871C181.357 104.871 186.147 105.386 187.988 107.008V107.024ZM157.131 109.161C159.039 108.389 160.999 107.753 162.996 107.258C166.116 114.824 165.305 113.17 165.835 114.512C163.558 115.536 161.339 116.687 159.19 117.959C158.238 115.697 156.819 111.548 157.131 109.161ZM189.891 62.4542V64.4198C185.211 65.0282 185.211 65.9798 185.211 65.3714C187.754 63.9206 189.392 63.5306 189.906 62.3606L189.891 62.4542ZM183.775 74.5599C183.457 74.2766 183.1 74.0402 182.715 73.8579C182.481 73.7331 182.715 73.8579 182.715 73.4991C182.773 73.2108 182.773 72.9137 182.715 72.6255C183.103 72.7276 183.5 72.7903 183.9 72.8127C183.822 73.2807 183.807 73.9359 183.791 74.4975L183.775 74.5599ZM178.69 66.1826C178.191 66.8534 177.598 67.5398 177.13 68.2418C177.82 65.5065 179.257 63.0167 181.279 61.0502C181.946 60.6215 182.582 60.1472 183.183 59.6306C185.117 57.3998 181.623 55.1222 178.783 57.665C176.674 59.4774 175.229 61.9426 174.681 64.6694C174.275 66.7442 174.883 66.4946 174.135 66.3074C173.449 66.0596 172.699 66.0596 172.013 66.3074C171.514 64.841 168.238 64.8566 167.13 65.6522C166.678 65.9798 166.99 65.9174 166.631 65.6522C165.933 65.456 165.2 65.4171 164.485 65.5385C163.77 65.6599 163.091 65.9385 162.497 66.3542C162.357 66.4478 161.857 67.0718 161.577 67.3682C160.963 67.3376 160.35 67.4442 159.783 67.6802C159.196 67.949 158.737 68.4359 158.503 69.0374V69.3962C158.225 69.3456 157.939 69.3456 157.661 69.3962C156.61 69.8346 155.775 70.6699 155.337 71.7207C155.082 72.1988 155.01 72.7533 155.134 73.2807C153.777 74.0139 152.357 75.0747 152.591 76.6035C152.721 76.9874 152.917 77.3462 153.168 77.6643C152.778 77.9451 151.717 78.0699 151.936 80.4411L150.766 80.3475C149.955 76.2447 149.455 50.801 149.861 50.5202C151.717 49.6621 180.562 49.5529 183.541 50.3798C183.893 53.9043 184.039 57.4463 183.978 60.9878C181.884 62.3152 180.089 64.0629 178.705 66.1202L178.69 66.1826ZM188.565 90.3627C186.648 90.8745 184.681 91.1728 182.699 91.2519C182.974 91.0515 183.183 90.7739 183.299 90.4545C183.416 90.1351 183.435 89.7882 183.354 89.4579C183.66 89.3999 183.948 89.269 184.192 89.0761C184.436 88.8833 184.631 88.6343 184.758 88.3503C184.93 87.8874 184.93 87.3781 184.758 86.9151C184.665 86.6967 184.571 86.9151 185.055 86.6499C185.345 86.5128 185.602 86.315 185.81 86.0699C186.017 85.8248 186.17 85.5381 186.257 85.2292C186.344 84.9202 186.364 84.5961 186.315 84.2788C186.267 83.9614 186.151 83.6582 185.975 83.3895C186.215 83.1128 186.369 82.7723 186.419 82.4095C186.469 82.0466 186.412 81.677 186.256 81.3459C186 80.8927 185.606 80.5323 185.133 80.3163C185.365 79.9268 185.464 79.4718 185.413 79.021C185.362 78.5702 185.165 78.1484 184.852 77.8203C184.852 76.4787 184.977 74.7939 185.039 72.9063C186.648 72.9215 188.226 73.3456 189.626 74.1387C189.532 76.6815 189.189 87.9915 188.58 90.3004L188.565 90.3627ZM100.908 90.3627C98.8175 81.3927 97.5383 5.04593 98.8799 3.67312C101.469 0.833911 183.042 -0.211294 188.83 2.61232C189.115 3.63153 189.298 4.67673 189.376 5.73233C190.499 17.1984 190.172 49.4125 189.969 61.2218C189.236 59.4902 186.927 59.6618 185.18 60.3326C185.22 56.8829 185.048 53.434 184.665 50.0054C184.648 49.8346 184.581 49.6725 184.473 49.5393C184.365 49.4062 184.22 49.3078 184.056 49.2565C181.326 48.2737 150.75 48.9289 149.533 50.0834C148.785 50.8166 149.05 78.1635 149.861 80.8623C149.91 80.9768 149.99 81.0755 150.092 81.1471C150.194 81.2188 150.314 81.2606 150.438 81.2679C150.875 81.2679 151.889 81.4083 152.232 81.4239C152.497 81.9075 152.919 82.0011 153.153 82.2039C153.014 82.3183 152.907 82.465 152.839 82.6309C152.77 82.7969 152.744 82.9771 152.763 83.1555C152.847 83.965 153.161 84.7335 153.667 85.3707C154.416 86.2599 155.103 85.9947 155.867 85.9947C156.023 87.2895 156.351 89.4267 156.834 91.798C145.665 91.8136 105.962 91.2207 100.923 90.2535L100.908 90.3627ZM166.225 101.283C166.05 101.138 165.829 101.06 165.601 101.064C164.249 101.039 162.927 100.663 161.764 99.9724C160.527 98.7175 159.537 97.241 158.847 95.62C157.634 91.5023 156.871 87.2657 156.569 82.9839C156.709 81.0495 158.659 78.6627 162.185 77.9295C164.965 77.4407 167.828 77.7939 170.406 78.9435C172.481 79.7703 175.351 83.0775 176.506 84.8715C176.559 84.9459 176.639 84.997 176.729 85.0144C176.819 85.0318 176.912 85.0142 176.989 84.9651C177.479 84.649 178.003 84.3874 178.549 84.1851C179.015 84.0764 179.504 84.1543 179.912 84.4022C180.32 84.6502 180.615 85.0483 180.733 85.5111C181.545 87.3519 178.503 90.4251 178.081 91.018C178.023 91.1738 178.023 91.3457 178.081 91.5015C178.942 95.7001 179.557 99.9454 179.922 104.216C179.407 104.512 178.768 104.996 173.448 108.989C171.16 110.449 168.971 112.06 166.896 113.81C166.319 111.969 164.853 108.724 164.104 107.086C166.569 101.564 166.6 101.595 166.241 101.236L166.225 101.283ZM127.459 144.027C133.699 132.202 143.465 114.886 156.569 109.566C156.508 112.885 157.179 116.177 158.535 119.207C158.586 119.281 158.655 119.342 158.735 119.383C158.815 119.425 158.904 119.447 158.995 119.447C159.085 119.447 159.174 119.425 159.254 119.383C159.334 119.342 159.403 119.281 159.455 119.207C160.055 118.695 160.722 118.264 161.436 117.928C161.728 119.05 162.225 120.108 162.903 121.048C162.559 123.014 156.304 148.754 156.663 150.267C157.769 153.133 159.231 155.848 161.015 158.348C161.358 158.816 161.733 159.175 162.216 158.785C164.57 156.401 166.529 153.657 168.019 150.657C168.113 150.329 168.144 150.548 167.068 121.61C167.583 121.017 168.628 119.769 169.111 119.051C170.391 120.845 169.673 120.611 170.125 120.97C170.578 121.329 170.843 121.126 171.233 120.97C173.791 119.504 186.833 109.426 188.877 107.476C191.416 108.635 193.844 110.024 196.131 111.626C206.38 118.178 208.611 129.644 209.687 141.718C210.405 150.205 209.328 157.412 203.057 162.809C198.915 166.167 194.042 168.502 188.83 169.627C185.429 170.469 170.64 172.638 167.832 173.028C166.6 169.167 165.173 165.372 163.558 161.655C168.659 159.44 177.816 156.179 183.027 154.417C183.117 154.392 183.196 154.336 183.25 154.259C183.304 154.182 183.33 154.089 183.323 153.995C182.98 149.627 182.527 138.224 184.212 134.168C184.337 133.887 183.885 133.7 183.76 133.981C181.95 138.115 182.2 149.206 182.449 153.715C177.099 155.431 168.253 158.395 163.105 160.625C162.887 160.157 162.871 159.939 162.435 159.892C161.109 159.783 156.007 161.951 155.305 163.277C154.993 163.855 155.945 166.772 156.273 167.817C153.028 168.098 148.473 169.174 146.32 171.67C144.755 171.226 143.24 170.625 141.796 169.876C142.482 165.196 146.257 157.755 148.629 153.808C149.533 152.248 150.672 142.124 150.781 140.455C150.868 138.963 150.868 137.469 150.781 135.977C150.768 135.924 150.736 135.876 150.693 135.842C150.649 135.808 150.595 135.79 150.54 135.79C150.484 135.79 150.43 135.808 150.386 135.842C150.343 135.876 150.311 135.924 150.298 135.977C150.204 136.945 150.033 138.068 149.83 139.347C149.736 140.049 148.629 151.453 147.49 153.387C143.87 158.519 137.178 167.911 133.309 172.872C133.169 172.248 128.52 151.437 127.615 150.875C126.687 150.582 125.718 150.44 124.745 150.454C125.507 148.254 126.414 146.107 127.459 144.027ZM90.877 152.669C95.7599 152.17 125.197 150.688 127.116 151.64C127.21 152.373 129.253 157.755 131.016 166.132C132.342 172.372 134.136 178.612 134.479 180.687C133.668 180.687 100.658 179.377 99.1295 179.127C97.9439 176.46 91.6726 155.789 90.877 152.669ZM23.4691 196.412C22.5331 194.852 19.3195 180.656 20.6767 178.753C22.4239 176.319 25.3567 185.149 26.3239 186.88C28.1959 190.546 31.4408 189.704 39.3812 188.44C39.662 189.267 39.7556 190 40.4732 190C40.5932 189.998 40.7109 189.967 40.8165 189.91C40.922 189.853 41.0122 189.771 41.0795 189.671C41.1468 189.572 41.1892 189.458 41.2031 189.339C41.2171 189.22 41.2021 189.099 41.1596 188.986C41.0348 188.674 40.9412 188.378 40.8632 188.128C46.838 187.177 46.1984 187.13 46.214 187.38C46.214 187.574 46.2913 187.761 46.4288 187.898C46.5663 188.036 46.7528 188.113 46.9472 188.113C47.1417 188.113 47.3282 188.036 47.4657 187.898C47.6032 187.761 47.6804 187.574 47.6804 187.38V187.021C51.674 186.303 55.6521 185.461 59.6457 184.79C59.6457 185.008 59.7549 185.211 59.8329 185.414C59.897 185.598 60.0317 185.749 60.2072 185.834C60.3827 185.919 60.5848 185.931 60.7689 185.866C60.953 185.802 61.1041 185.668 61.1889 185.492C61.2738 185.317 61.2854 185.115 61.2213 184.93C61.2213 184.79 61.2213 184.65 61.0965 184.525C65.4489 183.714 69.2241 182.965 73.4674 182.403V183.464C73.4755 183.56 73.5026 183.654 73.547 183.74C73.5915 183.826 73.6523 183.902 73.7262 183.964C73.8001 184.026 73.8855 184.074 73.9776 184.103C74.0697 184.132 74.1667 184.143 74.263 184.135C74.3592 184.127 74.453 184.1 74.5388 184.055C74.6246 184.011 74.7008 183.95 74.7631 183.876C74.8254 183.802 74.8726 183.717 74.9018 183.625C74.9311 183.532 74.942 183.435 74.9338 183.339V182.2C82.7338 181.062 84.1534 181.202 87.913 180.64L88.1782 181.374C88.2691 181.53 88.4133 181.648 88.5844 181.706C88.7554 181.764 88.9417 181.758 89.109 181.69C89.2762 181.622 89.413 181.495 89.4943 181.334C89.5755 181.172 89.5957 180.987 89.551 180.812C89.4923 180.679 89.4402 180.544 89.395 180.406C92.2186 179.938 95.0267 179.346 97.8659 178.846C98.3651 180.157 98.3027 180.141 99.8315 180.266C100.003 180.266 100.565 186.646 102.624 198.097C85.0894 199.064 51.4712 199.657 34.9196 197.036C33.9212 196.88 32.3612 196.818 32.5172 196.818C30.7231 194.431 27.4315 189.891 26.0275 192.481C25.377 193.721 25.1627 195.144 25.4191 196.521C24.7673 196.532 24.1156 196.496 23.4691 196.412ZM40.832 198.97C39.0089 199.423 37.2165 199.991 35.4656 200.671C34.7255 199.848 34.0328 198.983 33.3908 198.081C35.0132 198.237 36.0272 198.534 40.8008 198.97H40.832ZM13.0795 268.282C12.7363 269.218 10.209 268.937 8.94544 268.032C7.96264 267.314 7.63503 270.575 14.5927 227.207C16.7524 227.64 18.9346 227.952 21.1291 228.143C16.5583 251.512 13.8283 266.207 13.0795 268.282ZM58.9905 265.942C58.9905 266.644 59.1933 266.878 58.4757 267.408C57.2433 268.297 54.6849 268.625 54.3261 267.673C53.5461 265.583 50.504 249.203 46.3076 227.643C48.4803 227.292 50.6313 226.818 52.7505 226.224C54.5289 237.347 58.8813 264.725 58.9905 265.864V265.942ZM34.0304 220.358C25.1071 220.358 6.10623 220.031 1.6134 212.277C3.92222 203.214 16.6051 200.281 25.9027 199.329C26.6848 202.347 27.6432 205.316 28.7731 208.221C29.3241 209.583 30.357 210.693 31.6748 211.341C32.7357 211.62 33.8451 211.661 34.9237 211.461C36.0023 211.261 37.0236 210.826 37.9148 210.187C59.6145 207.94 51.362 209.438 67.2429 208.892C61.4865 217.8 44.81 220.296 34.046 220.28L34.0304 220.358ZM48.242 208.081C47.852 208.081 37.6964 208.908 37.322 209.126C36.5724 209.669 35.7169 210.048 34.8112 210.239C33.9055 210.43 32.9697 210.428 32.0648 210.234C31.0507 209.705 30.2594 208.831 29.8339 207.769C28.8823 205.382 24.8887 194.462 27.1039 193.089C28.7731 193.308 33.7652 201.373 34.982 201.95C35.081 202.001 35.1906 202.027 35.3018 202.027C35.413 202.027 35.5226 202.001 35.6216 201.95C38.4573 200.84 41.379 199.963 44.3576 199.329C63.7767 200.343 83.2392 200.187 102.639 198.861C102.819 199.968 103.069 201.062 103.388 202.137C103.414 202.201 103.454 202.258 103.506 202.304C103.557 202.35 103.618 202.384 103.685 202.402C105.245 202.902 107.164 203.526 109.55 204.196C68.3037 209.298 59.4741 207.161 48.2576 208.003L48.242 208.081ZM112.577 260.903C112.234 261.839 109.691 261.542 108.443 260.638C107.476 259.951 106.992 263.976 114.776 215.538C116.742 216.146 118.957 216.723 121.313 217.223C115.993 244.413 113.372 258.75 112.592 260.825L112.577 260.903ZM163.324 260.513C163.23 261.496 160.719 261.886 159.268 261.34C158.113 260.903 158.675 264.288 153.901 219.095C156.085 218.845 158.285 218.564 160.5 218.252C162.31 243.961 163.542 258.282 163.339 260.482L163.324 260.513ZM189.485 211.154C191.56 210.343 193.619 209.469 195.616 208.518L202.496 235.709C200.623 236.044 198.788 236.567 197.02 237.269C195.07 230.311 191.435 217.815 189.501 211.076L189.485 211.154ZM208.736 236.348C212.491 236.487 216.208 237.149 219.78 238.314C221.049 238.666 222.298 239.083 223.525 239.562C227.349 241.309 230.785 243.801 233.633 246.894C236.41 250.17 237.034 254.429 236.753 258.75C236.551 261.355 234.866 263.056 232.822 264.709C232.604 262.946 229.702 261.589 228.017 261.324C227.768 261.324 227.737 261.418 228.407 261.043C229.607 260.377 230.567 259.351 231.153 258.11C231.371 257.876 231.013 257.549 230.81 257.783C229.109 258.953 228.205 259.889 225.911 261.324C225.755 261.324 225.787 261.698 224.788 261.652C223.398 261.323 221.973 261.166 220.545 261.184C219.839 259.407 219.573 257.487 219.768 255.586C219.964 253.685 220.616 251.859 221.668 250.264C224.351 246.66 225.365 247.97 225.365 247.299C225.365 246.254 218.532 248.142 218.61 256.472C218.668 258.119 219.129 259.726 219.952 261.152C218.096 261.244 216.27 261.656 214.554 262.369C214.196 262.042 212.698 262.822 211.731 262.369C212.556 259.578 212.862 256.66 212.636 253.758C212.403 252.027 211.671 250.4 210.53 249.078C209.256 247.625 207.65 246.502 205.85 245.802C202.137 244.46 200.873 246.348 198.674 247.05C198.309 247.172 197.915 247.172 197.55 247.05C196.146 246.597 192.356 245.49 191.529 246.753C190.889 247.705 191.825 249.109 192.434 250.17C193.042 251.231 193.245 251.293 192.231 253.867C191.929 254.721 191.531 255.537 191.045 256.301C190.25 257.128 187.582 257.736 187.083 258.703C186.069 260.575 189.922 262.463 190.64 263.383C191.357 264.304 192.605 266.004 193.276 266.722C195.819 269.498 202.043 270.138 205.272 269.108C206.83 268.617 208.237 267.737 209.36 266.55C210.342 267.377 210.155 268.672 209.89 269.966C209.734 270.715 208.938 271.152 208.33 271.526C206.326 272.821 203.954 273.424 201.575 273.242C200.956 273.042 200.355 272.786 199.781 272.478C198.225 272.107 196.739 271.485 195.382 270.637C194.203 269.445 192.825 268.468 191.31 267.751C183.931 265.864 182.527 257.003 184.852 250.045C187.722 241.215 199.22 236.099 208.751 236.27L208.736 236.348ZM203.65 268.687C205.21 266.004 204.321 262.447 202.636 259.951C200.608 256.831 198.798 257.923 197.41 257.206C195.444 256.176 195.148 255.022 194.368 254.46C193.993 254.215 193.583 254.031 193.151 253.914C193.515 253.121 193.742 252.271 193.822 251.402C193.713 250.341 191.997 248.064 192.262 247.549C193.089 247.159 196.162 248.017 197.036 248.313C198.705 248.875 200.624 247.299 202.09 246.753C204.508 245.958 207.893 248.001 209.531 249.874C212.199 252.994 211.606 256.816 210.81 260.794C210.598 262.684 209.793 264.459 208.509 265.863C207.225 267.267 205.53 268.229 203.666 268.609L203.65 268.687ZM200.624 263.851C200.748 264.07 200.452 264.366 200.187 264.085C199.984 263.885 199.834 263.638 199.749 263.366C199.665 263.094 199.649 262.805 199.703 262.525C199.729 262.246 199.836 261.981 200.01 261.762C200.185 261.543 200.42 261.38 200.686 261.293C201.107 261.152 201.154 261.542 200.998 261.667C200.78 261.967 200.634 262.313 200.572 262.678C200.509 263.043 200.533 263.418 200.639 263.773L200.624 263.851ZM246.519 272.431C246.519 273.305 246.706 274.678 246.129 275.239C245.833 275.536 241.745 274.896 237.565 275.504C236.005 275.738 234.335 276.097 232.729 276.316C223.727 277.595 226.489 276.55 213.057 280.606C210.904 281.245 208.704 281.666 206.536 282.244C202.324 283.382 200.499 284.771 197.457 285.52C192.605 286.736 191.763 284.084 189.345 281.152C185.944 277.002 184.961 272.041 182.106 268.001C176.49 260.06 175.024 261.246 172.138 258.781C171.57 258.313 171.103 257.735 170.765 257.081C170.716 256.998 170.689 256.904 170.689 256.808C170.689 256.712 170.716 256.617 170.765 256.535C171.526 255.594 172.419 254.769 173.417 254.086C174.681 253.246 176.012 252.51 177.395 251.886C179.548 250.716 182.434 248.922 184.306 248.111C180.765 255.599 182.028 266.831 190.858 268.952C191.421 269.144 191.949 269.429 192.418 269.795C193.512 270.804 194.716 271.689 196.006 272.431C197.067 272.899 198.268 273.149 199.329 273.539C200.193 274.05 201.166 274.352 202.168 274.42C203.171 274.488 204.175 274.319 205.101 273.929C206.816 273.412 208.408 272.552 209.781 271.402C210.068 271.103 210.268 270.73 210.358 270.325C210.639 268.765 210.764 267.314 209.578 266.347C210.415 265.321 211.05 264.146 211.45 262.884C211.993 263.084 212.58 263.138 213.15 263.04C210.81 264.959 211.497 266.612 214.508 267.377C217.409 268.096 220.419 268.27 223.384 267.892C226.317 267.626 230.264 267.798 232.635 265.988C235.006 264.179 237.409 262.073 237.705 258.844C238.001 255.614 237.533 254.866 238.001 255.88C238.922 257.845 239.639 259.92 240.7 261.776C242.51 264.896 245.879 266.706 246.363 270.388C246.469 271.038 246.532 271.695 246.55 272.353L246.519 272.431ZM273.429 264.896C273.429 264.803 273.429 264.896 273.429 264.896C273.741 265.474 250.684 267.361 245.193 265.676C244.959 265.396 244.725 265.115 244.46 264.834C242.9 259.639 240.856 245.537 240.232 240.779C252.251 240.823 264.261 240.11 276.19 238.641C276.019 243.072 274.303 262.463 273.445 264.818L273.429 264.896ZM278.109 231.762C278.725 233.706 278.725 235.793 278.109 237.737C277.454 238.766 241.199 240.092 238.438 239.39C237.68 237.578 237.395 235.602 237.611 233.649C237.611 233.649 238.329 233.322 239.078 233.15C246.862 231.341 277.36 230.467 278.187 231.684L278.109 231.762ZM255.707 230.42C251.511 230.592 242.369 231.075 238.423 232.089C237.721 232.277 236.738 232.557 236.551 233.197C236.083 234.679 236.629 239.141 237.674 240.264C238.001 240.638 238.937 240.669 239.624 240.716C240.201 246.504 241.543 257.221 242.744 262.931C240.17 259.904 239.624 256.504 237.487 253.15C237.096 250.577 236.018 248.157 234.367 246.145C231.403 242.9 227.816 240.285 223.821 238.454C222.635 237.971 221.403 237.596 219.968 237.159C214.682 235.326 209.04 234.755 203.494 235.49C203.104 233.93 198.034 215.507 196.022 208.268C206.052 203.307 212.136 194.337 215.896 183.792C216.824 186.183 217.968 188.486 219.312 190.671C221.028 193.479 236.363 209.235 242.385 211.919C244.967 212.986 247.754 213.466 250.544 213.323C251.505 213.295 252.463 213.211 253.414 213.073C253.757 214.539 254.631 218.689 255.785 230.342L255.707 230.42ZM292.976 190C286.424 199.454 280.605 201.373 270.949 206.162C265.912 208.58 260.644 210.483 255.224 211.841C256.706 208.206 260.902 203.666 263.554 200.92C270.094 194.287 277.011 188.037 284.271 182.2C284.321 182.163 284.354 182.108 284.362 182.046C284.371 181.985 284.355 181.922 284.318 181.873C284.281 181.823 284.225 181.79 284.164 181.782C284.102 181.773 284.04 181.789 283.99 181.826C268.999 191.997 257.47 205.226 254.74 210.312C254.776 208.403 254.667 206.494 254.413 204.602C255.027 201.748 256.019 198.989 257.361 196.396C258.927 193.678 260.739 191.109 262.774 188.721C268.219 181.186 279.139 170.766 288.031 173.745C295.285 176.101 297.344 183.729 293.054 189.922L292.976 190Z"
    fill="#004737" />
  <path
    d="M68.0705 187.863C68.1952 187.861 68.3175 187.829 68.4263 187.768C68.5351 187.707 68.6269 187.62 68.6936 187.515C68.7602 187.409 68.7994 187.289 68.8078 187.165C68.8161 187.04 68.7933 186.916 68.7413 186.802C68.4449 186.147 68.2889 185.523 67.8677 184.759C67.7723 184.589 67.6148 184.464 67.4285 184.409C67.2422 184.353 67.0417 184.373 66.8693 184.462C66.784 184.508 66.7086 184.57 66.6475 184.645C66.5863 184.72 66.5406 184.807 66.5131 184.9C66.4855 184.993 66.4766 185.09 66.4869 185.186C66.4972 185.283 66.5264 185.376 66.5729 185.461C67.2593 186.724 67.2437 187.863 68.0705 187.863ZM54.1865 189.532C54.1985 189.725 54.2848 189.906 54.4273 190.037C54.5698 190.168 54.7575 190.239 54.9509 190.234C55.0472 190.23 55.1418 190.207 55.2292 190.167C55.3166 190.126 55.3952 190.069 55.4604 189.998C55.5256 189.927 55.5762 189.844 55.6092 189.753C55.6422 189.662 55.6571 189.566 55.6529 189.47C55.6529 187.91 55.9961 186.662 54.8261 186.584C54.63 186.604 54.4497 186.7 54.3241 186.852C54.1985 187.004 54.1379 187.199 54.1553 187.395C54.2333 188.144 54.1553 188.721 54.1865 189.532ZM81.5802 185.461C81.5884 185.557 81.6155 185.651 81.6599 185.737C81.7043 185.822 81.7652 185.899 81.8391 185.961C81.913 186.023 81.9984 186.07 82.0905 186.1C82.1826 186.129 82.2795 186.14 82.3758 186.132C82.4721 186.123 82.5658 186.096 82.6516 186.052C82.7375 186.007 82.8137 185.947 82.876 185.873C82.9383 185.799 82.9854 185.713 83.0147 185.621C83.044 185.529 83.0548 185.432 83.0466 185.336C83.0466 184.603 83.0466 183.948 82.9218 183.105C82.8701 182.931 82.7568 182.781 82.603 182.684C82.4492 182.588 82.2654 182.55 82.0859 182.579C81.9064 182.607 81.7435 182.7 81.6274 182.84C81.5114 182.98 81.4503 183.157 81.4554 183.339C81.5646 184.041 81.5178 184.696 81.5802 185.461Z"
    fill="#004737" />
</svg>