<svg width="32" height="32" viewBox="0 0 32 32" fill="none" xmlns="http://www.w3.org/2000/svg">
  <path
    d="M27.6804 5.02387C27.6697 4.84038 27.592 4.66722 27.462 4.53726C27.3321 4.4073 27.1589 4.32958 26.9754 4.31887C17.5529 3.76387 10.0167 6.58887 6.81543 11.8751C4.63543 15.4739 4.72043 19.7251 7.03918 23.9001L4.46918 26.4701C4.39549 26.5388 4.33639 26.6216 4.2954 26.7136C4.2544 26.8056 4.23236 26.9049 4.23059 27.0056C4.22881 27.1063 4.24733 27.2063 4.28505 27.2997C4.32278 27.3931 4.37892 27.4779 4.45014 27.5492C4.52136 27.6204 4.60619 27.6765 4.69958 27.7142C4.79297 27.752 4.893 27.7705 4.9937 27.7687C5.0944 27.7669 5.19372 27.7449 5.28571 27.7039C5.37771 27.6629 5.46052 27.6038 5.52918 27.5301L8.09918 24.9601C10.2579 26.1589 12.4367 26.7614 14.5354 26.7614C16.5083 26.7622 18.4429 26.2162 20.1242 25.1839C25.4104 21.9826 28.2342 14.4464 27.6804 5.02387ZM19.3479 23.8989C16.3379 25.7214 12.7679 25.6951 9.20668 23.8501L20.5304 12.5264C20.6629 12.3842 20.735 12.1961 20.7316 12.0018C20.7282 11.8075 20.6495 11.6222 20.512 11.4847C20.3746 11.3473 20.1893 11.2686 19.995 11.2652C19.8006 11.2618 19.6126 11.3339 19.4704 11.4664L8.14668 22.7926C6.30168 19.2314 6.27168 15.6676 8.09793 12.6514C10.9329 7.97262 17.6767 5.42637 26.2229 5.78262C26.5729 14.3226 24.0267 21.0676 19.3479 23.9014V23.8989Z"
    fill="currentColor" />
</svg>