<svg width="32" height="32" viewBox="0 0 32 32" fill="none" xmlns="http://www.w3.org/2000/svg">
  <path
    d="M26.5308 20.5298C26.3902 20.6703 26.1996 20.7492 26.0008 20.7492C25.8021 20.7492 25.6114 20.6703 25.4708 20.5298L16.0008 11.0611L6.53082 20.5298C6.38865 20.6623 6.2006 20.7344 6.0063 20.731C5.812 20.7276 5.62661 20.6489 5.4892 20.5114C5.35179 20.374 5.27308 20.1887 5.26965 19.9944C5.26622 19.8 5.33834 19.612 5.47082 19.4698L15.4708 9.46983C15.6114 9.32938 15.8021 9.25049 16.0008 9.25049C16.1996 9.25049 16.3902 9.32938 16.5308 9.46983L26.5308 19.4698C26.6713 19.6105 26.7502 19.8011 26.7502 19.9998C26.7502 20.1986 26.6713 20.3892 26.5308 20.5298Z"
    fill="currentColor" />
</svg>