<svg width="32" height="32" viewBox="0 0 32 32" fill="none" xmlns="http://www.w3.org/2000/svg">
  <path
    d="M27.7493 15.9998C27.7493 16.1988 27.6703 16.3895 27.5297 16.5302C27.389 16.6708 27.1983 16.7498 26.9993 16.7498H13.9993C13.8004 16.7498 13.6097 16.6708 13.469 16.5302C13.3284 16.3895 13.2493 16.1988 13.2493 15.9998C13.2493 15.8009 13.3284 15.6102 13.469 15.4695C13.6097 15.3289 13.8004 15.2498 13.9993 15.2498H26.9993C27.1983 15.2498 27.389 15.3289 27.5297 15.4695C27.6703 15.6102 27.7493 15.8009 27.7493 15.9998ZM13.9993 8.74985H26.9993C27.1983 8.74985 27.389 8.67083 27.5297 8.53018C27.6703 8.38952 27.7493 8.19876 27.7493 7.99985C27.7493 7.80093 27.6703 7.61017 27.5297 7.46952C27.389 7.32886 27.1983 7.24985 26.9993 7.24985H13.9993C13.8004 7.24985 13.6097 7.32886 13.469 7.46952C13.3284 7.61017 13.2493 7.80093 13.2493 7.99985C13.2493 8.19876 13.3284 8.38952 13.469 8.53018C13.6097 8.67083 13.8004 8.74985 13.9993 8.74985ZM26.9993 23.2498H4.99934C4.80043 23.2498 4.60966 23.3289 4.46901 23.4695C4.32836 23.6102 4.24934 23.8009 4.24934 23.9998C4.24934 24.1988 4.32836 24.3895 4.46901 24.5302C4.60966 24.6708 4.80043 24.7498 4.99934 24.7498H26.9993C27.1983 24.7498 27.389 24.6708 27.5297 24.5302C27.6703 24.3895 27.7493 24.1988 27.7493 23.9998C27.7493 23.8009 27.6703 23.6102 27.5297 23.4695C27.389 23.3289 27.1983 23.2498 26.9993 23.2498ZM8.99934 17.7498C9.14758 17.7497 9.29246 17.7057 9.41567 17.6232C9.53889 17.5408 9.63492 17.4237 9.69163 17.2868C9.74834 17.1498 9.76319 16.9991 9.73431 16.8537C9.70542 16.7083 9.6341 16.5747 9.52934 16.4698L5.06059 11.9998L9.52934 7.52985C9.66182 7.38767 9.73394 7.19963 9.73052 7.00532C9.72709 6.81102 9.64837 6.62564 9.51096 6.48822C9.37355 6.35081 9.18816 6.2721 8.99386 6.26867C8.79956 6.26524 8.61152 6.33737 8.46934 6.46985L3.46934 11.4698C3.32889 11.6105 3.25 11.8011 3.25 11.9998C3.25 12.1986 3.32889 12.3892 3.46934 12.5298L8.46934 17.5298C8.60986 17.6705 8.80049 17.7497 8.99934 17.7498Z"
    fill="currentColor" />
</svg>