<svg width="32" height="32" viewBox="0 0 32 32" fill="none" xmlns="http://www.w3.org/2000/svg">
  <path
    d="M26.5532 26.4998L6.55319 4.49985C6.41589 4.3724 6.23587 4.30096 6.04854 4.29957C5.86122 4.29817 5.68015 4.36694 5.54097 4.49232C5.40179 4.61771 5.31457 4.79065 5.29648 4.9771C5.27838 5.16356 5.33072 5.35004 5.4432 5.49985L10.2482 10.7898V15.9998C10.2482 17.0499 10.5358 18.0798 11.0797 18.978C11.6236 19.8762 12.403 20.6083 13.3335 21.0949C14.2639 21.5815 15.3099 21.804 16.3578 21.7384C17.4058 21.6727 18.4158 21.3213 19.2782 20.7223L20.9694 22.5836C19.7449 23.5082 18.2868 24.0729 16.759 24.2144C15.2312 24.3559 13.6942 24.0686 12.3207 23.3846C10.9472 22.7007 9.79167 21.6472 8.98393 20.3427C8.17618 19.0382 7.74824 17.5342 7.7482 15.9998C7.7482 15.8009 7.66918 15.6102 7.52853 15.4695C7.38787 15.3289 7.19711 15.2498 6.9982 15.2498C6.79928 15.2498 6.60852 15.3289 6.46786 15.4695C6.32721 15.6102 6.2482 15.8009 6.2482 15.9998C6.25141 18.4547 7.17947 20.8182 8.84744 22.6194C10.5154 24.4206 12.8008 25.5272 15.2482 25.7186V28.9998C15.2482 29.1988 15.3272 29.3895 15.4679 29.5302C15.6085 29.6708 15.7993 29.7498 15.9982 29.7498C16.1971 29.7498 16.3879 29.6708 16.5285 29.5302C16.6692 29.3895 16.7482 29.1988 16.7482 28.9998V25.7186C18.6534 25.5739 20.4735 24.8704 21.9807 23.6961L25.4432 27.4998C25.5771 27.647 25.7641 27.735 25.9628 27.7444C26.1616 27.7538 26.356 27.6838 26.5032 27.5498C26.6504 27.4159 26.7384 27.229 26.7477 27.0302C26.7571 26.8314 26.6871 26.637 26.5532 26.4898V26.4998ZM15.9982 20.2498C14.871 20.2498 13.79 19.8021 12.993 19.005C12.196 18.208 11.7482 17.127 11.7482 15.9998V12.4398L18.2569 19.5998C17.5803 20.025 16.7973 20.2504 15.9982 20.2498ZM11.1057 4.9786C11.7631 3.91394 12.7498 3.09278 13.9161 2.6397C15.0825 2.18663 16.3648 2.12638 17.5685 2.46809C18.7722 2.8098 19.8316 3.53482 20.5859 4.53314C21.3402 5.53146 21.7483 6.74859 21.7482 7.99985V15.5536C21.7482 15.7525 21.6692 15.9433 21.5285 16.0839C21.3879 16.2246 21.1971 16.3036 20.9982 16.3036C20.7993 16.3036 20.6085 16.2246 20.4679 16.0839C20.3272 15.9433 20.2482 15.7525 20.2482 15.5536V7.99985C20.2486 7.07466 19.9471 6.17462 19.3894 5.43639C18.8317 4.69816 18.0484 4.16207 17.1584 3.9095C16.2683 3.65694 15.3202 3.70172 14.4579 4.03702C13.5956 4.37233 12.8663 4.97985 12.3807 5.76734C12.3306 5.85443 12.2634 5.93055 12.1833 5.99119C12.1032 6.05183 12.0117 6.09574 11.9142 6.12033C11.8168 6.14492 11.7154 6.14968 11.6161 6.13433C11.5168 6.11897 11.4216 6.08382 11.3361 6.03095C11.2507 5.97809 11.1767 5.90859 11.1187 5.82658C11.0606 5.74457 11.0196 5.65173 10.9981 5.55357C10.9766 5.45541 10.975 5.35393 10.9935 5.25516C11.012 5.15639 11.0502 5.06234 11.1057 4.9786ZM23.6857 18.9998C24.0594 18.0439 24.2503 17.0262 24.2482 15.9998C24.2482 15.8009 24.3272 15.6102 24.4679 15.4695C24.6085 15.3289 24.7993 15.2498 24.9982 15.2498C25.1971 15.2498 25.3879 15.3289 25.5285 15.4695C25.6692 15.6102 25.7482 15.8009 25.7482 15.9998C25.7501 17.2131 25.5245 18.416 25.0832 19.5461C25.0283 19.6868 24.9323 19.8076 24.8076 19.8928C24.6829 19.978 24.5354 20.0236 24.3844 20.0236C24.2623 20.0237 24.1419 19.9939 24.0339 19.9369C23.9258 19.8799 23.8334 19.7973 23.7645 19.6964C23.6956 19.5955 23.6524 19.4793 23.6387 19.3579C23.625 19.2365 23.6411 19.1136 23.6857 18.9998Z"
    fill="currentColor" />
</svg>