<svg width="62" height="63" viewBox="0 0 62 63" fill="none" xmlns="http://www.w3.org/2000/svg">
  <path
    d="M57.6416 25.3639C57.6424 24.9185 57.5551 24.4774 57.3847 24.0659C57.2143 23.6544 56.9641 23.2806 56.6486 22.9662L40.0127 6.33281C39.6979 6.01793 39.3241 5.76815 38.9127 5.59773C38.5013 5.42731 38.0604 5.3396 37.6151 5.3396C37.1698 5.3396 36.7289 5.42731 36.3175 5.59773C35.9061 5.76815 35.5323 6.01793 35.2174 6.33281L28.2594 13.2909L14.1011 18.602C13.5439 18.8106 13.0514 19.1621 12.6731 19.6212C12.2948 20.0803 12.0439 20.6309 11.9456 21.2177L6.3172 54.9883C6.28197 55.1967 6.29264 55.4104 6.34847 55.6143C6.4043 55.8181 6.50395 56.0074 6.64046 56.1688C6.77698 56.3302 6.94707 56.4599 7.13886 56.5488C7.33066 56.6377 7.53955 56.6837 7.75095 56.6836C7.83205 56.6833 7.91302 56.6768 7.99314 56.6642L41.7638 51.0358C42.351 50.9379 42.9021 50.6872 43.3616 50.3089C43.8212 49.9305 44.173 49.4378 44.3818 48.8803L49.6906 34.722L56.651 27.7616C56.9663 27.4471 57.2161 27.0734 57.3862 26.6618C57.5562 26.2503 57.643 25.8092 57.6416 25.3639ZM41.6572 47.8607C41.6274 47.9401 41.5773 48.0104 41.5118 48.0643C41.4464 48.1183 41.3679 48.1542 41.2842 48.1683L11.9868 53.0508L24.7913 40.2439C26.1049 41.0542 27.6704 41.3537 29.1904 41.0857C30.7104 40.8177 32.079 40.0007 33.0363 38.79C33.9936 37.5793 34.4729 36.0592 34.3831 34.5184C34.2934 32.9775 33.6409 31.5233 32.5495 30.4319C31.4581 29.3406 30.0039 28.688 28.4631 28.5983C26.9222 28.5085 25.4021 28.9878 24.1914 29.9451C22.9807 30.9024 22.1637 32.271 21.8957 33.791C21.6277 35.311 21.9273 36.8765 22.7375 38.1902L9.93064 50.9995L14.8156 21.6948C14.8298 21.6118 14.8655 21.534 14.919 21.469C14.9725 21.4041 15.042 21.3541 15.1207 21.3242L28.6977 16.2383L46.7431 34.2837L41.6572 47.8607ZM24.7041 34.8867C24.7041 34.2161 24.9029 33.5606 25.2755 33.003C25.6481 32.4454 26.1776 32.0108 26.7972 31.7542C27.4167 31.4976 28.0985 31.4304 28.7562 31.5612C29.4139 31.6921 30.018 32.015 30.4922 32.4892C30.9664 32.9634 31.2893 33.5675 31.4202 34.2252C31.551 34.883 31.4839 35.5647 31.2272 36.1843C30.9706 36.8038 30.536 37.3334 29.9784 37.7059C29.4208 38.0785 28.7653 38.2773 28.0947 38.2773C27.1954 38.2773 26.333 37.9201 25.6972 37.2843C25.0613 36.6484 24.7041 35.786 24.7041 34.8867ZM54.5924 25.7078L48.4384 31.8618L31.1172 14.543L37.2736 8.38656C37.3186 8.34153 37.372 8.3058 37.4308 8.28142C37.4896 8.25705 37.5526 8.2445 37.6163 8.2445C37.68 8.2445 37.743 8.25705 37.8018 8.28142C37.8606 8.3058 37.914 8.34153 37.959 8.38656L54.5924 25.0224C54.6375 25.0674 54.6732 25.1208 54.6976 25.1796C54.7219 25.2384 54.7345 25.3015 54.7345 25.3651C54.7345 25.4288 54.7219 25.4918 54.6976 25.5506C54.6732 25.6094 54.6375 25.6628 54.5924 25.7078Z"
    fill="#56F09F" />
</svg>