<svg width="292" height="302" viewBox="0 0 292 302" fill="none" xmlns="http://www.w3.org/2000/svg">
  <path
    d="M99.134 230.65C101.784 229.712 104.5 228.968 107.258 228.424L107.592 229.649C107.63 229.793 107.718 229.919 107.84 230.004C107.963 230.088 108.112 230.126 108.26 230.11L119.183 228.838C122.188 221.985 127.705 211.603 127.784 211.444C127.705 208.853 127.784 206.674 127.784 204.194C121.536 206.515 109.977 210.92 103.936 213.734C103.799 213.822 103.693 213.95 103.633 214.101C103.574 214.253 103.562 214.419 103.602 214.576C103.602 214.576 103.713 214.974 103.856 215.546C100.899 215.546 92.043 215.117 89.9125 217.136C89.5812 217.598 89.4185 218.159 89.4514 218.726C89.3242 220.92 90.4212 237.964 92.1701 242.972C93.0764 245.596 94.9843 245.309 96.288 242.797C97.797 239.014 98.7657 235.037 99.1658 230.984C99.1658 230.778 99.1181 230.793 99.134 230.65ZM97.3056 216.421C99.2453 216.262 99.8494 216.293 104.015 216.166C104.762 218.996 106.304 224.815 107.099 227.789C104.294 228.223 101.525 228.866 98.816 229.712C97.9717 225.327 97.4667 220.883 97.3056 216.421Z"
    fill="#004737" />
  <path
    d="M245.468 77.2714C245.865 76.715 245.356 75.9995 244.927 75.443C246.143 74.1923 247.492 73.078 248.949 72.1201C251.409 70.8942 253.658 69.2841 255.611 67.3504C256.422 66.5077 257.948 64.7747 257.376 63.7572C256.804 62.7396 255.786 62.676 254.403 63.2643C255.002 62.6351 255.491 61.9095 255.85 61.1179C256.295 59.8778 255.245 58.8761 252.972 59.7983C253.799 58.4787 253.989 57.0954 252.59 56.4277C251.461 55.8871 249.808 57.1749 248.854 58.0176C246.981 59.6543 245.222 61.418 243.591 63.2961C242.59 61.1974 241 58.7808 239.012 59.5439C237.025 60.3071 238.567 63.7254 239.585 65.5856L235.976 68.0817C235.43 67.7873 234.814 67.6497 234.195 67.6843C230.093 68.3838 211.253 82.7248 209.345 82.7248C207.882 82.7248 186.99 72.7084 168.929 69.8147C168.894 69.7064 168.829 69.6101 168.742 69.537C168.655 69.4639 168.549 69.4169 168.436 69.4014C165.286 68.8638 162.092 68.6243 158.897 68.6859C158.8 68.6924 158.706 68.72 158.62 68.7667C158.535 68.8133 158.461 68.878 158.404 68.9562H157.068C156.75 67.6684 155.574 64.6952 155.16 63.5505C156.242 62.6124 157.736 62.1355 158.515 60.625C159.946 57.8268 159.882 52.9617 159.485 49.8454C161.282 48.4781 161.329 46.284 160.916 44.0423C160.757 43.136 160.264 41.085 159.501 40.5762C159.072 40.2901 158.165 40.5762 157.386 40.8624C156.607 39.0499 156.607 39.8767 156.925 39.1453C157.073 38.8083 157.159 38.4475 157.18 38.0801C158.022 38.3345 159.771 36.6492 159.167 34.4233C158.85 33.6265 158.462 32.8601 158.006 32.1338C158.229 31.5932 158.706 30.9414 157.211 28.954C156.568 28.2597 155.732 27.7726 154.811 27.5549H154.079C153.552 26.7889 152.777 26.2276 151.885 25.9649C150.539 25.6216 149.111 25.8214 147.91 26.5214C147.592 26.7599 147.338 27.0779 147.02 27.3005C146.301 26.8639 145.476 26.6331 144.635 26.6331C143.794 26.6331 142.969 26.8639 142.25 27.3005C141.829 27.4656 141.446 27.7141 141.124 28.031C140.802 28.348 140.547 28.7268 140.374 29.1448C139.595 28.876 138.769 28.7725 137.947 28.8409C137.126 28.9094 136.328 29.1482 135.604 29.5422C132.858 31.0316 130.803 33.5369 129.881 36.522C129.855 36.9721 129.855 37.4233 129.881 37.8734H129.706C127.321 37.5236 124.284 43.1837 126.717 47.5878C127.003 48.1124 127.369 48.6053 127.719 49.1777C128.736 50.7676 128.339 51.2446 130.612 53.1843C131.28 53.7566 131.391 53.7089 131.805 54.0587C132.218 54.4085 132.059 54.2336 132.297 55.1239C132.427 55.6484 132.66 56.1419 132.982 56.5759C133.304 57.0098 133.709 57.3755 134.174 57.6519C134.343 59.207 135.006 60.667 136.066 61.8175C136.401 62.1931 136.793 62.5148 137.226 62.7714C137.343 62.8373 137.474 62.8754 137.608 62.8827C138.085 65.84 138.673 69.6876 138.927 71.3252L137.512 72.0883C135.661 72.8333 133.861 73.699 132.123 74.6799C131.986 74.7742 131.89 74.9159 131.852 75.0774C130.167 75.9677 128.577 76.8104 127.671 77.3509C115.047 84.8394 79.1944 134.206 78.8287 136.464C78.7883 136.593 78.7883 136.732 78.8287 136.861C79.3426 137.681 79.9687 138.425 80.6889 139.071C80.467 139.476 80.2003 139.855 79.8939 140.2C76.7141 142.283 71.9444 145.383 69.3846 148.15C69.2051 148.31 69.0704 148.514 68.9938 148.742C68.9173 148.97 68.9015 149.214 68.948 149.45C68.9946 149.686 69.1019 149.906 69.2593 150.088C69.4167 150.269 69.6188 150.407 69.8457 150.487C70.3226 150.646 70.4021 150.598 73.5025 148.897C72.6504 149.644 71.9535 150.552 71.4515 151.568C71.2448 152.443 72.0398 152.951 73.0414 152.792C73.605 152.645 74.1416 152.408 74.6313 152.093C74.3446 152.536 74.192 153.052 74.192 153.579C74.192 154.107 74.3446 154.623 74.6313 155.066C76.2212 157.069 80.3868 150.757 82.5809 149.199C83.4712 150.328 84.6796 152.967 86.6034 152.268C88.2728 151.648 86.4444 147.975 86.6034 146.91C87.2503 146.288 87.941 145.715 88.6703 145.193C89.8967 146.102 91.2991 146.746 92.7881 147.085C95.4115 147.085 122.79 119.452 124.873 117.242C124.125 124.269 120.357 154.43 121.152 160.297C121.518 162.952 127.893 163.333 130.58 163.477C129.77 182.555 129.229 211.46 129.086 211.762C124.873 220.841 123.728 223.321 122.313 226.071C119.737 231 108.894 249.189 107.67 253.323C107.495 253.974 107.479 254.229 108.163 255.437C106.114 257.591 104.212 259.88 102.471 262.29C101.596 263.88 105.348 278.698 108.004 283.944C108.608 285.121 109.594 286.933 110.913 286.886C114.888 286.743 114.872 272.465 114.761 268.474C114.76 268.351 114.715 268.233 114.634 268.141C115.354 267.065 116.14 266.035 116.987 265.056C117.492 265.404 118.024 265.712 118.577 265.978C119.117 266.217 119.721 265.803 120.166 265.438C125.461 261.272 154.016 225.69 160.137 208.9C162.919 201.237 166.624 190.648 167.673 183.144C168.315 178.399 168.373 173.594 167.848 168.835C167.848 168.767 167.875 168.702 167.922 168.655C167.97 168.607 168.035 168.58 168.102 168.58C168.17 168.58 168.234 168.607 168.282 168.655C168.33 168.702 168.357 168.767 168.357 168.835C169.153 173.621 169.308 178.492 168.818 183.319C167.641 193.733 159.421 215.435 155.033 223.416C158.817 222.717 166.512 221.19 170.233 220.077C182.634 216.309 194.082 205.069 195.083 192.445C195.407 186.498 195.407 180.537 195.083 174.59C194.976 166.38 193.909 158.211 191.903 150.248C195.274 148.42 198.358 146.274 199.36 144.302C201.506 140.089 195.83 115.843 194.59 109.038C201.379 109.785 212.938 111.137 218.328 106.923C224.497 101.963 237.82 88.0034 245.468 77.2714ZM113.902 267.6C111.04 265.867 107.034 261.749 106.43 258.522C107.081 257.695 107.765 256.932 108.401 256.073C110.556 259.361 113.242 262.268 116.351 264.675C115.477 265.6 114.66 266.577 113.902 267.6ZM240.3 66.0308C240.382 65.9783 240.441 65.8963 240.465 65.8017C240.489 65.7071 240.475 65.607 240.427 65.522C239.871 64.4885 238.202 60.8476 239.362 60.4343C240.03 60.1799 240.618 60.5933 241.111 61.1497C241.864 62.1045 242.45 63.1796 242.844 64.3295C242.874 64.423 242.928 64.5068 243.001 64.5718C243.075 64.6368 243.164 64.6806 243.261 64.6986C243.357 64.7165 243.456 64.708 243.548 64.6738C243.64 64.6396 243.721 64.581 243.782 64.5044C245.372 62.7396 249.093 58.7172 251.191 57.636C252.781 56.8093 253.163 58.3356 249.267 61.897C248.373 62.5792 247.513 63.3062 246.692 64.0752C246.646 64.1376 246.622 64.2127 246.622 64.2898C246.622 64.3669 246.646 64.442 246.692 64.5044C246.692 64.9178 247.026 65.3789 247.598 64.9496C248.98 63.7364 250.441 62.6158 251.97 61.5949C252.751 61.0402 253.658 60.6904 254.61 60.5774C254.133 62.0401 249.697 66.0149 249.315 66.46C249.194 66.5685 249.121 66.7202 249.11 66.8823C249.1 67.0445 249.154 67.2043 249.26 67.3272C249.366 67.4501 249.516 67.5264 249.678 67.5397C249.84 67.553 250.001 67.5021 250.126 67.3981C251.891 66.2533 254.975 63.5823 256.04 63.9798C257.106 64.3772 253.942 67.3345 253.147 68.034C248.584 71.9929 249.76 69.4491 244.482 74.823C242.184 72.306 239.546 70.1226 236.643 68.3361L240.3 66.0308ZM171.219 142.076C170.948 139.882 170.614 137.513 170.201 135.049L170.885 134.143C174.065 130.057 175.018 123.554 174.716 118.45C176.418 125.907 177.769 133.236 178.802 140.518L171.219 142.076ZM147.577 87.6377C143.395 84.4578 136.67 78.9726 132.759 75.2205L139.118 72.0406C144.958 77.4953 149.957 83.7856 153.952 90.7062C160.061 101.928 164.592 113.939 167.419 126.4L144.746 94.3312L147.704 88.1941C147.743 88.0997 147.752 87.9953 147.729 87.8956C147.706 87.7959 147.653 87.7058 147.577 87.6377ZM158.324 69.6081C158.42 69.783 159.517 72.1201 161.186 76.2062C161.186 76.3811 160.884 80.3559 160.741 81.755C158.712 80.9506 156.798 79.8814 155.049 78.5752C155.399 77.1919 156.973 70.9118 157.084 69.4968L158.324 69.6081ZM152.68 86.6837C152.791 86.3975 152.903 86.016 153.03 85.5708L154.095 86.1273C154.699 86.5247 154.461 85.3164 155.001 88.8142C155.001 89.4025 155.16 90.0543 155.192 90.7698C154.461 89.4502 153.555 88.0351 152.696 86.6837H152.68ZM151.79 85.3482C148.786 81.0878 145.367 77.136 141.583 73.551L153.555 78.7501C153.094 79.8471 152.426 83.2018 151.806 85.3482H151.79ZM164.016 94.6651C162.426 90.3246 161.202 85.4754 160.598 84.2035C160.634 83.8068 160.634 83.4077 160.598 83.011C160.828 83.0966 161.069 83.1501 161.313 83.17C161.467 83.1717 161.616 83.118 161.732 83.0187C161.849 82.9193 161.926 82.7811 161.949 82.6294C162.077 82.1048 162.283 79.4496 162.315 78.8614C166.94 90.5385 170.801 102.504 173.874 114.682C164.891 95.5713 166.274 101.104 164.032 94.6651H164.016ZM177.165 125.017C173.54 107.639 167.164 85.9683 159.914 69.9101C162.577 69.9116 165.235 70.1243 167.864 70.5461C169.215 82.6295 168.086 82.2161 168.993 82.693C169.899 83.17 175.352 85.3641 176.163 85.698C176.084 86.9222 177.228 121.932 177.181 125.017H177.165ZM158.865 41.5938C159.694 43.4025 159.986 45.4111 159.708 47.3811C159.578 47.8825 159.312 48.3381 158.939 48.6973C158.566 49.0564 158.101 49.3051 157.595 49.4155C157.089 49.5259 156.562 49.4938 156.074 49.3227C155.585 49.1515 155.153 48.8482 154.827 48.4463C154.068 46.8482 153.497 45.1676 153.125 43.4381C153.555 42.8816 158.134 41.7687 158.865 41.5938ZM136.988 57.4929C136.407 57.2285 135.813 56.995 135.207 56.7934C134.801 56.6263 134.438 56.3684 134.147 56.0395C133.855 55.7106 133.643 55.3193 133.527 54.8957C133.41 54.472 133.392 54.0273 133.474 53.5956C133.555 53.1639 133.735 52.7567 133.999 52.4052C135 51.5625 135.907 51.6102 136.733 52.8663C137.258 53.8361 137.242 53.9156 137.481 54.011C137.549 54.0412 137.623 54.0563 137.698 54.0555C137.773 54.0547 137.846 54.038 137.914 54.0063C137.982 53.9747 138.042 53.929 138.091 53.8722C138.139 53.8154 138.175 53.7489 138.196 53.6771C138.432 52.6819 138.47 51.6502 138.307 50.6404C138.117 49.5434 138.085 44.6782 138.117 44.5192C138.581 44.764 139.103 44.8794 139.627 44.8531C142.505 44.7418 143.077 43.2632 144.222 42.0549C145.541 42.1821 145.812 42.818 147.306 42.0549C148.006 41.6568 148.648 41.1646 149.214 40.5921C149.671 40.7792 150.112 41.0025 150.534 41.2599C151.487 41.7181 152.561 41.8589 153.6 41.6614C154.639 41.464 155.587 40.9388 156.305 40.1629C156.48 40.4967 156.639 40.8306 156.782 41.1804C155.321 41.6338 153.946 42.3269 152.712 43.2314C152.442 43.5653 152.839 45.3778 152.935 45.8071C151.603 45.9746 150.314 46.3898 149.135 47.0313C148.896 46.2045 148.372 44.6623 147.545 44.233C147.296 44.1569 147.03 44.1569 146.782 44.233C145.351 44.4556 140.215 45.9978 139.595 46.8405C139.055 47.4288 140.597 51.9759 141.074 52.7232C142.902 55.5532 148.26 54.7265 149.262 51.4194C149.51 50.3096 149.51 49.1587 149.262 48.0488C149.723 48.0488 151.106 47.556 151.265 47.5083C152.362 49.9726 152.68 50.1157 153.952 52.7709C153.777 52.914 153.491 53.1525 153.253 53.3114C152.124 54.0587 151.885 53.9315 151.949 54.2495C151.967 54.3126 152.008 54.3668 152.064 54.4019C152.119 54.437 152.186 54.4507 152.251 54.4403C152.918 54.3449 153.57 54.1632 154.191 53.8997C154.562 53.7612 154.868 53.4891 155.049 53.1366C155.494 52.1349 153.03 48.3668 152.06 47.238C152.251 47.238 152.696 46.92 153.03 46.7451C153.475 48.5258 153.777 49.9249 155.494 50.6245C155.991 50.8118 156.52 50.8972 157.049 50.8753C157.579 50.8534 158.1 50.7249 158.579 50.4973C158.833 53.2955 158.785 57.8427 157.45 60.323C156.766 61.6108 155.081 62.1037 154 63.1689C153.682 63.471 153.888 63.9003 154 64.3613C155.765 69.2742 155.796 69.2583 155.701 69.8942C155.233 72.5338 154.58 75.1371 153.745 77.6848C153.348 77.5099 148.88 75.141 140.136 71.7385C139.865 69.9419 138.419 60.3548 137.958 58.59C137.989 57.9699 137.91 57.8268 136.988 57.4134V57.4929ZM148.117 51.0061C147.608 52.7391 145.208 53.4863 143.49 53.0094C141.773 52.5324 141.662 51.6579 140.851 49.5911C140.471 48.8014 140.209 47.9605 140.072 47.0949C140.597 46.5225 146.336 45.346 147.052 45.2347C148.055 46.9514 148.432 48.9632 148.117 50.9266V51.0061ZM85.9038 146.464C85.2996 147.053 86.1105 148.977 86.2377 150.646C86.2377 150.789 86.2377 151.409 86.1423 151.457C85.2678 151.743 84.457 150.423 83.9641 149.628C83.4712 148.833 82.9784 147.752 82.1993 148.038C80.6094 148.786 76.9208 153.683 75.474 154.191C74.7426 152.792 78.9241 148.802 79.0672 148.579C79.1285 148.477 79.1607 148.36 79.1601 148.241C79.1596 148.121 79.1263 148.005 79.064 147.903C79.0017 147.801 78.9128 147.719 78.8068 147.664C78.7008 147.61 78.5819 147.585 78.463 147.593C78.1768 147.593 77.986 147.848 77.5409 148.245C76.1868 149.567 74.6369 150.671 72.946 151.52C74.4791 149.762 76.1199 148.1 77.8588 146.544C77.9447 146.456 78.0051 146.346 78.0337 146.226C78.0337 146.226 77.6999 145.383 77.048 145.717C76.1258 146.226 71.6423 148.818 70.2273 149.485C70.0365 149.358 70.1478 149.167 70.2273 148.977C72.469 146.226 77.3978 142.887 80.4186 140.773C80.7732 140.407 81.0682 139.989 81.2931 139.532C83.3852 141.479 85.617 143.27 87.9707 144.89C87.2456 145.366 86.5549 145.892 85.9038 146.464ZM122.901 160.917C122.551 160.694 122.297 160.488 122.249 160.201C121.375 153.714 126.24 116.956 126.16 115.509C126.16 115.424 126.143 115.34 126.111 115.262C126.078 115.184 126.029 115.113 125.969 115.053C125.908 114.994 125.836 114.948 125.757 114.917C125.678 114.886 125.593 114.871 125.509 114.873C124.698 114.873 126.129 114.873 105.873 134.27C104.538 135.526 94.3303 145.288 92.6291 145.94C90.292 145.765 81.4997 138.753 80.0688 136.543C82.8353 130.947 116.382 84.903 127.989 77.8597C128.879 77.3191 130.405 76.4765 132.075 75.5861C132.652 76.1306 133.274 76.6252 133.935 77.0647C137.624 80.5626 142.759 84.9189 146.654 88.1941L143.618 94.2199C143.572 94.2997 143.547 94.3902 143.547 94.4823C143.547 94.5743 143.572 94.6648 143.618 94.7446C168.277 130.12 167.912 129.723 168.071 129.723C169.651 137.897 170.634 146.176 171.012 154.494C171.012 156.735 171.012 156.545 171.107 156.386C171.203 156.227 171.107 156.497 171.107 156.497C167.26 160.694 129.181 164.605 122.901 160.917ZM210.792 108.243C203.589 109.245 195.449 107.75 193.875 107.686C193 103.448 191.257 99.4367 188.755 95.9052C188.717 95.8538 188.661 95.8186 188.598 95.8068C188.535 95.795 188.47 95.8074 188.415 95.8416C188.361 95.8757 188.322 95.9291 188.305 95.991C188.289 96.0529 188.296 96.1188 188.326 96.1755C189.248 98.0516 192.333 106.144 193.096 108.116C192.857 108.879 200.282 139.58 198.184 143.714C196.307 147.45 185.385 152.156 181.442 153.508C180.662 144.657 179.388 135.856 177.626 127.147C178.166 122.568 177.467 95.3487 177.26 85.2846C177.254 85.1677 177.215 85.0548 177.148 84.9592C177.08 84.8635 176.987 84.7889 176.879 84.744L169.74 81.7391C169.707 77.9608 169.469 74.1871 169.024 70.4348C186.847 73.5192 207.612 83.7106 209.345 83.7265C211.857 83.7265 230.522 69.4173 234.386 68.8449C236.103 68.5746 243.48 75.0138 244.339 76.7945C236.802 87.3197 223.559 101.152 217.421 105.938C215.445 107.259 213.162 108.053 210.792 108.243Z"
    fill="#004737" />
  <path
    d="M146.478 47.8263C146.458 47.7219 146.418 47.6224 146.36 47.5335C146.302 47.4447 146.226 47.3682 146.139 47.3084C146.051 47.2486 145.952 47.2067 145.848 47.1851C145.744 47.1634 145.637 47.1625 145.532 47.1823C145.428 47.2022 145.328 47.2424 145.24 47.3007C145.151 47.3589 145.074 47.4341 145.014 47.522C144.955 47.6098 144.913 47.7086 144.891 47.8126C144.869 47.9167 144.869 48.0239 144.888 48.1283C145.206 49.7182 145.27 50.0839 145.97 50.0839C146.102 50.0844 146.232 50.0519 146.348 49.9893C146.465 49.9267 146.564 49.8361 146.637 49.7255C146.709 49.615 146.753 49.4882 146.764 49.3564C146.776 49.2247 146.754 49.0922 146.701 48.971C146.653 48.7166 146.51 47.9693 146.478 47.8263ZM151.343 58.3515C152.377 58.6536 153.363 58.1607 153.331 57.9063C153.299 57.6519 153.331 57.7791 151.932 57.2544C150.994 56.9047 149.96 55.6645 149.595 55.8553C149.229 56.0461 149.785 57.0637 149.912 57.2544C150.253 57.7705 150.757 58.157 151.343 58.3515ZM180.423 43.2473C178.34 51.9759 176.814 59.3849 176.559 60.8635C176.391 61.5069 176.358 62.1784 176.464 62.835C177.307 64.6316 188.198 68.1771 189.581 67.4776C190.964 66.778 194.557 58.6854 198.739 50.3383C201.3 50.4202 203.863 50.2337 206.386 49.7818C209.043 49.2945 211.628 48.4773 214.081 47.3493C219.455 44.869 225.338 34.2484 226.133 28.9063C226.729 23.1064 225.501 17.2649 222.619 12.1963C209.28 -10.9369 170.152 1.51208 173.332 27.2051C174.24 33.0841 176.686 38.6186 180.423 43.2473ZM190.121 62.1832C190.121 62.4376 189.835 62.4058 188.531 62.1832C185.865 61.848 183.283 61.0234 180.916 59.7506C179.803 59.1464 179.501 59.0192 179.612 58.749C179.723 58.4787 179.962 58.5741 181.679 59.051C181.838 59.051 186.767 60.641 188.182 61.1338C190.01 61.9606 190.121 61.9606 190.121 62.1832ZM189.835 36.3153C191.533 36.4033 193.225 36.0529 194.748 35.2977C196.164 35.9836 197.695 36.3988 199.263 36.522C196.592 41.4984 191.171 51.642 189.422 57.0478L182.681 55.1876C184.271 51.2764 187.784 42.1185 189.803 36.3153H189.835ZM189.279 34.9957C188.092 34.8163 186.997 34.2527 186.161 33.3911C185.325 32.5296 184.795 31.4177 184.652 30.2259C184.207 27.0461 186.242 23.4847 189.311 24.3273C191.234 24.852 191.473 26.3783 191.139 28.3021C190.853 29.7012 189.819 33.2149 189.247 34.9321L189.279 34.9957ZM193.603 31.1799C193.773 30.1395 194.163 29.1475 194.748 28.2703C195.026 27.7922 195.433 27.4016 195.922 27.143C196.411 26.8845 196.963 26.7683 197.514 26.8076C198.691 27.1574 199.2 29.3833 198.23 30.7824C197.298 32.0193 196.138 33.0663 194.812 33.8668C194.355 33.5991 193.992 33.1981 193.77 32.7178C193.549 32.2374 193.479 31.7008 193.572 31.1799H193.603ZM178.992 10.9721C186.115 2.40243 199.518 -0.999984 209.2 2.52962C214.46 4.33519 218.885 7.99108 221.649 12.8164C224.391 17.6395 225.563 23.1961 225.004 28.7155C224.273 33.6601 218.644 43.931 213.7 46.2045C209.179 48.2667 204.246 49.2674 199.279 49.13C198.739 49.13 198.166 49.13 197.96 49.5116C197.022 51.4195 195.305 55.1081 193.619 58.5741C192.455 58.0121 191.249 57.5443 190.01 57.1749C191.854 51.8964 197.673 41.5302 200.44 36.5061C202.837 36.7114 205.246 36.2953 207.436 35.2977C208.027 34.9864 208.517 34.5128 208.849 33.9325C209.181 33.3523 209.34 32.6894 209.309 32.0218C209.277 31.3541 209.055 30.7093 208.67 30.1631C208.285 29.6169 207.752 29.192 207.133 28.9381C204.669 27.7297 202.459 30.6234 201.171 33.056C200.822 33.6919 200.424 34.4392 199.979 35.2818C198.693 35.1973 197.425 34.9352 196.211 34.5028C197.42 33.653 198.492 32.6236 199.391 31.4501C199.894 30.69 200.149 29.7923 200.121 28.881C200.092 27.9697 199.781 27.0897 199.232 26.3624C198.8 25.8608 198.2 25.534 197.544 25.4432C196.888 25.3525 196.222 25.5041 195.67 25.8695C194.557 26.5537 193.664 27.5447 193.1 28.7236C192.536 29.9025 192.325 31.2191 192.49 32.5154C192.663 33.2471 193.057 33.9078 193.619 34.4074C192.576 34.8393 191.457 35.0556 190.328 35.0433C190.964 33.1673 191.997 29.7807 192.268 28.3975C192.437 27.6089 192.475 26.7976 192.379 25.9967C192.256 25.3092 191.937 24.6718 191.46 24.1613C190.984 23.6508 190.37 23.2888 189.692 23.119C185.829 22.022 182.983 26.2988 183.539 30.2895C183.696 31.7196 184.31 33.061 185.29 34.1149C186.269 35.1688 187.562 35.879 188.977 36.1404C186.942 41.8641 183.762 51.1015 182.172 55.0445L178.674 54.1382C180.916 42.8816 181.186 43.1519 180.868 43.0088C177.256 38.4029 174.944 32.9125 174.175 27.1097C173.8 24.2323 174.035 21.3083 174.865 18.528C175.695 15.7476 177.101 13.1731 178.992 10.9721ZM201.06 35.3772C202.173 33.358 204.399 28.9381 206.561 30.0192C206.994 30.1935 207.37 30.4825 207.65 30.8552C207.931 31.2278 208.104 31.67 208.151 32.1338C208.119 34.9321 203.763 35.4249 200.996 35.3772H201.06ZM261.922 42.3887C263.838 41.262 266.101 40.8773 268.282 41.3076C270.677 41.3505 272.965 42.3082 274.677 43.9845C276.389 45.6608 277.394 47.9284 277.487 50.3224C276.047 49.4866 274.362 49.1722 272.717 49.4321C268.727 49.7818 263.512 51.9441 264.211 55.7917C264.784 58.9715 268.981 58.5423 272.161 57.6837C275.341 56.8252 277.869 55.267 278.521 52.1985C282.384 55.0127 283.29 59.9414 283.449 64.7588C283.449 64.8263 283.476 64.891 283.524 64.9387C283.572 64.9864 283.636 65.0132 283.704 65.0132C283.771 65.0132 283.836 64.9864 283.884 64.9387C283.931 64.891 283.958 64.8263 283.958 64.7588C284.069 59.369 283.1 54.0905 278.695 51.022C278.741 49.6416 278.505 48.2663 278.004 46.9795C277.502 45.6927 276.745 44.5211 275.777 43.5356C274.809 42.5501 273.652 41.7713 272.374 41.2462C271.097 40.7211 269.726 40.4607 268.345 40.4809C266.138 40.1586 263.888 40.6199 261.985 41.7846C261.397 42.0708 261.667 42.5 261.922 42.3887ZM276.422 53.7884C274.625 56.1415 269.538 57.3657 267.184 56.9683C266.31 56.8252 265.595 56.4595 265.404 55.5532C264.831 52.3734 270.317 50.6404 273.592 50.5291C274.926 50.4269 276.256 50.7678 277.376 51.499C277.255 52.3302 276.927 53.1177 276.422 53.7884ZM254.64 23.8027C256.341 21.704 255.197 18.0472 250.443 18.0313C248.598 18.0313 247.708 19.9074 247.835 21.704C248.121 25.9808 252.939 25.8537 254.64 23.8027ZM248.948 21.6245C248.948 20.5751 249.441 19.2078 250.538 19.2237C253.098 19.2237 254.274 20.4161 254.274 21.7358C254.211 24.7407 248.741 26.2988 248.948 21.6245ZM248.296 201.873C234.321 196.292 227.834 223.305 216.419 246.518C216.346 247.493 216.378 248.474 216.514 249.443C216.514 251.876 216.784 267.982 218.199 269.81C218.581 270.541 220.187 269.81 220.934 269.349C227.281 265.42 233.261 260.929 238.805 255.93C238.852 255.876 238.887 255.813 238.909 255.744C238.931 255.676 238.939 255.604 238.932 255.533C241.889 251.319 252.971 229.378 255.658 218.376C257.534 210.586 255.674 204.782 248.296 201.873ZM253.289 222.065C245.807 221.106 238.573 218.743 231.968 215.101C235.688 208.058 240.283 200.029 247.867 203.049C256.309 206.404 256.135 213.352 253.289 222.017V222.065ZM226.832 263.403C226.344 262.993 225.811 262.641 225.243 262.353C223.094 261.261 220.612 261.022 218.295 261.685C218.136 259.793 217.229 247.488 217.229 247.376C229.138 251.733 225.465 249.841 237.262 255.707C236.022 256.884 231.364 260.143 226.832 263.371V263.403ZM235.036 217.39C236.587 218.238 238.179 219.007 239.806 219.696C236.162 225.42 232.942 231.404 230.171 237.598C227.5 243.179 227.596 243.147 224.877 249.236C223.287 248.728 221.697 248.251 220.107 247.774C221.824 244.355 234.035 219.362 235.036 217.359V217.39ZM225.497 249.395C230.664 240.126 235.927 228.599 240.442 219.903C242.032 220.57 243.622 221.111 245.212 221.588C244.369 223.178 241.905 227.407 241.253 228.631C240.601 229.855 234.067 242.734 233.606 243.719C232.874 245.309 230.871 249.745 230.251 251.16C228.629 250.445 227.071 249.904 225.433 249.364L225.497 249.395ZM230.823 251.367C231.793 249.602 235.784 242.193 236.277 241.239C237.024 239.761 245.355 222.733 245.816 221.747C247.279 222.16 248.821 222.51 249.807 222.701C246.897 230.65 238.518 245.961 235.497 253.513C232.747 252.225 232.127 251.908 230.76 251.335L230.823 251.367ZM231.793 215.562L234.639 217.152C228.904 226.919 223.908 237.102 219.694 247.615L217.309 246.883C226.546 227.2 226.976 224.625 231.729 215.53L231.793 215.562ZM238.343 254.897L235.943 253.752C238.534 248.664 246.643 235.611 250.347 222.812C251.238 222.971 252.112 223.114 252.955 223.225C248.869 234.127 243.963 244.704 238.28 254.865L238.343 254.897ZM188.531 265.215C189.165 264.69 189.618 263.98 189.826 263.184C190.035 262.388 189.988 261.547 189.692 260.779C189.557 259.671 189.049 258.643 188.252 257.862C187.454 257.081 186.415 256.596 185.304 256.485C184.194 256.374 183.079 256.644 182.142 257.251C181.206 257.858 180.504 258.766 180.153 259.825C178.118 258.506 175.908 257.107 173.793 255.771C175.383 253.656 180.057 254.594 180.534 256.327C180.545 256.395 180.582 256.455 180.637 256.496C180.692 256.536 180.761 256.553 180.828 256.542C180.896 256.532 180.956 256.495 180.997 256.44C181.037 256.384 181.054 256.315 181.043 256.248C180.805 253.482 175.049 251.86 172.728 255.119C170.677 253.863 168.133 252.337 166.002 251.176C167.831 249.586 171.917 250.477 172.362 252.13C172.383 252.187 172.423 252.234 172.476 252.264C172.528 252.293 172.59 252.303 172.649 252.292C172.708 252.28 172.761 252.248 172.799 252.201C172.837 252.154 172.857 252.095 172.855 252.035C172.648 249.459 167.322 247.726 164.905 250.556C163.893 249.989 162.828 249.52 161.726 249.157C161.524 249.073 161.303 249.05 161.088 249.089C160.874 249.129 160.676 249.23 160.517 249.38C156.495 254.388 142.933 267.393 136.669 268.904C136.511 268.927 136.363 268.992 136.238 269.092C136.114 269.191 136.018 269.321 135.96 269.47C135.901 269.618 135.884 269.779 135.908 269.936C135.932 270.094 135.997 270.242 136.096 270.366C137.472 271.763 139.047 272.947 140.77 273.88C139.181 275.47 137.94 276.901 137.018 277.934C136.541 278.443 136.287 288.173 136.7 290.32C136.762 290.53 136.897 290.711 137.082 290.829C139.085 292.196 164.889 303.357 167.529 301.863C169.294 300.861 190.36 278.936 190.694 278.268C191.203 277.219 191.028 270.223 190.996 267.425C190.869 266.582 189.295 265.676 188.531 265.215ZM137.654 286.218V282.672C144.252 285.852 159.357 292.339 165.08 294.151C166.543 294.628 166.67 294.565 167.433 294.151C171.806 291.353 187.244 273.96 190.074 271.304V274.659C181.488 283.261 166.909 298.333 166.638 297.474C165.064 297.379 139.022 286.854 137.654 286.218ZM188.134 259.857C188.706 260.82 189.013 261.917 189.024 263.037C189.019 263.393 188.931 263.743 188.769 264.061C188.606 264.378 188.373 264.653 188.086 264.865C186.751 263.975 184.223 262.321 181.234 260.382C182.871 257.154 186.512 257.107 188.07 259.857H188.134ZM137.257 270.033C144.03 268.029 156.892 255.628 161.217 250.254C162.258 250.544 163.261 250.955 164.206 251.478C162.616 254.435 164.317 257.679 164.921 257.218C165.255 256.963 164.651 256.868 164.556 255.31C164.515 254.172 164.773 253.043 165.303 252.035C167.497 253.179 170.073 254.674 172.251 255.93C170.915 258.903 172.521 261.844 173.078 261.415C173.634 260.986 172.823 261.081 172.728 259.523C172.689 258.501 172.885 257.484 173.3 256.55C175.542 257.87 177.831 259.237 179.93 260.525C179.607 261.317 179.478 262.175 179.556 263.028C179.633 263.88 179.914 264.701 180.375 265.422C180.396 265.449 180.422 265.472 180.452 265.489C180.481 265.506 180.514 265.517 180.548 265.521C180.582 265.526 180.617 265.523 180.65 265.515C180.683 265.506 180.714 265.49 180.741 265.469C180.768 265.449 180.791 265.423 180.808 265.393C180.825 265.363 180.836 265.33 180.84 265.297C180.845 265.263 180.843 265.228 180.834 265.195C180.825 265.162 180.809 265.131 180.789 265.104C180.503 264.472 180.362 263.785 180.376 263.092C180.389 262.398 180.558 261.717 180.868 261.097C184.573 263.355 187.562 265.247 188.484 265.867C188.309 266.026 171.726 280.78 166.082 285.168C162.377 284.199 142.933 274.548 137.257 270.033ZM137.861 278.888C145.063 282.068 161.423 289.445 165.192 290.161C165.843 290.288 166.098 290.336 167.338 289.35C172.632 285.105 189.851 267.091 190.01 267.282C190.018 267.329 190.018 267.378 190.01 267.425V270.605C186.465 273.451 166.75 294.151 166.432 293.166C164.842 293.166 139.006 282.625 137.686 282.036C137.654 281.369 137.797 279.588 137.861 278.888ZM166.813 300.797C165.223 301.704 141.009 291.862 137.766 289.859C137.644 288.846 137.585 287.826 137.591 286.806C144.554 290.24 164.81 298.794 166.67 298.715C169.389 298.571 188.611 276.933 189.978 275.422C189.994 276.234 189.914 277.046 189.74 277.839C189.47 278.364 167.863 300.209 166.813 300.797ZM35.089 211.174C35.2002 212.875 35.2797 214.354 35.2797 215.737C35.2797 215.948 35.3635 216.15 35.5126 216.299C35.6617 216.448 35.8639 216.532 36.0747 216.532C36.2855 216.532 36.4877 216.448 36.6368 216.299C36.7859 216.15 36.8697 215.948 36.8697 215.737C36.8697 214.258 36.7902 212.796 36.6789 211.063C36.6641 210.852 36.5662 210.655 36.4067 210.517C36.2472 210.378 36.0391 210.309 35.8283 210.323C35.6174 210.338 35.4211 210.436 35.2824 210.596C35.1438 210.755 35.0742 210.963 35.089 211.174ZM277.344 179.296C277.24 179.302 277.139 179.329 277.045 179.375C276.952 179.421 276.869 179.485 276.801 179.563C276.732 179.642 276.681 179.733 276.648 179.832C276.616 179.931 276.604 180.035 276.613 180.139C276.708 181.602 276.803 183.176 276.803 184.702C276.803 184.913 276.887 185.115 277.036 185.264C277.185 185.413 277.388 185.497 277.598 185.497C277.809 185.497 278.011 185.413 278.161 185.264C278.31 185.115 278.393 184.913 278.393 184.702C278.393 183.112 278.298 181.522 278.187 180.028C278.181 179.924 278.154 179.822 278.108 179.729C278.062 179.636 277.998 179.552 277.92 179.484C277.841 179.416 277.75 179.364 277.651 179.332C277.552 179.3 277.448 179.288 277.344 179.296ZM30.9711 207.215C31.1819 207.215 31.3841 207.131 31.5332 206.982C31.6823 206.833 31.766 206.631 31.766 206.42C31.766 206.209 31.6823 206.007 31.5332 205.858C31.3841 205.709 31.1819 205.625 30.9711 205.625C29.0473 205.625 27.4415 205.768 25.8516 205.736C25.6392 205.736 25.4354 205.82 25.2837 205.968C25.1321 206.117 25.0449 206.319 25.0407 206.531C25.0407 206.742 25.1245 206.944 25.2735 207.094C25.4226 207.243 25.6248 207.326 25.8357 207.326C27.4733 207.358 29.2699 207.295 30.9711 207.215ZM272.415 174.59C270.507 174.59 268.902 174.701 267.296 174.717C267.085 174.717 266.883 174.801 266.734 174.95C266.585 175.099 266.501 175.301 266.501 175.512C266.501 175.723 266.585 175.925 266.734 176.074C266.883 176.223 267.085 176.307 267.296 176.307C269.013 176.307 270.794 176.307 272.511 176.18C272.722 176.167 272.919 176.071 273.059 175.913C273.199 175.755 273.271 175.548 273.258 175.337C273.245 175.126 273.149 174.929 272.991 174.789C272.833 174.649 272.626 174.577 272.415 174.59ZM34.6597 197.389C34.7551 198.852 34.8505 200.426 34.8505 201.952C34.8545 202.162 34.9396 202.362 35.0878 202.51C35.236 202.658 35.4359 202.743 35.6454 202.747C35.8563 202.747 36.0585 202.664 36.2075 202.515C36.3566 202.365 36.4404 202.163 36.4404 201.952C36.4404 200.363 36.345 198.773 36.2496 197.278C36.2348 197.067 36.1369 196.871 35.9774 196.732C35.8179 196.594 35.6098 196.524 35.399 196.539C35.1881 196.554 34.9918 196.651 34.8532 196.811C34.7145 196.97 34.6449 197.179 34.6597 197.389ZM277.964 170.917C277.964 169.327 277.869 167.738 277.757 166.243C277.743 166.032 277.645 165.836 277.485 165.697C277.326 165.559 277.118 165.489 276.907 165.504C276.696 165.518 276.5 165.616 276.361 165.776C276.222 165.935 276.153 166.143 276.167 166.354C276.263 167.817 276.358 169.391 276.358 170.917C276.358 171.128 276.442 171.33 276.591 171.479C276.74 171.629 276.942 171.712 277.153 171.712C277.366 171.712 277.569 171.629 277.721 171.48C277.873 171.332 277.96 171.13 277.964 170.917ZM46.3932 207.008C46.4977 207.004 46.6003 206.98 46.6951 206.936C46.79 206.892 46.8754 206.83 46.9462 206.753C47.0171 206.676 47.0722 206.586 47.1082 206.488C47.1443 206.39 47.1607 206.286 47.1564 206.182C47.1403 205.974 47.0462 205.779 46.8929 205.638C46.7395 205.496 46.5383 205.418 46.3296 205.418C44.4058 205.498 42.8 205.562 41.1942 205.53C40.9834 205.53 40.7812 205.613 40.6321 205.763C40.483 205.912 40.3993 206.114 40.3993 206.325C40.3993 206.536 40.483 206.738 40.6321 206.887C40.7812 207.036 40.9834 207.12 41.1942 207.12C42.8954 207.151 44.6761 207.088 46.3932 207.008ZM287.837 174.383C286.248 174.463 284.483 174.511 282.718 174.511C282.613 174.506 282.508 174.523 282.41 174.56C282.312 174.598 282.222 174.654 282.146 174.727C282.071 174.8 282.01 174.887 281.969 174.984C281.928 175.081 281.907 175.185 281.907 175.29C281.907 175.502 281.99 175.706 282.139 175.857C282.288 176.009 282.49 176.096 282.702 176.1C284.515 176.1 285.977 176.1 287.901 175.973C288.005 175.969 288.108 175.945 288.203 175.901C288.298 175.857 288.383 175.795 288.454 175.718C288.525 175.641 288.58 175.551 288.616 175.453C288.652 175.355 288.668 175.251 288.664 175.147C288.645 174.94 288.549 174.748 288.397 174.607C288.244 174.466 288.045 174.386 287.837 174.383ZM9.85703 159.899C10.0637 160.058 54.8993 153.412 56.8231 152.236C56.9296 152.158 57.0147 152.055 57.0703 151.935C57.1259 151.815 57.1502 151.684 57.141 151.552C57.141 149.501 54.4541 130.247 53.1663 125.446C53.0073 124.858 52.8483 124.269 52.4826 124.063C50.05 122.6 7.18597 130.677 4.62621 132.33C4.55684 132.371 4.4969 132.426 4.45033 132.492C4.40375 132.558 4.37158 132.633 4.35593 132.712C3.81536 134.636 8.4738 158.945 9.85703 159.899ZM5.32578 133.093C8.37841 131.71 47.2836 124.587 51.7353 125.144C52.8165 127.926 55.7101 148.309 55.9009 151.298C53.6909 151.95 10.4612 159.375 10.3022 159.406C10.1432 159.438 10.1273 159.629 9.79343 158.627C8.39431 154.43 5.24628 136.687 5.32578 133.093Z"
    fill="#004737" />
  <path
    d="M60.3227 153.651C60.4092 153.49 60.4479 153.308 60.434 153.126C60.434 150.598 56.809 122.536 55.5212 120.295C55.4202 120.129 55.2773 119.994 55.107 119.901C54.9366 119.809 54.7449 119.764 54.5513 119.77C49.2251 119.118 4.29419 127.894 1.33696 129.945C0.923578 130.231 0.987174 130.947 1.03487 131.71C1.28926 135.892 5.80461 163.397 7.39452 163.238C7.56941 163.238 7.50582 163.111 7.09244 163.954C4.61218 169.057 -0.0939664 185.401 0.00142841 188.693C0.00142841 190.076 0.31941 191.872 1.68674 191.777C11.4965 190.569 59.5914 182.937 73.4236 180.091C73.9642 179.98 74.314 179.487 74.2981 178.676C74.1349 177.325 73.7253 176.016 73.0897 174.813C71.15 171.172 63.1051 156.751 60.3227 153.651ZM7.48992 162.745C6.24979 161.155 1.68674 133.761 2.03652 130.724C5.53433 128.912 49.8611 120.342 54.5037 121.042C55.7756 124.54 59.0667 149.803 59.2734 152.84C53.6451 154.78 14.6763 161.076 7.48992 162.745ZM8.18948 163.222C9.52501 162.888 55.0124 155.273 59.178 154.176C61.4516 156.29 71.7224 174.558 72.3902 176.116C63.2641 177.706 9.12753 186.753 1.16206 187.961C1.27336 183.144 6.21799 166.307 8.18948 163.222Z"
    fill="#004737" />
  <path
    d="M14.1692 179.71C15.5524 179.503 44.9022 175.973 55.507 173.096C55.5723 173.079 55.6283 173.037 55.6626 172.978C55.6969 172.92 55.7067 172.851 55.6898 172.786C55.6729 172.72 55.6308 172.664 55.5727 172.63C55.5145 172.596 55.4451 172.586 55.3798 172.603C53.297 173.032 27.8902 176.418 14.1374 179.217C14.0994 179.21 14.0604 179.212 14.0232 179.222C13.9861 179.233 13.9518 179.252 13.923 179.277C13.8942 179.303 13.8716 179.335 13.857 179.371C13.8424 179.406 13.836 179.445 13.8385 179.483C13.841 179.522 13.8522 179.559 13.8713 179.593C13.8904 179.627 13.9169 179.655 13.9488 179.677C13.9807 179.699 14.0171 179.713 14.0553 179.719C14.0934 179.724 14.1324 179.721 14.1692 179.71ZM35.6171 69.0834C35.0232 70.4248 34.5238 71.8061 34.1226 73.2172C34.099 73.4436 34.1614 73.6707 34.2975 73.8532C35.9033 76.2698 52.3589 94.8241 56.6517 97.4316C57.24 97.7972 57.9395 98.0516 58.3688 97.527C61.4872 93.6467 65.5569 90.6396 70.1819 88.7983C73.9462 87.4665 77.8928 86.7212 81.8836 86.5884C85.0634 86.3022 85.6199 85.9842 86.8442 83.9014C88.2883 81.1604 90.2043 78.6954 92.5042 76.6196C95.4369 74.0554 98.6919 71.8854 102.187 70.1646C102.344 70.0754 102.467 69.9362 102.536 69.7691C102.605 69.6021 102.617 69.4167 102.568 69.2424C102.031 67.8748 101.32 66.5817 100.454 65.3948C101.026 65.204 101.662 65.0291 101.662 64.4568C101.662 62.8669 87.7981 42.8022 83.9505 39.0182C83.553 38.6207 82.9807 38.096 82.456 38.1278C74.5064 38.573 66.7635 46.0774 62.28 52.6278C57.1446 52.437 53.8217 51.976 47.9708 54.4403C43.8403 56.1936 40.1164 58.7809 37.0322 62.0401C36.5552 62.533 33.3118 65.9672 33.2641 66.2375C33.2164 66.5078 33.3118 66.5078 35.6171 69.0834ZM99.2137 68.6382C92.5837 69.7671 88.3546 75.2841 85.2383 81.2781C83.8551 83.9491 83.9823 84.0763 82.5196 84.0445C79.9618 83.8996 77.3961 83.9955 74.8562 84.3307C72.9933 84.6091 71.1617 85.067 69.3869 85.698C65.3485 87.1289 60.7219 91.7079 58.2575 95.1103C58.2052 95.1803 58.1386 95.2384 58.0622 95.2809C57.9858 95.3233 57.9013 95.3492 57.8143 95.3567C57.7272 95.3642 57.6395 95.3532 57.557 95.3244C57.4744 95.2957 57.3989 95.2498 57.3354 95.1898C52.1681 89.8636 43.0261 80.5149 38.4313 75.141C38.2087 74.9025 38.5903 74.5527 38.8129 74.8071C41.786 77.9869 49.4653 85.6026 57.701 93.8861C60.4834 90.3406 64.7762 86.0478 69.0212 84.5533C71.3361 83.7276 73.7448 83.1935 76.1917 82.9634C78.4832 82.7893 80.7846 82.7893 83.0761 82.9634C84.0141 81.8822 88.6567 69.6081 99.1819 68.2408C99.2127 68.2634 99.238 68.2926 99.256 68.3264C99.2739 68.3601 99.284 68.3975 99.2855 68.4357C99.2871 68.4739 99.28 68.5119 99.2648 68.547C99.2496 68.582 99.2267 68.6132 99.1978 68.6382H99.2137ZM82.4401 39.4156C85.6199 41.6415 98.5618 60.8 100.247 64.1547C97.3228 65.0813 94.4996 66.3011 91.8206 67.7956C89.2837 69.0673 87.0624 70.889 85.3186 73.1279C83.5748 75.3667 82.3525 77.9664 81.7405 80.7375C76.0327 71.4524 68.0673 61.2293 62.7729 53.709C63.0909 53.5023 72.0262 40.0357 82.4401 39.4156ZM48.3206 55.3148C54.1237 52.9776 57.3354 53.5182 62.1369 53.7249C66.9066 61.8652 75.4763 73.3444 81.1205 80.8647C75.9111 79.632 70.4292 80.3859 65.746 82.9793C62.9319 84.5692 59.4976 88.385 57.3831 90.7539C54.3304 88.3055 36.7142 69.5445 33.8841 66.3647C38.2405 61.4359 42.263 57.7314 48.3206 55.2512V55.3148ZM19.2251 95.7463C18.8322 95.4705 18.3676 95.3147 17.8879 95.2978C17.4081 95.2808 16.9337 95.4035 16.5223 95.6509C16.2227 95.7845 15.9523 95.9758 15.7266 96.2139C15.501 96.4521 15.3244 96.7323 15.207 97.0386C15.0897 97.345 15.0338 97.6714 15.0426 97.9994C15.0514 98.3273 15.1247 98.6503 15.2583 98.9499C15.3919 99.2496 15.5833 99.5199 15.8214 99.7456C16.0595 99.9713 16.3397 100.148 16.6461 100.265C16.9524 100.383 17.2789 100.438 17.6068 100.43C17.9348 100.421 18.2578 100.348 18.5574 100.214C19.036 100.109 19.4715 99.8616 19.8062 99.5038C20.1409 99.1459 20.3589 98.6948 20.4313 98.2103C20.5037 97.7257 20.4271 97.2306 20.2117 96.7905C19.9963 96.3505 19.6523 95.9863 19.2251 95.7463ZM18.1758 98.9261C17.0629 99.2759 16.3951 98.9261 16.1248 98.3855C15.616 97.2567 16.252 95.5237 17.9055 96.0325C19.0662 96.4617 20.0042 98.4173 18.1758 99.0056V98.9261ZM100.072 22.9918C100.533 23.9299 102.68 23.5801 103.618 23.278C104.111 23.119 104.429 22.9441 104.476 22.4672C104.619 21.2747 104.778 10.9403 104.238 9.93864C104.182 9.83361 104.096 9.74741 103.992 9.69084C103.887 9.63427 103.768 9.60986 103.65 9.62066C101.953 9.61595 100.265 9.86241 98.6413 10.352C97.9894 10.7495 99.4999 21.9425 100.072 22.9918ZM98.9752 10.7336C100.444 10.5235 101.929 10.4543 103.411 10.5269C103.506 11.7034 103.252 21.8948 103.236 22.0538C102.564 22.2945 101.847 22.3814 101.137 22.3082C101.026 21.9425 100.835 20.9567 100.597 19.7166C99.8963 16.7534 99.355 13.7547 98.9752 10.7336ZM17.6829 82.3274C17.8355 82.4055 18.0044 82.4463 18.1758 82.4463C18.3472 82.4463 18.5161 82.4055 18.6687 82.3274C19.2829 81.9485 19.7701 81.3949 20.0678 80.7375C20.1082 80.6323 20.1207 80.5184 20.104 80.4069C20.0873 80.2955 20.0419 80.1902 19.9724 80.1015C19.2092 79.1953 10.8781 69.5445 9.86056 70.1487C8.61122 70.9575 7.4259 71.8611 6.31505 72.8515C6.27028 72.8916 6.23441 72.9405 6.20976 72.9953C6.18511 73.0501 6.17223 73.1094 6.17196 73.1695C6.14016 73.9963 15.3935 81.4053 17.6829 82.3274ZM10.0513 70.562C11.212 71.4047 15.1232 76.238 18.7482 80.5149C18.5922 80.7605 18.3991 80.9804 18.1758 81.1668C14.3646 78.7275 10.7257 76.0288 7.2849 73.09C8.14745 72.1844 9.07182 71.3397 10.0513 70.562ZM35.0289 35.4886C35.3787 29.3197 38.9719 26.4578 42.7241 25.7265C41.6588 29.6377 41.8337 34.7254 45.6972 35.3773C47.5415 35.6793 48.4477 34.7254 49.7833 33.6125C55.4911 28.8427 50.8803 24.073 44.4412 24.4069C46.8419 17.8246 52.3907 12.4666 59.752 12.2917C59.8195 12.2917 59.8842 12.2649 59.9319 12.2172C59.9796 12.1695 60.0064 12.1048 60.0064 12.0373C60.0064 11.9699 59.9796 11.9052 59.9319 11.8574C59.8842 11.8097 59.8195 11.7829 59.752 11.7829C51.8025 11.6239 45.5541 17.3476 43.0897 24.5022C38.8447 25.2336 34.6314 28.4134 34.5201 35.3932C34.5138 35.4266 34.5142 35.4609 34.5212 35.4941C34.5282 35.5274 34.5417 35.559 34.5609 35.587C34.5801 35.6151 34.6046 35.6391 34.6331 35.6576C34.6615 35.6762 34.6934 35.689 34.7268 35.6952C34.7602 35.7015 34.7945 35.7011 34.8278 35.6941C34.861 35.6871 34.8926 35.6737 34.9206 35.6545C34.9487 35.6353 34.9727 35.6107 34.9913 35.5823C35.0098 35.5538 35.0226 35.522 35.0289 35.4886ZM44.0755 25.5357C46.4445 25.3767 49.9741 26.1081 50.9439 28.2544C51.5004 29.4787 50.9439 30.9891 48.9724 32.6426C48.4372 33.1788 47.8266 33.6341 47.1599 33.994C44.7751 35.0116 42.1358 32.0702 44.0755 25.5357ZM48.6226 250.397C47.0866 249.986 45.4837 249.886 43.9084 250.103C42.3331 250.32 40.8171 250.85 39.4498 251.662C38.0824 252.474 36.8912 253.551 35.9463 254.83C35.0014 256.109 34.3219 257.564 33.9477 259.11C33.2414 262.321 33.8396 265.681 35.6108 268.451C37.3819 271.221 40.1808 273.174 43.3918 273.88C46.6028 274.586 49.9629 273.988 52.7329 272.217C55.5029 270.446 57.4558 267.647 58.1621 264.436C58.4638 262.887 58.456 261.294 58.1391 259.749C57.8222 258.203 57.2025 256.735 56.3157 255.43C55.429 254.125 54.2926 253.009 52.9723 252.145C51.6519 251.281 50.1736 250.687 48.6226 250.397ZM53.5355 263.355C52.8975 265.899 51.3703 268.131 49.23 269.648C47.0896 271.164 44.4774 271.864 41.8655 271.622C39.4679 270.686 37.4775 268.933 36.2444 266.674C35.0114 264.414 34.6148 261.792 35.1243 259.269C35.7192 256.663 37.2322 254.358 39.3867 252.776C41.5412 251.193 44.1932 250.439 46.8578 250.652C49.2791 251.652 51.2699 253.474 52.4797 255.798C53.6896 258.122 54.0409 260.798 53.4719 263.355H53.5355Z"
    fill="#004737" />
  <path
    d="M69.7972 254.928C68.4131 254.451 66.9297 254.336 65.4885 254.595C64.8912 253.225 64.1561 251.92 63.2945 250.699C64.3279 249.761 67.1579 247.154 66.4743 245.93C64.0412 243.019 61.1525 240.522 57.9206 238.536C56.571 237.78 55.0849 237.299 53.5483 237.121C52.5307 237.264 50.1141 241.223 49.5735 242.114C49.2237 242.114 47.9836 241.716 47.8882 241.669C47.8882 240.524 47.5543 236.39 46.5209 235.913C45.3652 235.488 44.1652 235.194 42.9436 235.039C41.8147 234.864 31.6552 236.724 30.9079 238.091C30.4151 239.013 31.5598 242.495 31.8937 243.465C31.0362 243.937 30.2127 244.468 29.4293 245.055C27.8394 246.184 28.2687 246.136 27.9825 246.009C27.6366 245.844 27.266 245.736 26.8854 245.691C25.6154 244.946 24.1263 244.665 22.6722 244.896C21.2095 245.373 17.7593 253.227 17.2029 255.246C17.0208 255.756 16.9715 256.303 17.0598 256.836C17.4414 257.886 19.9852 258.728 21.0505 259.062C20.7563 261.108 20.7563 263.185 21.0505 265.231C19.6513 265.613 16.7418 266.471 16.9008 267.902C17.0598 269.333 20.7802 278.777 22.3224 279.524C23.1672 279.997 24.1015 280.288 25.0652 280.378C26.029 280.468 27.001 280.356 27.9189 280.049C28.4359 279.791 28.9351 279.499 29.4134 279.175C30.0494 279.652 30.7171 280.081 31.4008 280.494C30.9079 281.718 29.8109 284.453 30.1607 285.693C30.3356 286.345 30.8602 286.552 31.5916 286.822C33.6108 287.553 44.4858 290.161 46.1393 289.875C46.7594 289.779 47.0932 289.127 47.284 288.507C47.6373 287.096 47.8451 285.652 47.9041 284.199C48.7206 284.118 49.5325 283.996 50.3367 283.833C50.8278 284.697 51.456 285.476 52.1969 286.138C53.0077 286.711 53.6914 286.425 54.6135 285.836C55.0587 286.409 55.7265 287.204 56.4419 287.283C58.2385 287.49 65.6634 280.494 66.4266 279.063C67.0626 277.871 64.7413 275.74 63.7078 274.802C64.8258 273.12 65.7034 271.29 66.3153 269.365C67.462 269.538 68.6225 269.602 69.7813 269.556C70.306 269.556 70.9101 269.365 71.1327 268.872C72.1026 266.662 71.8164 258.283 71.1327 256.153C71.0373 255.533 70.3219 255.119 69.7972 254.928ZM70.1788 256.391C70.7194 258.458 70.8942 266.265 70.0993 268.284C68.7246 268.419 67.3376 268.355 65.9814 268.093C65.8366 268.068 65.6878 268.098 65.5642 268.178C65.4406 268.257 65.3513 268.38 65.3136 268.522C64.6805 270.672 63.6975 272.702 62.4041 274.532C62.312 274.653 62.2705 274.805 62.2882 274.957C62.306 275.108 62.3818 275.246 62.4995 275.343C63.615 276.227 64.5628 277.304 65.2978 278.523C64.5028 279.826 58.2862 285.518 56.5691 285.995C56.3147 285.995 55.6152 285.041 55.4403 284.787C54.853 283.904 54.322 282.986 53.8504 282.036C53.7815 281.898 53.6635 281.79 53.5194 281.734C53.3753 281.679 53.2155 281.679 53.0713 281.734C48.4606 283.467 46.7117 282.45 46.7117 283.595C46.7137 285.308 46.4344 287.011 45.8849 288.635C42.1485 288.228 38.469 287.407 34.9145 286.186C35.0862 284.489 35.56 282.836 36.3136 281.305C36.7906 280.24 34.8827 280.542 31.3213 276.917C31.2067 276.811 31.0562 276.752 30.9 276.752C30.7437 276.752 30.5933 276.811 30.4787 276.917C28.8887 278.221 26.8219 279.493 26.4085 279.286C25.5976 278.888 21.8613 270.414 21.6387 268.697C22.7696 267.909 24.0533 267.367 25.4068 267.107C25.5512 267.066 25.6758 266.975 25.7577 266.849C25.8395 266.723 25.8731 266.572 25.852 266.423C25.4624 264.172 25.4624 261.87 25.852 259.619C25.8763 259.48 25.8472 259.337 25.7705 259.219C25.6938 259.101 25.5752 259.017 25.4386 258.983C24.24 258.669 23.0861 258.204 22.0044 257.599C21.6546 257.345 21.6864 257.361 21.7182 257.091C22.7473 253.379 24.3977 249.869 26.5993 246.709C27.4578 246.47 29.7791 248.171 30.574 248.775C30.6571 248.856 30.7683 248.901 30.8841 248.901C30.9998 248.901 31.111 248.856 31.1941 248.775C31.9247 248.018 32.7112 247.316 33.5472 246.677C35.9639 244.848 36.6157 245.087 36.409 244.451C35.6781 242.856 35.2676 241.132 35.2007 239.379C35.4471 239.174 35.7267 239.013 36.0274 238.902C37.5118 238.315 39.0368 237.837 40.5905 237.471C42.4738 236.946 44.4094 236.632 46.3619 236.533C46.6958 236.676 46.9978 238.123 47.0773 238.568C47.6656 241.748 47.2681 242.4 47.7292 242.448C52.2605 242.893 53.1826 244.149 53.5006 243.592C54.3822 242.051 55.4098 240.597 56.5691 239.252C56.903 238.918 56.8871 238.759 57.8888 239.331C60.8811 241.287 63.5612 243.683 65.8383 246.438C66.0768 246.852 64.0099 249.046 62.4995 250.334C61.9748 250.795 62.7221 251.001 64.0894 253.609C65.4567 256.216 65.1388 256.948 65.8701 256.789C67.28 256.451 68.731 256.317 70.1788 256.391ZM290.843 123.538C287.51 122.177 284.015 121.252 280.445 120.787C277.837 120.374 274.769 119.961 272.177 119.627C274.673 116.097 282.067 107.162 283.307 104.984C283.656 104.395 282.989 103.569 282.496 103.076C279.729 100.119 274.387 99.0056 270.285 98.3696C267.932 97.9881 258.107 96.7797 256.437 97.5747C254.434 98.5286 239.616 120.787 239.171 124.174C239.171 124.746 239.361 124.969 239.918 125.176C242.255 126.034 252.796 127.37 255.149 127.926C251.969 133.491 237.835 152.299 236.452 154.955C236.118 155.622 236.325 156.02 236.722 156.147C238.153 156.715 239.625 157.172 241.126 157.514C241.699 157.689 242.955 156.91 244.783 155.797C252.987 150.869 288.188 127.624 290.891 124.619C290.965 124.549 291.024 124.463 291.062 124.368C291.101 124.273 291.118 124.17 291.114 124.068C291.109 123.965 291.083 123.865 291.036 123.773C290.989 123.682 290.923 123.602 290.843 123.538ZM256.676 142.617C243.161 151.536 238.598 154.144 238.439 154.255C240.617 150.932 254.148 132.394 256.469 127.958C256.509 127.872 256.53 127.779 256.53 127.684C256.529 127.589 256.508 127.496 256.467 127.41C256.425 127.325 256.366 127.25 256.292 127.191C256.218 127.131 256.132 127.089 256.04 127.068C254.45 126.495 242.875 125.255 240.141 124.285C240.49 121.328 254.927 98.9738 256.676 98.0835C258.425 97.1931 275.389 99.2123 278.569 101.486C276.899 104.745 267.678 116.161 266.183 118.816C265.881 119.356 265.786 119.881 266.374 120.024C266.962 120.167 281.908 121.916 285.167 122.981C281.192 126.304 261.127 139.628 256.676 142.553V142.617ZM154.683 45.4096C154.683 45.5527 154.778 45.7276 155.017 46.6498C155.079 46.8498 155.217 47.0178 155.401 47.1186C155.584 47.2194 155.8 47.2451 156.002 47.1903C156.205 47.1313 156.375 46.9943 156.477 46.8094C156.578 46.6245 156.602 46.407 156.543 46.2046C156.384 45.5845 156.241 45.0598 156.145 44.8055C156.053 44.6309 155.898 44.497 155.712 44.4301C155.527 44.3631 155.322 44.3678 155.14 44.4433C154.957 44.5187 154.809 44.6595 154.725 44.8382C154.64 45.0168 154.625 45.2206 154.683 45.4096Z"
    fill="#004737" />
</svg>