<svg width="274" height="314" viewBox="0 0 274 314" fill="none" xmlns="http://www.w3.org/2000/svg">
  <path fill-rule="evenodd" clip-rule="evenodd"
    d="M156.325 284.434C158.221 283.187 183.946 266.259 184.195 267.09C184.445 267.922 158.953 287.211 158.737 287.344C157.656 288.575 150.422 296.374 149.474 296.706C148.268 296.662 147.125 296.156 146.282 295.293C145.125 294.11 144.27 292.668 143.787 291.086C143.471 289.955 155.294 284.867 156.325 284.434ZM144.602 291.834C144.929 292.888 145.522 293.841 146.322 294.601C147.123 295.36 148.105 295.902 149.175 296.174C147.978 295.043 145.45 292.632 144.602 291.834ZM149.591 287.993C147.765 288.863 146.013 289.881 144.353 291.036C144.569 291.751 144.353 291.036 146.016 292.416C147.365 293.475 148.548 294.73 149.524 296.141C150.356 295.526 153.731 292.167 153.532 292.349C152.285 290.822 150.953 289.368 149.541 287.993H149.591ZM156.392 284.667C153.648 285.947 151.819 286.845 149.74 287.86C151.39 288.913 152.728 290.389 153.615 292.133C154.613 291.136 158.005 287.693 158.504 287.145C158.021 286.679 156.758 285.232 156.342 284.7L156.392 284.667ZM196.683 265.66C197.531 258.211 198.779 248.948 199.793 248.899C200.807 248.849 199.71 258.211 198.662 265.71C201.988 265.993 205.945 267.822 205.314 270.982C205.344 271.544 205.27 272.108 205.097 272.644C206.76 283.935 205.28 286.263 205.397 286.08C204.428 287.247 203.216 288.187 201.846 288.836C200.476 289.485 198.981 289.827 197.465 289.839C195.943 289.846 194.436 289.53 193.046 288.911C191.655 288.292 190.412 287.383 189.4 286.247C188.02 284.168 188.901 275.388 189.167 272.944C189.02 272.429 188.936 271.899 188.918 271.364C188.717 270.489 188.83 269.572 189.238 268.773C189.645 267.973 190.32 267.342 191.146 266.991C192.847 266.079 194.754 265.62 196.683 265.66ZM204.781 280.26C203.468 282.954 199.793 283.802 196.833 283.802C196.793 284.6 196.704 285.394 196.567 286.18C196.434 286.812 196.284 287.361 195.636 287.344C194.7 287.155 193.876 286.605 193.341 285.814C192.909 285.166 193.008 284.833 193.557 283.403C192.837 283.215 192.166 282.872 191.591 282.398C191.017 281.924 190.553 281.331 190.231 280.659C190.238 282.145 190.389 283.626 190.68 285.083C191.031 285.744 191.532 286.314 192.144 286.746C195.902 289.805 200.458 288.941 204.266 285.665C204.432 284.434 204.665 282.023 204.781 280.26ZM189.516 273.609C189.4 275.621 188.951 284.118 190.082 285.781C190.952 286.792 192.053 287.58 193.291 288.076C191.993 287.442 190.936 286.403 190.281 285.116C189.995 283.335 189.901 281.529 189.999 279.728C189.893 279.224 189.913 278.701 190.055 278.206C190.197 277.71 190.457 277.257 190.813 276.885C191.994 275.521 192.277 276.303 191.196 275.554C190.489 275.077 189.911 274.431 189.516 273.675V273.609ZM193.989 283.42C193.788 283.959 193.638 284.516 193.54 285.083C193.54 285.648 195.037 286.912 195.702 286.845C195.935 286.845 196.001 286.496 196.085 286.08C196.232 285.328 196.332 284.567 196.384 283.802C195.577 283.786 194.773 283.68 193.989 283.486V283.42ZM204.898 273.21C204.327 274.264 203.452 275.121 202.387 275.671C204.299 276.269 205.563 277.55 205.048 279.495C205.048 280.543 205.048 281.574 204.948 282.505C204.781 285.981 204.665 285.831 204.831 285.582C205.613 282.622 205.214 276.402 204.898 273.276V273.21ZM202.104 275.82C200.549 276.573 198.844 276.965 197.116 276.968C197.118 277.961 196.989 278.951 196.733 279.911C196.8 281.019 196.8 282.129 196.733 283.237C198.816 283.308 200.875 282.783 202.67 281.724C205.314 280.061 205.729 277.051 202.104 275.887V275.82ZM195.237 279.978C195.137 280.21 194.305 282.522 194.156 282.938C194.902 283.119 195.666 283.214 196.434 283.22C196.434 282.405 196.6 280.842 196.584 280.028C196.14 280.125 195.682 280.131 195.237 280.044V279.978ZM192.127 276.12C188.934 278.315 190.281 281.807 193.79 282.871C194.139 281.99 194.688 280.759 195.087 279.911C195.133 278.918 195.244 277.93 195.42 276.951C194.283 276.864 193.169 276.583 192.127 276.12ZM195.569 276.968L195.42 279.662C195.702 279.662 196.617 279.795 196.517 279.662C196.417 279.529 196.733 278.099 196.85 277.001C196.417 277.034 195.985 277.018 195.569 276.985V276.968ZM204.615 272.561C201.655 276.269 192.709 276.319 189.649 272.561C189.973 273.395 190.505 274.131 191.195 274.699C191.885 275.267 192.71 275.647 193.59 275.804C197.382 276.835 203.085 276.003 204.615 272.578V272.561ZM198.413 267.44C197.914 270.882 197.481 273.675 197.332 274.59C199.843 274.59 203.202 273.675 204.366 271.647C204 269.053 201.04 267.706 198.413 267.456V267.44ZM196.484 267.44C195.111 267.507 193.781 267.943 192.635 268.7C191.488 269.458 190.566 270.51 189.965 271.746C191.03 273.409 193.707 274.324 195.769 274.523C195.852 273.609 196.118 270.848 196.484 267.456V267.44ZM196.65 265.976C194.838 266.042 193.071 266.563 191.512 267.489C190.032 268.437 189.034 269.901 189.849 271.48C190.416 270.17 191.341 269.047 192.517 268.238C193.694 267.429 195.074 266.968 196.5 266.907L196.65 265.976ZM198.662 266.143C198.662 266.425 198.579 266.708 198.529 266.991C201.273 267.24 204.15 268.654 204.599 271.314C205.197 269.801 204.199 268.437 202.803 267.556C201.54 266.792 200.128 266.31 198.662 266.143ZM214.592 272.894C213.811 269.019 207.492 240.152 209.604 238.472C210.354 238.059 211.17 237.778 212.015 237.641C214.343 237.142 229.192 235.147 229.874 237.159C230.556 239.171 226.548 269.818 226.249 271.464C226.249 272.578 225.833 275.687 225.833 275.687C225.402 276.589 224.762 277.376 223.968 277.982C223.173 278.589 222.246 278.998 221.262 279.177C220.279 279.355 219.267 279.298 218.31 279.009C217.352 278.721 216.477 278.209 215.756 277.517C215.201 276.023 214.811 274.473 214.592 272.894ZM229.026 240.85C222.658 240.935 216.305 241.491 210.02 242.513C210.535 249.497 213.561 265.793 214.875 272.744C216.606 273.691 218.579 274.103 220.545 273.928C222.51 273.753 224.379 273 225.917 271.763C226.1 270.35 228.893 242.713 229.026 240.85ZM227.53 250.495C227.53 250.495 227.629 249.364 226.233 249.647C224.836 249.93 222.292 252.324 219.165 252.058C216.039 251.792 213.063 250.046 212.131 251.21C211.2 252.374 215.141 256.049 220.246 255.184C226.099 254.203 227.646 251.792 227.53 250.495ZM211.067 238.689C210.818 238.689 210.136 238.955 210.069 239.171C209.928 240.225 209.928 241.293 210.069 242.347L211.732 242.031C211.356 240.953 211.132 239.828 211.067 238.689ZM213.944 238.073C213.096 238.223 212.098 238.406 211.283 238.622C211.53 239.719 211.714 240.83 211.832 241.948C212.464 241.831 214.227 241.532 214.742 241.482C214.692 241.366 214.293 239.986 213.944 238.073ZM217.12 237.658C216.072 237.774 215.075 237.907 214.16 238.04C214.567 239.152 214.814 240.317 214.892 241.499L217.685 241.15C217.586 240.601 217.236 238.871 217.12 237.658ZM220.23 237.358C219.664 237.358 218.467 237.491 217.336 237.624C217.686 238.761 217.86 239.944 217.852 241.133L220.845 240.85C220.795 240.568 220.446 239.071 220.279 237.358H220.23ZM223.555 237.142L220.446 237.342C220.804 238.472 220.995 239.648 221.011 240.834C221.976 240.834 223.04 240.701 223.988 240.667C223.988 240.634 223.605 237.358 223.605 237.142H223.555ZM227.579 237.142C227.52 238.307 227.392 239.467 227.197 240.617H229.043C229.043 240.202 229.325 237.408 229.043 237.292C228.561 237.197 228.071 237.152 227.579 237.159V237.142ZM227.363 237.142H223.788C224.11 238.288 224.233 239.48 224.154 240.667H227.047C226.997 239.483 227.104 238.298 227.363 237.142ZM102.216 260.04C104.394 260.04 106.173 260.838 106.173 261.852C106.173 262.867 104.394 263.665 102.216 263.665C100.037 263.665 98.2745 262.85 98.2745 261.852C98.2745 260.855 99.9706 260.04 102.216 260.04ZM60.1781 250.462C60.1781 250.828 59.4963 251.16 58.6316 251.193C57.7669 251.227 56.9688 250.944 56.9688 250.561C57.002 249.68 60.1448 249.514 60.1781 250.462Z"
    fill="#004737" />
  <path
    d="M75.9289 292.433C76.9943 292.433 77.8579 291.919 77.8579 291.285C77.8579 290.652 76.9943 290.138 75.9289 290.138C74.8636 290.138 74 290.652 74 291.285C74 291.919 74.8636 292.433 75.9289 292.433Z"
    fill="#004737" />
  <path fill-rule="evenodd" clip-rule="evenodd"
    d="M158.973 236.211C160.636 236.211 162.066 236.693 162.066 237.275C162.066 237.857 160.686 238.356 158.973 238.356C157.261 238.356 155.897 237.874 155.897 237.275C155.897 236.676 157.277 236.211 158.973 236.211ZM53.0982 193.758C53.0982 194.173 52.8488 197.316 52.9818 201.906C52.9818 202.521 53.0982 204.616 53.0982 204.616C53.0982 204.616 53.2978 204.733 53.2978 204.616C53.2978 204.5 53.3975 202.521 53.4142 201.906C53.5139 198.081 53.2978 193.591 53.2978 193.758C53.2978 193.731 53.2872 193.706 53.2685 193.687C53.2498 193.668 53.2244 193.658 53.198 193.658C53.1715 193.658 53.1461 193.668 53.1274 193.687C53.1087 193.706 53.0982 193.731 53.0982 193.758ZM122.357 12.0556C124.435 12.6209 128.11 13.8016 129.441 15.5143C129.488 15.5772 129.515 15.6538 129.515 15.7328C129.516 15.8118 129.491 15.8888 129.444 15.9524C129.397 16.016 129.331 16.0628 129.256 16.0857C129.18 16.1087 129.099 16.1066 129.025 16.0797C122.373 13.3692 111.781 16.828 105.063 19.6216C102.402 20.7358 118.366 2.72684 129.84 5.55373C129.918 5.57763 129.987 5.62609 130.036 5.69195C130.084 5.75781 130.111 5.8376 130.111 5.91956C130.111 6.00152 130.084 6.08131 130.036 6.14717C129.987 6.21303 129.918 6.26149 129.84 6.28539C127.232 6.89703 124.67 7.69163 122.174 8.6633C124.086 8.74644 128.493 9.02913 129.973 10.3262C130.031 10.3769 130.074 10.4436 130.095 10.5182C130.117 10.5928 130.116 10.6719 130.093 10.746C130.07 10.8201 130.026 10.8859 129.966 10.9354C129.907 10.9849 129.834 11.0159 129.757 11.0246C127.274 11.2403 124.804 11.5844 122.357 12.0556ZM127.878 6.01933C124.611 6.00739 121.399 6.85623 118.565 8.48038C113.495 11.1707 108.98 14.799 105.263 19.1727C111.631 16.4123 120.694 13.2861 127.495 14.8492C125.35 13.7534 123.068 12.9482 120.711 12.4546C120.625 12.4365 120.548 12.3894 120.493 12.3213C120.438 12.2532 120.407 12.1682 120.407 12.0805C120.407 11.9928 120.438 11.9078 120.493 11.8397C120.548 11.7716 120.625 11.7245 120.711 11.7064C123.244 11.0237 125.831 10.5564 128.443 10.3095C125.893 9.70817 123.281 9.40681 120.661 9.41159C120.575 9.41404 120.492 9.38785 120.423 9.3372C120.354 9.28654 120.304 9.21434 120.281 9.13209C120.258 9.04984 120.264 8.96228 120.296 8.88335C120.329 8.80442 120.387 8.73866 120.461 8.69656C122.825 7.52923 125.313 6.63119 127.878 6.01933ZM15.5838 145.119C13.93 145.335 12.263 145.435 10.5952 145.418C10.5105 145.421 10.4272 145.395 10.3597 145.344C10.2921 145.293 10.2444 145.22 10.2248 145.137C10.2052 145.055 10.2148 144.968 10.252 144.892C10.2892 144.816 10.3518 144.755 10.4289 144.72C12.4909 143.605 17.3464 142.508 19.8408 140.779L26.01 136.655C26.0225 136.64 26.0379 136.629 26.0551 136.621C26.0723 136.614 26.0909 136.61 26.1098 136.61C26.1287 136.61 26.1473 136.614 26.1645 136.621C26.1817 136.629 26.1971 136.64 26.2096 136.655C26.3925 136.871 26.01 136.887 23.9314 139.631C22.5516 141.33 21.4309 143.224 20.6057 145.252C19.7139 147.372 18.9313 149.536 18.261 151.737C18.261 152.236 17.0638 152.602 17.3963 149.874C17.534 148.857 17.7227 147.847 17.9617 146.848C16.2365 148.093 14.4187 149.205 12.5241 150.174C12.4559 150.213 12.3772 150.23 12.2988 150.223C12.2204 150.216 12.1462 150.185 12.0862 150.134C12.0261 150.083 11.9833 150.015 11.9635 149.938C11.9436 149.862 11.9478 149.782 11.9754 149.708C12.8259 147.931 14.058 146.364 15.5838 145.119ZM24.9957 137.752C16.8476 143.489 20.4893 141.41 12.3578 144.653C13.9139 144.649 15.4607 144.414 16.9474 143.955L17.1303 143.805C17.4961 143.522 18.1446 144.088 17.4296 144.553C15.8312 145.81 14.4202 147.288 13.2392 148.943C15.0808 148.001 16.8053 146.846 18.3774 145.501C18.4359 145.433 18.5165 145.388 18.605 145.373C18.6935 145.359 18.7844 145.375 18.8617 145.421C18.9389 145.467 18.9977 145.538 19.0278 145.622C19.0578 145.707 19.0572 145.799 19.026 145.884C18.682 147.137 18.4045 148.408 18.1945 149.692C19.509 145.24 21.8369 141.153 24.9957 137.752ZM26.1264 129.986C28.9464 125.417 32.9749 121.717 37.7665 119.294C44.2185 116.251 46.5797 119.494 43.6531 125.314C41.161 129.963 37.5986 133.953 33.2601 136.954C33.7486 138.66 33.9453 140.437 33.8421 142.209C33.4098 143.871 25.2784 146.665 24.1642 146.532C24.0798 146.528 23.9981 146.501 23.9278 146.454C23.8575 146.408 23.8013 146.342 23.7651 146.266C23.5989 145.884 23.9813 145.534 24.3471 145.252C26.3772 143.769 28.505 142.424 30.7159 141.227L30.5995 138.467L29.6517 138.933C29.5899 138.95 29.5247 138.949 29.4631 138.932C29.4015 138.914 29.346 138.88 29.3025 138.833L24.0645 133.728C24.0399 133.701 24.0263 133.665 24.0263 133.628C24.0263 133.591 24.0399 133.556 24.0645 133.528C24.0645 133.528 24.2307 133.179 24.5799 132.564H21.6699C21.2376 133.462 18.3442 139.315 17.413 139.714C17.3461 139.747 17.2724 139.762 17.1981 139.76C17.1238 139.759 17.0511 139.739 16.986 139.703C16.9209 139.667 16.8653 139.616 16.8238 139.555C16.7824 139.493 16.7563 139.422 16.7478 139.348C16.5483 138.101 19.0093 129.97 20.6389 129.488C22.4484 129.321 24.2728 129.445 26.0433 129.853C26.0694 129.864 26.0916 129.882 26.1065 129.906C26.1215 129.93 26.1284 129.958 26.1264 129.986ZM32.8943 137.07C32.2342 137.51 31.5515 137.916 30.849 138.284L31.1982 141.427C31.1982 141.676 31.1982 141.527 27.8724 143.722C26.8581 144.37 25.8271 145.052 25.1287 145.568C27.6519 144.872 30.0851 143.885 32.3788 142.624C32.5617 142.508 33.044 142.175 33.1105 141.959C33.2862 140.328 33.2133 138.68 32.8943 137.07ZM25.561 131.633C24.9125 132.597 24.5134 133.296 24.3638 133.578L29.5187 138.351C30.1173 138.051 30.7658 137.686 31.4476 137.27C29.2998 135.595 27.3276 133.706 25.561 131.633ZM25.9768 130.219C24.2615 129.976 22.5205 129.976 20.8052 130.219C20.2232 130.419 19.2255 133.063 19.0426 133.545C18.4554 135.11 17.983 136.717 17.6291 138.351C18.6269 136.871 21.354 132.032 21.2376 132.265C21.2601 132.218 21.2957 132.179 21.34 132.153C21.3843 132.126 21.4354 132.113 21.487 132.115L24.7296 132.281C25.0622 131.649 25.4613 131.001 25.9768 130.219ZM35.1392 121.589C31.3699 124.147 28.1664 127.453 25.7273 131.3C27.9354 132.995 29.9537 134.924 31.7469 137.054C35.5415 134.553 38.7979 131.319 41.3251 127.542L35.1392 121.589ZM32.1626 125.763C31.8427 126.098 31.592 126.493 31.4247 126.925C31.2574 127.357 31.1769 127.818 31.1877 128.281C31.1985 128.744 31.3004 129.201 31.4877 129.625C31.6749 130.049 31.9438 130.431 32.279 130.751C32.6142 131.071 33.0092 131.322 33.4413 131.489C33.8734 131.657 34.3342 131.737 34.7975 131.726C35.2607 131.716 35.7173 131.614 36.1411 131.426C36.5649 131.239 36.9477 130.97 37.2677 130.635C37.9138 129.958 38.2645 129.052 38.2426 128.117C38.2208 127.181 37.8282 126.292 37.1513 125.646C36.4743 125 35.5684 124.65 34.6328 124.671C33.6973 124.693 32.8087 125.086 32.1626 125.763ZM36.8021 126.029C37.3374 126.578 37.6369 127.315 37.6369 128.082C37.6369 128.85 37.3374 129.587 36.8021 130.136C36.2772 130.623 35.5864 130.891 34.8705 130.886C34.1547 130.881 33.4678 130.603 32.9501 130.108C32.4324 129.614 32.1228 128.941 32.0846 128.226C32.0465 127.511 32.2825 126.808 32.7447 126.262C33.2591 125.705 33.9696 125.37 34.7264 125.326C35.4831 125.283 36.2273 125.535 36.8021 126.029ZM35.8875 126.977C36.1139 127.212 36.2662 127.508 36.3255 127.829C36.3847 128.15 36.3482 128.481 36.2206 128.781C36.093 129.081 35.8798 129.338 35.6077 129.518C35.3356 129.698 35.0165 129.794 34.6902 129.794C34.3639 129.794 34.0449 129.698 33.7727 129.518C33.5006 129.338 33.2875 129.081 33.1598 128.781C33.0322 128.481 32.9957 128.15 33.055 127.829C33.1142 127.508 33.2665 127.212 33.4929 126.977C33.6481 126.816 33.834 126.688 34.0397 126.6C34.2455 126.513 34.4667 126.468 34.6902 126.468C34.9137 126.468 35.135 126.513 35.3407 126.6C35.5464 126.688 35.7324 126.816 35.8875 126.977Z"
    fill="#004737" />
  <path fill-rule="evenodd" clip-rule="evenodd"
    d="M88.5344 14.0345C88.3823 13.9055 88.263 13.7423 88.1861 13.5584C88.1092 13.3744 88.0769 13.1749 88.0919 12.9761C88.1068 12.7772 88.1686 12.5848 88.2722 12.4144C88.3758 12.2441 88.5182 12.1006 88.6878 11.9958C88.8574 11.891 89.0494 11.8278 89.2481 11.8114C89.4468 11.795 89.6466 11.8259 89.8311 11.9014C90.0156 11.977 90.1796 12.0951 90.3097 12.2462C90.4398 12.3973 90.5323 12.577 90.5797 12.7707C90.5917 12.98 90.554 13.1892 90.4698 13.3812C90.3856 13.5731 90.2572 13.7425 90.0951 13.8754C89.933 14.0084 89.7418 14.1011 89.537 14.1461C89.3322 14.1911 89.1197 14.187 88.9168 14.1343C88.9168 14.3005 88.6674 16.1463 88.1685 18.3081C90.479 18.3169 92.7094 19.1548 94.4542 20.6693C94.4795 20.623 94.5209 20.5875 94.5706 20.5696C107.541 18.7404 108.888 23.0306 104.714 26.4728C100.025 30.3473 85.6243 34.7871 77.6758 33.7395C75.5972 33.4901 72.3713 32.5256 72.338 30.5634C72.338 28.0359 79.1059 25.2256 79.3719 25.0926C80.456 22.3473 82.5506 20.1217 85.2253 18.8734C84.0446 17.593 82.8141 15.7306 82.5314 15.4147C81.118 16.1796 79.7877 14.3671 80.8685 13.4359C81.1067 13.2271 81.417 13.1197 81.7332 13.1365C81.9969 13.0832 82.2709 13.1201 82.5109 13.2415C82.751 13.3629 82.9432 13.5616 83.0566 13.8056C83.1699 14.0495 83.1978 14.3246 83.1357 14.5863C83.0736 14.8481 82.9252 15.0813 82.7143 15.2484C83.2739 15.6514 83.7723 16.133 84.1943 16.6785C86.5888 19.5718 84.5601 18.5741 87.52 18.3413C87.608 16.8581 87.9511 15.4011 88.5344 14.0345ZM79.0893 25.5582C77.5927 26.2899 72.7703 28.8839 72.8369 30.5468C72.8369 31.0956 73.3191 31.6443 74.2004 32.1265C80.3863 35.4523 98.7943 30.2309 104.132 25.8908C107.175 23.4463 106.859 21.1017 101.072 20.686C98.8534 20.5854 96.63 20.6521 94.4209 20.8855C94.0052 21.85 89.9977 29.4327 79.0893 25.5582ZM77.4264 29.5158C77.354 29.6697 77.3147 29.837 77.3112 30.007C77.3076 30.177 77.3398 30.3459 77.4056 30.5027C77.4714 30.6594 77.5695 30.8006 77.6934 30.9171C77.8173 31.0335 77.9643 31.1227 78.1248 31.1787C78.2842 31.2184 78.4499 31.2263 78.6124 31.2018C78.7748 31.1773 78.9309 31.1209 79.0715 31.0359C79.2121 30.9509 79.3345 30.839 79.4318 30.7065C79.529 30.5741 79.5991 30.4237 79.638 30.2641C79.7372 29.9708 79.7159 29.6502 79.5787 29.3726C79.4415 29.0951 79.1996 28.8834 78.9063 28.7842C78.6131 28.6849 78.2924 28.7063 78.0148 28.8435C77.7373 28.9807 77.5256 29.2225 77.4264 29.5158ZM78.7899 29.0502C79.5216 29.3828 79.0227 30.7131 78.3243 30.5135C77.6259 30.314 77.9918 28.9006 78.7899 29.0502ZM90.2638 28.1024C90.1461 28.0148 90.0104 27.9547 89.8665 27.9264C89.7226 27.8982 89.5742 27.9026 89.4322 27.9393C89.2902 27.976 89.1583 28.0441 89.0461 28.1385C88.9339 28.2329 88.8442 28.3512 88.7838 28.4848C88.6562 28.7829 88.6434 29.1177 88.7477 29.4247C88.8521 29.7316 89.0663 29.9892 89.3492 30.1477C89.4843 30.2313 89.6363 30.2837 89.7943 30.3009C89.9522 30.318 90.112 30.2996 90.2619 30.247C90.4118 30.1944 90.548 30.1089 90.6606 29.9967C90.7731 29.8846 90.8591 29.7487 90.9123 29.599C91.0055 29.3134 90.9911 29.0035 90.8716 28.7278C90.7521 28.4521 90.5359 28.2297 90.2638 28.1024ZM90.1307 28.3352C90.7959 28.834 90.3635 29.9981 89.6651 29.599C88.9667 29.1999 89.3326 28.0026 90.1307 28.3518V28.3352ZM99.0271 23.5794C98.9304 23.4889 98.8146 23.4214 98.6883 23.3818C98.5619 23.3422 98.4283 23.3317 98.2973 23.3508C98.1663 23.37 98.0413 23.4184 97.9316 23.4925C97.8218 23.5667 97.7302 23.6645 97.6635 23.7789C97.5349 24.0451 97.5079 24.3491 97.5875 24.6339C97.6671 24.9186 97.8479 25.1645 98.0959 25.3254C98.2067 25.4157 98.3362 25.4803 98.475 25.5144C98.6138 25.5485 98.7585 25.5514 98.8985 25.5227C99.0386 25.4941 99.1705 25.4346 99.2848 25.3488C99.399 25.2629 99.4928 25.1526 99.5592 25.0261C99.6205 24.8963 99.6554 24.7557 99.6617 24.6124C99.6681 24.469 99.6459 24.3259 99.5964 24.1912C99.5468 24.0565 99.471 23.9331 99.3733 23.828C99.2755 23.723 99.1579 23.6385 99.0271 23.5794ZM98.8941 23.7955C99.3929 24.2612 99.0437 25.1924 98.4617 24.7933C97.8797 24.3942 98.2123 23.463 98.8941 23.7955ZM81.7332 13.386C81.9484 13.3939 82.1528 13.4818 82.3066 13.6325C82.4604 13.7832 82.5524 13.9858 82.5647 14.2008C82.5561 14.3934 82.4735 14.5753 82.3341 14.7085C82.1947 14.8417 82.0092 14.916 81.8164 14.9158C81.7159 14.9213 81.6154 14.9069 81.5205 14.8735C81.4256 14.8401 81.3382 14.7883 81.2633 14.7212C81.1121 14.5855 81.0209 14.3953 81.0099 14.1925C80.9989 13.9896 81.0689 13.7906 81.2045 13.6394C81.3402 13.4882 81.5304 13.397 81.7332 13.386ZM89.0998 11.9725C89.3149 11.9805 89.5194 12.0684 89.6731 12.2191C89.8269 12.3697 89.9189 12.5724 89.9312 12.7873C89.9226 12.98 89.84 13.1619 89.7006 13.2951C89.5612 13.4283 89.3757 13.5026 89.1829 13.5024C89.0756 13.5232 88.9651 13.5208 88.8589 13.4954C88.7526 13.4699 88.653 13.422 88.5668 13.3548C88.4806 13.2877 88.4098 13.2028 88.3591 13.106C88.3085 13.0091 88.2792 12.9026 88.2732 12.7935C88.2672 12.6843 88.2847 12.5752 88.3244 12.4734C88.3641 12.3716 88.4252 12.2795 88.5035 12.2033C88.5818 12.1271 88.6756 12.0685 88.7784 12.0316C88.8813 11.9947 88.9908 11.9802 89.0998 11.9892V11.9725ZM171.162 94.5341C171.943 93.0882 173.222 91.9756 174.763 91.4037C176.303 90.8318 177.999 90.8397 179.533 91.4259C181.068 92.0122 182.337 93.1367 183.104 94.5898C183.871 96.0429 184.083 97.7253 183.701 99.3232C186.147 100.513 188.483 101.915 190.685 103.514C191.649 104.378 191.516 105.177 189.803 105.06C186.829 104.795 183.888 104.238 181.023 103.397C180.107 104.067 179.036 104.495 177.911 104.643C176.785 104.79 175.641 104.652 174.583 104.241C173.524 103.831 172.586 103.16 171.855 102.292C171.124 101.424 170.623 100.386 170.398 99.2733C168.735 98.4751 162.965 95.4986 162.615 93.8191C162.499 93.2038 163.098 92.9212 163.729 92.8546C166.284 92.989 168.798 93.557 171.162 94.5341ZM183.568 99.6724C183.243 100.802 182.63 101.828 181.788 102.649C184.614 103.464 187.509 104.02 190.435 104.312C189.487 103.081 184.931 100.454 183.568 99.6724ZM170.996 99.5228C171.266 100.458 171.748 101.319 172.404 102.038C173.061 102.758 173.874 103.316 174.781 103.67C175.689 104.024 176.665 104.164 177.635 104.079C178.605 103.994 179.543 103.687 180.375 103.181C177.162 102.196 174.027 100.973 170.996 99.5228ZM181.273 102.499C182.441 101.458 183.186 100.023 183.364 98.4679C183.542 96.9129 183.141 95.3468 182.237 94.0685C181.763 93.3704 181.152 92.7763 180.441 92.3226C179.73 91.8688 178.933 91.5649 178.101 91.4295C177.268 91.2941 176.416 91.3299 175.598 91.535C174.779 91.74 174.011 92.1098 173.341 92.6218C172.438 93.2866 171.725 94.1776 171.276 95.2052C170.826 96.2327 170.655 97.3605 170.78 98.4751C174.164 100.097 177.673 101.443 181.273 102.499ZM170.996 94.8667C169.766 94.4676 164.345 92.9045 163.364 93.6694C163.746 94.8667 169.15 97.677 170.398 98.1925C170.303 97.0506 170.509 95.9039 170.996 94.8667ZM50.438 197.35C52.4456 198.669 54.5592 199.821 56.7569 200.792C56.7782 200.798 56.8012 200.798 56.8221 200.79C56.843 200.782 56.8606 200.767 56.8722 200.748C56.8837 200.729 56.8884 200.706 56.8856 200.684C56.8828 200.662 56.8726 200.641 56.8567 200.625C54.8466 199.309 52.7334 198.158 50.5377 197.183C50.5164 197.177 50.4934 197.177 50.4725 197.185C50.4516 197.193 50.434 197.208 50.4225 197.227C50.411 197.246 50.4062 197.269 50.409 197.291C50.4118 197.313 50.422 197.334 50.438 197.35ZM14.3869 51.3493C14.3869 47.3252 14.6197 43.5338 14.6197 43.7001C14.6306 43.6669 14.6518 43.6379 14.6802 43.6174C14.7085 43.5968 14.7427 43.5858 14.7777 43.5858C14.8127 43.5858 14.8468 43.5968 14.8752 43.6174C14.9035 43.6379 14.9247 43.6669 14.9356 43.7001C14.9356 44.914 15.1518 45.9949 15.1684 51.6154C16.3973 50.8156 17.6685 50.0829 18.9764 49.4204C18.9939 49.4095 19.0133 49.4021 19.0337 49.3987C19.054 49.3953 19.0748 49.396 19.0948 49.4006C19.1149 49.4052 19.1339 49.4138 19.1507 49.4257C19.1674 49.4377 19.1817 49.4528 19.1926 49.4703C19.2035 49.4878 19.2109 49.5072 19.2143 49.5275C19.2177 49.5478 19.2171 49.5686 19.2124 49.5887C19.2078 49.6088 19.1993 49.6278 19.1873 49.6445C19.1753 49.6613 19.1602 49.6756 19.1427 49.6865C18.0782 50.5596 16.9681 51.3756 15.817 52.1309C18.2115 53.4446 18.6937 53.7938 19.8411 54.4922C20.9885 55.1906 21.0051 55.1906 20.922 55.3569C20.8388 55.5232 20.7557 55.4566 19.6083 54.9245C18.4609 54.3924 17.6794 54.0598 15.1684 52.6796C15.1684 59.0484 14.919 61.9585 14.919 61.7922C14.9081 61.8254 14.8869 61.8544 14.8586 61.8749C14.8302 61.8955 14.7961 61.9065 14.761 61.9065C14.726 61.9065 14.6919 61.8955 14.6635 61.8749C14.6352 61.8544 14.614 61.8254 14.6031 61.7922C14.6031 60.5949 14.3703 59.5473 14.3703 53.0621C13.0727 53.9217 11.7294 54.7099 10.3461 55.4234C10.3286 55.4343 10.3092 55.4417 10.2889 55.4451C10.2686 55.4485 10.2478 55.4478 10.2277 55.4432C10.2076 55.4386 10.1887 55.43 10.1719 55.4181C10.1551 55.4061 10.1409 55.391 10.1299 55.3735C10.119 55.356 10.1117 55.3366 10.1082 55.3163C10.1048 55.2959 10.1055 55.2751 10.1101 55.2551C10.1147 55.235 10.1233 55.216 10.1352 55.1993C10.1472 55.1825 10.1624 55.1682 10.1798 55.1573C11.4891 54.0851 12.8606 53.0912 14.2871 52.1808C12.9402 51.4325 12.5078 51.1664 11.4436 50.5179C10.3794 49.8694 10.0302 49.6698 10.1133 49.4869C10.1447 49.464 10.1825 49.4516 10.2214 49.4516C10.2603 49.4516 10.2981 49.464 10.3295 49.4869C12.4247 50.2685 13.6719 50.9835 14.3869 51.3493Z"
    fill="#004737" />
  <path fill-rule="evenodd" clip-rule="evenodd"
    d="M50.5395 200.792C52.4024 199.815 54.1675 198.662 55.8108 197.349C55.9272 197.349 55.8108 197.117 55.7111 197.183C53.8495 198.162 52.0846 199.315 50.4398 200.625C50.34 200.692 50.4398 200.858 50.5395 200.792ZM102.089 100.52C102.089 105.193 102.255 105.941 102.255 106.789C102.248 106.807 102.245 106.826 102.247 106.845C102.249 106.864 102.256 106.882 102.267 106.898C102.277 106.914 102.292 106.927 102.308 106.935C102.325 106.944 102.344 106.949 102.363 106.949C102.382 106.949 102.401 106.944 102.418 106.935C102.434 106.927 102.449 106.914 102.459 106.898C102.47 106.882 102.477 106.864 102.479 106.845C102.481 106.826 102.478 106.807 102.471 106.789C102.471 106.956 102.654 104.262 102.654 100.238C103.943 100.967 105.27 101.627 106.628 102.217C106.761 102.217 106.878 102.084 106.745 102.017C105.574 101.235 104.364 100.513 103.12 99.8553C103.943 99.3467 104.737 98.7915 105.497 98.1924C105.52 98.1752 105.536 98.1503 105.541 98.1225C105.547 98.0946 105.542 98.0657 105.527 98.0412C105.513 98.0167 105.49 97.9983 105.463 97.9894C105.436 97.9805 105.407 97.9817 105.381 97.9929C105.381 97.9929 104.018 98.6913 102.654 99.5726C102.654 95.432 102.488 94.584 102.488 93.8856C102.488 93.8547 102.475 93.8251 102.454 93.8033C102.432 93.7814 102.402 93.7692 102.371 93.7692C102.34 93.7692 102.311 93.7814 102.289 93.8033C102.267 93.8251 102.255 93.8547 102.255 93.8856C102.255 93.7193 102.105 96.5628 102.089 99.3897C101.606 99.1402 100.642 98.6248 99.1786 97.9929C99.0455 97.9929 98.9291 98.1259 99.0621 98.1924C99.1952 98.2589 100.293 99.0405 102.022 99.9883C100.998 100.608 100.01 101.286 99.0621 102.017C98.9291 102.017 99.0621 102.3 99.1786 102.217C99.0123 102.3 100.259 101.684 102.089 100.52ZM143.893 218.019C142.081 217.271 122.958 216.09 122.791 216.073C122.276 216.073 118.551 216.822 118.302 216.888C118.052 216.955 118.302 216.888 118.302 216.971C119.755 217.636 121.256 218.191 122.791 218.634C124.454 218.983 127.78 219.017 143.544 220.713C143.843 220.713 144.475 219.682 144.109 218.185C144.093 218.135 143.976 218.069 143.893 218.019ZM122.708 218.468L120.197 217.587C120.294 217.454 120.357 217.3 120.38 217.138C120.404 216.975 120.386 216.81 120.33 216.655C121.143 216.491 121.965 216.375 122.791 216.306C123.19 216.705 122.126 216.855 122.924 217.37C123.024 217.37 123.041 217.37 122.924 217.487C122.882 217.508 122.845 217.537 122.814 217.573C122.783 217.609 122.76 217.651 122.746 217.696C122.732 217.741 122.728 217.789 122.733 217.835C122.737 217.882 122.752 217.928 122.775 217.969C122.908 218.202 123.057 218.302 122.708 218.468ZM122.908 218.468C123.373 218.219 122.741 217.836 123.057 217.637C123.756 217.154 120.43 217.287 142.397 219.299C142.351 219.642 142.427 219.989 142.613 220.281L122.908 218.468ZM142.413 219.166C141.665 219.083 123.257 217.337 123.141 217.237C123.024 217.138 122.725 217.055 122.874 216.855C123.024 216.655 123.107 216.473 122.874 216.273C123.041 216.273 139.354 217.57 142.829 218.152C142.586 218.45 142.441 218.816 142.413 219.2V219.166ZM143.477 220.314C143.361 220.197 143.344 220.231 143.228 219.898C143.112 219.565 143.228 218.435 143.76 218.435C143.842 218.756 143.859 219.091 143.81 219.419C143.762 219.747 143.649 220.063 143.477 220.347V220.314ZM155.034 171.242C155.016 171.181 154.984 171.125 154.941 171.077C154.898 171.03 154.845 170.993 154.786 170.968C154.727 170.944 154.664 170.933 154.6 170.936C154.536 170.939 154.474 170.956 154.417 170.986C154.361 171.016 154.312 171.058 154.274 171.11C154.235 171.161 154.209 171.22 154.197 171.283C154.184 171.345 154.186 171.41 154.201 171.472C154.217 171.534 154.246 171.592 154.286 171.641C154.452 171.908 154.619 172.174 154.802 172.44C154.827 172.497 154.864 172.548 154.911 172.59C154.958 172.631 155.014 172.662 155.074 172.68C155.134 172.698 155.197 172.702 155.259 172.693C155.321 172.684 155.381 172.662 155.433 172.628C155.486 172.594 155.53 172.548 155.564 172.495C155.597 172.442 155.618 172.382 155.626 172.32C155.634 172.258 155.628 172.195 155.61 172.135C155.591 172.075 155.559 172.02 155.517 171.974C155.434 171.741 155.184 171.492 155.034 171.242ZM134.315 135.923C134.415 135.141 135.329 131.167 134.98 131.084C134.961 131.076 134.94 131.073 134.919 131.074C134.898 131.075 134.877 131.08 134.858 131.089C134.839 131.099 134.823 131.112 134.809 131.128C134.796 131.145 134.786 131.163 134.781 131.184C134.309 132.345 133.947 133.547 133.7 134.776C133.605 135.208 133.544 135.647 133.517 136.089C133.519 136.157 133.539 136.223 133.574 136.281C133.608 136.34 133.658 136.388 133.716 136.422C134.133 136.635 134.583 136.775 135.047 136.838C135.413 136.838 136.71 136.937 136.56 136.588C136.41 136.239 136.211 136.871 134.315 135.923ZM141.781 133.512V132.647C141.781 132.048 140.95 131.965 140.933 132.647V133.595C140.929 133.658 140.938 133.721 140.96 133.78C140.983 133.839 141.017 133.892 141.063 133.936C141.108 133.98 141.162 134.014 141.221 134.034C141.281 134.055 141.344 134.063 141.407 134.057C141.469 134.051 141.53 134.031 141.584 133.999C141.638 133.967 141.685 133.923 141.721 133.871C141.756 133.82 141.78 133.76 141.791 133.698C141.801 133.636 141.798 133.573 141.781 133.512ZM142.879 138.101C142.347 140.097 141.632 140.396 140.767 140.496C140.59 140.51 140.412 140.51 140.235 140.496C140.195 140.483 140.152 140.486 140.114 140.504C140.077 140.523 140.049 140.556 140.035 140.596C140.022 140.635 140.025 140.679 140.044 140.716C140.063 140.754 140.095 140.782 140.135 140.795C141.582 141.627 143.561 140.612 143.195 138.101C143.184 138.068 143.163 138.039 143.134 138.019C143.106 137.998 143.072 137.987 143.037 137.987C143.002 137.987 142.968 137.998 142.939 138.019C142.911 138.039 142.89 138.068 142.879 138.101ZM149.131 158.887C149.121 158.833 149.101 158.781 149.071 158.734C149.041 158.687 149.002 158.647 148.957 158.615C148.911 158.584 148.86 158.561 148.805 158.549C148.751 158.538 148.695 158.537 148.641 158.546C148.586 158.556 148.534 158.577 148.487 158.607C148.441 158.637 148.4 158.675 148.369 158.721C148.337 158.767 148.315 158.818 148.303 158.872C148.291 158.926 148.29 158.982 148.3 159.037C148.371 159.347 148.46 159.652 148.566 159.951C148.571 160.015 148.59 160.077 148.622 160.133C148.654 160.188 148.698 160.236 148.75 160.273C148.803 160.309 148.863 160.334 148.926 160.344C148.989 160.355 149.054 160.351 149.116 160.333C149.177 160.316 149.234 160.285 149.282 160.243C149.33 160.2 149.369 160.148 149.394 160.089C149.419 160.03 149.431 159.966 149.429 159.902C149.427 159.838 149.41 159.776 149.381 159.719C149.281 159.436 149.198 159.153 149.131 158.887ZM132.769 131.034C132.781 130.971 132.779 130.907 132.764 130.845C132.748 130.783 132.719 130.725 132.679 130.675C132.638 130.626 132.587 130.586 132.529 130.559C132.472 130.532 132.408 130.517 132.345 130.517C132.281 130.517 132.217 130.532 132.16 130.559C132.102 130.586 132.051 130.626 132.01 130.675C131.97 130.725 131.941 130.783 131.925 130.845C131.91 130.907 131.908 130.971 131.921 131.034V131.982C131.908 132.045 131.91 132.109 131.925 132.171C131.941 132.233 131.97 132.291 132.01 132.341C132.051 132.39 132.102 132.43 132.16 132.457C132.217 132.485 132.281 132.499 132.345 132.499C132.408 132.499 132.472 132.485 132.529 132.457C132.587 132.43 132.638 132.39 132.679 132.341C132.719 132.291 132.748 132.233 132.764 132.171C132.779 132.109 132.781 132.045 132.769 131.982C132.749 131.666 132.749 131.35 132.769 131.034ZM264.219 200.692C264.119 200.708 264.219 200.692 264.219 200.692V200.692Z"
    fill="#004737" />
  <path fill-rule="evenodd" clip-rule="evenodd"
    d="M272.513 199.628C270.667 198.73 266.277 199.478 264.199 199.91C263.435 199.057 262.472 198.407 261.395 198.018C260.318 197.63 259.162 197.514 258.03 197.682C256.167 198.148 255.718 200.442 255.801 202.371C254.604 202.155 253.307 202.006 252.11 201.889C252.209 201.523 252.525 201.008 252.426 200.642C252.372 200.511 252.29 200.394 252.187 200.298C252.083 200.202 251.96 200.129 251.826 200.085C251.692 200.04 251.549 200.026 251.409 200.042C251.269 200.057 251.133 200.103 251.012 200.176C250.681 200.441 250.374 200.736 250.098 201.058C250.098 200.476 250.58 199.544 249.998 199.395C249.416 199.245 247.603 200.875 247.088 201.457C243.269 201.037 239.416 201.037 235.597 201.457C230.598 201.816 225.886 203.93 222.294 207.427C242.515 184.146 251.395 168.149 251.162 148.212C250.929 128.274 227.233 118.762 217.489 118.513C208.027 118.28 198.266 123.501 197.767 123.501C189.22 125.164 166.804 122.687 162.098 124.649C162.156 122.542 161.778 120.445 160.989 118.491C160.199 116.537 159.014 114.767 157.509 113.291C154.815 110.348 150.508 109.251 146.135 109.433C139.899 109.716 133.713 112.327 130.62 117.748C129.595 119.503 128.991 121.473 128.858 123.501C128.858 124.017 127.793 132.497 130.52 138.916C131.136 140.541 132.12 142.002 133.395 143.182C134.67 144.362 136.202 145.23 137.87 145.717C135.182 149.281 132.716 153.008 130.487 156.875C129.972 157.956 130.354 158.538 131.102 158.538C131.851 158.538 132.848 158.339 133.547 158.372C132.449 161.382 129.656 169.23 128.974 172.34C125.555 174.642 122.477 177.413 119.828 180.571C114.84 186.291 112.512 192.494 106.858 195.803L105.195 196.734C107.456 189.867 111.73 176.231 110.184 176.214C108.637 176.198 104.879 189.318 102.484 198.214C99.9236 199.628 98.6266 200.526 97.7286 203.319C97.4359 204.026 97.2852 204.783 97.2852 205.547C97.2852 206.312 97.4359 207.069 97.7286 207.776C97.8353 208.002 97.9983 208.198 98.2021 208.343C98.4059 208.489 98.6437 208.58 98.8926 208.607C99.0922 208.607 99.0922 208.424 98.5434 209.638C98.2819 209.713 98.0347 209.831 97.8118 209.987L89.8133 205.115C89.6304 205.115 91.9252 204.799 43.2529 211.135C42.3383 210.453 41.3739 209.738 40.3761 208.956C16.464 190.349 94.5525 170.378 100.805 144.952C106.409 122.188 74.199 117.598 81.3493 96.2136C88.4997 74.8291 135.26 80.8154 179.276 78.2546C223.292 75.6938 240.802 31.2618 208.759 8.11462C176.715 -15.0326 143.79 17.8424 136.008 26.2399C128.226 34.6374 119.246 45.629 94.037 44.5315C68.8279 43.434 35.8365 47.7076 23.7474 84.2576C17.9274 101.751 23.1488 114.023 30.9144 123.751C33.5153 121.105 36.732 119.145 40.2764 118.047C42.3383 117.548 44.3837 117.814 44.9657 119.86C46.0632 123.618 41.5069 129.454 38.8629 132.364C45.5144 138.783 51.8998 144.204 54.4108 149.808C58.6012 159.22 38.5137 166.187 30.0331 171.691C21.5524 177.195 8.59865 194.223 16.5472 210.752C17.1443 212.018 17.8104 213.251 18.5426 214.444C1.6811 216.622 1.09909 216.622 0.932807 216.722C0.76652 216.822 0.816406 217.121 0.932807 217.287H0.816406C2.31299 218.95 46.3625 281.907 73.4008 313.9L73.883 314C79.7363 311.19 185.961 259.624 180.307 256.448C180.307 256.448 102.651 213.097 100.805 211.999C101.094 211.504 101.344 210.987 101.553 210.453C101.645 210.446 101.732 210.407 101.799 210.344C101.865 210.28 101.908 210.195 101.919 210.104V209.206C102.95 209.555 104.563 208.557 105.394 207.809C107.057 206.279 109.552 202.022 111.397 201.457C115.078 200.54 118.708 199.43 122.273 198.131C137.089 192.577 143.241 186.358 149.693 176.314C150.76 174.745 151.668 173.074 152.404 171.326C156.169 175.392 160.746 178.621 165.84 180.804C152.404 196.319 154.516 206.163 159.371 211.534C163.811 216.439 171.011 214.71 172.192 214.344C172.192 221.727 174.686 238.123 175.518 239.769C175.95 240.717 174.503 241.432 174.204 243.311C174.047 244.266 174.17 245.246 174.56 246.132C174.95 247.018 175.589 247.771 176.399 248.3C178.245 249.464 181.388 249.53 180.157 247.685C179.747 247.157 179.284 246.673 178.777 246.238C179.259 246.388 179.791 246.587 180.44 246.82C186.509 249.198 187.308 250.279 188.422 249.963C188.571 249.928 188.711 249.861 188.832 249.766C188.953 249.671 189.051 249.551 189.12 249.414C189.253 249.506 189.403 249.569 189.562 249.598C189.721 249.628 189.884 249.624 190.041 249.586C190.198 249.549 190.345 249.478 190.473 249.38C190.601 249.281 190.706 249.157 190.783 249.015C190.84 248.907 190.869 248.787 190.869 248.666C190.869 248.544 190.84 248.424 190.783 248.317C190.994 247.961 191.065 247.541 190.983 247.136C190.983 245.639 185.262 240.75 184.098 239.786C184.265 238.123 185.146 234.432 187.341 224.621C198.682 237.408 236.811 219.632 238.89 218.734C239.239 219.1 253.324 213.097 254.953 212.232C254.787 212.232 272.812 204.084 273.494 201.091C273.494 200.393 273.045 199.944 272.513 199.628ZM208.193 49.0712C208.468 49.0799 208.729 49.1964 208.918 49.3955C209.108 49.5946 209.212 49.8604 209.208 50.1354C209.212 50.2722 209.189 50.4085 209.14 50.5363C209.092 50.6642 209.018 50.781 208.923 50.8801C208.829 50.9792 208.716 51.0584 208.59 51.1133C208.465 51.1682 208.33 51.1975 208.193 51.1996C208.056 51.1975 207.92 51.1682 207.794 51.1136C207.667 51.0589 207.553 50.9799 207.457 50.8811C207.362 50.7823 207.286 50.6655 207.236 50.5376C207.185 50.4097 207.16 50.273 207.162 50.1354C207.16 49.9978 207.185 49.8612 207.236 49.7332C207.286 49.6053 207.362 49.4886 207.457 49.3897C207.553 49.2909 207.667 49.2119 207.794 49.1572C207.92 49.1026 208.056 49.0733 208.193 49.0712ZM198.798 20.0374C198.933 20.0374 199.066 20.0642 199.19 20.1162C199.314 20.1682 199.427 20.2444 199.521 20.3404C199.616 20.4363 199.69 20.5501 199.74 20.6751C199.79 20.8001 199.815 20.9338 199.812 21.0684C199.831 21.2114 199.819 21.3566 199.776 21.4945C199.734 21.6323 199.663 21.7596 199.568 21.8679C199.473 21.9761 199.356 22.0628 199.224 22.1222C199.093 22.1816 198.95 22.2124 198.806 22.2124C198.662 22.2124 198.52 22.1816 198.388 22.1222C198.257 22.0628 198.14 21.9761 198.045 21.8679C197.949 21.7596 197.878 21.6323 197.836 21.4945C197.794 21.3566 197.782 21.2114 197.8 21.0684C197.798 20.9352 197.822 20.8028 197.871 20.6789C197.92 20.555 197.993 20.442 198.086 20.3462C198.178 20.2505 198.289 20.1739 198.411 20.121C198.533 20.068 198.665 20.0396 198.798 20.0374ZM167.536 65.9161C167.417 65.8945 167.31 65.8319 167.232 65.7392C167.155 65.6465 167.113 65.5296 167.113 65.4089C167.113 65.2882 167.155 65.1713 167.232 65.0786C167.31 64.9859 167.417 64.9233 167.536 64.9017C167.675 64.9017 167.808 64.9569 167.906 65.0551C168.005 65.1534 168.06 65.2866 168.06 65.4255C168.06 65.5644 168.005 65.6977 167.906 65.7959C167.808 65.8941 167.675 65.9493 167.536 65.9493V65.9161ZM163.013 20.237C163.013 19.5718 164.676 19.2392 165.408 19.1395C166.616 18.9798 167.841 18.9798 169.049 19.1395C169.799 17.764 170.721 16.4899 171.793 15.3481C172.142 15.0654 172.458 14.9657 172.774 15.3481C173.526 16.8667 174.01 18.5038 174.204 20.1871C176.782 20.8522 180.373 22.0828 178.212 23.6292C177.546 24.1115 176.366 24.6103 175.085 25.2921C175.229 26.6339 175.273 27.9845 175.218 29.3329C175.218 29.9481 175.052 30.8793 174.437 30.9957C173.19 31.2119 172.225 29.4825 170.263 27.7864C168.384 28.7176 164.626 30.7796 164.543 28.8008C164.746 27.113 165.247 25.4747 166.023 23.9618C164.111 22.1493 162.897 21.2679 163.013 20.2702V20.237ZM161.35 50.8172C161.346 51.9779 161.043 53.118 160.47 54.1275C159.898 55.1369 159.074 55.9816 158.08 56.58C157.085 57.1784 155.953 57.5103 154.793 57.5436C153.633 57.577 152.483 57.3106 151.456 56.7703L161.134 49.0878C161.283 49.6638 161.361 50.2556 161.367 50.8504L161.35 50.8172ZM160.934 48.4725C158.274 50.5179 154.699 53.4612 151.123 56.5707C150.854 56.4085 150.598 56.225 150.359 56.022C153.834 52.5133 157.243 48.5557 159.355 46.0447C160.05 46.7469 160.593 47.5846 160.951 48.5058L160.934 48.4725ZM158.989 45.6955C158.324 46.4106 152.537 52.929 150.043 55.6728C149.333 55.0208 148.766 54.2279 148.38 53.3448C150.907 51.5156 154.349 48.9714 158.174 45.9616L158.773 45.4794L158.989 45.6955ZM154.615 44.0327C155.949 44.0313 157.253 44.4311 158.357 45.18L156.012 46.8429C155.48 47.242 151.439 50.4181 148.247 52.9124C147.908 51.8989 147.814 50.8196 147.973 49.7628C148.131 48.706 148.538 47.7018 149.159 46.8324C149.78 45.9629 150.599 45.253 151.547 44.7606C152.495 44.2682 153.547 44.0073 154.615 43.9994V44.0327ZM138.585 41.3056C138.787 41.2989 138.987 41.3527 139.158 41.4601C139.329 41.5675 139.464 41.7235 139.546 41.9081C139.628 42.0928 139.653 42.2977 139.617 42.4966C139.582 42.6955 139.488 42.8794 139.348 43.0246C139.207 43.1698 139.027 43.2697 138.829 43.3116C138.631 43.3536 138.426 43.3355 138.239 43.2598C138.051 43.1841 137.891 43.0542 137.778 42.8868C137.665 42.7193 137.604 42.5219 137.604 42.3199C137.621 42.067 137.734 41.83 137.919 41.657C138.104 41.4841 138.349 41.3881 138.602 41.3887L138.585 41.3056ZM129.423 66.4814C129.811 66.4945 130.187 66.6216 130.504 66.8468C130.82 67.072 131.063 67.3854 131.203 67.748C131.343 68.1105 131.372 68.5061 131.289 68.8855C131.205 69.2648 131.012 69.6112 130.732 69.8813C130.453 70.1514 130.101 70.3334 129.719 70.4045C129.337 70.4756 128.942 70.4328 128.585 70.2812C128.227 70.1297 127.922 69.8762 127.707 69.5524C127.492 69.2286 127.378 68.8488 127.378 68.4603C127.391 67.928 127.612 67.4222 127.995 67.0521C128.378 66.6819 128.891 66.4769 129.423 66.4814ZM103.549 61.7921C104.264 61.7921 104.264 63.0726 103.549 63.0726C102.834 63.0726 102.817 61.7921 103.549 61.7921ZM35.9196 98.5583C35.8407 98.5722 35.7597 98.5686 35.6824 98.5478C35.605 98.5271 35.5331 98.4896 35.4717 98.4381C35.4103 98.3866 35.361 98.3223 35.3271 98.2497C35.2933 98.1771 35.2757 98.0979 35.2757 98.0178C35.2757 97.9377 35.2933 97.8586 35.3271 97.7859C35.361 97.7133 35.4103 97.649 35.4717 97.5975C35.5331 97.546 35.605 97.5086 35.6824 97.4878C35.7597 97.467 35.8407 97.4635 35.9196 97.4774C35.9986 97.4635 36.0795 97.467 36.1569 97.4878C36.2343 97.5086 36.3062 97.546 36.3676 97.5975C36.429 97.649 36.4783 97.7133 36.5122 97.7859C36.546 97.8586 36.5636 97.9377 36.5636 98.0178C36.5636 98.0979 36.546 98.1771 36.5122 98.2497C36.4783 98.3223 36.429 98.3866 36.3676 98.4381C36.3062 98.4896 36.2343 98.5271 36.1569 98.5478C36.0795 98.5686 35.9986 98.5722 35.9196 98.5583ZM71.6714 163.843C71.448 163.817 71.2367 163.727 71.0633 163.584C70.8899 163.441 70.7616 163.25 70.6941 163.036C70.6266 162.821 70.6227 162.592 70.6829 162.375C70.7431 162.158 70.8648 161.963 71.0332 161.814C71.2017 161.665 71.4097 161.568 71.6322 161.535C71.8546 161.502 72.082 161.534 72.2867 161.627C72.4914 161.72 72.6647 161.87 72.7857 162.06C72.9067 162.25 72.9702 162.47 72.9684 162.695C72.947 163.019 72.7988 163.321 72.5559 163.536C72.313 163.751 71.9952 163.861 71.6714 163.843ZM75.6124 52.6297C75.84 52.6264 76.0635 52.6909 76.2543 52.815C76.4452 52.939 76.5948 53.117 76.6842 53.3264C76.7736 53.5357 76.7987 53.7669 76.7564 53.9906C76.714 54.2142 76.606 54.4202 76.4463 54.5824C76.2865 54.7445 76.0821 54.8554 75.8591 54.9011C75.6361 54.9467 75.4045 54.925 75.1939 54.8386C74.9833 54.7523 74.8031 54.6053 74.6762 54.4162C74.5494 54.2272 74.4817 54.0047 74.4817 53.7771C74.4816 53.4757 74.6002 53.1863 74.8118 52.9716C75.0234 52.7569 75.311 52.6341 75.6124 52.6297ZM76.5769 112.343C76.5753 112.506 76.5272 112.664 76.4382 112.8C76.3491 112.936 76.223 113.044 76.0747 113.11C75.9264 113.176 75.7622 113.198 75.6016 113.174C75.441 113.15 75.2908 113.08 75.1688 112.972C75.0469 112.865 74.9583 112.725 74.9136 112.569C74.8688 112.413 74.8699 112.247 74.9166 112.091C74.9633 111.936 75.0537 111.797 75.1771 111.691C75.3004 111.586 75.4515 111.518 75.6124 111.495C75.7292 111.486 75.8467 111.501 75.9574 111.54C76.0681 111.578 76.1696 111.639 76.2556 111.719C76.3415 111.799 76.41 111.895 76.4567 112.003C76.5034 112.11 76.5274 112.226 76.527 112.343H76.5769ZM76.9593 136.904C77.9571 136.123 80.9003 133.695 81.7817 134.46C82.663 135.225 81.8981 136.838 81.7817 139.132C83.6275 140.014 87.4521 141.693 85.9555 142.757C84.49 143.474 82.9172 143.945 81.2994 144.154C81.0167 146.565 81.0334 147.796 80.2186 148.212C79.6532 148.478 78.406 147.463 77.9404 147.031C77.0458 146.268 76.2622 145.384 75.6124 144.404C74.0936 144.587 72.5583 144.587 71.0395 144.404C70.6404 144.304 70.3411 144.121 70.4243 143.722C70.6072 142.807 72.6691 140.862 73.3509 140.213C72.9186 139.265 71.9042 136.887 72.2534 135.94C72.7523 134.626 74.8974 136.073 76.9095 136.904H76.9593ZM71.555 83.3263C71.9042 83.3263 72.0871 83.5758 72.0372 84.0081C71.6892 85.2421 71.1626 86.4185 70.4741 87.5002C71.1872 88.2468 71.7968 89.0857 72.2867 89.9945C73.9495 93.2038 71.6381 92.389 68.2126 91.6573C67.4049 92.8582 66.3782 93.8962 65.1862 94.717C63.6397 95.4819 63.2905 92.2227 63.0245 90.3769C60.6798 89.7617 58.8174 89.8448 58.3352 88.897C57.8529 87.9491 61.4447 86.5024 62.4757 86.0368C62.3593 84.374 61.6443 82.1457 63.0744 82.2122C64.5237 82.6501 65.8543 83.4121 66.9655 84.4405C68.4267 83.8285 69.9758 83.4525 71.555 83.3263ZM50.37 129.787C50.1846 129.817 49.9948 129.806 49.8139 129.756C49.633 129.705 49.4652 129.616 49.3222 129.494C49.1792 129.372 49.0643 129.221 48.9855 129.051C48.9067 128.88 48.8659 128.694 48.8659 128.507C48.8659 128.319 48.9067 128.133 48.9855 127.963C49.0643 127.792 49.1792 127.641 49.3222 127.519C49.4652 127.397 49.633 127.308 49.8139 127.257C49.9948 127.207 50.1846 127.196 50.37 127.226C50.5554 127.196 50.7452 127.207 50.9261 127.257C51.107 127.308 51.2748 127.397 51.4178 127.519C51.5608 127.641 51.6757 127.792 51.7545 127.963C51.8333 128.133 51.8741 128.319 51.8741 128.507C51.8741 128.694 51.8333 128.88 51.7545 129.051C51.6757 129.221 51.5608 129.372 51.4178 129.494C51.2748 129.616 51.107 129.705 50.9261 129.756C50.7452 129.806 50.5554 129.817 50.37 129.787ZM40.9914 79.5516C40.9301 79.5364 40.8757 79.5012 40.8368 79.4514C40.7979 79.4017 40.7768 79.3404 40.7768 79.2773C40.7768 79.2141 40.7979 79.1528 40.8368 79.1031C40.8757 79.0534 40.9301 79.0181 40.9914 79.0029C44.6331 78.7534 48.7736 78.637 52.4153 78.637C49.3803 76.5084 46.1312 74.7026 42.7208 73.2493C42.6486 73.2271 42.5874 73.1784 42.5496 73.113C42.5118 73.0475 42.5001 72.9702 42.517 72.8965C42.5338 72.8229 42.5779 72.7583 42.6404 72.7158C42.7029 72.6733 42.7791 72.656 42.8538 72.6673C46.6337 72.7077 50.3519 73.6301 53.7124 75.3612C51.5021 73.1586 49.1645 71.0876 46.7117 69.1587C46.6591 69.1161 46.6236 69.0561 46.6115 68.9896C46.5994 68.923 46.6115 68.8544 46.6457 68.796C46.6799 68.7377 46.7339 68.6935 46.7979 68.6716C46.8618 68.6497 46.9316 68.6514 46.9944 68.6764C51.186 70.0281 55.1207 72.0741 58.6345 74.7293C62.103 77.2709 65.1118 80.3865 67.5309 83.9416C67.5309 84.0913 67.3812 84.2077 67.2814 84.058C64.8639 80.526 61.8608 77.4329 58.4017 74.9122C55.3202 72.6522 51.9255 70.854 48.3247 69.5744C49.5386 70.5555 54.4607 74.563 55.1092 76.043C55.2422 76.309 54.9097 76.5585 54.627 76.3922C52.851 75.403 50.9644 74.6272 49.0065 74.0808C47.4805 73.6243 45.907 73.3453 44.3172 73.2493C46.2295 74.1639 52.1659 77.0739 53.3798 78.8033C53.4109 78.8496 53.4284 78.9037 53.4304 78.9594C53.4324 79.0151 53.4188 79.0702 53.3912 79.1186C53.3635 79.167 53.3229 79.2067 53.2739 79.2333C53.2248 79.2599 53.1694 79.2722 53.1138 79.2689C52.9308 79.2689 48.3413 79.2689 43.4691 79.4352C49.2226 80.5327 56.7721 82.6446 61.5778 86.0867C61.7108 86.1865 61.5778 86.386 61.4115 86.2863C56.1901 82.6446 47.1607 80.3831 40.9914 79.5516ZM135.143 113.89C140.814 109.616 152.055 108.486 156.977 113.89C158.426 115.303 159.565 117.003 160.321 118.882C161.077 120.76 161.433 122.775 161.367 124.798C160.979 128.466 159.402 131.905 156.877 134.593C156.578 134.892 156.578 134.593 156.677 134.443C156.963 134.032 157.153 133.562 157.232 133.067C157.311 132.573 157.277 132.067 157.133 131.587C156.989 131.108 156.739 130.667 156.401 130.298C156.063 129.928 155.646 129.64 155.181 129.454C152.038 128.024 151.09 133.296 148.795 133.944C146.8 134.526 147.548 129.87 147.698 126.761C147.907 125.393 147.592 123.998 146.817 122.853C145.436 121.371 143.727 120.232 141.828 119.527C138.498 118.186 134.882 117.711 131.319 118.147C132.291 116.483 133.593 115.035 135.143 113.89ZM131.202 138.683C128.459 132.198 129.656 123.584 129.656 123.584C129.79 121.835 130.294 120.135 131.136 118.596C134.729 118.231 138.356 118.804 141.662 120.259C143.46 120.932 145.081 122.007 146.401 123.402C148.064 125.597 146.401 129.787 146.933 133.063C147.133 134.343 147.731 135.158 148.978 134.726C151.556 133.994 152.421 129.105 154.898 130.236C157.376 131.367 156.927 134.609 154 135.84C152.869 136.322 152.969 137.403 153.834 137.503C154.283 137.503 155.164 137.253 156.511 136.172C158.484 134.245 160.035 131.929 161.067 129.371C163.38 129.859 165.616 130.654 167.719 131.733C170.679 133.079 174.171 134.959 176.931 136.572C172.724 137.575 168.89 139.753 165.875 142.854C162.86 145.954 160.789 149.848 159.903 154.082C159.272 154.082 159.321 153.184 158.889 152.851C158.457 152.518 158.191 152.851 157.675 153.017C157.685 152.608 157.594 152.202 157.409 151.837C157.409 150.872 155.829 151.438 154.915 151.737C154.926 151.325 154.864 150.914 154.732 150.523C155.114 149.292 152.886 149.908 151.639 150.257C151.733 149.785 151.733 149.299 151.639 148.827C151.755 147.862 149.644 148.478 148.762 148.827C148.838 148.271 148.804 147.706 148.662 147.164C148.197 146.515 145.736 147.879 145.636 147.264C145.644 146.808 145.734 146.357 145.902 145.933C146.185 144.919 144.805 145.551 144.405 145.485C144.39 145.493 144.373 145.498 144.356 145.498C144.338 145.498 144.321 145.493 144.306 145.485V145.285C145.696 144.904 147.032 144.345 148.28 143.622C148.914 144.557 149.865 145.23 150.957 145.518C151.949 145.813 153.005 145.816 153.999 145.525C154.992 145.235 155.88 144.664 156.557 143.88C157.233 143.097 157.669 142.134 157.811 141.109C157.953 140.084 157.796 139.039 157.359 138.101C157.359 137.918 156.993 138.101 157.077 138.218C157.292 138.855 157.376 139.529 157.324 140.199C157.273 140.87 157.086 141.523 156.775 142.12C156.464 142.716 156.036 143.243 155.517 143.67C154.997 144.097 154.396 144.414 153.751 144.603L149.727 142.126C149.577 142.026 149.594 142.126 148.712 142.691C148.159 141.599 148.011 140.347 148.294 139.157C148.577 137.966 149.273 136.915 150.259 136.189C151.421 135.41 152.802 135.025 154.2 135.092C154.233 135.081 154.262 135.059 154.283 135.031C154.303 135.003 154.314 134.969 154.314 134.934C154.314 134.899 154.303 134.864 154.283 134.836C154.262 134.808 154.233 134.787 154.2 134.776C152.702 134.594 151.187 134.916 149.893 135.69C148.718 136.471 147.874 137.66 147.527 139.028C147.18 140.395 147.353 141.843 148.014 143.09C145.066 144.767 141.684 145.526 138.303 145.268C136.682 144.813 135.192 143.978 133.957 142.833C132.723 141.688 131.778 140.266 131.202 138.683ZM157.093 153.45C157.53 153.356 157.954 153.211 158.357 153.017C159.089 152.751 158.889 154.215 159.82 154.231C159.654 155.013 159.554 155.628 159.504 156.01C158.723 155.728 157.991 155.412 157.259 155.113C157.292 154.553 157.236 153.992 157.093 153.45ZM157.093 153.084C157.093 153.084 157.093 153.001 157.259 152.435C157.301 152.645 157.386 152.843 157.509 153.017L157.093 153.067V153.084ZM156.927 153.4C156.842 153.951 156.842 154.512 156.927 155.063C155.763 154.58 154.682 154.082 153.601 153.583C153.6 153.269 153.538 152.958 153.418 152.668C154.183 152.668 156.744 151.438 156.86 151.803C156.977 152.169 156.378 153.067 156.927 153.4ZM153.252 152.552C153.249 152.811 153.288 153.07 153.368 153.317C152.936 153.117 151.157 152.219 150.708 151.986C150.7 151.631 150.644 151.279 150.541 150.939C151.538 150.801 152.522 150.584 153.485 150.29C153.601 150.29 154.349 150.19 154.283 150.29C154.216 150.772 152.52 152.169 153.252 152.552ZM150.342 151.787C149.494 151.338 148.679 150.905 148.047 150.506C148.058 150.154 147.996 149.803 147.864 149.475C148.132 149.521 148.408 149.474 148.646 149.342C149.41 148.995 150.234 148.797 151.074 148.76C150.722 149.166 150.42 149.613 150.176 150.091C150.11 150.661 150.167 151.24 150.342 151.787ZM147.665 150.29L145.819 149.176C145.856 148.683 145.806 148.188 145.669 147.713C146.201 147.829 147.582 147.28 148.213 147.33C147.913 147.738 147.64 148.166 147.399 148.611C147.399 149.181 147.488 149.748 147.665 150.29ZM148.38 147.879C148.338 148.21 148.338 148.545 148.38 148.877C148.263 148.877 147.881 149.06 147.848 148.877C147.814 148.694 148.18 148.079 148.38 147.879ZM151.306 149.309C151.296 149.635 151.335 149.96 151.423 150.274C151.167 150.368 150.897 150.419 150.625 150.423C150.625 150.423 150.558 150.19 151.306 149.309ZM154.499 150.972C154.521 151.246 154.582 151.514 154.682 151.77C154.351 151.896 154.012 152.002 153.668 152.086C153.867 151.787 154.133 151.404 154.499 150.955V150.972ZM145.337 147.513C145.329 148.013 145.39 148.511 145.52 148.993C145.236 148.82 144.959 148.637 144.688 148.444L144.306 145.651C144.721 145.651 145.586 145.401 145.586 145.651C145.586 145.9 144.888 146.998 145.337 147.497V147.513ZM148.895 143.023C149.128 142.874 149.377 142.691 149.61 142.508L153.269 144.753C152.457 144.916 151.616 144.847 150.842 144.553C150.068 144.258 149.393 143.751 148.895 143.09V143.023ZM131.086 157.79C130.687 157.673 132.982 154.115 133.248 153.699C134.062 152.385 138.003 146.299 138.336 145.8C139.71 145.881 141.089 145.798 142.443 145.551C142.709 155.395 144.489 159.486 146.65 163.327C145.536 162.978 144.405 163.493 143.424 163.144C142.044 162.679 142.094 160.683 140.099 160.567C138.795 160.72 137.541 161.157 136.424 161.847C135.975 162.03 135.875 161.847 135.758 161.648C135.594 160.523 135.349 159.412 135.027 158.322C134.262 157.008 131.867 158.056 131.086 157.79ZM89.6304 205.547L97.4792 210.287C97.0219 210.718 96.5266 211.108 95.9992 211.451C94.7188 212.132 93.3885 211.617 93.3719 212.631C86.2049 215.375 75.4129 228.029 88.8655 239.586C106.06 254.336 125.632 260.223 107.423 274.291C102.435 278.198 97.2963 277.616 91.3598 273.775C84.8414 269.502 84.9079 250.678 78.6555 239.054C68.2625 219.715 63.9723 226.234 43.8848 211.7L89.6304 205.547ZM112.728 275.388C112.706 275.388 112.684 275.384 112.664 275.375C112.644 275.367 112.626 275.355 112.61 275.339C112.595 275.324 112.582 275.306 112.574 275.285C112.566 275.265 112.561 275.244 112.561 275.222C112.561 275.2 112.566 275.178 112.574 275.158C112.582 275.138 112.595 275.12 112.61 275.104C112.626 275.089 112.644 275.077 112.664 275.068C112.684 275.06 112.706 275.056 112.728 275.056C112.761 275.066 112.79 275.088 112.811 275.116C112.831 275.144 112.842 275.178 112.842 275.214C112.842 275.249 112.831 275.283 112.811 275.311C112.79 275.339 112.761 275.361 112.728 275.371V275.388ZM104.214 280.377C104.144 280.39 104.072 280.387 104.004 280.37C103.935 280.352 103.871 280.319 103.817 280.274C103.762 280.229 103.718 280.172 103.688 280.108C103.658 280.044 103.642 279.974 103.642 279.903C103.642 279.832 103.658 279.762 103.688 279.698C103.718 279.634 103.762 279.577 103.817 279.532C103.871 279.486 103.935 279.454 104.004 279.436C104.072 279.418 104.144 279.416 104.214 279.429C104.348 279.429 104.477 279.482 104.572 279.577C104.668 279.673 104.721 279.802 104.721 279.936C104.721 280.071 104.668 280.2 104.572 280.295C104.477 280.39 104.348 280.443 104.214 280.443V280.377ZM82.796 279.213C82.9664 278.719 83.2194 278.258 83.5443 277.849C82.796 276.818 82.3471 276.303 83.6441 276.369C84.0241 276.397 84.3988 276.475 84.7582 276.602C86.0885 275.139 86.3213 275.238 86.2714 277.234C86.604 277.4 87.3855 277.799 87.5352 278.132C87.6849 278.464 86.8368 278.664 86.2382 278.847C86.2382 279.246 86.0885 280.51 85.706 280.51C85.3236 280.51 85.1074 279.895 84.6086 279.263C83.9268 279.446 82.7129 279.878 82.796 279.279V279.213ZM82.5798 258.028C82.5102 258.041 82.4385 258.038 82.3699 258.021C82.3013 258.003 82.2374 257.97 82.1828 257.925C82.1283 257.88 82.0844 257.823 82.0542 257.759C82.0241 257.695 82.0085 257.625 82.0085 257.554C82.0085 257.483 82.0241 257.413 82.0542 257.349C82.0844 257.285 82.1283 257.228 82.1828 257.183C82.2374 257.137 82.3013 257.105 82.3699 257.087C82.4385 257.069 82.5102 257.067 82.5798 257.08C82.7144 257.08 82.8434 257.133 82.9385 257.228C83.0336 257.324 83.087 257.453 83.087 257.587C83.087 257.722 83.0336 257.851 82.9385 257.946C82.8434 258.041 82.7144 258.094 82.5798 258.094V258.028ZM62.4923 233.916C62.4227 233.929 62.351 233.927 62.2824 233.909C62.2137 233.891 62.1499 233.859 62.0953 233.813C62.0408 233.768 61.9969 233.711 61.9667 233.647C61.9366 233.583 61.921 233.513 61.921 233.442C61.921 233.371 61.9366 233.301 61.9667 233.237C61.9969 233.173 62.0408 233.116 62.0953 233.071C62.1499 233.026 62.2137 232.993 62.2824 232.975C62.351 232.958 62.4227 232.955 62.4923 232.968C62.562 232.955 62.6337 232.958 62.7023 232.975C62.7709 232.993 62.8348 233.026 62.8894 233.071C62.9439 233.116 62.9878 233.173 63.018 233.237C63.0481 233.301 63.0637 233.371 63.0637 233.442C63.0637 233.513 63.0481 233.583 63.018 233.647C62.9878 233.711 62.9439 233.768 62.8894 233.813C62.8348 233.859 62.7709 233.891 62.7023 233.909C62.6337 233.927 62.562 233.929 62.4923 233.916ZM55.8409 223.54C55.7712 223.553 55.6995 223.55 55.6309 223.533C55.5623 223.515 55.4984 223.482 55.4438 223.437C55.3893 223.392 55.3454 223.335 55.3152 223.271C55.2851 223.207 55.2695 223.137 55.2695 223.066C55.2695 222.995 55.2851 222.925 55.3152 222.861C55.3454 222.797 55.3893 222.74 55.4438 222.695C55.4984 222.649 55.5623 222.617 55.6309 222.599C55.6995 222.581 55.7712 222.579 55.8409 222.592C55.9096 222.576 55.981 222.575 56.05 222.589C56.1191 222.604 56.1842 222.633 56.2407 222.676C56.2971 222.718 56.3436 222.772 56.3768 222.834C56.41 222.897 56.4291 222.966 56.4329 223.036C56.4366 223.106 56.4248 223.177 56.3983 223.242C56.3718 223.308 56.3313 223.367 56.2796 223.415C56.2279 223.463 56.1662 223.499 56.0991 223.52C56.0319 223.542 55.9608 223.549 55.8907 223.54H55.8409ZM36.3354 220.214C36.405 220.201 36.4767 220.203 36.5453 220.221C36.614 220.239 36.6778 220.271 36.7324 220.317C36.7869 220.362 36.8309 220.419 36.861 220.483C36.8911 220.547 36.9068 220.617 36.9068 220.688C36.9068 220.759 36.8911 220.829 36.861 220.893C36.8309 220.957 36.7869 221.014 36.7324 221.059C36.6778 221.104 36.614 221.137 36.5453 221.155C36.4767 221.173 36.405 221.175 36.3354 221.162C36.2653 221.171 36.1942 221.164 36.1271 221.142C36.0599 221.121 35.9983 221.085 35.9466 221.037C35.8949 220.989 35.8543 220.93 35.8278 220.864C35.8013 220.799 35.7895 220.729 35.7933 220.658C35.797 220.588 35.8161 220.519 35.8493 220.456C35.8825 220.394 35.929 220.34 35.9855 220.298C36.0419 220.255 36.107 220.226 36.1761 220.211C36.2451 220.197 36.3165 220.198 36.3853 220.214H36.3354ZM25.377 186.957C26.0647 186.403 26.8482 185.98 27.6884 185.709C27.6884 183.548 27.5221 182.384 29.2349 183.664C29.7351 184.072 30.1821 184.541 30.5652 185.061C31.3371 184.827 32.1369 184.699 32.9431 184.678C33.1759 184.678 33.3256 184.811 33.3089 185.044C33.0248 185.902 32.5975 186.706 32.0452 187.422C32.5249 188.168 32.8212 189.017 32.9098 189.9C32.7602 190.715 31.4798 190 30.4488 189.7C29.9998 190.232 28.6196 191.995 28.1041 191.596C27.5887 191.197 27.8713 190.166 27.8048 188.769C26.7905 188.403 24.7285 187.738 25.4269 186.957H25.377ZM19.2577 201.623C19.3273 201.61 19.399 201.612 19.4676 201.63C19.5363 201.648 19.6001 201.681 19.6547 201.726C19.7092 201.771 19.7532 201.828 19.7833 201.892C19.8134 201.956 19.8291 202.026 19.8291 202.097C19.8291 202.168 19.8134 202.238 19.7833 202.302C19.7532 202.366 19.7092 202.423 19.6547 202.468C19.6001 202.513 19.5363 202.546 19.4676 202.564C19.399 202.582 19.3273 202.584 19.2577 202.571C19.1876 202.58 19.1165 202.573 19.0494 202.552C18.9822 202.53 18.9206 202.494 18.8689 202.446C18.8172 202.398 18.7766 202.339 18.7501 202.273C18.7237 202.208 18.7118 202.138 18.7156 202.067C18.7193 201.997 18.7384 201.928 18.7716 201.866C18.8048 201.803 18.8513 201.749 18.9077 201.707C18.9642 201.664 19.0293 201.635 19.0984 201.62C19.1674 201.606 19.2388 201.607 19.3075 201.623H19.2577ZM179.642 256.847C173.556 264.779 82.6796 308.878 73.8331 313.152C53.0639 288.492 20.7376 243.527 1.78087 217.287L18.9085 215.042C29.5841 231.887 45.9468 227.98 54.7267 233.334C64.6042 239.37 69.6926 243.927 72.6858 255.633C76.7598 271.547 71.6215 278.415 83.5277 283.486C94.935 288.325 117.583 286.38 126.762 270.632C135.941 254.885 117.966 248.001 101.819 240.701C85.6728 233.401 88.5163 223.29 90.7113 220.43C92.3873 218.254 94.3316 216.299 96.4981 214.61C97.3174 214.613 98.1231 214.401 98.835 213.995C99.5468 213.59 100.14 213.005 100.556 212.299C102.501 213.346 176.299 254.935 179.692 256.847H179.642ZM118.115 276.452C118.137 276.452 118.159 276.457 118.179 276.465C118.199 276.473 118.218 276.486 118.233 276.501C118.248 276.517 118.261 276.535 118.269 276.555C118.277 276.575 118.282 276.597 118.282 276.619C118.282 276.64 118.277 276.662 118.269 276.682C118.261 276.702 118.248 276.721 118.233 276.736C118.218 276.752 118.199 276.764 118.179 276.772C118.159 276.781 118.137 276.785 118.115 276.785C118.094 276.784 118.072 276.778 118.052 276.769C118.033 276.76 118.015 276.747 118 276.73C117.986 276.714 117.974 276.695 117.967 276.675C117.96 276.654 117.956 276.632 117.957 276.61C117.959 276.588 117.964 276.567 117.973 276.547C117.983 276.528 117.996 276.51 118.012 276.495C118.028 276.48 118.047 276.469 118.068 276.462C118.088 276.454 118.11 276.451 118.132 276.452H118.115ZM122.372 259.607C122.173 259.74 121.874 259.607 121.408 259.375C120.676 260.189 120.327 260.422 120.41 259.042C119.695 258.809 119.296 258.693 119.961 258.31C120.161 258.202 120.373 258.118 120.593 258.061C120.776 256.914 120.926 256.897 121.558 257.861C121.863 257.786 122.183 257.786 122.489 257.861C122.722 257.994 122.339 258.31 122.073 258.626C122.173 258.859 122.572 259.491 122.389 259.607H122.372ZM97.8284 213.612C97.1868 213.824 96.4986 213.851 95.8427 213.689C95.1867 213.527 94.5897 213.184 94.1202 212.698H94.2698C97.4127 212.216 96.9471 210.919 98.5767 210.12C98.7263 210.287 98.5767 210.237 101.221 210.436C100.553 211.901 99.3337 213.042 97.8284 213.612ZM101.67 206.961C101.429 207.408 101.336 207.921 101.404 208.424C101.404 208.541 101.287 209.073 101.221 209.572L99.4247 209.422C99.4247 209.339 100.605 206.529 100.689 206.263H101.819L101.67 206.961ZM101.337 202.288C100.19 204.433 99.6742 208.424 98.6598 207.726C98.3054 207.359 98.1034 206.872 98.0944 206.362C98.041 205.403 98.1766 204.442 98.4935 203.535C98.7647 202.583 99.2418 201.702 99.8913 200.955C100.541 200.208 101.347 199.613 102.252 199.212C101.37 202.604 101.62 201.839 101.337 202.355V202.288ZM102.534 204.799C102.8 204.018 103.166 202.87 103.682 201.374C103.898 201.257 103.948 201.374 104.23 202.072C104.679 203.236 102.052 206.196 102.052 206.196C102.218 205.714 102.401 205.248 102.534 204.866V204.799ZM149.494 175.982C143.624 184.811 139.267 188.769 132.416 192.61C125.738 196.163 118.636 198.856 111.281 200.625C108.321 201.54 105.843 208.108 102.601 208.408C102.235 208.408 101.986 208.408 102.285 207.576C103.033 205.498 105.744 203.768 104.962 201.789C104.863 201.492 104.729 201.207 104.563 200.941C104.428 200.724 104.223 200.559 103.981 200.476C104.081 200.143 104.413 199.179 104.862 197.815C105.245 197.549 105.511 197.466 107.257 196.435C113.11 192.976 115.405 186.774 120.327 180.97C122.927 177.79 125.961 174.991 129.34 172.656C129.589 172.506 129.174 172.756 131.102 166.67C132.217 163.161 133.514 159.453 133.896 158.355C133.968 158.365 134.037 158.391 134.097 158.432C134.158 158.472 134.208 158.525 134.245 158.588C134.678 159.403 134.594 160.966 134.96 161.914C135.825 164.009 137.97 161.199 139.949 161.249C141.612 161.249 141.612 163.161 143.275 163.643C144.522 164.009 145.769 163.244 146.933 163.793C148.458 166.386 150.253 168.811 152.287 171.026C151.532 172.792 150.596 174.475 149.494 176.048V175.982ZM159.704 176.514C154.67 172.916 150.464 168.284 147.365 162.928C145.32 159.369 143.424 155.395 142.776 145.418C143.168 145.349 143.557 145.261 143.94 145.152L144.289 148.478C146.121 149.864 148.055 151.11 150.076 152.203C150.076 152.203 148.662 160.201 155.064 170.494C158.141 175.549 159.704 176.58 159.704 176.58V176.514ZM190.617 197.965C190.916 201.59 187.623 221.378 187.175 224.072C187.148 224.082 187.124 224.097 187.104 224.118C187.084 224.138 187.068 224.162 187.058 224.188C187.274 223.373 183.533 235.961 183.25 239.902C183.25 240.218 183.25 240.069 186.094 242.53C187.058 243.378 190.367 246.188 190.534 247.169C190.61 247.424 190.61 247.696 190.534 247.951C189.048 246.377 187.276 245.101 185.312 244.193C185.277 244.171 185.234 244.163 185.194 244.173C185.153 244.182 185.118 244.207 185.096 244.243C185.074 244.278 185.067 244.32 185.076 244.361C185.085 244.401 185.111 244.437 185.146 244.459L186.493 245.556C187.84 246.471 189.079 247.537 190.184 248.732C190.018 249.148 189.652 249.181 189.22 249.065C189.22 248.2 185.429 246.105 184.231 245.39C184.048 245.29 183.882 245.556 184.065 245.656C185.735 246.62 187.291 247.769 188.704 249.081C188.172 250.279 186.559 248.566 180.689 246.155C179.631 245.679 178.512 245.355 177.364 245.19C177.286 245.185 177.208 245.205 177.142 245.247C177.077 245.289 177.026 245.35 176.998 245.423C176.848 245.855 177.314 245.839 178.81 247.352C179.128 247.631 179.403 247.956 179.625 248.317C178.629 248.434 177.622 248.199 176.782 247.651C176.115 247.206 175.589 246.58 175.265 245.847C174.942 245.114 174.833 244.303 174.952 243.511C175.235 241.848 176.881 241 176.2 239.52C175.518 238.04 174.121 228.429 173.921 227.048C172.076 214.56 172.774 214.294 172.425 214.194C172.425 196.867 172.974 196.801 172.841 195.903C172.841 195.72 169.116 170.145 169.082 169.945C170.18 169.945 170.962 171.159 171.577 172.157C172.475 173.587 173.24 174.518 175.036 173.97C176.831 173.421 178.361 171.908 180.024 171.309C181.687 170.71 182.568 171.309 184.381 171.891C185.079 172.224 185.868 172.319 186.625 172.159C187.383 172 188.066 171.596 188.571 171.01C191.465 168.598 190.101 168 196.021 170.328C194.874 174.801 192.296 187.439 192.246 187.638C191.196 190.981 190.647 194.461 190.617 197.965ZM168.883 169.131C167.579 169.601 166.307 170.157 165.075 170.793C164.792 170.793 164.676 170.793 164.593 170.461C164.077 168.083 170.13 139.931 185.212 138.866C192.097 138.401 196.852 150.756 198.931 157.341C200.298 161.526 201.36 165.806 202.107 170.145C202.406 173.155 193.626 167.518 191.099 168.1C190.101 168.332 189.652 169.18 188.222 170.378C186.792 171.575 186.06 171.575 184.797 171.126C183.304 170.308 181.554 170.094 179.908 170.527C178.145 171.159 176.682 172.639 174.919 173.188C173.423 173.67 172.957 172.639 172.109 171.309C171.261 169.979 170.396 168.848 168.883 169.064V169.131ZM193.66 184.828C194.358 182.068 195.589 176.347 196.503 170.361C198.033 170.96 201.375 172.423 202.49 171.359C202.655 171.181 202.775 170.965 202.839 170.731C202.903 170.496 202.908 170.249 202.855 170.012C202.253 166.502 201.42 163.036 200.361 159.636C198.133 152.236 192.928 138.018 185.179 138.5C169.448 139.598 163.312 167.983 163.844 170.544C163.86 170.709 163.913 170.867 163.999 171.008C164.086 171.149 164.203 171.268 164.343 171.357C164.483 171.445 164.641 171.5 164.805 171.518C164.97 171.536 165.136 171.515 165.291 171.459C166.239 171.226 167.586 170.195 168.816 169.912C168.999 172.939 169.349 176.963 170.08 182.167C167.275 181.064 164.566 179.729 161.982 178.177C156.765 173.109 153.087 166.67 151.373 159.602C150.788 157.289 150.454 154.92 150.375 152.535C153.395 154.221 156.528 155.694 159.754 156.942C159.807 156.963 159.865 156.971 159.922 156.965C159.98 156.96 160.035 156.941 160.083 156.91C160.132 156.88 160.173 156.838 160.202 156.788C160.231 156.739 160.249 156.683 160.253 156.626C160.86 151.928 162.852 147.518 165.973 143.955C169.153 140.431 173.378 138.018 178.029 137.07C178.104 137.058 178.173 137.023 178.227 136.969C178.281 136.915 178.317 136.846 178.33 136.771C178.343 136.696 178.332 136.619 178.299 136.55C178.266 136.482 178.212 136.425 178.145 136.389C174.851 134.488 171.454 132.772 167.968 131.25C165.809 130.247 163.545 129.489 161.217 128.989C161.668 127.749 161.969 126.459 162.115 125.148C165.441 123.734 182.219 125.813 193.527 124.632C195.24 124.526 196.938 124.253 198.598 123.817C208.792 123.535 224.14 136.073 226.967 141.726C229.794 147.38 229.345 154.447 223.076 163.244C217.173 171.475 195.954 183.481 193.676 184.762L193.66 184.828ZM238.906 218.401C241.218 211.118 237.56 204.3 236.246 202.188L247.254 201.889C248.671 202.728 249.753 204.033 250.314 205.581C251.216 207.899 251.695 210.36 251.727 212.847C248.435 214.327 242.332 217.121 238.906 218.335V218.401ZM252.442 212.398C252.351 209.963 251.786 207.568 250.779 205.348C250.112 203.782 248.942 202.482 247.454 201.656C248.117 200.944 248.921 200.378 249.815 199.993C249.815 200.526 249.166 201.656 249.948 201.773C250.73 201.889 250.813 201.124 251.295 200.875C251.494 200.775 251.894 200.758 251.727 201.191C251.561 201.623 251.195 202.272 251.578 202.854C251.859 203.185 252.247 203.408 252.675 203.486C252.775 203.486 252.11 203.951 251.927 204.483C251.883 204.609 251.89 204.747 251.946 204.868C252.002 204.989 252.102 205.083 252.226 205.132C252.791 205.348 253.773 204.783 254.388 205.398C254.637 205.664 254.504 205.913 254.188 206.096C253.423 206.578 253.324 207.144 254.039 207.759C254.398 208.009 254.717 208.312 254.986 208.657C254.464 208.653 253.955 208.823 253.54 209.139C253.46 209.2 253.396 209.278 253.352 209.367C253.308 209.457 253.285 209.555 253.285 209.655C253.285 209.755 253.308 209.853 253.352 209.942C253.396 210.032 253.46 210.11 253.54 210.17C253.906 210.486 254.804 210.819 255.003 211.101C254.211 211.629 253.349 212.043 252.442 212.332V212.398ZM272.613 200.891C271.931 203.668 256.965 210.37 255.901 210.869C255.718 210.22 254.671 209.904 254.238 209.588C254.704 209.339 255.635 209.439 255.818 208.857C256.001 208.275 254.704 207.31 254.404 206.928C254.687 206.662 255.702 206.179 255.253 205.265C255.048 204.921 254.74 204.65 254.373 204.492C254.006 204.334 253.598 204.296 253.207 204.383H252.958C253.324 203.918 253.922 203.319 253.373 202.92C252.825 202.521 252.459 202.92 252.176 202.371C253.756 202.571 255.053 202.787 256.051 203.003C256.084 203.008 256.118 203.006 256.15 202.996C256.182 202.987 256.212 202.97 256.237 202.948C256.263 202.926 256.283 202.899 256.296 202.868C256.31 202.837 256.317 202.804 256.317 202.77C256.317 203.436 255.851 198.929 258.212 198.397C259.267 198.286 260.332 198.435 261.315 198.833C262.298 199.23 263.169 199.863 263.85 200.675C263.889 200.724 263.94 200.761 263.999 200.781C264.058 200.802 264.121 200.805 264.182 200.792C264.797 200.675 269.902 199.628 271.948 200.376C272.181 200.359 272.663 200.592 272.613 200.825V200.891Z"
    fill="#004737" />
</svg>