<svg width="290" height="266" viewBox="0 0 290 266" fill="none" xmlns="http://www.w3.org/2000/svg">
  <path
    d="M191.061 38.8773C193.609 40.266 196.402 38.1144 195.013 38.389C193.872 38.5474 192.71 38.367 191.671 37.8702C192.174 35.9497 192.461 33.9792 192.526 31.9952C192.038 27.1883 190.161 38.2975 191.061 38.8773ZM198.386 41.0442C196.86 42.5702 194.967 43.6842 196.539 43.5163C198.645 43.3027 200.064 41.2121 199.301 40.1134C198.691 40.5101 199.088 40.327 198.386 41.0442ZM196.616 30.576C196.158 31.1253 196.616 32.3614 196.722 32.9107C196.755 33.0609 196.844 33.1932 196.97 33.2811C197.096 33.3689 197.251 33.406 197.403 33.3848C197.555 33.3636 197.694 33.2857 197.791 33.1667C197.888 33.0477 197.937 32.8963 197.928 32.7429C197.76 31.3695 197.424 29.6299 196.616 30.576ZM188.101 33.3838C187.597 29.874 186.575 31.3848 186.666 31.9646C186.788 34.3146 188.268 34.5741 188.101 33.3838ZM195.7 28.1497C204.062 28.9584 195.425 25.3571 194.967 28.0276L195.7 28.1497ZM142.962 90.9287C141.222 91.5391 141.573 93.3855 143.725 92.5768C148.124 90.8102 152.745 89.6549 157.459 89.1433C157.459 101.534 156.833 106.341 157.55 106.677C158.329 106.372 158.969 89.7537 158.924 88.3651C158.786 85.8014 145.693 89.9521 142.962 90.9287ZM128.19 108.081C125.947 112.888 121.98 119.449 126.847 121.113C129.579 122.028 141.146 121.113 138.933 114.902C136.98 109.347 130.785 102.664 128.19 108.081ZM204.978 140.294C202.918 139.699 184.85 136.296 183.965 137.166C182.042 139.104 192.709 138.005 204.642 141.469C204.798 141.514 204.965 141.495 205.107 141.416C205.248 141.337 205.353 141.206 205.398 141.05C205.442 140.894 205.423 140.727 205.344 140.585C205.265 140.443 205.134 140.339 204.978 140.294ZM206.672 131.489C201.441 130.239 196.119 129.413 190.756 129.017C190.594 129.038 190.447 129.121 190.346 129.25C190.246 129.379 190.201 129.542 190.222 129.704C190.242 129.866 190.326 130.013 190.454 130.113C190.583 130.213 190.746 130.258 190.908 130.238C196.105 130.652 201.263 131.463 206.336 132.664C206.492 132.709 206.659 132.69 206.801 132.611C206.942 132.532 207.047 132.401 207.091 132.245C207.136 132.089 207.117 131.922 207.038 131.78C206.959 131.639 206.828 131.534 206.672 131.489ZM87.7823 44.0504C85.8443 44.2641 85.2491 43.7147 85.0813 44.142C84.6693 46.9651 92.055 43.9284 87.7823 44.0504ZM81.3731 32.5598C81.3731 28.7601 80.1523 29.8893 80.1523 32.5598C80.1523 32.7217 80.2167 32.8769 80.3311 32.9914C80.4456 33.1059 80.6008 33.1702 80.7627 33.1702C80.9246 33.1702 81.0799 33.1059 81.1944 32.9914C81.3088 32.8769 81.3731 32.7217 81.3731 32.5598ZM92.1924 31.1253C92.2054 31.2045 92.2339 31.2803 92.2762 31.3485C92.3185 31.4166 92.3739 31.4757 92.4391 31.5225C92.5042 31.5693 92.578 31.6027 92.6561 31.621C92.7342 31.6392 92.8152 31.6419 92.8943 31.6289C92.9735 31.6159 93.0493 31.5874 93.1174 31.5451C93.1856 31.5027 93.2447 31.4474 93.2915 31.3822C93.3383 31.3171 93.3717 31.2433 93.39 31.1652C93.4082 31.0871 93.4109 31.0061 93.3979 30.927C92.8333 27.2493 91.7498 28.348 92.1924 31.1253Z"
    fill="#004737" />
  <path
    d="M262.478 176.399C273.877 167.671 273.495 151.617 273.16 151.098C277.539 146.52 277.661 133.244 276.395 130.513C274.685 126.805 282.315 94.1181 269.863 85.0079C270.962 84.5196 273.053 83.2683 273.205 81.6355C273.48 78.4157 270.443 77.8968 268.124 76.5235C258.434 70.8315 257.823 58.2116 238.84 53.5421C238.138 52.245 237.986 52.0161 237.421 51.07C251.155 52.0161 249.385 44.493 247.019 42.6313C245.53 41.7703 243.935 41.1085 242.274 40.6628C248.057 38.2365 247.889 30.9575 240.442 31.629C239.557 31.7053 242.426 29.3552 240.091 26.3491C239.566 25.5382 238.825 24.89 237.952 24.4775C237.078 24.065 236.107 23.9046 235.147 24.0143C235.147 18.9022 232.69 16.8269 229.776 16.8269C234.064 10.5398 228.341 3.53557 220.315 7.42683C222.222 3.00148 217.141 -4.96417 205.497 4.26804C204.765 1.06347 194.632 -2.27843 193.534 2.40634C192.969 4.80214 188.956 -1.89694 181.631 3.59661C179.632 5.12259 178.579 7.64047 180.929 8.43398C173.65 8.96808 170.857 15.7435 176.504 17.2084C177.724 17.5289 174.184 18.3529 174.749 22.9003C175.176 26.3796 178.258 28.3786 180.776 26.4711C181.616 25.8455 181.371 25.7081 181.295 26.3643C181.274 26.6218 181.306 26.8808 181.387 27.126C181.469 27.3711 181.599 27.5972 181.77 27.7909C181.941 27.9846 182.149 28.1419 182.382 28.2534C182.615 28.3648 182.868 28.4282 183.126 28.4397C183.357 29.7763 183.709 31.089 184.179 32.3614C178.655 32.3614 175.374 37.1225 176.839 39.442C178.533 42.0972 181.509 40.3271 177.785 42.2498C170.568 45.9885 172.383 52.184 176.809 52.1382C181.234 52.0924 178.335 50.4596 179.021 54.885C179.449 57.7996 184.179 60.6532 188.177 56.9908C189.307 58.349 189.536 59.2188 190.909 59.9207C179.449 67.5507 183.447 71.2588 168.584 86.244C166.859 87.9989 166.356 87.3427 165.532 88.1515C164.708 88.9602 165.837 93.8129 170.11 93.4619C165.425 107.196 170.11 102.969 163.334 103.686C163.182 103.686 165.12 83.6498 164.86 80.8878C164.708 79.5296 164.433 79.5602 149.112 83.0547C149.616 72.8306 149.509 51.6957 148.624 51.482C148.471 51.482 137.438 51.482 137.438 51.1921C137.194 50.2155 137.911 46.019 137.713 45.2255C137.53 44.7067 136.92 44.7219 136.431 44.4015C130.51 40.4644 137.957 42.6161 138.522 42.0362C139.346 41.1206 138.522 31.8884 140.048 31.8884C141.574 32.6972 140.353 40.4186 140.933 41.1511C142.81 42.7992 141.528 34.0858 143.558 34.33C144.672 34.5436 143.405 40.8307 143.832 41.8683C145.221 43.8521 144.733 38.8164 146.381 37.1836C148.303 36.2527 146.289 50.9174 146.075 51.2226C146.854 51.833 150.272 33.4296 145.785 36.329C144.473 37.1836 145.785 35.9628 144.824 33.9332C144.29 32.8803 142.764 32.7124 141.909 34.2079C141.101 28.8669 138.43 30.164 138.018 33.9179C137.621 40.9985 137.789 39.9303 137.667 41.1969C133.623 39.6709 130.602 43.257 136.538 45.3171C137.469 45.6375 136.538 49.0252 136.828 50.9632C136.828 51.2837 136.996 51.1768 136.202 51.1005C132.937 50.7648 123.17 78.7056 120.164 82.719C124.33 88.8229 122.941 89.7232 122.56 88.7161C118.425 80.1706 101.196 62.2708 82.0451 55.8006C80.5191 55.3123 80.8853 55.8006 80.5191 53.8168C79.4051 52.184 95.6874 60.5616 94.253 35.9933C101.135 36.2222 100.128 25.4487 94.3751 25.1435C98.1748 20.4893 96.9845 16.659 93.1543 12.5847C91.4604 0.376778 78.337 0.102103 66.6632 4.55798C63.9011 5.61091 63.4128 7.25897 61.9936 9.70055C60.6203 9.91419 59.9946 8.9223 57.3394 10.4483C49.2669 15.1025 51.2355 28.2565 57.9193 33.567C56.7137 37.0615 57.7667 40.9375 62.3141 40.617C62.3141 55.236 63.6417 51.8483 56.6832 53.0538C7.08869 61.6451 -6.76726 121.769 14.7339 141.729C15.9241 142.843 10.7053 150.305 20.0138 155.6C20.312 162.379 21.9292 169.034 24.7749 175.194C26.896 179.772 26.9723 178.78 26.7586 179.451C17.6943 208.292 0.420136 259.779 0.145459 261C-0.846432 265.41 3.48737 266.692 5.48641 263.304C6.37148 261.778 30.8025 195.703 33.946 187.096C35.3689 188.228 36.8512 189.282 38.3867 190.255C37.7305 201.99 33.9766 252.821 34.648 255.75C34.7734 256.463 35.1332 257.114 35.6703 257.599C36.2075 258.085 36.8912 258.377 37.6131 258.429C38.3351 258.482 39.0539 258.292 39.6557 257.889C40.2574 257.487 40.7077 256.895 40.935 256.208C41.1639 255.445 46.0471 221.858 49.0075 195.581C66.5563 202.738 86.4399 203.608 90.026 203.653C93.078 264.555 92.6202 260.893 99.0598 259.031C100.189 258.696 100.22 259.031 100.403 251.813C103.455 254.438 116.883 264.983 120.958 265.776C122.179 266.005 123.308 263.564 121.705 260.74C112.397 244.367 111.375 251.92 119.935 241.101C120.897 243.436 124.62 252.927 126.039 253.156C129.625 253.553 128.252 261.351 130.449 261.427C134.356 261.58 154.606 260.176 156.193 257.933C156.864 257.002 155.414 255.003 153.553 254.163C133.349 246.793 141.574 260.527 140.033 217.265C140.033 216.166 148.746 206.08 152.897 193.261C155.201 186.135 152.897 183.053 154.041 179.527C156.559 171.211 152.103 172.95 161.274 172.477C163.228 176.262 164.677 174.003 165.745 178.581C166.828 183.482 169.091 188.045 172.338 191.873C172.932 184.886 174.473 178.012 176.916 171.44C178.442 171.302 176.717 169.822 173.238 192.804C173.375 192.956 172.795 234.677 174.611 235.531C176.039 235.989 177.523 236.245 179.021 236.294C178.655 236.584 178.899 246.64 178.732 246.64C178.732 247.022 166.371 251.035 164.998 257.246C164.815 258.604 164.784 259.169 166.203 259.169C170.918 258.909 186.773 254.957 187.811 254.957C187.811 256.651 187.552 256.788 189.154 256.773C190.512 256.773 192.206 256.773 192.649 256.147C193.061 255.125 192.114 238.751 192.359 236.843C192.359 236.691 192.099 236.843 195.823 236.843C195.975 258.619 196.143 256.559 197.669 257.002C204.185 258.116 202.995 259.55 205.299 221.37C211.189 226.711 208.565 226.772 215.981 222.011C216.988 223.277 222.085 229.305 222.085 229.351C219.643 234.112 215.401 243.268 219.124 247.251C220.177 248.151 221.413 246.503 231.897 232.662C236.017 227.199 233.865 232.388 236.322 230.282C240.763 226.482 239.374 228.756 227.166 214.564C234.323 209.391 233.545 210.856 227.884 205.515C197.028 176.323 208.168 196.527 247.248 183.602C248.194 193.429 255.367 254.362 256.816 255.415C257.808 256.132 261.089 255.72 262.111 255.262C263.866 254.469 261.684 232.617 258.48 193.032C271.374 228.252 284.253 261.946 284.253 262.099C285.963 265.715 290.22 264.998 289.991 261.412C289.945 261.473 266.857 190.53 262.478 176.399ZM235.468 229.473C234.75 228.725 234.583 228.161 233.942 228.374C232.736 228.985 221.307 245.16 219.658 246.198C216.271 241.193 223.275 229.839 222.924 229.137C222.71 228.847 227.227 227.611 232.324 221.767C238.153 228.512 238.062 227.337 235.452 229.473H235.468ZM231.698 220.958C229.185 224.122 226.074 226.762 222.543 228.725C217.965 223.659 217.339 222.911 216.439 221.813C228.997 213.862 225.06 213.175 231.683 220.958H231.698ZM272.717 152.029C272.458 163.764 268.047 171.257 262.218 175.575C256.74 157.92 258.205 163.276 258.983 157.492C274.243 153.387 272.732 150.335 272.702 152.029H272.717ZM275.052 128.468C271.862 124.912 266.949 123.89 262.386 122.837C266.186 120.899 270.657 118.488 271.786 115.467C273.312 110.461 270.977 98.4213 270.031 95.4915C266.109 83.2073 263.546 87.1138 268.505 85.542C278.546 92.3174 276.089 113.117 275.036 128.468H275.052ZM215.37 128.712C206.489 129.735 211.296 131.856 209.267 133.046C207.832 133.87 207.344 135.594 209.663 136.098C211.372 136.479 211.189 136.098 210.396 136.602C208.687 137.624 208.244 140.096 214.638 139.455C213.905 140.859 210.228 147.924 209.221 149.176C208.854 149.633 183.844 148.077 167.332 146.124C167.47 145.971 183.523 125.752 187.414 122.288C187.781 122.12 214.882 125.34 215.035 125.34C214.733 126.466 214.847 127.663 215.355 128.712H215.37ZM210.686 138.311C209.541 136.785 217.232 137.136 215.493 135.472C215.34 135.381 200.66 134.663 216.103 132.954C216.244 132.922 216.368 132.841 216.453 132.724C216.537 132.607 216.577 132.464 216.564 132.32C216.551 132.176 216.486 132.042 216.382 131.943C216.277 131.844 216.14 131.785 215.996 131.779C213.249 131.856 211.54 132.359 210.991 131.779C210.091 130.025 215.264 130.04 216.133 129.719C217.659 129.307 214.897 126.667 216.362 125.141C217.125 124.455 219.338 128.834 219.658 129.124C224.099 132.069 241.663 105.029 252.391 104.022C255.046 103.762 247.813 103.442 244.852 106.295C238.749 89.0213 238.901 89.6317 238.947 88.9602C239.145 86.305 242.136 85.1758 244.715 85.6031C247.294 86.0303 247.843 87.7089 250.621 87.7242C252.041 87.7315 253.449 87.453 254.76 86.9051C256.071 86.3571 257.258 85.5511 258.251 84.5349C260.214 85.3533 262.306 85.8232 264.431 85.9235C267.88 93.3093 269.085 94.0265 270.397 102.435C271.084 106.814 272.488 114.231 269.406 117.084C262.92 123.097 219.46 141.317 210.67 138.311H210.686ZM218.819 125.752C221.871 126.149 221.413 125.752 220.818 127.079C220.009 128.773 220.574 128.239 218.804 125.752H218.819ZM186.178 45.5612C178.197 43.0891 186.545 33.7196 186.178 36.6952C186.178 36.8478 185.736 36.9852 185.614 37.0615C184.088 37.9313 182.165 44.6914 188.94 44.9661C192.603 45.1339 188.544 46.3089 186.178 45.5612ZM186.545 36.4053C184.256 30.3014 184.164 31.2627 183.66 28.4702C186.712 28.1192 190.009 28.3634 188.025 27.2189C186.941 26.5932 185.873 27.3257 186.361 26.9137C190.939 22.5646 189.307 18.2003 190.222 20.5656C190.663 21.6114 191.36 22.5289 192.25 23.2327C193.141 23.9365 194.194 24.4038 195.314 24.5911C196.433 24.7784 197.581 24.6796 198.652 24.304C199.723 23.9283 200.681 23.288 201.438 22.4425C202.72 25.8455 204.154 27.6156 208.198 28.0124C210.899 28.2718 210.472 27.9361 211.494 26.9137C215.416 22.9919 219.124 30.7286 214.363 33.0176C212.624 33.628 215.111 41.4716 219.765 39.4725C223.245 37.9465 222.298 30.7286 218.422 30.4387C216.988 30.3319 217.72 29.9656 217.949 29.9351C222.985 29.2179 225.121 37.916 220.666 40.3881C216.576 42.6618 211.678 37.916 213.509 33.1702C210.228 33.6127 210.243 37.9008 211.983 40.7238C212.196 41.0596 205.131 41.3342 205.787 46.4921C206.23 48.72 208.839 49.2236 211.082 49.1778C206.306 60.3175 212.395 61.874 217.675 56.5788C218.11 57.9853 218.737 59.3254 219.536 60.5617C222.024 63.7204 195.319 71.6098 196.097 59.3103C197.602 58.463 199.032 57.4879 200.37 56.3957C200.57 54.8733 200.534 53.3292 200.263 51.8177C199.576 47.8349 192.938 53.4658 186.484 36.3748L186.545 36.4053ZM205.452 88.8534C202.4 86.5034 197.822 68.8935 196.937 64.6665C208.58 71.5335 219.079 62.5149 218.483 63.812C216.698 67.5659 207.252 86.1829 205.39 88.8229L205.452 88.8534ZM206.627 99.2454C201.057 99.871 199.622 92.3784 203.895 90.5473C212.227 87.4648 214.668 98.3145 206.627 99.2454ZM193.259 60.6837C193.259 60.6837 194.632 59.9818 195.563 59.4629C195.411 62.9269 197.043 63.5526 193.259 60.6532V60.6837ZM166.646 91.0203C164.57 87.8768 167.287 89.7538 174.077 82.1391C179.372 76.2183 184.912 63.5068 191.641 60.7753C192.023 61.111 194.068 62.7133 196.021 64.0714C197.165 71.4725 201.057 85.4352 203.926 89.0365C204.063 89.2044 197.135 91.4323 201.865 98.6808C210.167 105.334 216.973 91.0508 207.664 89.1434C205.482 88.7161 206.688 91.6765 217.156 68.3594C220.208 61.4925 218.606 63.7815 221.169 61.8587C223.382 63.0643 229.532 63.4763 229.532 56.884C234.72 61.172 241.236 59.5392 239.527 54.9613C255.092 59.1883 256.969 68.451 264.095 74.9822C268.673 79.2244 272.366 78.7667 272 81.4829C272 82.8105 267.574 86.2287 260.707 84.306C258.357 83.6498 258.098 83.1615 257.655 83.7108C256.634 84.8168 255.363 85.6625 253.948 86.1775C252.533 86.6925 251.016 86.8618 249.522 86.6713C248.225 86.3355 247.492 85.5573 245.661 84.9011C243.174 84.1839 239.557 84.9011 238.443 87.4953C234.842 72.9984 235.834 71.0757 235.01 70.2517C231.805 73.5173 242.472 102.633 243.922 107.058C241.327 108.584 234.613 115.253 232.492 117.374C231.958 117.908 220.864 115.375 184.011 115.192C187.185 108.859 192.481 104.83 192.755 104.068C192.847 103.564 186.545 97.2311 187.704 90.2421C189.459 79.5602 194.037 73.6699 192.099 75.4248C188.437 81.1319 185.583 87.5258 187.002 94.2707C186.349 94.7406 185.593 95.048 184.796 95.1674C184 95.2869 183.187 95.2149 182.424 94.9574C179.372 93.8129 178.64 89.1739 170.522 92.5158C169.801 92.714 169.035 92.6758 168.337 92.4066C167.64 92.1374 167.047 91.6515 166.646 91.0203ZM171.056 93.3703C173.833 92.8973 175.969 91.8444 177.816 92.9888C179.342 93.935 182.241 98.2993 187.124 95.5525C188.467 97.521 187.994 100.497 191.382 103.915C177.114 118.015 185.782 122.044 161.564 121.693C161.93 117.954 162.77 109.012 163.182 104.205C170.659 103.32 165.822 108.31 171.056 93.3703ZM163.578 81.2998C163.578 88.2888 160.389 122.242 159.611 129.185C152.393 131.596 104.996 144.918 88.5611 147.497C88.8968 137.624 91.7961 108.508 94.4514 98.986C102.631 94.9574 155.659 82.4595 163.578 81.2998ZM55.2335 132.13C59.8115 129.078 82.7928 124.058 89.8276 122.44C89.8276 122.807 89.5682 124.668 89.5224 125.035C52.7004 132.558 60.0709 134.221 55.2793 132.13H55.2335ZM96.4351 63.5984C87.737 83.8177 87.2792 77.8511 95.077 80.2774C95.8858 80.5368 83.8763 105.914 83.8305 106.753C81.9841 143.224 82.7013 98.9402 86.3026 62.4996C86.8062 57.4792 84.7919 56.5178 96.4504 63.5984H96.4351ZM86.5467 116.428C86.5467 116.59 86.4824 116.745 86.368 116.86C86.2535 116.974 86.0982 117.038 85.9364 117.038C85.7745 117.038 85.6192 116.974 85.5047 116.86C85.3903 116.745 85.326 116.59 85.326 116.428C85.3107 112.979 86.5467 111.179 86.5467 116.428ZM80.8853 55.9684C87.8591 58.3642 86.211 56.2889 85.1276 67.4591C85.1276 67.1386 83.7084 66.2994 80.4428 62.9727C81.9078 61.6451 81.2668 57.9064 80.8853 55.9684ZM81.0685 71.4724C82.1061 71.213 82.2587 68.4205 82.3503 66.4977C85.799 69.7023 85.0665 67.3218 84.3036 76.3098C82.2587 70.9536 82.274 71.2741 81.9993 71.152C81.6178 71.915 79.5883 72.8611 78.5353 72.0218C78.4285 73.1052 79.0084 85.6031 79.0999 89.1281C54.1501 45.3476 70.5392 78.0647 75.346 69.214C79.7866 71.9913 78.2149 72.1897 81.099 71.4724H81.0685ZM94.4208 25.9981C98.9988 25.9065 99.7007 34.6046 94.6192 34.803C89.5377 35.0014 89.4156 26.0896 94.4208 25.9981ZM90.0413 20.062C90.4075 21.2675 91.0789 23.7244 91.5672 25.9676C89.1409 27.9971 90.6516 29.6299 88.851 29.9046C88.5153 29.05 88.5153 28.5617 88.0575 29.05C88.0575 30.3166 88.4695 29.9656 86.7604 30.2861C83.8763 30.8049 86.0279 30.4997 84.273 28.4854C83.6516 27.7044 82.8276 27.109 81.8909 26.7644C80.9542 26.4198 79.9408 26.3392 78.9613 26.5313C77.9819 26.7234 77.0741 27.1809 76.337 27.8538C75.5998 28.5267 75.0617 29.3892 74.7814 30.3471C73.4538 30.3471 69.3489 30.1945 68.6775 30.0877C67.7619 27.3867 66.1138 17.7578 66.0985 17.6357C77.5282 24.7162 87.1266 22.5341 90.0413 20.062ZM84.5477 33.7959C83.6016 36.6342 77.5434 37.6566 76.0175 33.1092C73.5911 25.9981 87.4623 24.9146 84.5172 33.7959H84.5477ZM59.8115 39.4573C57.8277 38.4349 57.3241 32.2851 60.8034 31.8273C63.0618 31.5527 64.2674 34.0553 65.1677 34.4673C67.4872 35.505 68.9216 34.0553 68.9216 31.4916H74.5983C74.2778 39.4267 86.8062 39.1215 85.4786 31.629C89.2935 31.4611 87.5692 29.0195 89.4309 37.2751C88.2101 37.8702 86.1347 38.1449 86.0432 38.4806C86.4705 39.1521 90.6211 38.7706 90.6211 37.153C90.1481 34.391 89.7971 32.7277 89.5529 31.8121C89.8272 32.6659 90.2752 33.4537 90.8687 34.126C91.4622 34.7983 92.1885 35.3405 93.0017 35.7186C93.0932 36.8936 93.1085 37.7787 93.139 39.3352C93.6121 57.9827 79.4051 50.9022 79.222 53.0691C79.222 53.8321 81.0379 60.699 79.7561 61.9045C75.9717 60.9889 63.7638 53.2217 63.3823 52.2145C63.367 34.6809 63.3365 41.2579 59.8115 39.4573ZM77.2382 62.3471C76.1182 65.1109 74.7867 67.7842 73.2554 70.3432C63.1076 63.5526 61.9479 59.5698 58.4686 53.4658C66.6632 52.0619 58.4534 53.6032 77.2382 62.3623V62.3471ZM57.4004 53.9236C85.9058 102.755 82.9912 94.2249 82.4418 102.145C78.6879 99.8253 58.4686 87.0985 55.9813 85.0842C56.5764 83.3141 62.5583 77.8511 62.894 76.8439C63.2297 75.8368 44.75 57.4639 44.8111 57.4486C48.882 55.9476 53.0663 54.7739 57.3241 53.9389L57.4004 53.9236ZM35.3805 122.593C37.8678 123.188 37.2879 123.6 37.822 122.73C44.4296 112.048 47.4357 92.0275 47.7257 91.7833C48.6108 92.8668 46.3523 110.95 38.7834 122.303C37.349 124.455 37.3337 122.303 41.4997 127.201C53.4176 124.287 74.0337 122.135 90.1328 120.441C90.1328 120.838 90.0107 121.479 89.965 121.967C79.512 124.058 47.1 129.292 53.8144 135.823C55.9202 137.609 86.9282 149.557 88.439 148.031C104.172 146.017 156.498 131.84 160.343 130.238C160.755 129.963 160.71 130.604 161.473 122.776C170.506 123.081 173.68 124.302 179.342 120.167C180.985 118.979 182.463 117.578 183.737 116.001C198.768 116.184 216.591 116.779 231.576 118.473C216.53 133.87 225.167 125.584 221.2 125.05C214.531 124.134 187.155 121.616 187.323 121.876C186.896 121.281 167.119 144.048 165.959 146.154C164.799 148.26 208.961 151.19 209.907 150.198C210.854 149.206 215.203 140.859 216.011 139.379C223.763 138.372 234.323 136.907 260.952 123.646C283.994 129.414 276.715 140.142 265.53 144.338C261.623 145.864 224.13 156.699 173.604 160.468C81.2211 167.35 25.7515 148.26 28.7424 148.26C29.4902 148.26 29.8259 147.283 31.123 144.872C37.6542 150.625 54.2264 155.692 50.1215 150.381C50.9714 150.507 51.8352 150.507 52.6851 150.381C54.3027 150.015 54.4095 148.474 53.1124 147.329C52.4562 146.765 52.3647 146.948 52.9445 146.902C55.4777 146.719 55.6303 144.75 53.6618 143.636C51.0065 142.11 46.337 142.278 44.9942 139.837C44.0175 138.066 47.4968 136.281 46.2913 134.343C45.452 133 44.1091 133.55 42.7968 134.435C40.1415 136.281 41.1029 136.434 39.1954 134.679C42.6747 132.252 43.7734 133.443 43.2088 131.718C42.5559 129.812 41.4603 128.088 40.012 126.688C38.5636 125.287 36.8038 124.25 34.8769 123.661C22.1959 121.067 17.7096 129.765 17.3128 129.765C16.4582 127.461 24.1797 119.968 35.3042 122.562L35.3805 122.593ZM44.7195 141.149C46.5354 143.423 54.0127 143.85 53.8754 145.498C53.2345 147.238 44.7958 142.995 45.1773 145.239C45.4214 145.91 45.9098 145.559 48.9007 146.597C54.7757 148.657 54.4553 150.793 45.6046 147.802C43.9718 147.253 43.7429 147.802 44.0023 148.397C44.2617 148.993 49.74 150.168 49.4348 151.449C49.1143 152.441 36.2961 148.703 31.4282 144.384C33.2079 140.779 35.7301 137.591 38.8292 135.03C40.0652 136.235 40.5841 136.785 40.8893 136.678C41.1945 136.571 45.5893 132.725 45.7572 135.152C45.7877 136.8 42.2627 138.158 44.6432 141.118L44.7195 141.149ZM20.67 155.951C34.1139 163.383 34.5869 154.745 27.2164 178.246C23.2949 171.424 21.0267 163.777 20.5937 155.92L20.67 155.951ZM4.32666 262.877C3.7773 263.945 1.27469 264.754 1.9156 261.351C4.70815 246.915 23.9356 195.733 32.8321 160.849C36.1892 161.902 38.4477 162.528 41.8201 163.398C39.3022 170.402 4.95231 261.915 4.32666 262.877ZM40.3094 252.882C39.6227 257.46 36.0977 257.719 35.7314 252.79C35.3042 246.244 37.4711 229.107 38.936 190.637C41.936 192.451 45.068 194.037 48.3056 195.382C47.7104 200.037 42.3237 239.499 40.3094 252.882ZM98.8767 257.826C93.6273 259.84 94.6955 261.793 90.8653 203.653C91.5825 203.653 95.9468 203.73 99.8228 203.394C99.3803 231.304 99.4718 253.98 98.8767 257.826ZM34.2512 186.303C40.9503 167.991 33.7782 178.841 52.7004 188.012C69.4862 196.145 84.624 197.168 103.317 196.908C104.202 199.411 104.843 201.288 104.981 201.486C87.0656 204.783 51.2812 199.96 34.2512 186.303ZM100.479 248.639C101.379 195.856 98.2205 203.913 105.393 202.677C108.246 210.566 109.65 214.305 110.642 216.975C100.784 243.665 101.12 242.337 102.097 242.917C103.485 243.833 103.165 242.551 100.479 248.639ZM119.371 239.941C117.459 242.453 115.421 244.867 113.267 247.174C109.72 245.742 106.287 244.043 102.997 242.093C102.86 242.001 109.528 222.148 110.932 217.677C118.516 238.11 119.539 239.728 119.371 239.941ZM138.323 249.25C137.56 249.479 129.351 251.447 126.283 251.951C88.2864 173.652 122.88 202.127 76.7347 194.635C66.0528 192.88 51.4186 188.409 43.0867 180.519C36.6775 174.415 37.8678 176.704 42.4153 163.581C44.8568 164.069 78.3064 173.179 132.265 173.179C140.063 193.185 139.437 242.688 138.323 249.25ZM139.849 214.946C139.102 203.73 138.43 186.761 133.456 173.164C150.928 173.256 148.853 172.554 149.57 173.454C158.863 185.097 148.288 203.012 139.865 214.946H139.849ZM152.897 178.826C150.745 171.486 147.037 173.256 153.873 172.889C153.703 174.89 153.381 176.874 152.912 178.826H152.897ZM164.937 174.736C161.122 171.974 163.151 172.493 164.784 172.401C164.906 174.843 165.12 174.858 164.952 174.736H164.937ZM191.428 255.613C188.269 255.613 188.879 256.346 188.803 254.56C188.696 252.348 171.453 258.116 165.913 258.116C166.432 253.538 175.069 249.448 179.281 247.602C179.281 247.602 180.242 247.602 183.493 247.953C194.022 249.067 191.443 244.397 191.443 255.613H191.428ZM179.22 236.462C186.392 237.072 191.718 236.782 191.702 236.935C191.443 238.843 191.702 246.778 191.397 246.839C187.466 247.583 183.427 247.546 179.51 246.732C179.281 235.897 179.403 237.103 179.22 236.462ZM19.2813 153.723C16.8397 152.197 14.8407 150.839 16.0004 143.194C36.174 160.285 154.865 176.353 262.401 146.414C274.609 143.011 276.41 136.754 276.395 137.258C275.998 151.159 271.939 153.296 259.7 156.577C157.673 183.877 43.6208 169.624 19.2813 153.723ZM197.379 255.781C196.982 253.233 196.86 239.88 196.83 236.889C200.034 236.798 199.073 239.453 200.767 217.662C200.874 217.753 202.293 192.239 203.224 185.311C203.346 184.35 203.742 184.121 203.712 185.311C203.712 186.074 203.712 187.081 203.636 188.363C202.369 223.812 200.584 217.357 204.093 220.409C201.438 257.673 202.659 257.795 197.379 255.781ZM208.732 187.646C208.366 187.646 208.992 188.119 203.941 183.51C207.222 183.068 235.987 182.9 250.59 171.531C251.826 174.995 251.536 174.187 253.749 180.275C240.732 185.754 222.451 188.287 208.732 187.646ZM257.457 254.484C257.228 254.209 249.202 196.634 247.706 183.526C255.855 180.931 253.169 178.703 257.381 190.24C261.364 251.371 264.004 257.765 257.457 254.484ZM285.642 262.236C285.261 261.564 249.751 167.625 247.34 160.453C250.392 159.72 254.283 158.744 256.603 158.133C265.118 193.231 286.191 248.578 288.114 261.381C288.587 264.494 286.771 264.326 285.642 262.236Z"
    fill="#004737" />
</svg>