<svg width="381" height="271" viewBox="0 0 381 271" fill="none" xmlns="http://www.w3.org/2000/svg">
  <path
    d="M156.854 62.448C153.614 62.028 124.854 62.028 119.694 62.448C119.606 62.4673 119.528 62.5192 119.476 62.5933C119.424 62.6674 119.402 62.7584 119.414 62.848C119.432 62.915 119.468 62.976 119.517 63.0251C119.566 63.0742 119.627 63.1097 119.694 63.128C124.334 63.528 153.554 63.708 156.754 63.288C157.214 63.248 157.354 62.508 156.854 62.448ZM291.954 112.488C291.554 112.488 286.414 114.308 287.774 115.048L289.214 116.248C288.894 116.968 292.034 120.248 289.874 127.968C288.974 127.348 288.954 127.968 289.074 128.168C292.414 131.608 316.274 150.708 321.594 154.168C322.074 154.868 325.114 153.368 325.594 153.208C336.161 148.703 346.476 143.629 356.494 138.008C360.154 136.008 360.114 128.828 355.674 126.008C351.004 122.902 346.141 120.097 341.114 117.608L347.314 112.748C347.754 112.408 347.514 111.148 345.834 112.508C342.216 106.663 340.752 99.7377 341.694 92.928C341.934 92.788 344.614 91.188 343.434 90.668C337.434 88.168 317.554 80.868 311.434 80.488C309.434 80.348 293.434 93.148 291.934 95.728C288.734 101.068 289.714 107.168 292.054 112.548L291.954 112.488ZM290.354 128.268C292.354 126.088 291.734 120.108 290.774 117.468C293.514 119.668 315.534 136.268 322.534 140.708C326.314 148.708 322.094 152.588 322.234 153.188C310.514 145.048 300.974 135.748 290.354 128.268ZM355.534 127.368C358.874 129.088 358.114 136.248 355.714 137.088C344.834 142.908 334.074 148.148 322.834 153.088C324.31 151.096 325.116 148.687 325.134 146.208L340.534 139.888C340.814 139.748 340.534 139.368 340.314 139.428C335.143 141.157 330.081 143.194 325.154 145.528C325.115 143.584 324.511 141.694 323.414 140.088C328.114 138.228 352.134 125.768 355.534 127.368ZM322.194 107.048C328.078 102.176 334.235 97.6417 340.634 93.468C340.167 95.8999 340.079 98.3894 340.374 100.848C339.394 101.168 327.274 110.048 326.654 110.528C326.394 110.728 326.654 111.148 326.974 110.988L340.514 101.788C340.934 104.608 342.634 111.028 345.254 112.768C342.594 114.928 329.434 125.348 326.234 125.348C323.835 123.034 322.175 120.061 321.463 116.804C320.751 113.547 321.019 110.152 322.234 107.048H322.194ZM319.574 89.788C320.974 90.988 315.174 94.368 314.954 94.428C314.294 94.628 313.854 93.948 315.274 92.588C315.994 91.968 318.634 89.048 319.574 89.808V89.788ZM308.674 93.128C309.674 91.128 313.834 87.808 315.594 86.608C315.681 86.5476 315.778 86.5049 315.882 86.4822C315.985 86.4596 316.091 86.4575 316.195 86.4761C316.299 86.4946 316.399 86.5335 316.488 86.5905C316.577 86.6474 316.654 86.7214 316.714 86.808C316.774 86.8947 316.817 86.9924 316.84 87.0956C316.863 87.1988 316.865 87.3055 316.846 87.4095C316.827 87.5135 316.789 87.6128 316.732 87.7018C316.675 87.7907 316.601 87.8676 316.514 87.928C314.954 89.128 310.714 93.108 309.534 93.928C309.445 93.9771 309.346 94.0028 309.244 94.0028C309.143 94.0028 309.043 93.9771 308.954 93.928C308.884 93.8958 308.821 93.85 308.769 93.7931C308.717 93.7362 308.676 93.6695 308.65 93.5969C308.624 93.5242 308.613 93.4471 308.617 93.37C308.621 93.293 308.64 93.2175 308.674 93.148V93.128ZM293.994 96.588C302.574 98.9162 311.003 101.768 319.234 105.128C319.754 105.388 319.574 106.268 318.954 106.148C310.38 103.759 301.958 100.854 293.734 97.448C293.643 97.3968 293.571 97.3159 293.532 97.2187C293.493 97.1215 293.488 97.0139 293.519 96.9136C293.549 96.8132 293.613 96.7263 293.699 96.6671C293.785 96.6079 293.89 96.58 293.994 96.588ZM292.514 113.448C302.054 118.828 319.814 125.668 326.514 126.668C327.854 126.868 338.734 119.228 340.514 117.928C341.674 119.068 351.334 124.528 353.794 126.048C350.234 126.228 324.394 138.268 322.534 139.448C311.434 131.148 299.914 122.728 288.534 114.828L292.534 113.448H292.514ZM156.854 62.448H156.874H156.854ZM189.334 24.328C189.212 24.278 189.076 24.278 188.954 24.328C187.774 25.048 180.954 34.328 179.574 36.068C178.254 34.268 176.914 32.488 175.574 30.748C175.314 30.428 174.774 30.748 174.974 31.168C176.314 33.308 177.754 35.368 179.214 37.428C179.454 37.748 179.914 37.588 180.114 37.328C181.374 35.728 189.394 26.048 189.734 24.948C189.749 24.881 189.75 24.8118 189.738 24.7443C189.726 24.6768 189.7 24.6124 189.663 24.5548C189.626 24.4972 189.578 24.4475 189.521 24.4086C189.465 24.3696 189.401 24.3423 189.334 24.328ZM151.194 66.328C139.194 66.568 125.894 66.328 120.734 66.768C120.628 66.768 120.526 66.8102 120.451 66.8852C120.376 66.9602 120.334 67.0619 120.334 67.168C120.334 67.2741 120.376 67.3759 120.451 67.4509C120.526 67.5259 120.628 67.568 120.734 67.568C126.934 67.568 146.234 68.208 151.194 67.148C151.614 67.048 151.534 66.448 151.194 66.328ZM151.634 46.228C152.034 46.228 152.154 45.548 151.634 45.488C147.634 44.888 123.634 46.068 117.814 46.968C117.708 46.968 117.606 47.0102 117.531 47.0852C117.456 47.1602 117.414 47.2619 117.414 47.368C117.414 47.4741 117.456 47.5759 117.531 47.6509C117.606 47.7259 117.708 47.768 117.814 47.768C125.654 47.768 143.474 46.548 151.534 46.268L151.634 46.228ZM143.674 50.228C144.014 50.228 144.194 49.548 143.674 49.428C141.674 48.928 121.674 49.428 118.654 49.768C118.606 49.7753 118.561 49.792 118.52 49.8172C118.479 49.8424 118.443 49.8755 118.415 49.9147C118.387 49.9538 118.368 49.9982 118.357 50.0452C118.347 50.0921 118.345 50.1407 118.354 50.188C118.365 50.2658 118.4 50.3384 118.453 50.3957C118.507 50.453 118.577 50.4922 118.654 50.508C122.514 50.728 141.314 50.868 143.674 50.228ZM186.314 61.228C187.414 59.628 175.354 60.208 174.834 60.748C174.314 61.288 174.834 69.508 174.834 70.268C174.834 71.448 186.014 71.428 186.454 71.088C186.953 67.8337 186.953 64.5224 186.454 61.268L186.314 61.228ZM185.454 70.188C184.394 70.188 176.534 70.328 175.894 69.828C175.894 67.008 175.714 64.208 175.614 61.408H185.614C185.254 64.3211 185.2 67.2638 185.454 70.188Z"
    fill="white" />
  <path
    d="M327.314 116.808C330.114 115.148 332.974 113.528 335.674 111.728C336.054 111.468 335.674 110.788 335.234 111.028L327.014 116.348C326.968 116.393 326.939 116.453 326.932 116.518C326.925 116.582 326.94 116.647 326.975 116.701C327.011 116.755 327.064 116.796 327.126 116.815C327.187 116.835 327.254 116.832 327.314 116.808ZM307.154 138.768C306.914 138.608 306.594 138.988 306.834 139.188C308.834 140.928 318.674 147.808 320.834 149.328C321.114 149.528 321.354 149.068 321.094 148.868C316.894 145.668 311.614 141.448 307.154 138.768ZM177.594 54.2681C178.634 54.2681 186.774 55.2081 186.694 53.8681C186.614 52.5281 186.494 44.8281 185.974 44.5881C185.834 43.2481 175.694 44.2281 174.754 44.4081C174.174 44.4081 174.414 52.2081 174.454 53.1481C174.514 54.5081 176.694 54.2281 177.594 54.2681ZM185.454 45.0481V53.4681C182.085 53.1214 178.694 53.0545 175.314 53.2681C175.447 50.5276 175.393 47.7813 175.154 45.0481C176.814 45.0481 184.394 45.3081 185.454 45.0481ZM320.394 145.488C320.444 145.53 320.508 145.554 320.574 145.554C320.64 145.554 320.704 145.53 320.754 145.488C320.793 145.444 320.815 145.387 320.815 145.328C320.815 145.269 320.793 145.212 320.754 145.168C311.594 138.668 302.494 130.848 293.494 124.748C293.234 124.548 292.834 124.928 293.094 125.188C298.134 129.988 313.874 141.188 320.474 145.588L320.394 145.488ZM346.014 134.008H346.054H346.014ZM186.654 31.4281C186.626 31.3387 186.565 31.2637 186.483 31.2189C186.401 31.1741 186.304 31.1631 186.214 31.1881C186.154 31.2023 186.098 31.2319 186.053 31.2739C186.007 31.316 185.973 31.3691 185.954 31.4281V38.4281H174.874C174.68 35.2049 174.319 31.994 173.794 28.8081C176.922 28.9534 180.057 28.8732 183.174 28.5681C183.244 28.5455 183.305 28.4993 183.345 28.4373C183.385 28.3753 183.402 28.3014 183.394 28.2281C183.383 28.1855 183.362 28.1458 183.335 28.1114C183.307 28.0769 183.273 28.0486 183.234 28.0281C182.494 27.7881 173.234 26.9881 173.514 28.5881C172.594 28.5881 173.934 38.5881 173.934 38.5881C174.414 39.8081 176.434 39.3881 177.494 39.3881C178.554 39.3881 185.914 39.5681 186.514 39.3881C187.474 39.0081 186.934 32.6081 186.714 31.3881L186.654 31.4281Z"
    fill="white" />
  <path
    d="M379.913 212.868C354.433 214.428 328.946 215.762 303.453 216.868C303.12 213.221 302.45 209.612 301.453 206.088C326.786 205.422 352.119 204.642 377.453 203.748C377.582 203.733 377.702 203.675 377.796 203.585C377.89 203.495 377.952 203.377 377.973 203.248C377.99 203.092 377.945 202.935 377.847 202.812C377.75 202.689 377.608 202.608 377.453 202.588C352.013 203.535 326.579 204.315 301.153 204.928C295.153 184.008 282.493 164.108 267.733 148.348C267.273 143.028 267.253 140.348 264.973 135.008C260.573 124.908 255.713 122.808 255.833 125.208C255.831 125.84 255.933 126.469 256.133 127.068C255.333 126.068 249.453 119.948 248.253 123.248C247.368 122.692 246.369 122.341 245.33 122.224C244.291 122.106 243.24 122.224 242.253 122.568C238.513 116.568 232.253 116.568 228.253 114.568C220.613 110.568 224.133 97.8083 229.753 93.0483C229.753 93.0483 253.893 92.5883 253.913 92.2883C254.353 86.6283 259.173 0.488271 259.173 0.488271C199.693 -0.691729 135.693 0.488268 76.6526 1.68827C76.2526 1.68827 75.9126 1.94827 75.9526 2.30827C79.5126 32.6083 88.2526 94.6283 88.2526 94.6283C89.6926 95.2083 220.433 93.1683 228.253 93.0483C224.908 96.696 223.078 101.48 223.133 106.428C223.533 119.028 233.553 113.668 241.753 122.888C236.433 125.168 235.753 131.908 237.753 136.728C238.116 137.652 238.607 138.521 239.213 139.308C239.296 141.188 239.832 143.019 240.773 144.648C243.333 149.508 247.893 151.188 248.133 151.908C248.133 163.228 250.513 177.028 252.773 188.068C245.153 184.068 222.553 174.528 199.313 173.848C200.633 162.388 210.533 160.948 209.173 153.288C213.313 153.128 217.453 152.968 221.593 152.768C222.633 152.768 221.493 149.568 221.373 149.028C219.693 141.628 218.006 134.242 216.313 126.868C216.053 125.868 214.893 119.148 213.913 119.148L201.013 119.388C198.173 116.688 191.513 115.688 188.793 118.828C184.793 111.128 172.433 112.248 172.033 119.728C168.653 117.428 163.633 116.968 160.573 120.088C160.253 120.228 99.7526 121.048 90.7526 121.408H90.5926C90.4954 121.47 90.4262 121.567 90.4001 121.68C90.3739 121.792 90.3928 121.91 90.4526 122.008C90.6126 123.048 85.3926 147.728 84.7726 153.668C84.7726 154.508 93.8326 154.388 94.7726 154.388C81.8526 169.528 70.2326 186.608 66.7726 206.588C44.9726 206.248 23.1726 205.708 1.37261 205.788C1.26652 205.788 1.16478 205.83 1.08976 205.905C1.01475 205.98 0.972606 206.082 0.972606 206.188C0.972606 206.294 1.01475 206.396 1.08976 206.471C1.16478 206.546 1.26652 206.588 1.37261 206.588C23.0726 207.528 44.8326 207.628 66.5526 207.788C65.9056 211.754 65.6377 215.772 65.7526 219.788C44.1526 219.348 22.5526 218.668 0.972606 218.308C0.492606 218.308 0.412606 219.068 0.972606 219.068C22.5726 220.168 44.2126 220.568 65.8526 220.888C66.4126 231.748 70.6926 245.068 81.3326 249.948C85.7126 258.548 94.9926 266.288 105.333 264.068C105.033 265.628 104.753 267.228 104.453 268.828C104.333 269.548 105.413 269.848 105.533 269.128C108.473 253.288 111.533 237.368 116.673 222.088C116.833 221.608 116.113 221.428 115.933 221.888C110.933 235.168 108.113 249.128 105.513 263.028C94.9326 264.568 86.4926 257.828 82.1126 248.708C79.7561 243.889 78.3931 238.645 78.1044 233.289C77.8158 227.932 78.6076 222.573 80.4326 217.528C85.8926 203.528 100.433 193.528 114.713 186.688C129.232 179.807 144.825 175.471 160.813 173.868C161.953 184.548 174.233 188.168 183.593 187.608C192.953 187.048 198.493 184.188 199.293 174.748C199.413 174.748 233.073 175.488 262.133 194.908C270.673 200.608 278.433 207.928 282.973 217.228C287.413 226.208 288.973 237.228 284.973 246.588C279.253 260.228 268.813 262.208 261.893 263.428C259.446 248.784 254.722 234.612 247.893 221.428C247.713 221.088 247.153 221.308 247.333 221.668C254.455 237.026 259.312 253.336 261.753 270.088C261.753 270.608 262.793 270.748 262.793 270.088C262.712 268.257 262.471 266.437 262.073 264.648C269.615 263.999 276.599 260.407 281.513 254.648C297.513 250.648 304.493 233.348 303.513 218.108C329.059 217.068 354.579 215.735 380.073 214.108C380.773 213.848 380.513 212.868 379.913 212.868ZM88.3326 81.9883C84.3326 56.5483 81.1526 31.2283 77.5326 5.76827C137.533 4.72827 199.093 5.16827 258.273 4.16827L253.653 79.1883C228.673 79.9483 91.5526 80.7283 88.3326 81.9883ZM208.933 152.168C208.566 151.102 207.865 150.183 206.933 149.548C207.969 147.899 208.53 145.996 208.553 144.048H209.633L211.133 152.048L208.933 152.168ZM207.253 137.508C207.595 137.233 207.91 136.924 208.193 136.588C208.673 138.728 209.073 140.868 209.473 143.008H208.513C208.611 141.094 208.174 139.189 207.253 137.508ZM220.933 151.648L211.733 152.048C211.493 149.348 210.973 146.688 210.493 144.048C213.368 144.144 216.246 144.07 219.113 143.828C219.713 146.408 220.333 149.048 220.933 151.648ZM218.933 142.908H210.333L208.893 135.408L217.193 135.168L218.933 142.908ZM216.933 134.308L209.113 134.548C209.263 133.6 209.195 132.63 208.915 131.711C208.634 130.793 208.148 129.951 207.493 129.248C207.373 128.648 207.253 128.028 207.093 127.408L215.333 127.228L216.933 134.308ZM213.873 120.028C214.313 122.028 214.713 124.168 215.113 126.248L206.893 126.388C206.473 124.285 205.932 122.209 205.273 120.168L213.873 120.028ZM206.313 128.508C205.339 128.066 204.239 127.988 203.213 128.288C203.304 128.041 203.378 127.787 203.433 127.528H206.073L206.313 128.508ZM204.313 120.188C204.688 122.288 205.182 124.365 205.793 126.408H203.573C203.802 124.192 203.187 121.972 201.853 120.188H204.313ZM155.893 121.048H159.753C158.937 122.308 158.65 123.838 158.953 125.308L155.553 126.288C155.713 124.568 155.893 122.648 155.893 121.048ZM154.813 121.048V126.628C154.474 126.83 154.147 127.05 153.833 127.288L144.373 127.448C144.46 125.373 144.4 123.295 144.193 121.228L154.813 121.048ZM150.613 135.548H144.313V128.548L152.513 128.408C151.645 129.358 151.02 130.503 150.689 131.746C150.358 132.989 150.332 134.293 150.613 135.548ZM144.353 144.808H149.813C149.89 146.553 150.536 148.225 151.653 149.568C150.993 150.025 150.462 150.644 150.112 151.366C149.761 152.087 149.603 152.887 149.653 153.688H144.253C144.313 150.688 144.353 147.748 144.353 144.808ZM150.353 142.388C150.177 142.806 150.05 143.242 149.973 143.688H144.453V136.468H150.913C151.347 137.662 152.127 138.699 153.153 139.448C151.903 140.095 150.894 141.126 150.273 142.388H150.353ZM143.653 153.668H118.873C119.133 150.228 118.873 148.068 121.093 145.108L143.433 144.848C143.413 147.788 143.473 150.728 143.573 153.668H143.653ZM121.913 144.008C123.994 141.904 125.567 139.353 126.513 136.548H131.513V143.888L121.913 144.008ZM132.793 121.448L143.273 121.268C143.16 123.34 143.16 125.416 143.273 127.488L132.733 127.668C132.733 125.608 132.753 123.528 132.793 121.448ZM132.653 128.768L143.233 128.588V135.588H132.513C132.513 133.308 132.513 131.048 132.653 128.768ZM132.513 136.528H143.333V143.748L132.073 143.888C132.233 141.428 132.353 139.048 132.513 136.528ZM122.513 121.628L132.093 121.468L131.873 127.688L122.113 127.848C122.35 125.784 122.424 123.704 122.333 121.628H122.513ZM122.033 128.928L131.853 128.768L131.673 135.568H126.773C127.013 134.468 127.453 132.668 126.153 132.068C124.853 131.468 123.613 134.468 121.213 135.548C121.433 133.348 121.633 131.148 121.853 128.948L122.033 128.928ZM113.473 121.788L121.733 121.648C121.447 123.711 121.267 125.787 121.193 127.868H120.513C121.373 125.768 116.733 124.408 112.733 127.868C112.793 126.848 113.353 122.468 113.293 121.788H113.473ZM120.933 129.048C120.793 131.228 120.673 133.388 120.533 135.568H117.413C116.813 133.808 117.413 129.668 119.013 129.048H120.893H120.933ZM112.273 121.848L111.953 128.048H108.213C106.733 124.968 107.673 122.628 106.213 121.888L112.273 121.848ZM111.473 129.168C111.012 129.746 110.622 130.377 110.313 131.048L108.833 129.228L111.473 129.168ZM98.6926 122.108L105.113 121.988C103.113 122.948 102.813 126.348 102.813 128.208H99.7926C98.7726 127.328 98.3326 128.208 97.5726 128.208L98.6526 121.988L98.6926 122.108ZM103.133 132.268C102.023 131.528 101.121 130.516 100.513 129.328H102.773C102.796 130.314 102.89 131.296 103.053 132.268H103.133ZM96.5126 135.268L97.4726 129.388C97.2721 131.418 97.5249 133.468 98.2126 135.388L96.5126 135.268ZM98.5126 136.248C99.3326 138.988 100.513 141.488 101.073 144.248L95.0726 144.368L96.2726 136.228L98.5126 136.248ZM91.2526 122.128H97.8126C97.4326 124.128 97.0726 126.288 96.7126 128.388C94.5326 128.388 92.3326 128.508 90.1526 128.608C90.6236 126.471 90.9642 124.307 91.1726 122.128H91.2526ZM90.0126 129.428H96.5126C96.2126 131.428 95.8926 133.428 95.5726 135.288H88.8726C89.2126 133.288 89.5726 131.348 89.9326 129.428H90.0126ZM88.7926 135.988C90.9926 136.108 93.1926 136.168 95.3926 136.208C95.0126 138.908 94.5726 141.648 94.2126 144.368C91.8726 144.368 89.5326 144.528 87.1926 144.628C87.7326 141.748 88.2526 138.868 88.7926 135.988ZM93.2926 153.328H85.5726C86.0726 150.648 86.5926 147.988 87.1326 145.328L94.0726 145.508C93.6507 148.098 93.3636 150.708 93.2126 153.328H93.2926ZM93.8526 153.328L95.0326 145.328H101.253C101.313 145.86 101.313 146.397 101.253 146.928L95.6326 153.348L93.8526 153.328ZM80.2326 214.788C77.8933 220.118 76.7239 225.888 76.8033 231.708C76.8826 237.528 78.2089 243.264 80.6926 248.528C61.3326 235.448 65.4526 206.528 73.6926 188.048C80.4326 172.908 91.1126 160.048 102.053 147.708C103.653 145.888 98.4726 133.708 98.2926 130.728C98.1726 128.508 99.0926 128.048 99.9126 129.628C100.733 131.208 101.913 133.008 103.533 133.388C104.173 135.268 104.673 134.668 104.593 134.368C103.913 131.068 102.733 126.368 104.933 123.328C106.533 121.208 106.473 125.108 106.633 125.868C107.013 127.688 108.633 131.208 110.093 131.868C109.593 133.288 110.433 132.788 110.493 132.608C113.333 125.148 122.013 126.208 119.213 128.048C118.474 128.489 117.847 129.093 117.379 129.814C116.911 130.536 116.614 131.355 116.513 132.208C115.493 139.268 121.053 138.208 125.093 133.288C126.773 131.288 126.853 135.588 124.193 139.928C121.933 143.608 118.873 144.928 118.513 149.748C117.513 161.528 115.093 175.588 113.473 185.948C100.193 192.368 86.6126 201.048 80.1526 214.808L80.2326 214.788ZM114.513 185.408C116.465 175.239 117.861 164.97 118.693 154.648H149.713C150.873 161.348 159.193 162.248 160.533 172.648C144.57 174.209 128.999 178.526 114.513 185.408ZM198.953 169.268C198.455 170.841 198.133 172.464 197.993 174.108C197.193 182.588 193.593 185.408 184.173 186.108C174.173 186.928 163.333 183.768 161.813 172.988C160.473 163.388 157.393 164.228 152.453 157.508C150.973 155.508 149.653 151.788 152.453 150.228C153.828 151.739 155.551 152.893 157.473 153.588C161.793 163.288 163.253 174.468 175.813 175.708C200.093 177.968 194.653 164.748 202.353 153.208C203.85 152.516 205.206 151.553 206.353 150.368C207.226 151.098 207.828 152.1 208.064 153.214C208.3 154.327 208.155 155.487 207.653 156.508C205.693 161.248 200.973 163.048 198.953 169.268ZM248.513 124.408C249.193 125.928 249.893 127.428 250.513 128.948C249.533 127.688 244.733 122.448 243.133 125.248C242.313 126.708 244.033 128.888 244.733 130.188C242.048 130.664 239.649 132.153 238.033 134.348C235.473 125.048 244.513 120.408 248.513 124.408ZM239.473 138.028C239.093 137.088 238.693 136.128 238.293 135.188C240.048 133.133 242.406 131.685 245.033 131.048C246.158 133.371 246.888 135.865 247.193 138.428C247.733 143.548 243.813 139.888 241.913 138.128C241.173 137.368 239.933 137.048 239.373 138.028H239.473ZM282.773 252.848C289.393 243.568 289.673 231.588 285.833 221.108C280.393 206.288 267.453 195.908 253.833 188.648C251.214 176.554 249.516 164.279 248.753 151.928C248.753 150.048 242.393 148.768 240.413 141.388C240.053 140.048 239.313 136.528 241.733 139.048C244.153 141.568 248.273 143.888 248.093 138.368C247.853 131.828 243.413 127.468 243.813 125.988C244.313 124.128 248.013 127.628 248.613 128.228C250.176 129.948 251.594 131.794 252.853 133.748C253.073 134.068 253.613 133.748 253.413 133.448C252.946 132.648 252.466 131.848 251.973 131.048C252.293 130.368 248.693 124.008 249.333 123.408C249.973 122.808 252.853 124.888 253.493 125.408C256.833 128.308 256.993 130.248 258.133 131.748C258.184 131.767 258.241 131.767 258.293 131.748C258.364 131.754 258.435 131.732 258.49 131.688C258.546 131.643 258.583 131.579 258.593 131.508C258.473 130.228 257.733 129.508 257.373 128.628C257.013 127.748 256.273 125.768 256.773 125.068C257.013 124.868 258.393 125.888 258.553 126.048C259.872 127.312 260.974 128.785 261.813 130.408C267.933 140.868 266.093 147.608 267.133 148.628C282.313 165.728 298.533 190.768 301.813 213.368C304.033 229.048 299.093 247.328 282.673 252.848H282.773Z"
    fill="white" />
  <path
    d="M137.713 35.0481C138.173 34.9081 137.993 34.2481 137.573 34.1881C130.293 34.3281 122.553 34.1881 115.373 34.3881C114.813 34.3881 114.893 35.2481 115.373 35.3281C119.053 35.9281 134.513 36.0281 137.713 35.0481ZM328.653 142.008C331.373 140.828 344.653 135.468 346.233 134.568C346.262 134.542 346.286 134.509 346.303 134.473C346.319 134.437 346.327 134.398 346.327 134.358C346.327 134.318 346.319 134.279 346.303 134.243C346.286 134.207 346.262 134.174 346.233 134.148C346.2 134.1 346.155 134.061 346.102 134.036C346.049 134.012 345.991 134.002 345.933 134.008C342.573 134.708 331.693 139.888 328.313 141.568C328.133 141.708 328.373 142.128 328.653 142.008ZM194.513 95.0481L152.113 95.6881C153.933 116.248 195.053 116.568 194.513 95.0481ZM194.513 51.0481C194.512 51.1349 194.546 51.2185 194.605 51.2817C194.665 51.3449 194.746 51.383 194.833 51.3881C201.613 51.5481 215.953 51.9681 221.373 51.2281C221.813 51.2281 221.673 50.4881 221.373 50.4881C213.713 50.4881 202.653 50.4881 194.933 50.7081C194.882 50.6958 194.829 50.6953 194.778 50.7068C194.727 50.7183 194.679 50.7413 194.639 50.7742C194.598 50.8071 194.565 50.8489 194.544 50.8964C194.522 50.9439 194.511 50.9958 194.513 51.0481ZM136.513 21.0481C137.073 21.0481 136.833 20.2481 136.373 20.1681C122.593 20.5681 107.593 20.8681 94.1526 21.1681C94.1077 21.1753 94.0646 21.1915 94.026 21.2156C93.9874 21.2398 93.9541 21.2715 93.928 21.3088C93.9018 21.3461 93.8835 21.3883 93.874 21.4328C93.8645 21.4774 93.864 21.5233 93.8726 21.5681C93.8842 21.6381 93.9174 21.7028 93.9677 21.753C94.0179 21.8033 94.0826 21.8365 94.1526 21.8481C103.933 22.5481 123.813 21.4881 136.513 21.0481ZM144.213 16.4681C144.673 16.4681 144.813 15.6681 144.213 15.6081C139.733 15.0681 95.5526 15.7881 92.4726 16.4681C92.1726 16.4681 92.1926 17.0681 92.4726 17.0681C103.813 17.0481 130.993 16.2681 144.213 16.4681ZM57.2726 159.328V159.308V159.328ZM58.1126 159.668C59.6535 156.818 60.8358 153.788 61.6326 150.648C62.005 149.569 62.0902 148.411 61.8798 147.289C61.6694 146.167 61.1707 145.119 60.4326 144.248C61.1586 142.421 61.5318 140.474 61.5326 138.508C61.1326 135.248 57.6726 135.448 55.8126 137.948C48.3126 147.948 40.0326 163.948 40.2726 176.248C40.1326 176.828 40.4326 177.488 40.9526 177.008C49.832 168.211 56.4 157.356 60.0726 145.408C62.5726 149.128 58.7126 155.548 57.2726 159.308C57.0926 159.808 57.8526 160.108 58.1126 159.668ZM41.0326 175.428C41.1793 173.209 41.4868 171.003 41.9526 168.828L45.0326 171.048C43.7326 172.488 42.3926 173.988 41.0326 175.428ZM59.6126 143.428C58.2583 142.291 56.6318 141.526 54.8926 141.208C55.5609 139.987 56.3661 138.847 57.2926 137.808C58.1926 136.968 59.9126 136.628 60.4326 138.048C60.6092 139.869 60.3273 141.704 59.6126 143.388V143.428ZM110.513 41.5481C109.633 41.9081 104.513 49.5481 103.573 50.8881C102.409 49.3418 101.066 47.9387 99.5726 46.7081C99.4892 46.6694 99.3946 46.6623 99.3064 46.688C99.2181 46.7137 99.1422 46.7706 99.0926 46.8481C99.0635 46.9254 99.0635 47.0107 99.0926 47.0881C100.233 48.9554 101.574 50.6924 103.093 52.2681C103.147 52.3281 103.213 52.3762 103.287 52.409C103.361 52.4419 103.442 52.4588 103.523 52.4588C103.604 52.4588 103.684 52.4419 103.758 52.409C103.832 52.3762 103.898 52.3281 103.953 52.2681V52.1681L110.513 43.2081C111.433 41.9081 111.173 41.2081 110.513 41.5481ZM230.513 31.0481C230.933 31.0481 231.013 30.2481 230.513 30.1881C218.034 29.5675 205.528 29.7479 193.073 30.7281C192.653 30.7281 192.693 31.4681 193.073 31.4481C202.513 31.3681 220.213 31.6681 230.513 31.0481Z"
    fill="white" />
  <path
    d="M110.512 53.6685C111.312 53.3485 109.712 47.3885 109.492 46.4485C109.486 46.4065 109.471 46.3662 109.449 46.3298C109.427 46.2935 109.398 46.2619 109.363 46.2369C109.329 46.2118 109.29 46.1937 109.249 46.1837C109.207 46.1737 109.164 46.1719 109.122 46.1785C109.08 46.1851 109.04 46.1998 109.004 46.222C108.967 46.2441 108.936 46.2732 108.911 46.3076C108.886 46.3419 108.868 46.3809 108.858 46.4222C108.848 46.4636 108.846 46.5065 108.852 46.5485C109.092 48.6885 109.332 50.8485 109.732 52.9485C106.392 53.2085 103.372 53.1885 100.112 53.3285C99.5124 50.7285 98.9924 47.3285 98.1124 44.7485C100.628 44.96 103.157 44.96 105.672 44.7485C107.332 44.7485 107.212 43.7085 105.792 43.7285C104.952 43.7285 97.7924 43.5885 97.7924 44.4485C96.8524 44.4485 98.8324 52.8285 98.9524 53.3885C98.9731 53.4882 99.0249 53.5787 99.1004 53.647C99.1759 53.7154 99.2711 53.7579 99.3724 53.7685C99.6124 54.8085 110.132 54.6485 110.512 53.6685ZM231.632 46.6485C231.615 46.5708 231.572 46.5011 231.51 46.4504C231.449 46.3998 231.372 46.3709 231.292 46.3685C219.172 46.0485 206.212 46.6285 193.932 46.6085C193.572 46.6085 193.552 47.2085 193.932 47.2485C204.692 47.9685 221.332 48.4085 231.372 47.0885C231.463 47.0606 231.539 47.0001 231.587 46.9187C231.635 46.8374 231.652 46.741 231.632 46.6485ZM99.6524 39.2085C102.458 39.2867 105.265 39.1597 108.052 38.8285C109.792 39.2685 107.132 28.3485 106.812 27.8485C106.77 27.7543 106.699 27.6761 106.609 27.6257C106.519 27.5753 106.415 27.5552 106.312 27.5685C104.512 27.5685 96.1524 27.5685 94.9724 27.8285C93.5324 26.6685 95.6324 36.5285 95.9324 37.7085C96.5124 39.6885 97.7924 39.2085 99.6524 39.2085ZM95.2124 28.5085C98.9027 28.9592 102.631 29.0128 106.332 28.6685L107.612 37.9085L97.1324 38.4485C97.2124 37.7685 95.4524 29.8285 95.2124 28.5085ZM222.152 35.2485C222.258 35.2485 222.36 35.2064 222.435 35.1313C222.51 35.0563 222.552 34.9546 222.552 34.8485C222.552 34.7424 222.51 34.6407 222.435 34.5657C222.36 34.4906 222.258 34.4485 222.152 34.4485C219.672 33.9485 198.352 34.7085 193.932 35.0885C193.592 35.0885 193.592 35.6685 193.932 35.6885C196.332 35.7885 219.772 35.8485 222.152 35.2485ZM54.2124 98.6885C54.5924 98.6885 57.4124 97.0885 58.0724 99.6885C58.9924 103.248 62.5924 101.108 63.1724 98.3885C63.9124 95.0285 60.7124 92.3885 56.9324 92.3885C49.2524 92.3885 51.0124 99.0485 54.2124 98.6885ZM56.9324 93.1685C61.2524 93.3085 63.9124 97.3885 61.2924 99.7885C59.0524 101.789 59.2924 98.9085 58.2124 97.7885C56.0524 95.7885 54.3324 98.2085 53.1124 97.1885C50.6124 95.1885 55.3924 93.0485 56.9324 93.1685ZM103.772 60.5885C100.632 60.5885 100.512 60.0685 100.912 63.1285C101.032 63.9885 101.652 70.0685 102.692 70.1285C102.912 71.0885 111.892 70.7485 113.032 70.4085C114.572 70.4085 113.032 65.6685 113.032 65.1285C111.712 58.1685 113.352 60.3285 103.772 60.5885ZM103.192 69.6685C102.692 67.1485 102.312 63.8085 101.592 61.4085C104.867 61.7285 108.17 61.6074 111.412 61.0485C111.616 63.8331 112.051 66.596 112.712 69.3085C109.592 69.4485 106.352 69.6085 103.192 69.6685ZM234.772 15.2885C231.092 14.9485 178.092 15.2885 171.372 15.8085C171.286 15.8233 171.208 15.8711 171.156 15.942C171.103 16.0129 171.081 16.1012 171.092 16.1885C171.107 16.2574 171.141 16.3207 171.19 16.3705C171.24 16.4202 171.303 16.4543 171.372 16.4685C177.072 16.7685 230.692 16.6285 234.772 16.1685C234.889 16.1685 235.001 16.1221 235.084 16.0396C235.166 15.9571 235.212 15.8452 235.212 15.7285C235.212 15.6118 235.166 15.4999 235.084 15.4174C235.001 15.3349 234.889 15.2885 234.772 15.2885ZM144.512 29.9885C144.972 29.8885 144.812 29.2685 144.412 29.1885L114.032 29.9485C113.988 29.9532 113.946 29.9671 113.907 29.9892C113.869 30.0113 113.835 30.0411 113.809 30.0769C113.782 30.1126 113.764 30.1534 113.754 30.1968C113.744 30.2401 113.744 30.2849 113.752 30.3285C113.764 30.3986 113.797 30.4632 113.847 30.5135C113.898 30.5637 113.962 30.5969 114.032 30.6085C121.652 31.1685 137.892 31.3285 144.512 29.9885ZM264.972 86.2085C265.112 87.7285 266.632 102.889 267.192 103.989C271.192 111.789 285.912 111.988 286.232 100.448C286.792 95.6485 288.732 81.8685 287.972 78.4485C288.192 77.3285 289.352 72.4485 289.572 69.8685C289.572 69.4485 290.372 58.0285 288.772 59.7685C286.637 62.6117 284.744 65.6289 283.112 68.7885C282.832 70.0085 282.552 71.2085 282.252 72.4085C281.368 72.0748 280.449 71.8401 279.512 71.7085C279.512 70.8885 278.912 66.8885 278.632 65.2885C277.252 62.6085 275.832 60.2085 274.632 57.4285C272.932 53.2485 272.892 53.1685 272.412 57.7685C271.611 62.4545 271.611 67.2425 272.412 71.9285C263.352 73.8085 264.292 79.1485 264.952 86.2085H264.972ZM286.852 64.2085C287.097 64.4452 287.39 64.6265 287.711 64.7404C288.032 64.8543 288.373 64.8979 288.712 64.8685V69.9085C287.87 69.9903 287.019 69.9014 286.212 69.6471C285.404 69.3928 284.656 68.9783 284.012 68.4285C284.992 67.0485 286.012 65.6285 286.852 64.2085ZM283.972 69.4685C285.297 70.4104 286.887 70.9076 288.512 70.8885C287.852 74.6085 287.192 78.3085 286.672 82.0485C285.992 84.4885 282.672 85.3685 280.512 85.6685C281.832 80.3885 282.832 74.7085 283.972 69.4085V69.4685ZM279.972 84.2285C279.875 84.7306 279.808 85.2382 279.772 85.7485L274.892 85.8685L272.892 67.0285C273.797 67.3015 274.754 67.3495 275.681 67.1683C276.609 66.987 277.477 66.582 278.212 65.9885C278.212 65.9885 279.512 83.9285 279.972 84.1685V84.2285ZM273.132 60.6285C273.439 60.7085 273.758 60.725 274.071 60.6768C274.384 60.6287 274.684 60.5169 274.952 60.3485L277.692 65.2685C276.974 65.8037 276.142 66.1653 275.26 66.3249C274.379 66.4845 273.473 66.4378 272.612 66.1885C272.578 64.3017 272.752 62.4169 273.132 60.5685V60.6285ZM286.992 83.6685C286.632 88.7085 285.992 99.3485 284.692 104.108C282.392 110.288 272.372 110.388 267.952 104.108C267.112 97.1685 266.272 90.1085 265.452 83.2685C269.192 88.6885 283.732 88.0285 286.992 83.6085V83.6685Z"
    fill="white" />
  <path
    d="M18.1338 105.708C21.1778 107.298 24.3914 108.539 27.7138 109.408C21.3338 118.188 39.5938 130.708 56.2938 124.028C63.9538 120.968 71.6138 111.248 64.1138 104.508C72.1138 98.0482 74.9338 88.7282 74.5938 78.5082C74.0738 62.7482 67.1138 51.1482 51.1738 47.4082C43.3207 45.5705 35.0914 46.2062 27.6138 49.2282L24.5138 43.8682C25.4938 43.3482 26.5138 42.8482 27.5138 42.4082C30.1538 41.5082 29.3538 39.5682 27.7938 40.1482C-2.84625 51.3282 -9.92624 91.6282 18.1338 105.708ZM27.9538 108.008C27.3938 106.008 28.8938 104.008 28.1938 101.828C26.5938 96.6482 19.8938 99.6482 18.1938 96.1482C16.3338 92.3282 21.2938 91.6682 22.2938 88.9282C22.4706 88.4486 22.5157 87.9302 22.4242 87.4272C22.3328 86.9242 22.1081 86.455 21.7738 86.0682C18.8938 82.4682 12.2338 86.2682 14.1338 77.8682C15.5738 71.5282 21.6938 68.5282 26.1338 71.3282C30.5738 74.1282 33.2338 76.0082 38.8538 72.7282C48.2138 67.2282 47.0538 78.7282 44.1938 82.2082C42.6738 84.0882 39.9138 83.9882 37.7938 84.7882C30.8738 87.3882 30.9138 92.0482 36.3938 93.1882C38.5138 93.6282 41.2338 93.4282 42.8938 95.0282C47.3938 99.4082 38.0938 108.768 35.1538 110.308C33.5738 109.988 28.7538 109.048 27.9538 108.008ZM53.3338 49.1682C65.1138 52.8282 71.3338 61.3482 73.0138 73.5282C73.8123 78.7847 73.6155 84.1444 72.4338 89.3282C71.9538 89.9882 65.1938 91.8482 63.0138 89.0482C62.1721 87.9165 61.6101 86.6018 61.3738 85.2114C61.1374 83.821 61.2334 82.3945 61.6538 81.0482C62.9538 77.6882 67.3738 74.7282 66.0138 71.2882C64.1338 66.5282 58.6338 73.0282 56.3138 71.6882C52.8338 69.6882 59.3538 65.8482 51.9138 64.4682C49.1738 63.9682 46.9338 65.0882 44.9138 62.0682C40.2938 55.1482 52.3138 49.1482 53.3338 49.1082V49.1682ZM30.5138 58.0282C30.6 58.1646 30.7308 58.2669 30.8839 58.3179C31.0369 58.3689 31.2029 58.3655 31.3538 58.3082C31.527 58.237 31.6657 58.1011 31.7404 57.9294C31.815 57.7576 31.8198 57.5635 31.7538 57.3882L28.1138 50.2882C35.5319 47.3137 43.6991 46.7538 51.4538 48.6882C41.4538 51.9882 40.2738 63.2682 47.4538 65.2082C48.9738 65.6282 55.7738 65.0282 54.5938 67.9282C54.3542 68.3987 54.2199 68.9156 54.2001 69.4432C54.1804 69.9707 54.2756 70.4963 54.4791 70.9834C54.6827 71.4705 54.9898 71.9074 55.3792 72.264C55.7685 72.6205 56.2307 72.8881 56.7338 73.0482C59.5338 73.5482 62.5338 69.3282 64.5938 71.0482C68.1938 74.0482 58.7938 78.6882 60.3938 85.3682C61.5938 90.4882 63.7138 92.1082 68.9138 91.3682C70.0528 91.2702 71.1576 90.9292 72.1538 90.3682C67.8538 105.428 51.7738 112.368 37.0738 110.548C40.0338 107.828 44.6338 102.428 45.0738 98.5482C45.7538 91.6682 37.8538 93.0482 34.9538 91.5282C30.9538 89.5282 36.6738 86.0482 40.3338 85.2482C41.5331 85.0508 42.6939 84.6661 43.7738 84.1082C49.7738 80.4282 48.1138 65.6282 39.4138 71.0882C31.9738 75.7482 29.6738 71.7882 26.2138 70.0082C20.6738 67.1882 13.0738 71.6282 12.6938 80.0082C12.4738 85.7082 17.1738 84.4882 19.9138 86.0082C20.4048 86.1924 20.8148 86.5445 21.0711 87.0021C21.3273 87.4597 21.4133 87.9933 21.3138 88.5082C20.6738 90.5082 17.7738 90.9082 16.9738 93.3282C16.6574 94.2721 16.669 95.2951 17.0065 96.2316C17.3441 97.1681 17.9879 97.9633 18.8338 98.4882C21.4538 100.008 26.0938 98.6882 27.1938 102.308C27.7338 104.068 26.6738 105.868 26.7938 107.648C21.691 105.814 17.1978 102.599 13.8148 98.3617C10.4318 94.1242 8.29197 89.0305 7.63376 83.6482C5.83376 70.0482 14.1338 56.8282 26.3338 51.0482C27.5938 53.3682 29.1738 55.7682 30.5138 58.0282ZM12.5138 52.6882C15.5161 49.5749 18.9759 46.9379 22.7738 44.8682C23.8885 46.5785 24.91 48.3477 25.8338 50.1682C19.5568 53.0844 14.3328 57.8667 10.875 63.8623C7.41721 69.858 5.89415 76.7747 6.51375 83.6682C6.93068 87.6193 8.16912 91.4396 10.1496 94.8839C12.13 98.3281 14.8087 101.32 18.0138 103.668C-1.10625 93.0482 -1.90625 68.0082 12.5138 52.6882ZM225.974 66.7882C224.254 66.4082 198.534 66.2882 194.894 66.7882C194.804 66.7882 194.717 66.8241 194.653 66.8878C194.59 66.9516 194.554 67.0381 194.554 67.1282C194.554 67.2184 194.59 67.3049 194.653 67.3686C194.717 67.4324 194.804 67.4682 194.894 67.4682C196.274 67.6682 223.154 68.1282 225.974 67.4682C226.067 67.4475 226.15 67.3956 226.21 67.321C226.27 67.2465 226.303 67.1538 226.303 67.0582C226.303 66.9627 226.27 66.87 226.21 66.7954C226.15 66.7209 226.067 66.669 225.974 66.6482V66.7882ZM234.514 20.7882C215.214 21.0082 190.274 20.3482 172.874 20.7882C172.394 20.7882 172.434 21.4682 172.874 21.5082C180.174 22.3082 228.634 22.2482 234.514 21.5082C234.571 21.5034 234.626 21.4869 234.677 21.4597C234.728 21.4326 234.772 21.3954 234.808 21.3504C234.843 21.3054 234.869 21.2537 234.884 21.1982C234.899 21.1428 234.902 21.085 234.894 21.0282C234.862 20.9548 234.808 20.8926 234.741 20.8498C234.673 20.807 234.594 20.7856 234.514 20.7882ZM232.374 62.4482C220.674 62.1882 206.054 62.9082 193.594 62.5882C193.234 62.5882 193.154 63.1082 193.594 63.1482C201.254 63.9082 225.234 64.6682 232.454 63.2682C232.834 63.1682 232.874 62.4482 232.374 62.4482Z"
    fill="white" />
</svg>