<svg width="24" height="24" viewBox="0 0 24 24" fill="none" xmlns="http://www.w3.org/2000/svg">
  <g clip-path="url(#clip0_284_7820)">
    <path
      d="M12 2.775C15 2.775 15.36 2.78625 16.5458 2.84025C17.2593 2.84867 17.9662 2.97984 18.6353 3.228C19.1237 3.40832 19.5656 3.69588 19.9283 4.0695C20.3019 4.43218 20.5894 4.87402 20.7698 5.3625C21.0179 6.0316 21.1491 6.73841 21.1575 7.452C21.2115 8.64 21.225 9 21.225 12C21.225 15 21.2138 15.36 21.1598 16.5458C21.1513 17.2593 21.0202 17.9662 20.772 18.6353C20.5847 19.1202 20.2981 19.5606 19.9305 19.9282C19.5629 20.2958 19.1225 20.5825 18.6375 20.7698C17.9684 21.0179 17.2616 21.1491 16.548 21.1575C15.3623 21.2115 15.006 21.2228 12.0023 21.2228C8.9985 21.2228 8.64225 21.2115 7.4565 21.1575C6.74291 21.1491 6.0361 21.0179 5.367 20.7698C4.87852 20.5894 4.43668 20.3019 4.074 19.9282C3.70038 19.5656 3.41282 19.1237 3.2325 18.6353C2.98434 17.9662 2.85317 17.2593 2.84475 16.5458C2.7885 15.36 2.775 15.0037 2.775 12C2.775 8.99625 2.78625 8.64 2.84025 7.45425C2.84867 6.74066 2.97984 6.03385 3.228 5.36475C3.40898 4.87606 3.69731 4.4342 4.07175 4.07175C4.43443 3.69813 4.87627 3.41057 5.36475 3.23025C6.03385 2.98209 6.74066 2.85092 7.45425 2.8425C8.64 2.7885 9 2.775 12 2.775ZM12 0.75C8.9445 0.75 8.56125 0.76275 7.362 0.8175C6.42842 0.83728 5.5049 1.01478 4.6305 1.3425C3.88032 1.62483 3.20059 2.06707 2.6385 2.6385C2.06626 3.20037 1.62324 3.88012 1.34025 4.6305C1.01253 5.5049 0.83503 6.42842 0.81525 7.362C0.76275 8.56125 0.75 8.9445 0.75 12C0.75 15.0555 0.76275 15.4388 0.8175 16.638C0.83728 17.5716 1.01478 18.4951 1.3425 19.3695C1.62549 20.1199 2.06851 20.7996 2.64075 21.3615C3.20262 21.9337 3.88237 22.3768 4.63275 22.6597C5.50715 22.9875 6.43067 23.165 7.36425 23.1847C8.56425 23.2395 8.94675 23.2523 12.0023 23.2523C15.0578 23.2523 15.441 23.2395 16.6403 23.1847C17.5738 23.165 18.4974 22.9875 19.3718 22.6597C20.1188 22.3702 20.7972 21.928 21.3638 21.3615C21.9303 20.795 22.3724 20.1165 22.662 19.3695C22.9897 18.4951 23.1672 17.5716 23.187 16.638C23.2418 15.438 23.2545 15.0555 23.2545 12C23.2545 8.9445 23.2418 8.56125 23.187 7.362C23.1672 6.42842 22.9897 5.5049 22.662 4.6305C22.379 3.88012 21.936 3.20037 21.3638 2.6385C20.8019 2.06626 20.1221 1.62324 19.3718 1.34025C18.4974 1.01253 17.5738 0.83503 16.6403 0.81525C15.4388 0.76275 15.0555 0.75 12 0.75Z"
      fill="currentColor" />
    <path
      d="M11.9996 6.22498C10.8574 6.22498 9.74089 6.56367 8.79119 7.19824C7.8415 7.8328 7.1013 8.73474 6.66421 9.78998C6.22711 10.8452 6.11275 12.0064 6.33558 13.1266C6.55841 14.2469 7.10842 15.2759 7.91607 16.0835C8.72372 16.8912 9.75272 17.4412 10.873 17.664C11.9932 17.8868 13.1544 17.7725 14.2096 17.3354C15.2649 16.8983 16.1668 16.1581 16.8013 15.2084C17.4359 14.2587 17.7746 13.1422 17.7746 12C17.7746 10.4684 17.1662 8.99946 16.0832 7.91643C15.0001 6.83341 13.5312 6.22498 11.9996 6.22498ZM11.9996 15.75C11.2579 15.75 10.5329 15.53 9.91622 15.118C9.29954 14.7059 8.81889 14.1203 8.53506 13.435C8.25123 12.7498 8.17697 11.9958 8.32167 11.2684C8.46636 10.541 8.82351 9.87277 9.34796 9.34833C9.87241 8.82388 10.5406 8.46673 11.268 8.32203C11.9955 8.17734 12.7495 8.2516 13.4347 8.53543C14.1199 8.81926 14.7056 9.2999 15.1176 9.91659C15.5297 10.5333 15.7496 11.2583 15.7496 12C15.7496 12.9945 15.3545 13.9484 14.6513 14.6516C13.948 15.3549 12.9942 15.75 11.9996 15.75Z"
      fill="currentColor" />
    <path
      d="M18.0043 7.34478C18.7499 7.34478 19.3543 6.74036 19.3543 5.99478C19.3543 5.24919 18.7499 4.64478 18.0043 4.64478C17.2587 4.64478 16.6543 5.24919 16.6543 5.99478C16.6543 6.74036 17.2587 7.34478 18.0043 7.34478Z"
      fill="currentColor" />
  </g>
  <defs>
    <clipPath id="clip0_284_7820">
      <rect width="24" height="24" fill="white" />
    </clipPath>
  </defs>
</svg>