<svg width="22" height="21" viewBox="0 0 22 21" fill="none" xmlns="http://www.w3.org/2000/svg">
  <path
    d="M21.2465 8.17808C21.1691 7.9322 21.0199 7.7151 20.8181 7.55471C20.6162 7.39432 20.3711 7.29798 20.114 7.27808L14.5397 6.79621C14.506 6.79289 14.4738 6.78051 14.4465 6.76037C14.4193 6.74023 14.398 6.71309 14.385 6.68183L12.2072 1.49183C12.1063 1.25507 11.9381 1.05319 11.7234 0.911283C11.5087 0.769382 11.257 0.693726 10.9997 0.693726C10.7423 0.693726 10.4906 0.769382 10.276 0.911283C10.0613 1.05319 9.89302 1.25507 9.79216 1.49183L7.61435 6.68183C7.6013 6.71309 7.58003 6.74023 7.55279 6.76037C7.52556 6.78051 7.49337 6.79289 7.45966 6.79621L1.88529 7.27808C1.62827 7.29798 1.38308 7.39432 1.18126 7.55471C0.979437 7.7151 0.830216 7.9322 0.752788 8.17808C0.670784 8.42432 0.663621 8.68933 0.732204 8.93964C0.800787 9.18994 0.942037 9.41429 1.1381 9.58433L5.36716 13.2734C5.39306 13.2964 5.41229 13.3259 5.42285 13.3589C5.4334 13.3919 5.43489 13.4271 5.42716 13.4609L4.15591 18.9462C4.09665 19.1988 4.11356 19.4632 4.2045 19.7061C4.29543 19.9491 4.45633 20.1596 4.66685 20.3112C4.87411 20.4641 5.12245 20.5514 5.37981 20.5618C5.63717 20.5721 5.89172 20.5051 6.1106 20.3693L10.9022 17.4631C10.9303 17.4457 10.9628 17.4364 10.9959 17.4364C11.029 17.4364 11.0615 17.4457 11.0897 17.4631L15.8812 20.3693C16.1024 20.5047 16.3587 20.5716 16.6178 20.5615C16.8769 20.5513 17.1272 20.4647 17.3371 20.3124C17.547 20.1602 17.7072 19.9492 17.7973 19.706C17.8874 19.4629 17.9034 19.1985 17.8434 18.9462L16.5759 13.459C16.5682 13.4253 16.5697 13.39 16.5802 13.3571C16.5908 13.3241 16.61 13.2945 16.6359 13.2715L20.865 9.58246C21.06 9.41212 21.2003 9.18789 21.2682 8.938C21.3361 8.6881 21.3286 8.4237 21.2465 8.17808ZM20.1215 8.73308L15.8925 12.4221C15.7123 12.5789 15.5783 12.7819 15.5049 13.0093C15.4316 13.2366 15.4217 13.4796 15.4762 13.7121L16.7437 19.1993C16.7531 19.2362 16.751 19.275 16.7378 19.3107C16.7246 19.3464 16.7008 19.3772 16.6697 19.399C16.6415 19.4216 16.6068 19.4346 16.5707 19.4361C16.5346 19.4376 16.499 19.4276 16.469 19.4075L11.6775 16.5012C11.4732 16.377 11.2387 16.3114 10.9997 16.3114C10.7606 16.3114 10.5261 16.377 10.3218 16.5012L5.53029 19.4075C5.5003 19.4276 5.46467 19.4376 5.42859 19.4361C5.39251 19.4346 5.35785 19.4216 5.32966 19.399C5.29852 19.3772 5.27476 19.3464 5.26153 19.3107C5.2483 19.275 5.24623 19.2362 5.2556 19.1993L6.5231 13.7121C6.57767 13.4796 6.56774 13.2366 6.49439 13.0093C6.42104 12.7819 6.28705 12.5789 6.10685 12.4221L1.87779 8.73308C1.84886 8.70849 1.82809 8.67569 1.81821 8.63903C1.80834 8.60236 1.80982 8.56357 1.82248 8.52777C1.83194 8.49212 1.85247 8.46039 1.88111 8.43715C1.90975 8.4139 1.94502 8.40033 1.98185 8.3984L7.55716 7.91652C7.79585 7.89618 8.02441 7.81091 8.21809 7.66995C8.41177 7.52899 8.56318 7.3377 8.65591 7.11683L10.8337 1.92683C10.8489 1.89462 10.8729 1.86738 10.9029 1.84831C10.933 1.82923 10.9678 1.8191 11.0034 1.8191C11.039 1.8191 11.0739 1.82923 11.1039 1.84831C11.134 1.86738 11.158 1.89462 11.1731 1.92683L13.3434 7.11683C13.4358 7.33718 13.5867 7.5281 13.7796 7.66903C13.9726 7.80995 14.2004 7.89553 14.4384 7.91652L20.0137 8.3984C20.0506 8.40033 20.0858 8.4139 20.1145 8.43715C20.1431 8.46039 20.1636 8.49212 20.1731 8.52777C20.1862 8.5632 20.1883 8.60176 20.1791 8.6384C20.1699 8.67503 20.1498 8.70804 20.1215 8.73308Z"
    fill="currentColor" />
</svg>