<svg width="32" height="32" viewBox="0 0 32 32" fill="none" xmlns="http://www.w3.org/2000/svg">
  <path
    d="M28.7063 23.3915C29.4174 21.982 29.7757 20.4209 29.7502 18.8424C29.7248 17.2639 29.3165 15.7152 28.5603 14.3294C27.8041 12.9436 26.7227 11.7621 25.4091 10.8865C24.0955 10.0109 22.5889 9.46742 21.0188 9.30271C20.5203 8.08926 19.7821 6.98888 18.8484 6.06746C17.9147 5.14603 16.8046 4.4225 15.5847 3.9402C14.3647 3.4579 13.06 3.22674 11.7486 3.26057C10.4372 3.29439 9.14612 3.59251 7.95266 4.13707C6.7592 4.68162 5.6879 5.46141 4.80291 6.42976C3.91792 7.3981 3.23745 8.53507 2.80223 9.7726C2.36701 11.0101 2.18599 12.3228 2.27003 13.6319C2.35406 14.941 2.70141 16.2197 3.29128 17.3915L2.30753 20.8377C2.23423 21.0948 2.23099 21.3668 2.29813 21.6256C2.36527 21.8844 2.50035 22.1205 2.6894 22.3096C2.87844 22.4986 3.11458 22.6337 3.37336 22.7009C3.63214 22.768 3.90417 22.7647 4.16128 22.6915L7.60753 21.7077C8.66131 22.2372 9.80217 22.5717 10.975 22.6952C11.4852 23.9394 12.2471 25.0648 13.2128 26.0006C14.1786 26.9364 15.3274 27.6624 16.5871 28.1331C17.8468 28.6038 19.1902 28.809 20.533 28.7358C21.8758 28.6626 23.189 28.3125 24.39 27.7077L27.8363 28.6915C28.0934 28.7647 28.3654 28.768 28.6242 28.7009C28.883 28.6337 29.1191 28.4986 29.3082 28.3096C29.4972 28.1205 29.6323 27.8844 29.6994 27.6256C29.7666 27.3668 29.7633 27.0948 29.69 26.8377L28.7063 23.3915ZM7.69003 20.154C7.62025 20.1536 7.55079 20.1633 7.48378 20.1827L3.74878 21.2502L4.81503 17.5165C4.86948 17.3268 4.84702 17.1234 4.75253 16.9502C3.80424 15.2076 3.51563 13.1817 3.93959 11.2437C4.36354 9.30563 5.47167 7.58526 7.06092 6.3978C8.65016 5.21034 10.6141 4.63532 12.5928 4.77812C14.5715 4.92091 16.4326 5.77196 17.8348 7.1753C19.2371 8.57864 20.0868 10.4403 20.2281 12.4191C20.3693 14.398 19.7928 16.3615 18.6042 17.9498C17.4155 19.5382 15.6943 20.645 13.7559 21.0675C11.8176 21.49 9.79187 21.1998 8.05003 20.2502C7.93983 20.1888 7.81614 20.1558 7.69003 20.154ZM27.1813 23.5152L28.2488 27.2502L24.515 26.184C24.3254 26.1295 24.122 26.152 23.9488 26.2465C22.9788 26.7752 21.9126 27.1038 20.8133 27.2127C19.714 27.3216 18.604 27.2086 17.5492 26.8804C16.4943 26.5522 15.5162 26.0156 14.6727 25.3022C13.8292 24.5889 13.1375 23.7134 12.6388 22.7277C14.0412 22.6364 15.4072 22.2428 16.6432 21.5737C17.8791 20.9047 18.9555 19.9761 19.7987 18.8517C20.6419 17.7274 21.2317 16.4339 21.5277 15.06C21.8238 13.6862 21.819 12.2645 21.5138 10.8927C22.794 11.1311 23.9996 11.6692 25.032 12.4629C26.0643 13.2566 26.8942 14.2834 27.4535 15.4594C28.0129 16.6353 28.286 17.927 28.2504 19.2288C28.2148 20.5305 27.8716 21.8053 27.2488 22.949C27.1526 23.1215 27.1283 23.3249 27.1813 23.5152Z"
    fill="currentColor" />
</svg>