<svg width="32" height="32" viewBox="0 0 32 32" fill="none" xmlns="http://www.w3.org/2000/svg">
  <path
    d="M29.385 23.6364L18.4525 4.65261C18.2014 4.22567 17.8431 3.87171 17.4132 3.62578C16.9832 3.37986 16.4965 3.25049 16.0012 3.25049C15.5059 3.25049 15.0192 3.37986 14.5892 3.62578C14.1593 3.87171 13.801 4.22567 13.55 4.65261L2.61746 23.6364C2.37682 24.0483 2.25 24.5168 2.25 24.9939C2.25 25.4709 2.37682 25.9394 2.61746 26.3514C2.8652 26.7813 3.22298 27.1375 3.65401 27.3833C4.08504 27.6292 4.57378 27.7558 5.06996 27.7501H26.9325C27.4282 27.7553 27.9164 27.6285 28.347 27.3827C28.7775 27.1369 29.1349 26.7809 29.3825 26.3514C29.6235 25.9396 29.7507 25.4713 29.7512 24.9942C29.7516 24.5171 29.6252 24.0485 29.385 23.6364ZM28.0837 25.6001C27.9669 25.801 27.7986 25.9671 27.5963 26.0813C27.3939 26.1956 27.1648 26.2538 26.9325 26.2501H5.06996C4.83761 26.2538 4.60847 26.1956 4.40612 26.0813C4.20377 25.9671 4.03553 25.801 3.91871 25.6001C3.80943 25.4163 3.75175 25.2064 3.75175 24.9926C3.75175 24.7788 3.80943 24.5689 3.91871 24.3851L14.85 5.40136C14.9695 5.20284 15.1383 5.0386 15.34 4.92458C15.5417 4.81056 15.7695 4.75064 16.0012 4.75064C16.2329 4.75064 16.4607 4.81056 16.6624 4.92458C16.8641 5.0386 17.033 5.20284 17.1525 5.40136L28.085 24.3851C28.194 24.569 28.2515 24.779 28.2513 24.9928C28.2511 25.2066 28.1932 25.4164 28.0837 25.6001ZM15.2512 18.0001V13.0001C15.2512 12.8012 15.3302 12.6104 15.4709 12.4698C15.6115 12.3291 15.8023 12.2501 16.0012 12.2501C16.2001 12.2501 16.3909 12.3291 16.5315 12.4698C16.6722 12.6104 16.7512 12.8012 16.7512 13.0001V18.0001C16.7512 18.199 16.6722 18.3898 16.5315 18.5304C16.3909 18.6711 16.2001 18.7501 16.0012 18.7501C15.8023 18.7501 15.6115 18.6711 15.4709 18.5304C15.3302 18.3898 15.2512 18.199 15.2512 18.0001ZM17.2512 22.5001C17.2512 22.7473 17.1779 22.989 17.0405 23.1946C16.9032 23.4001 16.708 23.5604 16.4796 23.655C16.2512 23.7496 15.9998 23.7743 15.7573 23.7261C15.5149 23.6779 15.2921 23.5588 15.1173 23.384C14.9425 23.2092 14.8235 22.9864 14.7752 22.744C14.727 22.5015 14.7517 22.2502 14.8464 22.0218C14.941 21.7934 15.1012 21.5981 15.3067 21.4608C15.5123 21.3234 15.754 21.2501 16.0012 21.2501C16.3327 21.2501 16.6507 21.3818 16.8851 21.6162C17.1195 21.8506 17.2512 22.1686 17.2512 22.5001Z"
    fill="currentColor" />
</svg>