<svg width="32" height="32" viewBox="0 0 32 32" fill="none" xmlns="http://www.w3.org/2000/svg">
  <path
    d="M27.5076 22.1175C26.8001 20.9 25.7488 17.4662 25.7488 13C25.7488 10.4141 24.7216 7.93419 22.8931 6.10571C21.0646 4.27723 18.5847 3.25 15.9988 3.25C13.413 3.25 10.933 4.27723 9.10452 6.10571C7.27604 7.93419 6.24881 10.4141 6.24881 13C6.24881 17.4675 5.19631 20.9 4.48881 22.1175C4.33358 22.3833 4.25121 22.6854 4.25001 22.9932C4.24882 23.301 4.32884 23.6037 4.482 23.8707C4.63516 24.1377 4.85604 24.3596 5.12235 24.514C5.38866 24.6684 5.69099 24.7498 5.99881 24.75H11.3088C11.491 25.8618 12.0624 26.8727 12.9211 27.6021C13.7797 28.3315 14.8697 28.732 15.9963 28.732C17.123 28.732 18.2129 28.3315 19.0716 27.6021C19.9302 26.8727 20.5016 25.8618 20.6838 24.75H25.9988C26.3064 24.7494 26.6084 24.6676 26.8744 24.5131C27.1404 24.3585 27.3609 24.1366 27.5137 23.8696C27.6666 23.6027 27.7464 23.3002 27.7451 22.9926C27.7438 22.685 27.6614 22.3831 27.5063 22.1175H27.5076ZM15.9988 27.25C15.2674 27.2498 14.5575 27.0029 13.9839 26.5492C13.4102 26.0955 13.0063 25.4616 12.8376 24.75H19.1601C18.9913 25.4616 18.5874 26.0955 18.0138 26.5492C17.4401 27.0029 16.7302 27.2498 15.9988 27.25ZM26.2126 23.125C26.192 23.1633 26.1613 23.1952 26.1238 23.2172C26.0863 23.2393 26.0435 23.2506 26.0001 23.25H5.99881C5.95534 23.2506 5.91254 23.2393 5.87507 23.2172C5.8376 23.1952 5.8069 23.1633 5.78631 23.125C5.76437 23.087 5.75282 23.0439 5.75282 23C5.75282 22.9561 5.76437 22.913 5.78631 22.875C6.73256 21.25 7.74881 17.4613 7.74881 13C7.74881 10.812 8.618 8.71354 10.1652 7.16637C11.7124 5.61919 13.8108 4.75 15.9988 4.75C18.1868 4.75 20.2853 5.61919 21.8324 7.16637C23.3796 8.71354 24.2488 10.812 24.2488 13C24.2488 17.46 25.2663 21.2437 26.2126 22.875C26.2345 22.913 26.2461 22.9561 26.2461 23C26.2461 23.0439 26.2345 23.087 26.2126 23.125Z"
    fill="currentColor" />
</svg>