<svg width="33" height="32" viewBox="0 0 33 32" fill="none" xmlns="http://www.w3.org/2000/svg">
  <path
    d="M20.3329 27.445C20.4334 27.5956 20.4911 27.7707 20.4999 27.9516C20.5086 28.1325 20.4681 28.3123 20.3826 28.472C20.2972 28.6316 20.17 28.7651 20.0146 28.8581C19.8592 28.9511 19.6815 29.0001 19.5004 29H3.50039C3.32072 29.0001 3.14435 28.9517 2.98982 28.8601C2.8353 28.7684 2.70832 28.6368 2.62224 28.4791C2.53616 28.3214 2.49416 28.1434 2.50065 27.9639C2.50715 27.7843 2.56189 27.6098 2.65914 27.4587L7.15914 20.4587C7.24968 20.3179 7.37416 20.202 7.52114 20.1217C7.66813 20.0415 7.83292 19.9994 8.00039 19.9994C8.16786 19.9994 8.33265 20.0415 8.47963 20.1217C8.62662 20.202 8.7511 20.3179 8.84164 20.4587L10.0616 22.3563L12.6679 18.445C12.7592 18.3078 12.8829 18.1953 13.0282 18.1175C13.1734 18.0397 13.3356 17.999 13.5004 17.999C13.6652 17.999 13.8274 18.0397 13.9726 18.1175C14.1178 18.1953 14.2416 18.3078 14.3329 18.445L20.3329 27.445ZM27.5004 11V27C27.5004 27.5304 27.2897 28.0391 26.9146 28.4142C26.5395 28.7893 26.0308 29 25.5004 29H24.5004C24.2352 29 23.9808 28.8946 23.7933 28.7071C23.6057 28.5196 23.5004 28.2652 23.5004 28C23.5004 27.7348 23.6057 27.4804 23.7933 27.2929C23.9808 27.1054 24.2352 27 24.5004 27H25.5004V12H19.5004C19.2352 12 18.9808 11.8946 18.7933 11.7071C18.6057 11.5196 18.5004 11.2652 18.5004 11V5H7.50039V17C7.50039 17.2652 7.39503 17.5196 7.2075 17.7071C7.01996 17.8946 6.7656 18 6.50039 18C6.23517 18 5.98082 17.8946 5.79328 17.7071C5.60575 17.5196 5.50039 17.2652 5.50039 17V5C5.50039 4.46957 5.7111 3.96086 6.08617 3.58579C6.46125 3.21071 6.96996 3 7.50039 3H19.5004C19.6318 2.9999 19.7618 3.02568 19.8832 3.07586C20.0046 3.12605 20.115 3.19967 20.2079 3.2925L27.2079 10.2925C27.3007 10.3854 27.3743 10.4958 27.4245 10.6172C27.4747 10.7385 27.5005 10.8686 27.5004 11ZM20.5004 10H24.0866L20.5004 6.41375V10Z"
    fill="#004737" />
</svg>