<svg width="32" height="32" viewBox="0 0 32 32" fill="none" xmlns="http://www.w3.org/2000/svg">
  <path
    d="M28.53 13.5298L22.53 19.5298C22.3878 19.6623 22.1998 19.7344 22.0055 19.731C21.8112 19.7276 21.6258 19.6489 21.4884 19.5115C21.351 19.3741 21.2723 19.1887 21.2688 18.9944C21.2654 18.8001 21.3375 18.612 21.47 18.4698L26.1887 13.7498H20.625C18.13 13.7478 15.7052 14.5757 13.7325 16.1033C11.7598 17.6309 10.3513 19.7712 9.72875 22.1873C9.67902 22.38 9.55481 22.5449 9.38345 22.646C9.21209 22.747 9.00761 22.7758 8.815 22.7261C8.62239 22.6764 8.45742 22.5522 8.35638 22.3808C8.25535 22.2094 8.22652 22.005 8.27625 21.8123C8.98189 19.0742 10.5782 16.6486 12.8138 14.9174C15.0495 13.1862 17.7974 12.2478 20.625 12.2498H26.1912L21.47 7.52985C21.3375 7.38767 21.2654 7.19963 21.2688 7.00532C21.2723 6.81102 21.351 6.62564 21.4884 6.48822C21.6258 6.35081 21.8112 6.2721 22.0055 6.26867C22.1998 6.26524 22.3878 6.33737 22.53 6.46985L28.53 12.4698C28.6705 12.6105 28.7493 12.8011 28.7493 12.9998C28.7493 13.1986 28.6705 13.3892 28.53 13.5298ZM24 26.2498H5C4.9337 26.2498 4.87011 26.2235 4.82322 26.1766C4.77634 26.1297 4.75 26.0662 4.75 25.9998V10.9998C4.75 10.8009 4.67098 10.6102 4.53033 10.4695C4.38968 10.3289 4.19891 10.2498 4 10.2498C3.80109 10.2498 3.61032 10.3289 3.46967 10.4695C3.32902 10.6102 3.25 10.8009 3.25 10.9998V25.9998C3.25 26.464 3.43437 26.9091 3.76256 27.2373C4.09075 27.5655 4.53587 27.7498 5 27.7498H24C24.1989 27.7498 24.3897 27.6708 24.5303 27.5302C24.671 27.3895 24.75 27.1988 24.75 26.9998C24.75 26.8009 24.671 26.6102 24.5303 26.4695C24.3897 26.3289 24.1989 26.2498 24 26.2498Z"
    fill="currentColor" />
</svg>