<svg width="32" height="32" viewBox="0 0 32 32" fill="none" xmlns="http://www.w3.org/2000/svg">
  <path
    d="M14.0731 19.8039C15.4658 19.0145 16.5581 17.7863 17.1795 16.3109C17.801 14.8355 17.9166 13.196 17.5084 11.648C17.1002 10.1 16.1911 8.73064 14.923 7.75355C13.6549 6.77646 12.099 6.24658 10.4981 6.24658C8.89716 6.24658 7.34127 6.77646 6.07313 7.75355C4.80498 8.73064 3.8959 10.1 3.4877 11.648C3.07951 13.196 3.19515 14.8355 3.81659 16.3109C4.43803 17.7863 5.53033 19.0145 6.92307 19.8039C4.34178 20.6268 2.125 22.318 0.649316 24.5901C0.540577 24.7567 0.502469 24.9597 0.543375 25.1544C0.584282 25.349 0.700852 25.5195 0.867441 25.6282C1.03403 25.737 1.23699 25.7751 1.43168 25.7342C1.62636 25.6933 1.79683 25.5767 1.90557 25.4101C2.83633 23.979 4.10978 22.8031 5.61031 21.9891C7.11085 21.175 8.79094 20.7486 10.4981 20.7486C12.2052 20.7486 13.8853 21.175 15.3858 21.9891C16.8864 22.8031 18.1598 23.979 19.0906 25.4101C19.2064 25.5586 19.3738 25.658 19.5596 25.6887C19.7453 25.7194 19.9358 25.6791 20.0932 25.5759C20.2507 25.4726 20.3635 25.3139 20.4093 25.1313C20.4551 24.9486 20.4306 24.7555 20.3406 24.5901C18.8665 22.3191 16.652 20.6281 14.0731 19.8039ZM4.74807 13.5001C4.74807 12.3629 5.0853 11.2512 5.71712 10.3056C6.34893 9.36001 7.24696 8.62302 8.29764 8.18781C9.34831 7.75261 10.5044 7.63874 11.6198 7.8606C12.7352 8.08247 13.7598 8.6301 14.5639 9.43426C15.3681 10.2384 15.9157 11.263 16.1376 12.3784C16.3594 13.4937 16.2456 14.6499 15.8104 15.7006C15.3752 16.7512 14.6382 17.6493 13.6926 18.2811C12.747 18.9129 11.6353 19.2501 10.4981 19.2501C8.97368 19.2481 7.5123 18.6417 6.43439 17.5638C5.35649 16.4859 4.75005 15.0245 4.74807 13.5001ZM31.1231 25.6251C30.9566 25.7337 30.7538 25.7719 30.5593 25.7311C30.3648 25.6903 30.1944 25.574 30.0856 25.4076C29.1565 23.9764 27.884 22.8005 26.384 21.987C24.8841 21.1735 23.2044 20.7483 21.4981 20.7501C21.2992 20.7501 21.1084 20.6711 20.9677 20.5305C20.8271 20.3898 20.7481 20.199 20.7481 20.0001C20.7481 19.8012 20.8271 19.6104 20.9677 19.4698C21.1084 19.3291 21.2992 19.2501 21.4981 19.2501C22.3448 19.2493 23.1809 19.0614 23.9466 18.7C24.7123 18.3386 25.3888 17.8125 25.9276 17.1594C26.4665 16.5062 26.8544 15.7421 27.0638 14.9217C27.2731 14.1013 27.2987 13.2447 27.1386 12.4132C26.9786 11.5818 26.6369 10.7959 26.1379 10.1118C25.6389 9.42771 24.9951 8.86224 24.2522 8.45582C23.5094 8.04939 22.686 7.81203 21.8409 7.7607C20.9957 7.70937 20.1496 7.84533 19.3631 8.15887C19.2715 8.19638 19.1733 8.21538 19.0744 8.21479C18.9754 8.21419 18.8775 8.19401 18.7863 8.1554C18.6952 8.11679 18.6126 8.06052 18.5433 7.98984C18.474 7.91915 18.4194 7.83545 18.3826 7.74356C18.3458 7.65166 18.3276 7.5534 18.3289 7.45442C18.3303 7.35545 18.3513 7.25772 18.3906 7.16688C18.4299 7.07604 18.4868 6.99388 18.558 6.92514C18.6293 6.8564 18.7134 6.80244 18.8056 6.76637C20.5116 6.08621 22.4122 6.07889 24.1234 6.74587C25.8346 7.41286 27.2289 8.70444 28.0247 10.3597C28.8204 12.015 28.9583 13.9106 28.4104 15.6636C27.8625 17.4166 26.6698 18.8963 25.0731 19.8039C27.6544 20.6268 29.8711 22.318 31.3468 24.5901C31.4541 24.7571 31.4907 24.9599 31.4488 25.1539C31.4069 25.3479 31.2897 25.5173 31.1231 25.6251Z"
    fill="currentColor" />
</svg>