<svg width="32" height="32" viewBox="0 0 32 32" fill="none" xmlns="http://www.w3.org/2000/svg">
  <path
    d="M28.92 14.5235L10.91 3.50727C10.6444 3.34432 10.34 3.25527 10.0284 3.24934C9.71676 3.24341 9.40921 3.3208 9.13753 3.47352C8.86729 3.62193 8.64217 3.84058 8.48595 4.10637C8.32973 4.37217 8.24822 4.67523 8.25003 4.98352V27.016C8.24822 27.3243 8.32973 27.6274 8.48595 27.8932C8.64217 28.159 8.86729 28.3776 9.13753 28.526C9.40921 28.6787 9.71676 28.7561 10.0284 28.7502C10.34 28.7443 10.6444 28.6552 10.91 28.4923L28.92 17.476C29.1735 17.322 29.3831 17.1052 29.5285 16.8466C29.674 16.5881 29.7503 16.2964 29.7503 15.9998C29.7503 15.7031 29.674 15.4115 29.5285 15.1529C29.3831 14.8943 29.1735 14.6776 28.92 14.5235ZM28.1375 16.196L10.125 27.2123C10.0861 27.2356 10.0416 27.248 9.99628 27.248C9.95092 27.248 9.90641 27.2356 9.86753 27.2123C9.82985 27.1939 9.79813 27.1653 9.77602 27.1297C9.7539 27.0941 9.74229 27.0529 9.74253 27.011V4.98352C9.74229 4.94161 9.7539 4.90048 9.77602 4.86488C9.79813 4.82927 9.82985 4.80064 9.86753 4.78227C9.90797 4.75972 9.95374 4.7485 10 4.74977C10.0444 4.75136 10.0875 4.76474 10.125 4.78852L28.1375 15.8035C28.1718 15.8236 28.2001 15.8523 28.2199 15.8867C28.2396 15.9211 28.25 15.9601 28.25 15.9998C28.25 16.0394 28.2396 16.0784 28.2199 16.1129C28.2001 16.1473 28.1718 16.176 28.1375 16.196Z"
    fill="currentColor" />
</svg>