<svg width="32" height="32" viewBox="0 0 32 32" fill="none" xmlns="http://www.w3.org/2000/svg">
  <path
    d="M21.9994 20.2501C21.3314 20.2499 20.671 20.3908 20.0613 20.6638C19.4517 20.9367 18.9066 21.3355 18.4619 21.8339L12.3494 17.9051C12.6132 17.3046 12.7494 16.656 12.7494 16.0001C12.7494 15.3443 12.6132 14.6956 12.3494 14.0951L18.4619 10.1664C19.2594 11.0559 20.3627 11.6122 21.5521 11.7246C22.7414 11.8369 23.9294 11.4969 24.8793 10.7725C25.8292 10.048 26.4712 8.99215 26.6774 7.81543C26.8836 6.63871 26.6388 5.42751 25.9919 4.42322C25.3449 3.41892 24.3432 2.69529 23.1866 2.39654C22.0299 2.09779 20.8031 2.24586 19.7507 2.81124C18.6983 3.37663 17.8976 4.3178 17.5082 5.44719C17.1187 6.57658 17.1692 7.81124 17.6494 8.90511L11.5369 12.8339C10.8956 12.1167 10.0517 11.6112 9.11683 11.3842C8.18195 11.1572 7.20018 11.2195 6.30145 11.5627C5.40272 11.9059 4.62939 12.5139 4.0838 13.3063C3.53822 14.0987 3.24609 15.0381 3.24609 16.0001C3.24609 16.9621 3.53822 17.9015 4.0838 18.6939C4.62939 19.4863 5.40272 20.0943 6.30145 20.4375C7.20018 20.7807 8.18195 20.843 9.11683 20.616C10.0517 20.389 10.8956 19.8835 11.5369 19.1664L17.6494 23.0951C17.2391 24.0324 17.1423 25.0771 17.3736 26.0737C17.6049 27.0704 18.1518 27.9658 18.9329 28.6266C19.714 29.2874 20.6877 29.6783 21.7089 29.7411C22.7301 29.804 23.7443 29.5354 24.6006 28.9754C25.4569 28.4154 26.1094 27.5938 26.4612 26.633C26.8129 25.6722 26.845 24.6236 26.5527 23.6431C26.2604 22.6625 25.6593 21.8026 24.8389 21.1913C24.0184 20.5799 23.0226 20.2498 21.9994 20.2501ZM21.9994 3.75011C22.6422 3.75011 23.2705 3.94071 23.805 4.29783C24.3395 4.65494 24.756 5.16252 25.002 5.75638C25.248 6.35024 25.3124 7.00371 25.187 7.63415C25.0616 8.26459 24.752 8.84368 24.2975 9.2982C23.843 9.75272 23.2639 10.0623 22.6334 10.1877C22.003 10.3131 21.3495 10.2487 20.7557 10.0027C20.1618 9.75673 19.6542 9.34017 19.2971 8.80571C18.94 8.27125 18.7494 7.64289 18.7494 7.00011C18.7494 6.13815 19.0918 5.3115 19.7013 4.70201C20.3108 4.09251 21.1375 3.75011 21.9994 3.75011ZM7.99941 19.2501C7.35662 19.2501 6.72826 19.0595 6.1938 18.7024C5.65934 18.3453 5.24278 17.8377 4.9968 17.2438C4.75081 16.65 4.68645 15.9965 4.81186 15.3661C4.93726 14.7356 5.24679 14.1565 5.70131 13.702C6.15583 13.2475 6.73493 12.938 7.36536 12.8126C7.9958 12.6872 8.64927 12.7515 9.24313 12.9975C9.83699 13.2435 10.3446 13.66 10.7017 14.1945C11.0588 14.729 11.2494 15.3573 11.2494 16.0001C11.2494 16.8621 10.907 17.6887 10.2975 18.2982C9.68801 18.9077 8.86136 19.2501 7.99941 19.2501ZM21.9994 28.2501C21.3566 28.2501 20.7283 28.0595 20.1938 27.7024C19.6593 27.3453 19.2428 26.8377 18.9968 26.2438C18.7508 25.65 18.6865 24.9965 18.8119 24.3661C18.9373 23.7356 19.2468 23.1565 19.7013 22.702C20.1558 22.2475 20.7349 21.938 21.3654 21.8126C21.9958 21.6872 22.6493 21.7515 23.2431 21.9975C23.837 22.2435 24.3446 22.66 24.7017 23.1945C25.0588 23.729 25.2494 24.3573 25.2494 25.0001C25.2494 25.4269 25.1653 25.8495 25.002 26.2438C24.8387 26.6381 24.5993 26.9964 24.2975 27.2982C23.9957 27.6 23.6374 27.8394 23.2431 28.0027C22.8488 28.166 22.4262 28.2501 21.9994 28.2501Z"
    fill="currentColor" />
</svg>