<svg width="36" height="26" viewBox="0 0 36 26" fill="none" xmlns="http://www.w3.org/2000/svg">
<path d="M8.02422 0.980268C10.2242 0.980268 12.0576 1.73027 13.5242 3.23027C14.9575 4.76361 15.6742 6.94694 15.6742 9.78027C15.6742 12.3803 15.1742 14.6803 14.1742 16.6803C13.1742 18.6803 11.9242 20.3803 10.4242 21.7803C8.92422 23.1803 7.40755 24.2636 5.87422 25.0303L3.22422 22.0303C4.05755 21.6969 5.00755 21.0636 6.07422 20.1303C7.10755 19.2303 8.02422 18.1803 8.82422 16.9803C9.59088 15.8136 10.0076 14.6303 10.0742 13.4303C9.77422 13.8303 9.25755 14.1636 8.52422 14.4303C7.79088 14.6969 7.02422 14.8303 6.22421 14.8303C4.72422 14.8303 3.39088 14.2803 2.22422 13.1803C1.02422 12.1136 0.424213 10.5969 0.424213 8.63027C0.424213 6.29694 1.15755 4.43027 2.62422 3.03027C4.05755 1.6636 5.85755 0.980268 8.02422 0.980268ZM27.9242 0.980268C30.1242 0.980268 31.9576 1.73027 33.4242 3.23027C34.8576 4.76361 35.5742 6.94694 35.5742 9.78027C35.5742 12.3803 35.0742 14.6803 34.0742 16.6803C33.0742 18.6803 31.8242 20.3803 30.3242 21.7803C28.8242 23.1803 27.3076 24.2636 25.7742 25.0303L23.1242 22.0303C23.9576 21.6969 24.9076 21.0636 25.9742 20.1303C27.0076 19.2303 27.9242 18.1803 28.7242 16.9803C29.4909 15.8136 29.9076 14.6303 29.9742 13.4303C29.6742 13.8303 29.1576 14.1636 28.4242 14.4303C27.6909 14.6969 26.9242 14.8303 26.1242 14.8303C24.6242 14.8303 23.2909 14.2803 22.1242 13.1803C20.9242 12.1136 20.3242 10.5969 20.3242 8.63027C20.3242 6.29694 21.0576 4.43027 22.5242 3.03027C23.9576 1.6636 25.7576 0.980268 27.9242 0.980268Z" fill="#0A1A2D"/>
</svg>
