<svg width="14" height="8" viewBox="0 0 14 8" fill="none" xmlns="http://www.w3.org/2000/svg">
<path
    d="M3.60253 2.15771L3.49996 2.40391L3.60253 2.15771C3.58288 2.14953 3.56499 2.13765 3.54981 2.12274L3.35945 1.92582L2.49996 1.03669V2.27333V7.33333C2.49996 7.37754 2.4824 7.41993 2.45115 7.45119C2.41989 7.48244 2.3775 7.5 2.33329 7.5C2.28909 7.5 2.2467 7.48244 2.21544 7.45119C2.18419 7.41993 2.16663 7.37754 2.16663 7.33333V2.27333V1.03669L1.30713 1.92582L1.11772 2.12177C1.08616 2.15229 1.04394 2.16939 0.999961 2.16939C0.955034 2.16939 0.911948 2.15155 0.880181 2.11978L0.526627 2.47333L0.880181 2.11978C0.848413 2.08801 0.830566 2.04493 0.830566 2C0.830566 1.95507 0.848413 1.91199 0.880181 1.88022L2.20837 0.552032C2.22364 0.538041 2.24139 0.527012 2.26071 0.519518L2.26075 0.51961L2.26996 0.515827C2.31054 0.499157 2.35605 0.499157 2.39663 0.515827L2.39659 0.515918L2.40587 0.519518C2.4252 0.527012 2.44295 0.538042 2.45822 0.552034L3.78641 1.88022L3.7864 1.88022L3.78786 1.88167C3.80348 1.89716 3.81588 1.91559 3.82434 1.9359C3.8328 1.95621 3.83716 1.978 3.83716 2C3.83716 2.022 3.8328 2.04379 3.82434 2.0641C3.81588 2.08441 3.80348 2.10284 3.78786 2.11833L3.78785 2.11832L3.78496 2.12123C3.76947 2.13685 3.75103 2.14925 3.73072 2.15771L3.73072 2.15771C3.71041 2.16618 3.68863 2.17053 3.66663 2.17053C3.64463 2.17053 3.62284 2.16618 3.60253 2.15771ZM13 0.833333H6.33329C6.28909 0.833333 6.2467 0.815774 6.21544 0.784518L5.86189 1.13807L6.21544 0.784518C6.18419 0.753261 6.16663 0.710869 6.16663 0.666667C6.16663 0.622464 6.18419 0.580072 6.21544 0.548816C6.2467 0.51756 6.28909 0.5 6.33329 0.5H13C13.0442 0.5 13.0866 0.517559 13.1178 0.548815C13.1491 0.58007 13.1666 0.622463 13.1666 0.666667C13.1666 0.710871 13.1491 0.753263 13.1178 0.784517C13.0866 0.815774 13.0442 0.833333 13 0.833333ZM6.21544 3.88215L5.86189 3.5286L6.21544 3.88215C6.2467 3.85089 6.28909 3.83333 6.33329 3.83333H13C13.0442 3.83333 13.0866 3.85089 13.1178 3.88215C13.1491 3.9134 13.1666 3.9558 13.1666 4C13.1666 4.0442 13.1491 4.0866 13.1178 4.11785C13.0866 4.14911 13.0442 4.16667 13 4.16667H6.33329C6.28909 4.16667 6.2467 4.14911 6.21544 4.11785C6.18419 4.08659 6.16663 4.0442 6.16663 4C6.16663 3.9558 6.18419 3.91341 6.21544 3.88215ZM6.33329 7.16667H13C13.0442 7.16667 13.0866 7.18423 13.1178 7.21548C13.1491 7.24674 13.1666 7.28913 13.1666 7.33333C13.1666 7.37754 13.1491 7.41993 13.1178 7.45118C13.0866 7.48244 13.0442 7.5 13 7.5H6.33329C6.28909 7.5 6.2467 7.48244 6.21544 7.45119C6.18419 7.41993 6.16663 7.37754 6.16663 7.33333C6.16663 7.28913 6.18419 7.24674 6.21544 7.21548C6.2467 7.18423 6.28909 7.16667 6.33329 7.16667Z"
    fill="currentColor" stroke="currentColor" />
</svg>
