<svg width="40" height="40" viewBox="0 0 40 40" fill="none" xmlns="http://www.w3.org/2000/svg">
    <path d="M37.9159 17.8889V35.5556C37.9159 36.7778 37.5261 37.8241 36.7464 38.6944C35.9667 39.5648 35.0295 40 33.9346 40H6.06541C4.97055 40 4.03328 39.5648 3.25361 38.6944C2.47393 37.8241 2.0841 36.7778 2.0841 35.5556V17.8889C1.32101 17.1111 0.732108 16.1111 0.317388 14.8889C-0.0973322 13.6667 -0.105627 12.3333 0.292505 10.8889L2.38269 3.33333C2.64811 2.37037 3.1209 1.57407 3.80104 0.944444C4.48118 0.314815 5.26914 0 6.16494 0H33.8351C34.7309 0 35.5105 0.305556 36.1741 0.916667C36.8376 1.52778 37.3187 2.33333 37.6173 3.33333L39.7075 10.8889C40.1056 12.3333 40.0973 13.6481 39.6826 14.8333C39.2679 16.0185 38.679 17.037 37.9159 17.8889ZM24.3794 15.5556C25.2752 15.5556 25.9554 15.213 26.4199 14.5278C26.8844 13.8426 27.0668 13.0741 26.9673 12.2222L25.8724 4.44444H21.9907V12.6667C21.9907 13.4444 22.2229 14.1204 22.6874 14.6944C23.1519 15.2685 23.7159 15.5556 24.3794 15.5556ZM15.4215 15.5556C16.1846 15.5556 16.8067 15.2685 17.2877 14.6944C17.7688 14.1204 18.0093 13.4444 18.0093 12.6667V4.44444H14.1276L13.0327 12.2222C12.9 13.1111 13.0742 13.8889 13.5553 14.5556C14.0363 15.2222 14.6584 15.5556 15.4215 15.5556ZM6.56307 15.5556C7.16027 15.5556 7.68281 15.3148 8.13071 14.8333C8.57861 14.3519 8.85233 13.7407 8.95186 13L10.0467 4.44444H6.16494L4.17428 11.8889C3.97522 12.6296 4.08305 13.4259 4.49777 14.2778C4.91249 15.1296 5.60092 15.5556 6.56307 15.5556ZM33.4369 15.5556C34.3991 15.5556 35.0958 15.1296 35.5271 14.2778C35.9584 13.4259 36.058 12.6296 35.8257 11.8889L33.7355 4.44444H29.9533L31.0481 13C31.1477 13.7407 31.4214 14.3519 31.8693 14.8333C32.3172 15.3148 32.8397 15.5556 33.4369 15.5556ZM6.06541 35.5556H33.9346V19.8889C33.7687 19.963 33.6609 20 33.6111 20H33.4369C32.5411 20 31.7532 19.8333 31.073 19.5C30.3929 19.1667 29.721 18.6296 29.0575 17.8889C28.4603 18.5556 27.7801 19.0741 27.0171 19.4444C26.254 19.8148 25.4411 20 24.5785 20C23.6827 20 22.845 19.8148 22.0653 19.4444C21.2856 19.0741 20.5972 18.5556 20 17.8889C19.436 18.5556 18.7807 19.0741 18.0342 19.4444C17.2877 19.8148 16.4832 20 15.6206 20C14.6584 20 13.7875 19.8148 13.0078 19.4444C12.2281 19.0741 11.5397 18.5556 10.9425 17.8889C10.2458 18.6667 9.55735 19.213 8.87721 19.5278C8.19707 19.8426 7.42569 20 6.56307 20H6.33912C6.25618 20 6.16494 19.963 6.06541 19.8889V35.5556Z" fill="black"/>
    </svg>
    