<svg width="50" height="50" viewBox="0 0 50 50" fill="none" xmlns="http://www.w3.org/2000/svg">
    <path d="M0 38V34.7188C0 33.2257 0.763889 32.0104 2.29167 31.0729C3.81944 30.1354 5.83333 29.6667 8.33333 29.6667C8.78472 29.6667 9.21875 29.6753 9.63542 29.6927C10.0521 29.7101 10.4514 29.7535 10.8333 29.8229C10.3472 30.5521 9.98264 31.316 9.73958 32.1146C9.49653 32.9132 9.375 33.7465 9.375 34.6146V38H0ZM12.5 38V34.6146C12.5 33.5035 12.8038 32.4878 13.4115 31.5677C14.0191 30.6476 14.8785 29.8403 15.9896 29.1458C17.1007 28.4514 18.4288 27.9306 19.974 27.5833C21.5191 27.2361 23.1944 27.0625 25 27.0625C26.8403 27.0625 28.533 27.2361 30.0781 27.5833C31.6233 27.9306 32.9514 28.4514 34.0625 29.1458C35.1736 29.8403 36.0243 30.6476 36.6146 31.5677C37.2049 32.4878 37.5 33.5035 37.5 34.6146V38H12.5ZM40.625 38V34.6146C40.625 33.7118 40.5122 32.8611 40.2865 32.0625C40.0608 31.2639 39.7222 30.5174 39.2708 29.8229C39.6528 29.7535 40.0434 29.7101 40.4427 29.6927C40.842 29.6753 41.25 29.6667 41.6667 29.6667C44.1667 29.6667 46.1806 30.1267 47.7083 31.0469C49.2361 31.967 50 33.191 50 34.7188V38H40.625ZM16.9271 33.8333H33.125C32.7778 33.1389 31.8142 32.5312 30.2344 32.0104C28.6545 31.4896 26.9097 31.2292 25 31.2292C23.0903 31.2292 21.3455 31.4896 19.7656 32.0104C18.1858 32.5312 17.2396 33.1389 16.9271 33.8333ZM8.33333 27.5833C7.1875 27.5833 6.2066 27.1753 5.39062 26.3594C4.57465 25.5434 4.16667 24.5625 4.16667 23.4167C4.16667 22.2361 4.57465 21.2465 5.39062 20.4479C6.2066 19.6493 7.1875 19.25 8.33333 19.25C9.51389 19.25 10.5035 19.6493 11.3021 20.4479C12.1007 21.2465 12.5 22.2361 12.5 23.4167C12.5 24.5625 12.1007 25.5434 11.3021 26.3594C10.5035 27.1753 9.51389 27.5833 8.33333 27.5833ZM41.6667 27.5833C40.5208 27.5833 39.5399 27.1753 38.724 26.3594C37.908 25.5434 37.5 24.5625 37.5 23.4167C37.5 22.2361 37.908 21.2465 38.724 20.4479C39.5399 19.6493 40.5208 19.25 41.6667 19.25C42.8472 19.25 43.8368 19.6493 44.6354 20.4479C45.434 21.2465 45.8333 22.2361 45.8333 23.4167C45.8333 24.5625 45.434 25.5434 44.6354 26.3594C43.8368 27.1753 42.8472 27.5833 41.6667 27.5833ZM25 25.5C23.2639 25.5 21.7882 24.8924 20.5729 23.6771C19.3576 22.4618 18.75 20.9861 18.75 19.25C18.75 17.4792 19.3576 15.9948 20.5729 14.7969C21.7882 13.599 23.2639 13 25 13C26.7708 13 28.2552 13.599 29.4531 14.7969C30.651 15.9948 31.25 17.4792 31.25 19.25C31.25 20.9861 30.651 22.4618 29.4531 23.6771C28.2552 24.8924 26.7708 25.5 25 25.5ZM25 21.3333C25.5903 21.3333 26.0851 21.1337 26.4844 20.7344C26.8837 20.3351 27.0833 19.8403 27.0833 19.25C27.0833 18.6597 26.8837 18.1649 26.4844 17.7656C26.0851 17.3663 25.5903 17.1667 25 17.1667C24.4097 17.1667 23.9149 17.3663 23.5156 17.7656C23.1163 18.1649 22.9167 18.6597 22.9167 19.25C22.9167 19.8403 23.1163 20.3351 23.5156 20.7344C23.9149 21.1337 24.4097 21.3333 25 21.3333Z" fill="currentColor"/>
    </svg>
    