<svg width="32" height="32" viewBox="0 0 32 32" fill="none" xmlns="http://www.w3.org/2000/svg">
  <path
    d="M27.7493 15.9998C27.7493 16.1988 27.6703 16.3895 27.5297 16.5302C27.389 16.6708 27.1983 16.7498 26.9993 16.7498H6.81059L14.5293 24.4698C14.603 24.5385 14.6621 24.6213 14.7031 24.7133C14.7441 24.8053 14.7662 24.9046 14.7679 25.0053C14.7697 25.106 14.7512 25.2061 14.7135 25.2994C14.6757 25.3928 14.6196 25.4777 14.5484 25.5489C14.4772 25.6201 14.3923 25.6762 14.2989 25.714C14.2055 25.7517 14.1055 25.7702 14.0048 25.7684C13.9041 25.7667 13.8048 25.7446 13.7128 25.7036C13.6208 25.6626 13.538 25.6035 13.4693 25.5298L4.46934 16.5298C4.32889 16.3892 4.25 16.1986 4.25 15.9998C4.25 15.8011 4.32889 15.6105 4.46934 15.4698L13.4693 6.46985C13.6115 6.33737 13.7996 6.26524 13.9939 6.26867C14.1882 6.2721 14.3735 6.35081 14.511 6.48822C14.6484 6.62564 14.7271 6.81102 14.7305 7.00532C14.7339 7.19963 14.6618 7.38767 14.5293 7.52985L6.81059 15.2498H26.9993C27.1983 15.2498 27.389 15.3289 27.5297 15.4695C27.6703 15.6102 27.7493 15.8009 27.7493 15.9998Z"
    fill="currentColor" />
</svg>