<svg width="32" height="32" viewBox="0 0 32 32" fill="none" xmlns="http://www.w3.org/2000/svg">
  <path
    d="M25.5308 14.5298C25.3902 14.6703 25.1996 14.7492 25.0008 14.7492C24.8021 14.7492 24.6114 14.6703 24.4708 14.5298L16.7508 6.81108V26.9998C16.7508 27.1987 16.6718 27.3895 16.5312 27.5302C16.3905 27.6708 16.1997 27.7498 16.0008 27.7498C15.8019 27.7498 15.6111 27.6708 15.4705 27.5302C15.3298 27.3895 15.2508 27.1987 15.2508 26.9998V6.81108L7.53082 14.5298C7.38865 14.6623 7.2006 14.7344 7.0063 14.731C6.812 14.7276 6.62661 14.6489 6.4892 14.5114C6.35179 14.374 6.27308 14.1887 6.26965 13.9944C6.26622 13.8 6.33834 13.612 6.47082 13.4698L15.4708 4.46983C15.6114 4.32938 15.8021 4.25049 16.0008 4.25049C16.1996 4.25049 16.3902 4.32938 16.5308 4.46983L25.5308 13.4698C25.6713 13.6105 25.7502 13.8011 25.7502 13.9998C25.7502 14.1986 25.6713 14.3892 25.5308 14.5298Z"
    fill="currentColor" />
</svg>