<svg width="32" height="32" viewBox="0 0 32 32" fill="none" xmlns="http://www.w3.org/2000/svg">
  <path
    d="M20.5317 11.4689C20.6014 11.5386 20.6568 11.6213 20.6945 11.7123C20.7322 11.8034 20.7517 11.901 20.7517 11.9995C20.7517 12.0981 20.7322 12.1957 20.6945 12.2867C20.6568 12.3778 20.6014 12.4605 20.5317 12.5302L12.5317 20.5302C12.3907 20.669 12.2006 20.7465 12.0028 20.7459C11.8049 20.7452 11.6154 20.6663 11.4754 20.5265C11.3354 20.3867 11.2563 20.1972 11.2554 19.9993C11.2545 19.8015 11.3318 19.6113 11.4705 19.4702L19.4704 11.4702C19.54 11.4004 19.6227 11.3449 19.7137 11.3071C19.8047 11.2692 19.9023 11.2497 20.0008 11.2496C20.0994 11.2495 20.197 11.2688 20.2881 11.3064C20.3792 11.344 20.462 11.3993 20.5317 11.4689ZM26.7754 5.22517C25.5084 3.96096 23.7916 3.25098 22.0017 3.25098C20.2118 3.25098 18.495 3.96096 17.228 5.22517L13.4692 8.98142C13.3285 9.12215 13.2494 9.31302 13.2494 9.51204C13.2494 9.71106 13.3285 9.90194 13.4692 10.0427C13.6099 10.1834 13.8008 10.2625 13.9998 10.2625C14.1988 10.2625 14.3897 10.1834 14.5304 10.0427L18.2892 6.28517C19.274 5.30038 20.6096 4.74714 22.0023 4.74714C23.395 4.74714 24.7307 5.30038 25.7155 6.28517C26.7002 7.26995 27.2535 8.6056 27.2535 9.99829C27.2535 11.391 26.7002 12.7266 25.7155 13.7114L21.9555 17.4702C21.8858 17.5398 21.8305 17.6226 21.7928 17.7136C21.7551 17.8047 21.7357 17.9022 21.7357 18.0008C21.7357 18.0993 21.7551 18.1969 21.7928 18.288C21.8305 18.379 21.8858 18.4617 21.9555 18.5314C22.0251 18.6011 22.1079 18.6564 22.1989 18.6941C22.2899 18.7318 22.3875 18.7512 22.4861 18.7512C22.5846 18.7512 22.6822 18.7318 22.7732 18.6941C22.8643 18.6564 22.947 18.6011 23.0167 18.5314L26.7754 14.7727C27.4025 14.1458 27.8999 13.4016 28.2392 12.5825C28.5786 11.7634 28.7533 10.8855 28.7533 9.99892C28.7533 9.11231 28.5786 8.23439 28.2392 7.41529C27.8999 6.5962 27.4025 5.85199 26.7754 5.22517ZM17.4704 21.9552L13.7117 25.7152C12.7269 26.6999 11.3913 27.2532 9.99858 27.2532C8.60588 27.2532 7.27023 26.6999 6.28545 25.7152C5.30067 24.7304 4.74742 23.3947 4.74742 22.002C4.74742 20.6093 5.30067 19.2737 6.28545 18.2889L10.0429 14.5302C10.1837 14.3894 10.2627 14.1986 10.2627 13.9995C10.2627 13.8005 10.1837 13.6096 10.0429 13.4689C9.90222 13.3282 9.71135 13.2491 9.51233 13.2491C9.3133 13.2491 9.12243 13.3282 8.9817 13.4689L5.2317 17.2277C3.96546 18.4937 3.25402 20.211 3.25391 22.0016C3.25379 23.7922 3.965 25.5095 5.23108 26.7758C6.49715 28.042 8.21439 28.7535 10.005 28.7536C11.7956 28.7537 13.513 28.0425 14.7792 26.7764L18.538 23.0164C18.6076 22.9467 18.6629 22.864 18.7006 22.773C18.7383 22.6819 18.7577 22.5843 18.7577 22.4858C18.7577 22.3872 18.7383 22.2897 18.7006 22.1986C18.6629 22.1076 18.6076 22.0248 18.538 21.9552C18.4683 21.8855 18.3855 21.8302 18.2945 21.7925C18.2035 21.7548 18.1059 21.7354 18.0073 21.7354C17.9088 21.7354 17.8112 21.7548 17.7202 21.7925C17.6291 21.8302 17.5464 21.8855 17.4767 21.9552H17.4704Z"
    fill="currentColor" />
</svg>