<svg width="32" height="32" viewBox="0 0 32 32" fill="none" xmlns="http://www.w3.org/2000/svg">
  <path
    d="M27.0005 13.25H10.8355L26.1917 9.19627C26.2875 9.17103 26.3773 9.12709 26.456 9.06696C26.5347 9.00684 26.6007 8.93173 26.6502 8.84596C26.6997 8.7602 26.7317 8.66548 26.7444 8.56727C26.7571 8.46906 26.7503 8.36931 26.7242 8.27377L25.7042 4.52377C25.5808 4.08256 25.2887 3.70769 24.891 3.4803C24.4933 3.2529 24.022 3.19128 23.5792 3.30877L4.54046 8.33377C4.31887 8.3913 4.11099 8.49247 3.92897 8.63134C3.74696 8.77021 3.59448 8.94399 3.48046 9.14252C3.36695 9.33742 3.29346 9.553 3.26427 9.77664C3.23508 10.0003 3.25078 10.2275 3.31046 10.445L4.25046 13.9175C4.25046 13.945 4.25046 13.9725 4.25046 14V25C4.25046 25.4641 4.43484 25.9093 4.76302 26.2375C5.09121 26.5656 5.53633 26.75 6.00046 26.75H26.0005C26.4646 26.75 26.9097 26.5656 27.2379 26.2375C27.5661 25.9093 27.7505 25.4641 27.7505 25V14C27.7505 13.8011 27.6714 13.6103 27.5308 13.4697C27.3901 13.329 27.1994 13.25 27.0005 13.25ZM15.7192 6.93502L19.8442 9.31877L14.5405 10.7188L10.4155 8.33502L15.7192 6.93502ZM23.9692 4.75877C24.0289 4.74223 24.0926 4.74938 24.1471 4.77873C24.2016 4.80808 24.2427 4.85736 24.2617 4.91627L25.083 7.93877L21.908 8.77502L17.783 6.39127L23.9692 4.75877ZM4.77921 9.89252C4.79467 9.86569 4.81536 9.84224 4.84005 9.82356C4.86475 9.80488 4.89294 9.79135 4.92296 9.78377L8.35796 8.87502L12.483 11.26L5.58296 13.085L4.75796 10.0513C4.7506 10.0247 4.74868 9.997 4.75233 9.96972C4.75599 9.94243 4.76513 9.91617 4.77921 9.89252ZM26.2505 25C26.2505 25.0663 26.2241 25.1299 26.1772 25.1768C26.1304 25.2237 26.0668 25.25 26.0005 25.25H6.00046C5.93416 25.25 5.87057 25.2237 5.82368 25.1768C5.7768 25.1299 5.75046 25.0663 5.75046 25V14.75H26.2505V25Z"
    fill="currentColor" />
</svg>