<svg width="32" height="32" viewBox="0 0 32 32" fill="none" xmlns="http://www.w3.org/2000/svg">
  <path
    d="M26.5308 12.5298L16.5308 22.5298C16.3902 22.6703 16.1996 22.7492 16.0008 22.7492C15.8021 22.7492 15.6114 22.6703 15.4708 22.5298L5.47082 12.5298C5.33834 12.3877 5.26622 12.1996 5.26965 12.0053C5.27308 11.811 5.35179 11.6256 5.4892 11.4882C5.62661 11.3508 5.812 11.2721 6.0063 11.2687C6.2006 11.2652 6.38865 11.3374 6.53082 11.4698L16.0008 20.9386L25.4708 11.4698C25.613 11.3374 25.801 11.2652 25.9953 11.2687C26.1896 11.2721 26.375 11.3508 26.5124 11.4882C26.6499 11.6256 26.7286 11.811 26.732 12.0053C26.7354 12.1996 26.6633 12.3877 26.5308 12.5298Z"
    fill="currentColor" />
</svg>